<svg xmlns="http://www.w3.org/2000/svg">
<defs>
<font id="FixelText-Medium" horiz-adv-x="600" >
  <font-face 
    font-family="Fixel Text Medium"
    font-weight="500"
    font-stretch="semi-condensed"
    units-per-em="1000"
    panose-1="0 0 0 0 0 0 0 0 0 0"
    ascent="800"
    descent="-200"
    x-height="520"
    cap-height="700"
    bbox="-45 -207 1145 928"
    underline-thickness="50"
    underline-position="-175"
    unicode-range="U+000D-FB04"
  />
<missing-glyph horiz-adv-x="713" 
d="M198 619q-14 -1 -23 6t-10 18q-2 12 6 20t22 10q16 2 28.5 -5t14.5 -18q1 -11 -10.5 -20t-27.5 -11zM121 427q-20 -2 -36.5 8t-17.5 24q0 7 3.5 14l7.5 15t7.5 18t2.5 22t-6 21t-11 16t-11 13.5t-5 13.5q-1 13 13 25t31 14t35 -9t31 -31q8 -12 15 -18t13 -11t10.5 -10
t5.5 -15t-2.5 -16t-9 -12.5t-12 -14.5t-12.5 -22q-18 -42 -52 -45zM253 551q-17 -2 -28.5 6t-12.5 22q-2 14 8.5 23.5t27.5 11.5q19 2 34.5 -6.5t17.5 -20.5q1 -13 -13 -23.5t-34 -12.5zM260 470q-17 -2 -28 6t-12 22q-2 14 8 23t27 11q19 2 34 -6t16 -21q2 -12 -12 -22.5
t-33 -12.5zM217 401q-14 -1 -23 6t-10 19q-2 11 6.5 19t22.5 10q16 2 28.5 -5.5t13.5 -18.5t-10.5 -19.5t-27.5 -10.5zM563 245q-14 2 -22 10t-7 19q1 12 10 19t23 6q16 -2 27.5 -10.5t10.5 -19.5t-13.5 -18.5t-28.5 -5.5zM450 70q-18 2 -32 13.5t-13 24.5q0 7 5 13.5t11 14
t11 16.5t6 21t-2.5 22t-8 18t-8 15t-2.5 14q2 13 17.5 22.5t35.5 8.5q34 -1 54 -44q6 -14 12.5 -22t12 -14.5t8.5 -12.5t2 -16t-4.5 -15.5t-9.5 -11t-13.5 -11.5t-15.5 -17q-14 -19 -31.5 -30t-34.5 -9zM605 169q-17 2 -27 11t-9 23q2 14 13.5 22t28.5 6q19 -2 33.5 -12.5
t12.5 -23.5q-1 -12 -16.5 -20t-35.5 -6zM598 87q-17 2 -27 11.5t-8 23.5t12.5 22t27.5 6q19 -2 33 -12.5t13 -23.5q-2 -12 -17 -20.5t-34 -6.5zM544 27q-14 2 -22 10t-7 20t10.5 18.5t23.5 5.5q16 -2 27.5 -11t9.5 -20q-1 -11 -14 -18t-28 -5z" />
    <glyph glyph-name="arrowleft" unicode="&#x3c;&#x2d;" horiz-adv-x="659" 
d="M52 330v7l215 221l59 -58l-130 -126h421v-81h-421l130 -126l-59 -58z" />
    <glyph glyph-name="arrowup" unicode="&#x2f;&#x7c;\" horiz-adv-x="521" 
d="M257 615.003h7l221 -214.986l-58 -58.9971l-126 129.992v-420.974h-81v420.974l-126 -129.992l-58 58.9971z" />
    <glyph glyph-name="arrowright" unicode="&#x2d;&#x3e;" horiz-adv-x="659" 
d="M607.003 330v7l-214.986 221l-58.9971 -58l129.992 -126h-420.974v-81h420.974l-129.992 -126l58.9971 -58z" />
    <glyph glyph-name="arrowdown" unicode="\&#x7c;&#x2f;" horiz-adv-x="521" 
d="M257 51.0342h7l221 214.974l-58 58.9932l-126 -129.984v420.948h-81v-420.948l-126 129.984l-58 -58.9932z" />
    <glyph glyph-name="uni2646" unicode="TRIDENT" horiz-adv-x="796" 
d="M431 408q0 -34 8 -61t20 -49.5t27 -41.5t29 -38q18 8 30 17.5t12 23.5q0 19 -20 30t-55 11v11q0 60 12 110t39 92.5t69.5 80.5t102.5 74v-668h-159q-32 -74 -115 -133v-59h-66v59q-83 59 -115 133h-159v668q61 -36 103.5 -74t69.5 -80.5t39 -92.5t12 -110v-11
q-35 0 -55.5 -11t-20.5 -30q0 -14 12 -23.5t31 -17.5q14 19 29 38t27 41.5t19.5 49.5t7.5 61v320h66v-320zM639 65v475q-41 -38 -61.5 -82t-28.5 -109q34 -8 53 -30.5t19 -57.5q0 -39 -22.5 -59.5t-52.5 -34.5q8 -17 13 -37t5 -43v-11.5t-1 -10.5h76zM233 65q0 5 -0.5 10.5
t-0.5 11.5q0 23 5 43t13 37q-30 14 -52.5 34.5t-22.5 59.5q0 35 19.5 57.5t53.5 30.5q-8 65 -29 109t-62 82v-475h76zM342 190q16 -9 30.5 -20.5t25.5 -28.5q12 17 26.5 28.5t30.5 20.5q-14 19 -29 39t-28 44q-13 -25 -27.5 -44.5t-28.5 -38.5zM365 65q-5 26 -20.5 43
t-35.5 29q-5 -11 -8.5 -24t-3.5 -27q0 -5 0.5 -10.5t1.5 -10.5h66zM497 65q1 5 1.5 10.5t0.5 10.5q0 27 -11 51q-20 -12 -35.5 -29t-20.5 -43h65zM367 0h-41q26 -39 72 -75q47 36 72 75h-41v-29h-62v29z" />
    <glyph glyph-name="uniE000" unicode="&#x457;&#x457;" horiz-adv-x="508" 
d="M58 615q-23 0 -38.5 15t-15.5 39q0 23 15.5 38.5t38.5 15.5q22 0 37.5 -15.5t15.5 -38.5q0 -24 -15.5 -39t-37.5 -15zM254 615q-23 0 -38 15.5t-15 38.5t15 38.5t38 15.5t38.5 -15.5t15.5 -38.5t-15.5 -38.5t-38.5 -15.5zM451 615q-23 0 -38.5 15t-15.5 39
q0 23 15.5 38.5t38.5 15.5t38 -15.5t15 -38.5q0 -24 -15 -39t-38 -15zM78 520h99v-520h-99v520zM332 520h99v-520h-99v520z" />
    <glyph glyph-name="uniE01A" unicode="MACPAWLOGO" horiz-adv-x="739" 
d="M327 654q-7 -5 -16 -5q-12 0 -18 10q-11 20 12 33q8 5 20 5q6 0 11.5 -1.5t7.5 -6.5q5 -8 -0.5 -18.5t-16.5 -16.5zM391 620q-9 -5 -19 -5q-13 0 -21 12q-6 10 -2 20t16 17q11 7 24 7q15 0 21 -10q5 -9 -1 -21t-18 -20zM369 0q-67 0 -127 25.5t-104 70t-70 104t-26 127.5
q0 50 14.5 96t40.5 85.5t63.5 70.5t83.5 50q15 7 34 7q27 0 50 -15t34 -41t5.5 -52.5t-24.5 -45.5q-6 -6 -13 -10.5t-17 -9.5q-1 -1 -5 -3l-10 -5q-35 -18 -55 -53.5t-20 -73.5q0 -30 11.5 -57t31 -46.5t46.5 -31t57 -11.5q26 0 50 9t42.5 24.5t32 36.5t18.5 46q2 8 2 15
t1 15q3 38 26 64t64 26q38 0 64.5 -26t26.5 -64q0 -68 -26 -127.5t-70 -104t-103.5 -70t-127.5 -25.5zM425 561q-10 -6 -19 -6q-13 0 -21 12q-6 11 -2 21t16 17q11 6 23 6q16 0 22 -9q5 -9 -1 -21.5t-18 -19.5zM419 495q-7 -5 -17 -5q-12 0 -18 10q-5 9 -1.5 18t14.5 15
q8 5 20 5q14 0 18 -8q5 -8 0 -18.5t-16 -16.5z" />
    <glyph glyph-name="f_f" unicode="ff" horiz-adv-x="620" 
d="M87 434h-62v66q13 5 29.5 9.5t32.5 6.5v38q0 78 37 121t102 43q23 0 51 -5t48 -16v-82q-19 8 -37 12.5t-38 4.5q-34 0 -50.5 -18.5t-16.5 -64.5v-31h180v36q0 78 37 121t102 43q23 0 51 -5t48 -16v-82q-39 17 -74 17q-34 0 -51 -18.5t-17 -64.5v-31h136v-84h-133v-434
h-99v434h-177v-434h-99v434z" />
    <glyph glyph-name="fi" unicode="fi" horiz-adv-x="540" 
d="M413 611q-27 0 -44 16t-17 42q0 25 17 42t44 17q26 0 43.5 -17t17.5 -42q0 -26 -17.5 -42t-43.5 -16zM87 434h-62v66q13 5 29.5 9.5t32.5 6.5v38q0 78 37 121t102 43q23 0 51 -5t48 -16v-82q-19 8 -37 12.5t-38 4.5q-34 0 -50.5 -19t-16.5 -65v-30h240v-2h40v-516h-99
v434h-178v-434h-99v434z" />
    <glyph glyph-name="fl" unicode="fl" horiz-adv-x="542" 
d="M365 603q-18 11 -47 20t-61 9q-35 0 -52.5 -18.5t-17.5 -65.5v-30h131v-84h-129v-434h-99v434h-61v66q13 5 29.5 9.5t31.5 6.5v38q0 78 40 121t112 43q32 0 63.5 -6t60 -15t53.5 -20t45 -22v-655h-99v603z" />
    <glyph glyph-name="f_f_i" unicode="ffi" horiz-adv-x="816" 
d="M688 611q-26 0 -43 16t-17 42q0 25 17 42t43 17q27 0 44.5 -17t17.5 -42q0 -26 -17.5 -42t-44.5 -16zM639 434h-177v-434h-99v434h-177v-434h-99v434h-62v66q13 5 29.5 9.5t32.5 6.5v38q0 78 37 121t102 43q23 0 51 -5t48 -16v-82q-19 8 -37 12.5t-38 4.5
q-34 0 -50.5 -18.5t-16.5 -64.5v-31h180v36q0 78 37 121t102 43q23 0 50.5 -5t47.5 -16v-82q-19 8 -36.5 12.5t-36.5 4.5q-34 0 -51 -18.5t-17 -64.5v-31h279v-518h-99v434z" />
    <glyph glyph-name="f_f_l" unicode="ffl" horiz-adv-x="814" 
d="M87 434h-62v66q13 5 29.5 9.5t32.5 6.5v38q0 78 37 121t102 43q23 0 51 -5t48 -16v-82q-19 8 -37 12.5t-38 4.5q-34 0 -50.5 -18.5t-16.5 -64.5v-31h180v36q0 78 40 121t111 43q32 0 63.5 -6t60.5 -15t54 -20t45 -22v-655h-99v603q-19 11 -48 20t-61 9q-35 0 -52.5 -18.5
t-17.5 -65.5v-30h132v-84h-129v-434h-99v434h-177v-434h-99v434z" />
    <glyph glyph-name=".notdef" horiz-adv-x="713" 
d="M198 619q-14 -1 -23 6t-10 18q-2 12 6 20t22 10q16 2 28.5 -5t14.5 -18q1 -11 -10.5 -20t-27.5 -11zM121 427q-20 -2 -36.5 8t-17.5 24q0 7 3.5 14l7.5 15t7.5 18t2.5 22t-6 21t-11 16t-11 13.5t-5 13.5q-1 13 13 25t31 14t35 -9t31 -31q8 -12 15 -18t13 -11t10.5 -10
t5.5 -15t-2.5 -16t-9 -12.5t-12 -14.5t-12.5 -22q-18 -42 -52 -45zM253 551q-17 -2 -28.5 6t-12.5 22q-2 14 8.5 23.5t27.5 11.5q19 2 34.5 -6.5t17.5 -20.5q1 -13 -13 -23.5t-34 -12.5zM260 470q-17 -2 -28 6t-12 22q-2 14 8 23t27 11q19 2 34 -6t16 -21q2 -12 -12 -22.5
t-33 -12.5zM217 401q-14 -1 -23 6t-10 19q-2 11 6.5 19t22.5 10q16 2 28.5 -5.5t13.5 -18.5t-10.5 -19.5t-27.5 -10.5zM563 245q-14 2 -22 10t-7 19q1 12 10 19t23 6q16 -2 27.5 -10.5t10.5 -19.5t-13.5 -18.5t-28.5 -5.5zM450 70q-18 2 -32 13.5t-13 24.5q0 7 5 13.5t11 14
t11 16.5t6 21t-2.5 22t-8 18t-8 15t-2.5 14q2 13 17.5 22.5t35.5 8.5q34 -1 54 -44q6 -14 12.5 -22t12 -14.5t8.5 -12.5t2 -16t-4.5 -15.5t-9.5 -11t-13.5 -11.5t-15.5 -17q-14 -19 -31.5 -30t-34.5 -9zM605 169q-17 2 -27 11t-9 23q2 14 13.5 22t28.5 6q19 -2 33.5 -12.5
t12.5 -23.5q-1 -12 -16.5 -20t-35.5 -6zM598 87q-17 2 -27 11.5t-8 23.5t12.5 22t27.5 6q19 -2 33 -12.5t13 -23.5q-2 -12 -17 -20.5t-34 -6.5zM544 27q-14 2 -22 10t-7 20t10.5 18.5t23.5 5.5q16 -2 27.5 -11t9.5 -20q-1 -11 -14 -18t-28 -5z" />
    <glyph glyph-name=".null" horiz-adv-x="0" 
 />
    <glyph glyph-name=".null" horiz-adv-x="0" 
 />
    <glyph glyph-name="uni000D" unicode="&#xd;" horiz-adv-x="250" 
 />
    <glyph glyph-name="space" unicode=" " horiz-adv-x="273" 
 />
    <glyph glyph-name="exclam" unicode="!" horiz-adv-x="272" 
d="M81 460v240h110v-240l-12 -254h-85zM136 -10q-28 0 -47.5 18.5t-19.5 44.5v4q0 26 19.5 44t47.5 18q27 0 47 -18t20 -44v-4q0 -26 -20 -44.5t-47 -18.5z" />
    <glyph glyph-name="quotedbl" unicode="&#x22;" horiz-adv-x="346" 
d="M46 589v111h93v-111l-12 -154h-69zM208 589v111h93v-111l-12 -154h-69z" />
    <glyph glyph-name="numbersign" unicode="#" horiz-adv-x="789" 
d="M147 177h-117v92h146l55 172h-117v92h146l53 167h107l-53 -167h168l53 167h107l-53 -167h117v-92h-147l-54 -172h117v-92h-146l-57 -177h-107l57 177h-169l-56 -177h-107zM451 269l54 172h-168l-54 -172h168z" />
    <glyph glyph-name="dollar" unicode="$" horiz-adv-x="577" 
d="M241 23q-62 8 -115.5 31.5t-91.5 61.5l57 80q37 -37 93.5 -58.5t116.5 -21.5q61 0 96.5 21.5t35.5 59.5q0 26 -12.5 43.5t-34.5 30t-51.5 22.5t-63.5 19q-59 17 -100.5 35t-67.5 40.5t-38 50t-12 61.5q0 35 13 64.5t36.5 53t56 39t72.5 21.5v98h91v-96q57 -6 106 -26.5
t86 -53.5l-52 -80q-35 30 -85 48t-102 18q-54 0 -85.5 -22t-31.5 -57t36 -57t118 -45q63 -18 106.5 -37.5t71 -43t40 -52t12.5 -64.5q0 -38 -15.5 -70.5t-43 -57t-66 -40t-85.5 -19.5v-95h-91v98z" />
    <glyph glyph-name="percent" unicode="%" horiz-adv-x="813" 
d="M202 336q-36 0 -65 13t-49.5 36t-32 56t-11.5 72v18q0 39 11.5 72t32 56t49.5 36t65 13h7q36 0 65 -13t49.5 -36t32 -56t11.5 -72v-18q0 -39 -11.5 -72t-32 -56t-49.5 -36t-65 -13h-7zM612 701h117l-528 -701h-117zM207 419q33 0 53 26t20 70v14q0 44 -20 70t-53 26h-3
q-33 0 -53 -26t-20 -70v-14q0 -44 20 -70t53 -26h3zM603 -8q-35 0 -64 13t-49.5 36t-32 56t-11.5 72v18q0 39 11.5 72t32 56t49.5 36t64 13h8q35 0 64 -13t50 -36t32.5 -56t11.5 -72v-18q0 -39 -11.5 -72t-32.5 -56t-50 -36t-64 -13h-8zM608 75q33 0 53.5 26t20.5 70v14
q0 44 -20.5 70t-53.5 26h-2q-33 0 -53.5 -26t-20.5 -70v-14q0 -44 20.5 -70t53.5 -26h2z" />
    <glyph glyph-name="ampersand" unicode="&#x26;" horiz-adv-x="725" 
d="M290 -9q-55 0 -99.5 13.5t-75.5 39t-48 61.5t-17 81q0 35 11.5 66.5t32 58t48 47t58.5 33.5q-23 27 -38 46t-23.5 36t-12 33.5t-3.5 37.5q0 38 13.5 68.5t38.5 52t60 33.5t77 12q41 0 74.5 -11t57 -31.5t36.5 -49.5t13 -65q0 -56 -40 -105.5t-105 -78.5l148 -169
q14 28 24 64t10 74v38h92v-58q0 -50 -16.5 -102t-40.5 -87l113 -129h-131l-52 58q-42 -31 -93 -49t-112 -18zM294 431q29 16 48.5 30t31.5 27.5t17 28t5 31.5q0 34 -22 54t-60 20q-41 0 -65.5 -21t-24.5 -53q0 -31 20.5 -58t49.5 -59zM259 325q-108 -41 -108 -132
q0 -53 37.5 -83t104.5 -30q42 0 77 12t64 34z" />
    <glyph glyph-name="quotesingle" unicode="'" horiz-adv-x="190" 
d="M48 589v111h93v-111l-12 -154h-69z" />
    <glyph glyph-name="parenleft" unicode="(" horiz-adv-x="292" 
d="M202 -171q-34 44 -60.5 97t-45 111t-28.5 119t-10 120q0 60 10 121t28.5 119.5t45.5 112t60 98.5l66 -37q-51 -90 -77 -196t-26 -217q0 -110 26 -216t77 -196z" />
    <glyph glyph-name="parenright" unicode=")" horiz-adv-x="292" 
d="M24 -135q51 90 77 196t26 216q0 111 -26 217t-77 196l66 37q33 -45 60 -98.5t45.5 -112t28.5 -119.5t10 -121q0 -59 -10 -120t-28.5 -119t-45 -111t-60.5 -97z" />
    <glyph glyph-name="asterisk" unicode="*" horiz-adv-x="450" 
d="M189 425l4 28l-23 -18l-90 -52l-37 63l91 53l27 10l-27 10l-91 53l37 63l90 -52l23 -19l-5 29v105h73v-104l-4 -30l23 19l90 52l37 -63l-90 -52l-28 -11l28 -11l90 -52l-37 -63l-90 52l-23 19l4 -30l1 -104h-73v105z" />
    <glyph glyph-name="plus" unicode="+" horiz-adv-x="591" 
d="M252 282h-204v86h204v212h87v-212h204v-86h-204v-212h-87v212z" />
    <glyph glyph-name="comma" unicode="," horiz-adv-x="236" 
d="M84 121h109l-91 -248h-81z" />
    <glyph glyph-name="hyphen" unicode="-" horiz-adv-x="450" 
d="M65 336h320v-86h-320v86z" />
    <glyph glyph-name="period" unicode="." horiz-adv-x="224" 
d="M112 -10q-28 0 -47.5 18.5t-19.5 44.5v4q0 26 19.5 44t47.5 18q27 0 47 -18t20 -44v-4q0 -26 -20 -44.5t-47 -18.5z" />
    <glyph glyph-name="slash" unicode="/" horiz-adv-x="316" 
d="M190 720h98l-163 -831h-97z" />
    <glyph glyph-name="zero" unicode="0" horiz-adv-x="625" 
d="M312 -10q-61 0 -111 25.5t-84.5 72t-53.5 113.5t-19 149q0 83 19 149.5t53.5 113t84.5 72t111 25.5q62 0 111.5 -25.5t84.5 -72t54 -113t19 -149.5q0 -82 -19 -149t-54 -113.5t-84.5 -72t-111.5 -25.5zM312 87q78 0 120 68.5t42 194.5t-42 194.5t-120 68.5t-119.5 -68.5
t-41.5 -194.5t41.5 -194.5t119.5 -68.5z" />
    <glyph glyph-name="one" unicode="1" horiz-adv-x="391" 
d="M300 700v-700h-103v511q-32 -30 -76.5 -46t-92.5 -16v88q37 2 68.5 14.5t55 34.5t36.5 51t13 63h99z" />
    <glyph glyph-name="two" unicode="2" horiz-adv-x="546" 
d="M38 88q30 20 68 46.5t77 58.5t76 68.5t66 75t46.5 78.5t17.5 79q0 54 -32 87t-86 33t-90.5 -36.5t-50.5 -109.5l-97 25q16 103 79.5 160.5t159.5 57.5q48 0 89 -15t70.5 -42.5t46 -66t16.5 -85.5q0 -63 -28.5 -121.5t-72 -111t-96 -97t-100.5 -78.5h316v-94h-475v88z" />
    <glyph glyph-name="three" unicode="3" horiz-adv-x="591" 
d="M282 -9q-45 0 -85.5 11.5t-73 33t-55.5 52.5t-34 71l95 26q39 -98 155 -98q70 0 110 40.5t40 107.5q0 63 -36 97.5t-102 34.5q-27 0 -52 -6t-45 -18l-36 64l211 198h-306v95h434v-86l-180 -168h13q44 0 81.5 -15t65 -43t43 -68t15.5 -89q0 -55 -19 -99t-53.5 -75.5
t-81.5 -48.5t-104 -17z" />
    <glyph glyph-name="four" unicode="4" horiz-adv-x="575" 
d="M354 138h-336v87l286 475h151v-471h93v-91h-93v-138h-101v138zM354 229v374h-8l-221 -365v-9h229z" />
    <glyph glyph-name="five" unicode="5" horiz-adv-x="577" 
d="M287 -9q-45 0 -85.5 11t-73 32.5t-55.5 53t-35 71.5l97 26q19 -50 58.5 -74t94.5 -24q75 0 113 40t38 106t-36.5 101t-99.5 35q-45 0 -82.5 -17t-66.5 -47l-86 26l39 369h391v-95h-307l-22 -198q33 24 71.5 37t83.5 13q50 0 90.5 -15t69.5 -43.5t44.5 -69.5t15.5 -92
q0 -54 -18 -99.5t-52 -78t-81 -50.5t-106 -18z" />
    <glyph glyph-name="six" unicode="6" horiz-adv-x="613" 
d="M451 519q-37 97 -131 97q-52 0 -85.5 -25t-53 -63.5t-27 -84.5t-7.5 -88q32 51 84 75.5t109 24.5q45 0 86.5 -15t73.5 -43.5t51 -70.5t19 -97q0 -53 -18.5 -97t-52.5 -75.5t-81 -49t-104 -17.5q-130 0 -200 90t-70 261q0 87 18.5 155.5t54 116t86 72.5t114.5 25
q85 0 145.5 -43.5t85.5 -121.5zM157 229q30 -143 155 -143q69 0 111 40.5t42 105.5q0 63 -38 99t-101 36q-27 0 -54.5 -7.5t-50.5 -21.5t-39.5 -35t-23.5 -48q-1 -6 -1 -12.5v-13.5z" />
    <glyph glyph-name="seven" unicode="7" horiz-adv-x="482" 
d="M352 595v9h-333v96h445v-85l-262 -615h-115z" />
    <glyph glyph-name="eight" unicode="8" horiz-adv-x="601" 
d="M301 -9q-60 0 -107.5 14.5t-81.5 40.5t-52 64t-18 84q0 64 34 110t96 69q-48 23 -74.5 62.5t-26.5 93.5q0 42 16 75.5t46 57t72.5 36t95.5 12.5t95 -12.5t72 -36t46 -57t16 -75.5q0 -54 -26.5 -93.5t-74.5 -62.5q62 -23 96 -69t34 -110q0 -46 -18 -84t-51.5 -64
t-81.5 -40.5t-107 -14.5zM301 412q60 0 93.5 27t33.5 75q0 49 -33.5 75.5t-93.5 26.5q-61 0 -94 -26.5t-33 -75.5q0 -48 33 -75t94 -27zM301 87q74 0 114 30.5t40 87.5t-40 88t-114 31q-75 0 -115.5 -31t-40.5 -88t40.5 -87.5t115.5 -30.5z" />
    <glyph glyph-name="nine" unicode="9" horiz-adv-x="613" 
d="M162.027 181.031q36.998 -96.9941 130.992 -96.9941q51.9971 0 85.4951 24.999q33.498 24.998 52.9961 63.4961q19.499 38.498 26.999 84.4951q7.49902 45.9971 7.49902 87.9941q-31.998 -50.9971 -83.9951 -75.4951q-51.9961 -24.499 -108.993 -24.499
q-44.9971 0 -86.4941 15q-41.498 14.999 -73.4961 43.4971t-50.9971 70.4951q-18.998 41.998 -18.998 96.9941q0 52.9971 18.498 96.9941q18.499 43.998 52.4971 75.4961t80.9951 48.9961q46.9971 17.499 103.994 17.499q129.992 0 199.987 -89.9941
q69.9961 -89.9941 69.9961 -260.984q0 -86.9941 -18.499 -155.49t-53.9971 -115.993q-35.4971 -47.4971 -85.9941 -72.4951q-50.4971 -24.999 -114.493 -24.999q-84.9951 0 -145.491 43.498q-60.4961 43.4971 -85.4951 121.492zM456.01 471.014
q-29.998 142.991 -154.99 142.991q-68.9961 0 -110.994 -40.4971q-41.9971 -40.498 -41.9971 -105.494q0 -62.9961 37.998 -98.9932q37.9971 -35.998 100.993 -35.998q26.999 0 54.4971 7.49902q27.498 7.5 50.4971 21.499q22.998 13.999 39.4971 34.998t23.499 47.9971
q1 6 1 12.499v13.499z" />
    <glyph glyph-name="colon" unicode=":" horiz-adv-x="224" 
d="M112 -10q-28 0 -47.5 18.5t-19.5 44.5v4q0 26 19.5 44t47.5 18q27 0 47 -18t20 -44v-4q0 -26 -20 -44.5t-47 -18.5zM112 325q-28 0 -47.5 18.5t-19.5 44.5v4q0 26 19.5 44t47.5 18q27 0 47 -18t20 -44v-4q0 -26 -20 -44.5t-47 -18.5z" />
    <glyph glyph-name="semicolon" unicode=";" horiz-adv-x="239" 
d="M126 326q-28 0 -47 18.5t-19 44.5v4q0 25 19 43t47 18t48 -18t20 -43v-4q0 -26 -20 -44.5t-48 -18.5zM84 121h109l-91 -248h-81z" />
    <glyph glyph-name="less" unicode="&#x3c;" horiz-adv-x="565" 
d="M46 285v80l450 222v-99l-345 -164l345 -164v-98z" />
    <glyph glyph-name="equal" unicode="=" horiz-adv-x="571" 
d="M53 449h465v-82h-465v82zM53 284h465v-82h-465v82z" />
    <glyph glyph-name="greater" unicode="&#x3e;" horiz-adv-x="565" 
d="M69 160l345 164l-345 164v99l450 -222v-80l-450 -223v98z" />
    <glyph glyph-name="question" unicode="?" horiz-adv-x="507" 
d="M201 206q-1 4 -1 10.5v11.5q0 36 8.5 64t22 50t32 40t37.5 34q31 26 55 52.5t24 67.5q0 46 -32 68.5t-82 22.5q-30 0 -55 -9.5t-44 -25.5t-30.5 -38t-14.5 -47l-95 15q5 42 25.5 78t52.5 62.5t75.5 42t94.5 15.5q45 0 83.5 -12.5t66.5 -35.5t44 -55.5t16 -71.5
q0 -28 -6.5 -50.5t-18.5 -42t-29.5 -37t-40.5 -36.5q-21 -17 -38 -33t-29.5 -34t-19.5 -39.5t-7 -49.5v-17h-94zM250 -10q-28 0 -47 18.5t-19 44.5v4q0 26 19 44t47 18t48 -18t20 -44v-4q0 -26 -20 -44.5t-48 -18.5z" />
    <glyph glyph-name="at" unicode="@" horiz-adv-x="992" 
d="M496 -190q-95 0 -177.5 35.5t-144 96.5t-97 143t-35.5 176q0 95 36 177t98.5 143t147 95.5t181.5 34.5q96 0 177 -34t140.5 -93.5t93 -141t33.5 -176.5q0 -58 -13 -104.5t-37 -79.5t-58 -50.5t-76 -17.5q-48 0 -81 22t-49 61q-29 -39 -70.5 -61t-92.5 -22h-4
q-45 0 -83 17t-65.5 47.5t-43 73t-15.5 92.5v24q0 50 15.5 92.5t43 73.5t65.5 48t83 17h3q48 0 88 -19t68 -54q4 17 7.5 34t8.5 31h71v-307q0 -37 12.5 -61.5t44.5 -24.5q42 0 66.5 44t24.5 120q0 79 -26.5 145.5t-74 114.5t-112.5 75t-143 27q-79 0 -147.5 -28t-119 -76.5
t-79.5 -115t-29 -143.5q0 -76 28.5 -142t78 -115t116 -77.5t143.5 -28.5q116 0 208 63l41 -77q-55 -36 -118.5 -55t-131.5 -19zM488 98q56 0 90.5 41t34.5 107v20q0 66 -35 107t-91 41h-1q-28 0 -51.5 -11t-40.5 -30.5t-26.5 -46.5t-9.5 -60v-20q0 -33 9.5 -60t27 -46.5
t41 -30.5t50.5 -11h2z" />
    <glyph glyph-name="A" unicode="A" horiz-adv-x="627" 
d="M242 700h144l241 -700h-114l-60 183h-278l-60 -183h-114zM425 275l-108 324h-6l-107 -324h221z" />
    <glyph glyph-name="B" unicode="B" horiz-adv-x="632" 
d="M91 700h222q52 0 94.5 -12t73 -34.5t47 -54.5t16.5 -72v-11q0 -91 -80 -143q57 -25 87 -68t30 -101v-11q0 -45 -17 -80.5t-47.5 -60.5t-74.5 -38.5t-98 -13.5h-253v700zM316 401q58 0 90 26.5t32 73.5v9q0 45 -31.5 70.5t-90.5 25.5h-122v-205h122zM339 95q63 0 99 26.5
t36 77.5v10q0 50 -36.5 77.5t-99.5 27.5h-144v-219h145z" />
    <glyph glyph-name="C" unicode="C" horiz-adv-x="662" 
d="M367 -9q-73 0 -133 25t-102.5 71t-65.5 110.5t-23 143.5v19q0 78 24 142t66.5 110.5t101.5 72t129 25.5h9q41 0 79 -10.5t72 -30t62 -47t48 -62.5l-85 -57q-27 51 -71 80t-105 29h-8q-48 0 -87 -18t-66.5 -51t-43 -79.5t-15.5 -103.5v-20q0 -57 15.5 -103.5t43.5 -79
t67.5 -50.5t87.5 -18h10q60 0 104.5 29.5t72.5 79.5l81 -58q-40 -71 -108 -110t-152 -39h-8z" />
    <glyph glyph-name="D" unicode="D" horiz-adv-x="697" 
d="M91 700h208q80 0 145.5 -24t112 -67.5t72 -105t25.5 -136.5v-20q0 -78 -25.5 -142t-72 -109.5t-112 -70.5t-145.5 -25h-208v700zM300 96q57 0 102 17.5t76.5 50t48 79.5t16.5 106v19q0 110 -64 173t-179 63h-104v-508h104z" />
    <glyph glyph-name="E" unicode="E" horiz-adv-x="559" 
d="M91 700h401v-96h-295v-201h275v-93h-275v-214h305v-96h-411v700z" />
    <glyph glyph-name="F" unicode="F" horiz-adv-x="522" 
d="M91 700h383v-96h-277v-218h257v-93h-257v-293h-106v700z" />
    <glyph glyph-name="G" unicode="G" horiz-adv-x="718" 
d="M357 -9q-72 0 -130 25t-99 71t-63 110.5t-22 143.5v18q0 78 23.5 143t66.5 111t102 71.5t130 25.5h11q81 0 151 -40.5t111 -111.5l-87 -55q-28 52 -72 81t-104 29h-9q-48 0 -87.5 -18t-67.5 -51.5t-43 -80t-15 -103.5v-20q0 -57 15.5 -103.5t43.5 -79.5t68.5 -51
t89.5 -18h9q39 0 72.5 12.5t57.5 35t37.5 53t13.5 66.5v17h-170v93h270v-365h-78q-6 13 -10.5 35.5t-6.5 43.5q-30 -39 -84.5 -63.5t-115.5 -24.5h-8z" />
    <glyph glyph-name="H" unicode="H" horiz-adv-x="696" 
d="M91 700h105v-294h303v294h105v-700h-105v310h-303v-310h-105v700z" />
    <glyph glyph-name="I" unicode="I" horiz-adv-x="288" 
d="M91 700h106v-700h-106v700z" />
    <glyph glyph-name="J" unicode="J" horiz-adv-x="396" 
d="M130 -7q-52 0 -93 19v101q14 -10 32.5 -16.5t41.5 -6.5q52 0 75 29.5t23 80.5v500h105v-505q0 -94 -46 -148t-138 -54z" />
    <glyph glyph-name="K" unicode="K" horiz-adv-x="631" 
d="M91 700h106v-305h5l268 305h128l-293 -322l322 -378h-136l-289 345h-5v-345h-106v700z" />
    <glyph glyph-name="L" unicode="L" horiz-adv-x="509" 
d="M91 700h106v-604h276v-96h-382v700z" />
    <glyph glyph-name="M" unicode="M" horiz-adv-x="856" 
d="M91 700h154l180 -466h5l180 466h155v-700h-104v571h-6l-183 -473h-88l-183 473h-6v-571h-104v700z" />
    <glyph glyph-name="N" unicode="N" horiz-adv-x="708" 
d="M91 700h120l298 -531h5v531h103v-700h-109l-306 544h-7v-544h-104v700z" />
    <glyph glyph-name="O" unicode="O" horiz-adv-x="750" 
d="M43 360q0 80 24 144.5t67.5 110.5t103.5 71t132 25h11q71 0 131 -25t103.5 -71t68 -110.5t24.5 -144.5v-20q0 -79 -24.5 -144t-68 -111t-103.5 -71t-131 -25h-11q-71 0 -131 25t-103.5 71t-68 111t-24.5 144v20zM153 340q0 -58 16.5 -104.5t45.5 -79.5t69 -51t87 -18h9
q47 0 86.5 18t69 51t46 79.5t16.5 104.5v20q0 58 -16.5 104.5t-46 79.5t-69 51t-86.5 18h-9q-47 0 -87 -18t-69 -51t-45.5 -79.5t-16.5 -104.5v-20z" />
    <glyph glyph-name="P" unicode="P" horiz-adv-x="598" 
d="M91 700h221q55 0 100 -15t77.5 -43.5t50 -68.5t17.5 -91v-15q0 -51 -17.5 -92t-49 -69.5t-76.5 -44t-100 -15.5h-117v-246h-106v700zM306 337q68 0 106 33.5t38 94.5v15q0 60 -38 92.5t-105 32.5h-112v-268h111z" />
    <glyph glyph-name="Q" unicode="Q" horiz-adv-x="750" 
d="M550 -152q-20 -5 -45.5 -7.5t-45.5 -2.5q-140 0 -140 141v14q-61 8 -112 36.5t-87.5 73.5t-57 105t-20.5 132v20q0 80 24.5 144.5t68 110.5t103.5 71t131 25h11q72 0 132 -25t103.5 -71t68 -110.5t24.5 -144.5v-20q0 -75 -21.5 -137t-60.5 -107.5t-93 -72.5t-119 -32v-11
q3 -56 61 -56q15 0 37 2.5t38 6.5v-85zM152 340q0 -58 16.5 -104.5t46 -79.5t69.5 -51t86 -18h10q47 0 86.5 18t69 51t46 79.5t16.5 104.5v20q0 58 -16.5 104.5t-46 79.5t-69 51t-86.5 18h-10q-46 0 -86 -18t-69.5 -51t-46 -79.5t-16.5 -104.5v-20z" />
    <glyph glyph-name="R" unicode="R" horiz-adv-x="635" 
d="M91 700h236q114 0 177.5 -56t63.5 -156v-10q0 -70 -34 -120.5t-94 -73.5l177 -284h-128l-156 263h-136v-263h-106v700zM316 353q72 0 108 32t36 90v10q0 58 -37 89.5t-107 31.5h-121v-253h121z" />
    <glyph glyph-name="S" unicode="S" horiz-adv-x="572" 
d="M293 -11q-72 0 -141 26.5t-118 73.5l62 82q39 -41 93 -61.5t108 -20.5q64 0 98 25t34 73q0 35 -18 56.5t-49 36.5t-70.5 26.5t-83.5 26.5q-32 11 -60 25t-49 36t-33 52t-12 72q0 43 16 78.5t45.5 61t71 39.5t91.5 14q67 0 127 -22.5t106 -63.5l-60 -83q-35 35 -82.5 52
t-91.5 17q-57 0 -87.5 -24.5t-30.5 -66.5q0 -27 13 -45t35.5 -31.5t53.5 -23t66 -20.5q38 -11 75.5 -26t67.5 -38t48.5 -57.5t18.5 -84.5q0 -47 -17 -85t-48.5 -64.5t-77 -41t-101.5 -14.5z" />
    <glyph glyph-name="T" unicode="T" horiz-adv-x="517" 
d="M206 604h-186v96h477v-96h-186v-604h-105v604z" />
    <glyph glyph-name="U" unicode="U" horiz-adv-x="697" 
d="M349 -10q-128 0 -197.5 67t-69.5 195v448h106v-439q0 -86 42 -128.5t119 -42.5t118.5 42.5t41.5 128.5v439h106v-448q0 -129 -69.5 -195.5t-196.5 -66.5z" />
    <glyph glyph-name="V" unicode="V" 
d="M8 700h112l176 -584h9l175 584h112l-223 -700h-138z" />
    <glyph glyph-name="W" unicode="W" horiz-adv-x="903" 
d="M25 700h109l113 -581h5l149 581h93l149 -581h6l120 581h109l-157 -700h-138l-133 515h-4l-134 -515h-138z" />
    <glyph glyph-name="X" unicode="X" horiz-adv-x="596" 
d="M226 361v4l-199 335h124l144 -257h6l148 257h119l-199 -335v-4l216 -361h-124l-160 285h-6l-162 -285h-123z" />
    <glyph glyph-name="Y" unicode="Y" horiz-adv-x="579" 
d="M237 276l-236 424h122l164 -317h6l164 317h121l-235 -424v-276h-106v276z" />
    <glyph glyph-name="Z" unicode="Z" horiz-adv-x="562" 
d="M38 82l344 517v5h-322v96h453v-82l-341 -514v-8h352v-96h-486v82z" />
    <glyph glyph-name="bracketleft" unicode="[" horiz-adv-x="320" 
d="M78 720h206v-87h-111v-701h111v-88h-206v876z" />
    <glyph glyph-name="backslash" unicode="\" horiz-adv-x="312" 
d="M29 720h93l161 -831h-92z" />
    <glyph glyph-name="bracketright" unicode="]" horiz-adv-x="319" 
d="M36 -68h109v701h-109v87h206v-876h-206v88z" />
    <glyph glyph-name="asciicircum" unicode="^" horiz-adv-x="550" 
d="M229 700h90l191 -356h-98l-128 246h-20l-127 -246h-98z" />
    <glyph glyph-name="underscore" unicode="_" horiz-adv-x="458" 
d="M9 -55h440v-79h-440v79z" />
    <glyph glyph-name="grave" unicode="`" horiz-adv-x="221" 
d="M30 726h97l56 -145h-79z" />
    <glyph glyph-name="a" unicode="a" horiz-adv-x="554" 
d="M214 -9q-38 0 -69.5 11t-54 31t-35 48.5t-12.5 63.5v8q0 85 72.5 126.5t222.5 41.5h45v29q0 42 -27.5 66.5t-79.5 24.5h-6q-39 0 -81 -14t-77 -40l-44 75q48 32 100 50t109 18h7q92 0 143.5 -47.5t51.5 -130.5v-256q0 -24 5.5 -49.5t12.5 -46.5h-97q-5 11 -8.5 28
t-5.5 34q-36 -35 -80 -53t-92 -18zM230 78q46 0 85.5 19.5t67.5 52.5v96h-32q-111 0 -161 -21t-50 -68v-5q0 -34 24.5 -54t65.5 -20z" />
    <glyph glyph-name="b" unicode="b" horiz-adv-x="620" 
d="M339 -8q-52 0 -95 19t-74 54q-2 -17 -5.5 -35t-8.5 -30h-78v720h99v-259q30 32 71 49.5t91 17.5h8q51 0 94 -18.5t73.5 -52.5t47.5 -80.5t17 -102.5v-28q0 -56 -17 -102.5t-47.5 -80.5t-73.5 -52.5t-94 -18.5h-8zM330 79q33 0 59.5 12t46 34.5t30 53.5t10.5 69v25
q0 38 -10.5 69t-30 53t-46 34t-59.5 12h-8q-33 0 -59.5 -12t-46 -34t-30 -53t-10.5 -69v-25q0 -37 10.5 -68.5t29.5 -53.5t46 -34.5t60 -12.5h8z" />
    <glyph glyph-name="c" unicode="c" horiz-adv-x="537" 
d="M289 -7q-55 0 -100.5 18.5t-78.5 52t-51 80.5t-18 103v27q0 56 18.5 102.5t51 80t77.5 52t99 18.5h8q68 0 123 -32.5t90 -92.5l-75 -47q-45 86 -137 86h-9q-66 0 -104.5 -45.5t-38.5 -123.5v-24q0 -77 40.5 -122.5t108.5 -45.5h9q85 0 132 84l76 -48q-37 -60 -91 -91.5
t-121 -31.5h-9z" />
    <glyph glyph-name="d" unicode="d" horiz-adv-x="620" 
d="M273 -8q-51 0 -94 18.5t-73.5 52.5t-47.5 80.5t-17 102.5v28q0 56 17 102.5t47.5 80.5t73.5 52.5t94 18.5h9q50 0 91 -17.5t71 -49.5v259h99v-720h-78q-5 12 -9 30t-6 35q-31 -35 -74 -54t-95 -19h-8zM298 79q33 0 60 12.5t46 34.5t29.5 53.5t10.5 68.5v25q0 38 -10.5 69
t-30 53t-46 34t-59.5 12h-8q-66 0 -105.5 -46t-39.5 -122v-25q0 -38 10.5 -69t29.5 -53.5t45.5 -34.5t59.5 -12h8z" />
    <glyph glyph-name="e" unicode="e" horiz-adv-x="565" 
d="M290 -8q-56 0 -102 18.5t-78.5 51.5t-50.5 80t-18 104v19q0 59 18 107t50.5 82.5t78.5 53.5t101 19h9q51 0 93 -17.5t72 -49t46.5 -76t16.5 -98.5v-62h-384q5 -66 46.5 -104.5t107.5 -38.5h10q50 0 85 21t57 52l64 -57q-37 -50 -91 -77.5t-120 -27.5h-11zM431 301v1
q-3 64 -40 102t-95 38h-10q-59 0 -96.5 -37.5t-45.5 -103.5h287z" />
    <glyph glyph-name="f" unicode="f" horiz-adv-x="343" 
d="M87 434h-62v66q13 5 29.5 9.5t32.5 6.5v38q0 78 37 121t102 43q23 0 51 -5t48 -16v-82q-19 8 -37 12.5t-38 4.5q-34 0 -50.5 -19t-16.5 -65v-30h136v-84h-133v-434h-99v434z" />
    <glyph glyph-name="g" unicode="g" horiz-adv-x="537" 
d="M42 346q0 40 15.5 73.5t43.5 57.5t67 37.5t86 13.5h19q59 0 106 -22q16 42 38 72h92l-62 -121q39 -47 39 -111v-13q0 -40 -16 -73.5t-44 -57.5t-67 -37.5t-86 -13.5h-12q-11 0 -21 0.5t-20 2.5v-58q12 1 24 1.5t26 0.5h14q51 0 92 -10.5t70.5 -29.5t45.5 -46.5t16 -61.5
v-9q0 -34 -16 -61t-45.5 -46.5t-71 -30t-91.5 -10.5h-25q-51 0 -92 10.5t-70.5 29.5t-45.5 46.5t-16 61.5v11q0 44 26.5 76.5t73.5 51.5v99q-44 23 -68.5 63t-24.5 91v13zM141 330q0 -45 32.5 -72.5t83.5 -27.5h13q51 0 83.5 27.5t32.5 72.5v15q0 45 -32.5 72.5t-83.5 27.5
h-13q-51 0 -83.5 -27.5t-32.5 -72.5v-15zM136 -55q0 -33 32.5 -52.5t94.5 -19.5h18q63 0 95.5 20t32.5 52v6q0 33 -33 53t-95 20h-18q-62 0 -94.5 -20t-32.5 -53v-6z" />
    <glyph glyph-name="h" unicode="h" 
d="M78 720h99v-268q33 36 78.5 56.5t99.5 20.5q85 0 131 -51t46 -145v-333h-99v314q0 124 -112 124q-66 0 -105 -40t-39 -107v-291h-99v720z" />
    <glyph glyph-name="i" unicode="i" horiz-adv-x="254" 
d="M127 611q-27 0 -44 16t-17 42q0 25 17 42t44 17q26 0 43.5 -17t17.5 -42q0 -26 -17.5 -42t-43.5 -16zM78 520h99v-520h-99v520z" />
    <glyph glyph-name="j" unicode="j" horiz-adv-x="273" 
d="M145 611q-27 0 -44.5 16t-17.5 42q0 25 17.5 42t44.5 17t44.5 -17t17.5 -42q0 -26 -17.5 -42t-44.5 -16zM56 -201q-20 0 -46 4.5t-46 13.5v85q25 -11 56 -11q38 0 56.5 17.5t18.5 67.5v544h99v-563q0 -78 -37 -118t-101 -40z" />
    <glyph glyph-name="k" unicode="k" horiz-adv-x="526" 
d="M78 720h99v-423h5l211 223h117l-234 -242l244 -278h-125l-212 252h-6v-252h-99v720z" />
    <glyph glyph-name="l" unicode="l" horiz-adv-x="254" 
d="M78 720h99v-720h-99v720z" />
    <glyph glyph-name="m" unicode="m" horiz-adv-x="883" 
d="M78 520h78q4 -12 8 -29t6 -34q29 34 68.5 53t87.5 19h6q108 0 146 -87q29 42 72.5 64.5t96.5 22.5h6q80 0 121 -48t41 -140v-341h-99v324q0 114 -92 114h-6q-55 0 -88.5 -34.5t-33.5 -101.5v-302h-99v324q0 114 -94 114h-5q-55 0 -88 -35t-33 -101v-302h-99v520z" />
    <glyph glyph-name="n" unicode="n" 
d="M78 520h78q5 -14 9 -34.5t6 -37.5q32 38 77.5 59.5t99.5 21.5h6q88 0 133 -50.5t45 -145.5v-333h-99v314q0 60 -25 92t-81 32h-7q-64 0 -103.5 -40t-39.5 -109v-289h-99v520z" />
    <glyph glyph-name="o" unicode="o" horiz-adv-x="588" 
d="M289 -8q-55 0 -100.5 18.5t-78.5 52.5t-51 80.5t-18 102.5v28q0 56 18 102.5t51 80.5t78.5 52.5t100.5 18.5h10q55 0 100.5 -18.5t78.5 -52.5t51 -80.5t18 -102.5v-28q0 -56 -18 -102.5t-51 -80.5t-78.5 -52.5t-100.5 -18.5h-10zM298 79q33 0 60 12.5t46 34.5t29.5 53.5
t10.5 68.5v25q0 38 -10.5 69t-30 53t-46 34t-59.5 12h-8q-33 0 -59.5 -12t-46 -34t-30 -53t-10.5 -69v-25q0 -37 10.5 -68.5t29.5 -53.5t46 -34.5t60 -12.5h8z" />
    <glyph glyph-name="p" unicode="p" horiz-adv-x="620" 
d="M78 520h78q5 -12 8.5 -30t5.5 -35q31 34 74 53.5t95 19.5h9q51 0 93.5 -18.5t73 -52.5t47.5 -80.5t17 -102.5v-28q0 -56 -17 -102.5t-47.5 -80.5t-73 -52.5t-93.5 -18.5h-9q-50 0 -91 17.5t-71 49.5v-259h-99v720zM330 79q33 0 59.5 12t46 34.5t30 53.5t10.5 69v25
q0 38 -10.5 69t-30 53t-46 34t-59.5 12h-8q-66 0 -105.5 -46.5t-39.5 -121.5v-25q0 -38 10.5 -69t29.5 -53.5t45.5 -34.5t59.5 -12h8z" />
    <glyph glyph-name="q" unicode="q" horiz-adv-x="620" 
d="M443 59q-30 -32 -71 -49.5t-91 -17.5h-8q-51 0 -94 18.5t-73.5 52.5t-47.5 80.5t-17 102.5v28q0 56 17 102.5t47.5 80.5t73.5 52.5t94 18.5h8q52 0 95 -19.5t74 -53.5q2 16 6 34.5t8 30.5h78v-720h-99v259zM298 79q33 0 60 12.5t46 34.5t29.5 53.5t10.5 68.5v25
q0 38 -10.5 69t-30 53t-46 34t-59.5 12h-8q-33 0 -59.5 -12t-46 -34t-30 -53t-10.5 -69v-25q0 -38 10.5 -69t30 -53.5t46 -34.5t59.5 -12h8z" />
    <glyph glyph-name="r" unicode="r" horiz-adv-x="364" 
d="M78 520h76q5 -14 9.5 -32.5t6.5 -35.5q28 32 67.5 50t87.5 18h13v-98q-7 2 -17 2.5t-18 0.5q-126 0 -126 -148v-277h-99v520z" />
    <glyph glyph-name="s" unicode="s" horiz-adv-x="480" 
d="M254 -9q-66 0 -124 20t-100 57l53 73q37 -31 81 -47t90 -16q47 0 71.5 17t24.5 50q0 21 -10.5 33.5t-29 21.5t-44 15.5t-55.5 15.5q-29 7 -58 16.5t-52 25.5t-37 40.5t-14 62.5q0 71 48.5 112t132.5 41q54 0 105 -17t90 -46l-48 -75q-32 23 -71.5 37t-79.5 14
q-39 0 -60.5 -15.5t-21.5 -44.5q0 -18 10 -30t27 -20t39.5 -13.5t46.5 -11.5q32 -8 64 -18t58 -27t42.5 -43.5t16.5 -68.5q0 -75 -52.5 -117t-142.5 -42z" />
    <glyph glyph-name="t" unicode="t" horiz-adv-x="375" 
d="M233 -4q-69 0 -105 36t-36 112v291h-69v69q15 5 33.5 9.5t35.5 6.5v120l99 13v-133h148v-85h-149v-272q0 -45 17.5 -61.5t50.5 -16.5q9 0 21 1t24.5 2.5t24 3.5t19.5 4v-82q-10 -4 -24.5 -7.5t-30 -6t-31 -3.5t-28.5 -1z" />
    <glyph glyph-name="u" unicode="u" horiz-adv-x="595" 
d="M243 -9q-87 0 -131 50.5t-44 145.5v333h99v-313q0 -61 24.5 -93t78.5 -32h6q63 0 102.5 40t39.5 110v288h99v-520h-78q-5 14 -9 34.5t-6 37.5q-32 -38 -76.5 -59.5t-98.5 -21.5h-6z" />
    <glyph glyph-name="v" unicode="v" horiz-adv-x="537" 
d="M19 520h106l139 -421h10l139 421h106l-187 -520h-127z" />
    <glyph glyph-name="w" unicode="w" horiz-adv-x="787" 
d="M25 520h102l88 -410h10l119 410h97l119 -411h10l89 411h103l-122 -520h-131l-114 388h-4l-114 -388h-130z" />
    <glyph glyph-name="x" unicode="x" horiz-adv-x="509" 
d="M192 265v4l-168 251h117l116 -186h4l111 186h114l-167 -251v-4l174 -265h-116l-120 199h-5l-122 -199h-114z" />
    <glyph glyph-name="y" unicode="y" horiz-adv-x="522" 
d="M139 -199q-18 0 -41.5 4t-43.5 15v87q36 -17 68 -17q35 0 63.5 23t46.5 65l-224 542h108l164 -417h7l129 417h102l-181 -545q-13 -39 -31 -71t-42.5 -55t-55.5 -35.5t-69 -12.5z" />
    <glyph glyph-name="z" unicode="z" horiz-adv-x="485" 
d="M31 86l290 344v5h-269v85h389v-86l-291 -344v-5h304v-85h-423v86z" />
    <glyph glyph-name="braceleft" unicode="{" horiz-adv-x="361" 
d="M226 -147q-50 0 -80 29.5t-30 80.5v214q0 65 -80 65v89q42 0 61 16.5t19 49.5v213q0 51 30 80.5t80 29.5h99v-87h-57q-27 0 -42 -14.5t-15 -41.5v-201q0 -84 -83 -84v-11q83 0 83 -84v-202q0 -27 15 -41t42 -14h57v-87h-99z" />
    <glyph glyph-name="bar" unicode="|" horiz-adv-x="258" 
d="M81 720h95v-910h-95v910z" />
    <glyph glyph-name="braceright" unicode="}" horiz-adv-x="361" 
d="M36 -60h57q27 0 42 14t15 41v202q0 84 83 84v11q-83 0 -83 84v201q0 27 -15 41.5t-42 14.5h-57v87h99q49 0 79.5 -29.5t30.5 -80.5v-213q0 -33 19 -49.5t61 -16.5v-89q-80 0 -80 -65v-214q0 -51 -30.5 -80.5t-79.5 -29.5h-99v87z" />
    <glyph glyph-name="asciitilde" unicode="~" horiz-adv-x="560" 
d="M382 257q-32 0 -59 9.5t-51.5 21t-49 21t-52.5 9.5q-49 0 -80 -43l-50 62q23 30 57.5 46.5t75.5 16.5q33 0 60.5 -9.5t52 -21t47.5 -21t48 -9.5q58 0 89 50l50 -60q-58 -72 -138 -72z" />
    <glyph glyph-name="exclamdown" unicode="&#xa1;" horiz-adv-x="272" 
d="M137 399q-28 0 -48 18t-20 44v4q0 26 20 44.5t48 18.5t47 -18.5t19 -44.5v-4q0 -26 -19 -44t-47 -18zM81 58l13 254h85l12 -254v-248h-110v248z" />
    <glyph glyph-name="cent" unicode="&#xa2;" horiz-adv-x="527" 
d="M150 -98l30 114q-65 28 -102 91t-37 151v5q0 58 16.5 106t47 82.5t73.5 54t95 20.5q2 1 7 1h12l30 117l89 -22l-30 -114q72 -29 113 -104l-73 -49q-20 40 -53.5 61t-76.5 21h-2q-33 0 -60 -12.5t-46.5 -35t-30 -55t-10.5 -71.5v-5q0 -39 11 -71.5t31 -55.5t47.5 -35.5
t61.5 -12.5h3q42 0 75.5 21t55.5 61l73 -52q-35 -58 -89.5 -89t-120.5 -31h-7h-3l-11 1l-30 -115z" />
    <glyph glyph-name="sterling" unicode="&#xa3;" horiz-adv-x="506" 
d="M34 79q11 4 23.5 7t24.5 5v217h-43v83h43v110q0 47 14.5 85.5t41 65.5t63.5 42t83 15q66 0 115.5 -33t75.5 -96l-86 -45q-26 78 -101 78q-46 0 -74.5 -29.5t-28.5 -81.5v-111h198v-83h-198v-213h309v-95h-460v79z" />
    <glyph glyph-name="currency" unicode="&#xa4;" horiz-adv-x="560" 
d="M358 185q-31 -17 -77 -17q-45 0 -80 18l-66 -66l-60 60l66 67q-19 35 -19 79q0 22 5 41t13 35l-72 72l63 63l71 -72q17 8 36.5 13t42.5 5q46 0 79 -18l65 65l60 -60l-65 -65q19 -32 19 -79t-19 -79l72 -71l-63 -62zM281 245q35 0 56 22t21 59q0 36 -21 58t-56 22
t-56.5 -22t-21.5 -58q0 -37 21.5 -59t56.5 -22z" />
    <glyph glyph-name="yen" unicode="&#xa5;" horiz-adv-x="579" 
d="M49 240h188v36l-22 40h-166v84h119l-167 300h122l164 -317h6l164 317h121l-167 -300h120v-84h-166l-22 -40v-36h188v-83h-188v-157h-106v157h-188v83z" />
    <glyph glyph-name="brokenbar" unicode="&#xa6;" horiz-adv-x="254" 
d="M81 720h91v-380h-91v380zM81 200h91v-390h-91v390z" />
    <glyph glyph-name="section" unicode="&#xa7;" horiz-adv-x="524" 
d="M254 710q60 0 107.5 -17t85.5 -48l-48 -74q-28 24 -62.5 38t-79.5 14q-43 0 -72 -22t-29 -60q0 -36 30.5 -57.5t102.5 -40.5q36 -9 71.5 -22t64 -33t46.5 -50.5t18 -75.5q0 -52 -27.5 -91.5t-75.5 -63.5q34 -20 55 -51t21 -78q0 -42 -16 -75t-43 -55t-62.5 -33.5
t-74.5 -11.5q-61 0 -110 17t-87 48l48 74q28 -24 63.5 -38t82.5 -14q44 0 74.5 21.5t30.5 59.5q0 37 -31 58.5t-103 40.5q-36 9 -71.5 22t-64 33t-46.5 50t-18 75q0 52 28 92t75 64q-33 20 -54.5 51t-21.5 78q0 42 16 75t42.5 55t61.5 33.5t73 11.5zM303 141q42 12 66.5 38
t24.5 64q0 28 -10.5 47t-29.5 32.5t-44 22.5t-54 16q-9 2 -18 5t-18 5q-42 -12 -66.5 -37.5t-24.5 -63.5q0 -28 10.5 -47t29 -32t43 -22t52.5 -17q10 -2 19.5 -5t19.5 -6z" />
    <glyph glyph-name="dieresis" unicode="&#xa8;" horiz-adv-x="394" 
d="M297 615q-24 0 -39.5 15.5t-15.5 38.5t15.5 38.5t39.5 15.5t40.5 -15.5t16.5 -38.5t-16.5 -38.5t-40.5 -15.5zM96 615q-24 0 -40 15.5t-16 38.5t16 38.5t40 15.5q23 0 39.5 -15.5t16.5 -38.5t-16.5 -38.5t-39.5 -15.5z" />
    <glyph glyph-name="copyright" unicode="&#xa9;" horiz-adv-x="805" 
d="M402 -10q-78 0 -144 27t-114 75t-75 114t-27 144q0 77 27.5 142.5t76 114t114.5 76t142 27.5q78 0 144 -27t114 -75t75 -114t27 -144t-27 -144t-75 -114t-114 -75t-144 -27zM402 78q59 0 109 20.5t86.5 56.5t57 86t20.5 109t-20.5 109t-57 86.5t-86.5 57t-109 20.5
t-109 -20.5t-86 -57t-56.5 -86.5t-20.5 -109t20.5 -109t56.5 -86t86 -56.5t109 -20.5zM401 169q-40 0 -73.5 13.5t-57 38t-36.5 58.5t-13 76q0 41 13 75t36.5 58.5t56.5 38t73 13.5q50 0 91 -20.5t64 -57.5l-68 -46q-23 45 -79 45q-45 0 -71.5 -29t-26.5 -78t26.5 -77.5
t70.5 -28.5q29 0 52.5 13t35.5 36l67 -47q-26 -39 -68 -60t-93 -21z" />
    <glyph glyph-name="ordfeminine" unicode="&#xaa;" horiz-adv-x="261" 
d="M100 449q-36 0 -58 20.5t-22 54.5v2q0 40 36 61.5t104 21.5h8q0 35 -39 35q-18 0 -36.5 -7t-34.5 -19l-27 55q53 32 105 32h1q45 0 72.5 -24t27.5 -64v-102q0 -16 2.5 -32t6.5 -30h-70q-4 11 -5 21q-15 -13 -33 -19t-38 -6zM124 509q25 0 44 17v31h-2q-74 -1 -74 -27v-1
q0 -20 32 -20zM35 397h206v-70h-206v70z" />
    <glyph glyph-name="guillemotleft" unicode="&#xab;" horiz-adv-x="596" 
d="M270 271v6l162 201h105l-161 -200v-8l161 -200h-105zM54 271v6l162 201h105l-161 -200v-8l161 -200h-105z" />
    <glyph glyph-name="registered" unicode="&#xae;" horiz-adv-x="805" 
d="M402 -10q-78 0 -144 27t-114 75t-75 114t-27 144q0 77 27.5 142.5t76 114t114.5 76t142 27.5q78 0 144 -27t114 -75t75 -114t27 -144t-27 -144t-75 -114t-114 -75t-144 -27zM402 78q59 0 109 20.5t86.5 56.5t57 86t20.5 109t-20.5 109t-57 86.5t-86.5 57t-109 20.5
t-109 -20.5t-86 -57t-56.5 -86.5t-20.5 -109t20.5 -109t56.5 -86t86 -56.5t109 -20.5zM270 531h145q57 0 90 -31.5t33 -85.5q0 -33 -13 -58t-36 -39l77 -138h-87l-64 120h-67v-120h-78v352zM405 370q50 0 50 44q0 43 -50 43h-57v-87h57z" />
    <glyph glyph-name="macron" unicode="&#xaf;" horiz-adv-x="355" 
d="M40 707h275v-78h-275v78z" />
    <glyph glyph-name="degree" unicode="&#xb0;" horiz-adv-x="390" 
d="M195 400q-69 0 -110.5 42.5t-41.5 111.5q0 70 41.5 112t110.5 42t110.5 -42t41.5 -112q0 -69 -41.5 -111.5t-110.5 -42.5zM195 478q33 0 52 20.5t19 55.5t-19 55.5t-52 20.5t-52 -20.5t-19 -55.5t19 -55.5t52 -20.5z" />
    <glyph glyph-name="plusminus" unicode="&#xb1;" horiz-adv-x="603" 
d="M258 308h-204v86h204v196h87v-196h204v-86h-204v-186h-87v186zM549 86v-86h-495v86h495z" />
    <glyph glyph-name="twosuperior" unicode="&#xb2;" horiz-adv-x="353" 
d="M26 368q45 23 83 49.5t66 54t43.5 54.5t15.5 51q0 26 -17 42t-45 16q-29 0 -50 -19.5t-25 -50.5l-76 18q8 57 50 90.5t104 33.5q63 0 100.5 -33.5t37.5 -87.5t-39 -108.5t-102 -98.5h158v-73h-304v62z" />
    <glyph glyph-name="threesuperior" unicode="&#xb3;" horiz-adv-x="353" 
d="M179 299q-57 0 -100.5 24.5t-64.5 69.5l67 36q11 -26 36.5 -41.5t58.5 -15.5q35 0 57 17t22 46q0 28 -20.5 45t-54.5 17q-33 0 -56 -13l-36 44l113 99h-161v73h267v-61l-91 -82q54 -3 86 -36t32 -87q0 -61 -42.5 -98t-112.5 -37z" />
    <glyph glyph-name="acute" unicode="&#xb4;" horiz-adv-x="222" 
d="M38 581l56 146h97l-74 -146h-79z" />
    <glyph glyph-name="paragraph" unicode="&#xb6;" horiz-adv-x="548" 
d="M267 265q-51 0 -92.5 16t-71.5 44.5t-46 69t-16 89.5t18 88.5t51 68t79 44t103 15.5h165v-91h-92v-752h-98v408z" />
    <glyph glyph-name="periodcentered" unicode="&#xb7;" horiz-adv-x="189" 
d="M94 237q-27 0 -44 16t-17 42t17 42.5t44 16.5t45 -16.5t18 -42.5t-18 -42t-45 -16z" />
    <glyph glyph-name="cedilla" unicode="&#xb8;" horiz-adv-x="212" 
d="M87 -174q-22 0 -45 6l8 58q13 -5 26 -5q16 0 24 7t8 17q0 14 -11 23t-34 9l23 60h62l-16 -34q23 -8 36 -23.5t13 -40.5q0 -14 -6.5 -27.5t-18.5 -24.5t-29.5 -18t-39.5 -7z" />
    <glyph glyph-name="onesuperior" unicode="&#xb9;" horiz-adv-x="268" 
d="M28 594q53 0 84.5 29t31.5 77h76v-394h-80v246q-23 -17 -51.5 -25.5t-60.5 -7.5v75z" />
    <glyph glyph-name="ordmasculine" unicode="&#xba;" horiz-adv-x="311" 
d="M147 436q-57 0 -92 36t-35 96v6q0 59 35 95t92 36h10q57 0 91.5 -36t34.5 -95v-6q0 -60 -34.5 -96t-91.5 -36h-10zM156 502q24 0 39.5 17.5t15.5 48.5v6q0 30 -15.5 47.5t-39.5 17.5h-5q-26 0 -42.5 -17.5t-16.5 -47.5v-6q0 -31 16.5 -48.5t42.5 -17.5h5zM38 385h229v-70
h-229v70z" />
    <glyph glyph-name="guillemotright" unicode="&#xbb;" horiz-adv-x="596" 
d="M436 270v8l-161 200h105l162 -201v-6l-162 -201h-105zM220 270v8l-161 200h105l162 -201v-6l-162 -201h-105z" />
    <glyph glyph-name="onequarter" unicode="&#xbc;" horiz-adv-x="742" 
d="M113 569q-30 -17 -68 -17h-15v68l14 1q31 2 51 20.5t20 45.5v13h78v-367h-80v236zM552 700h113l-528 -700h-113zM367 118l151 243h98v-228h46v-71h-46v-67h-79v67h-170v56zM537 133v123l-76 -123h76z" />
    <glyph glyph-name="onehalf" unicode="&#xbd;" horiz-adv-x="769" 
d="M113 569q-30 -17 -68 -17h-15v68l14 1q31 2 51 20.5t20 45.5v13h78v-367h-80v236zM552 700h113l-528 -700h-113zM429 62l6 3q25 16 54 38t54 46.5t41.5 51t16.5 52.5q0 20 -11.5 32.5t-31.5 12.5q-24 0 -36.5 -18t-17.5 -42l-2 -15l-78 19l2 12q4 23 13.5 44t26 37
t39.5 26t54 10q58 0 91 -33.5t33 -81.5q0 -27 -10.5 -53t-27.5 -49.5t-38.5 -44t-43.5 -38.5h130v-72h-264v63z" />
    <glyph glyph-name="threequarters" unicode="&#xbe;" horiz-adv-x="804" 
d="M177 329q-49 0 -87.5 23.5t-49.5 68.5l-3 11l74 19l5 -10q9 -19 22.5 -29t36.5 -10q29 0 45.5 15.5t16.5 43.5q0 51 -55 51q-17 0 -27.5 -4t-24.5 -12l-29 51l86 81h-131v72h244v-61l-74 -67q21 -3 38 -13.5t29 -26t18.5 -34.5t6.5 -39q0 -27 -9.5 -51t-28 -41.5
t-44.5 -27.5t-59 -10zM614 700h113l-528 -700h-113zM429 118l151 243h98v-228h46v-71h-46v-67h-79v67h-170v56zM599 133v123l-76 -123h76z" />
    <glyph glyph-name="questiondown" unicode="&#xbf;" horiz-adv-x="507" 
d="M257 399q-28 0 -48 18t-20 44v4q0 26 20 44.5t48 18.5q27 0 46.5 -18.5t19.5 -44.5v-4q0 -26 -19.5 -44t-46.5 -18zM233 -200q-45 0 -83.5 12.5t-66.5 36t-44 56t-16 71.5q0 56 24.5 92t70.5 73q21 17 38 32.5t29.5 33t19.5 39t7 49.5v17h94q1 -4 1 -11v-12
q0 -36 -8.5 -63t-22.5 -48.5t-32 -39t-38 -34.5q-31 -25 -54.5 -51.5t-23.5 -67.5q0 -47 31.5 -69t81.5 -22q30 0 55 9.5t44 25.5t30.5 38t15.5 47l94 -15q-5 -42 -25 -78t-52.5 -63t-75.5 -42.5t-94 -15.5z" />
    <glyph glyph-name="Agrave" unicode="&#xc0;" horiz-adv-x="627" 
d="M242 700h144l241 -700h-114l-60 183h-278l-60 -183h-114zM425 275l-108 324h-6l-107 -324h221zM199 903h102l50 -141h-83z" />
    <glyph glyph-name="Aacute" unicode="&#xc1;" horiz-adv-x="627" 
d="M242 700h144l241 -700h-114l-60 183h-278l-60 -183h-114zM425 275l-108 324h-6l-107 -324h221zM352 765h-79l49 141h100z" />
    <glyph glyph-name="Acircumflex" unicode="&#xc2;" horiz-adv-x="627" 
d="M242 700h144l241 -700h-114l-60 183h-278l-60 -183h-114zM425 275l-108 324h-6l-107 -324h221zM255 900h118l123 -123h-106l-67 61h-18l-67 -61h-106z" />
    <glyph glyph-name="Atilde" unicode="&#xc3;" horiz-adv-x="627" 
d="M242 700h144l241 -700h-114l-60 183h-278l-60 -183h-114zM425 275l-108 324h-6l-107 -324h221zM125 838q20 31 49 47.5t63 16.5q23 0 43.5 -7t43.5 -18q18 -8 35.5 -15t37.5 -7q22 0 39 9.5t27 26.5l38 -50q-20 -31 -48.5 -47.5t-60.5 -16.5q-22 0 -43 7t-45 18
q-19 9 -37 15.5t-36 6.5q-23 0 -41 -10t-29 -27z" />
    <glyph glyph-name="Adieresis" unicode="&#xc4;" horiz-adv-x="624" 
d="M218 769q-23 0 -39 15t-16 38t16 39t39 16q24 0 40.5 -16t16.5 -39t-16.5 -38t-40.5 -15zM404 769q-24 0 -40 15t-16 38t16 39t40 16t40 -16t16 -39t-16 -38t-40 -15zM240 700h144l241 -700h-114l-60 183h-278l-60 -183h-114zM423 275l-108 324h-6l-107 -324h221z" />
    <glyph glyph-name="Aring" unicode="&#xc5;" horiz-adv-x="627" 
d="M242 700h144l241 -700h-114l-60 183h-278l-60 -183h-114zM425 275l-108 324h-6l-107 -324h221zM313 750q-42 0 -68 25t-26 63q0 39 26 64.5t68 25.5q41 0 68 -26t27 -64t-26.5 -63t-68.5 -25zM313 799q17 0 28.5 11t11.5 28t-11.5 29t-28.5 12q-18 0 -29 -12t-11 -29
t11 -28t29 -11z" />
    <glyph glyph-name="AE" unicode="&#xc6;" horiz-adv-x="821" 
d="M258 700h495v-96h-278v-201h258v-93h-258v-214h288v-96h-390v183h-192l-66 -183h-115zM373 275v329h-44l-117 -329h161z" />
    <glyph glyph-name="Ccedilla" unicode="&#xc7;" horiz-adv-x="662" 
d="M367 -9q-73 0 -133 25t-102.5 71t-65.5 110.5t-23 143.5v19q0 78 24 142t66.5 110.5t101.5 72t129 25.5h9q41 0 79 -10.5t72 -30t62 -47t48 -62.5l-85 -57q-27 51 -71 80t-105 29h-8q-48 0 -87 -18t-66.5 -51t-43 -79.5t-15.5 -103.5v-20q0 -57 15.5 -103.5t43.5 -79
t67.5 -50.5t87.5 -18h10q60 0 104.5 29.5t72.5 79.5l81 -58q-40 -71 -108 -110t-152 -39h-8zM329 -174q-22 0 -45 6l8 58q13 -5 26 -5q16 0 24 7t8 17q0 14 -11 23t-34 9l23 60h62l-16 -34q23 -8 36 -23.5t13 -40.5q0 -14 -6.5 -27.5t-18.5 -24.5t-29.5 -18t-39.5 -7z" />
    <glyph glyph-name="Egrave" unicode="&#xc8;" horiz-adv-x="559" 
d="M91 700h401v-96h-295v-201h275v-93h-275v-214h305v-96h-411v700zM183 903h102l50 -141h-83z" />
    <glyph glyph-name="Eacute" unicode="&#xc9;" horiz-adv-x="559" 
d="M91 700h401v-96h-295v-201h275v-93h-275v-214h305v-96h-411v700zM335 765h-79l49 141h100z" />
    <glyph glyph-name="Ecircumflex" unicode="&#xca;" horiz-adv-x="559" 
d="M91 700h401v-96h-295v-201h275v-93h-275v-214h305v-96h-411v700zM238 900h118l123 -123h-106l-67 61h-18l-67 -61h-106z" />
    <glyph glyph-name="Edieresis" unicode="&#xcb;" horiz-adv-x="559" 
d="M91 700h401v-96h-295v-201h275v-93h-275v-214h305v-96h-411v700zM215 770q-23 0 -38 15t-15 39q0 23 15 39t38 16t39 -16t16 -39q0 -24 -16 -39t-39 -15zM377 770q-23 0 -38.5 15t-15.5 39q0 23 15.5 39t38.5 16t38.5 -16t15.5 -39q0 -24 -15.5 -39t-38.5 -15z" />
    <glyph glyph-name="Igrave" unicode="&#xcc;" horiz-adv-x="288" 
d="M91 700h106v-700h-106v700zM30 903h102l50 -141h-83z" />
    <glyph glyph-name="Iacute" unicode="&#xcd;" horiz-adv-x="288" 
d="M91 700h106v-700h-106v700zM182 765h-79l49 141h100z" />
    <glyph glyph-name="Icircumflex" unicode="&#xce;" horiz-adv-x="288" 
d="M91 700h106v-700h-106v700zM85 900h118l123 -123h-106l-67 61h-18l-67 -61h-106z" />
    <glyph glyph-name="Idieresis" unicode="&#xcf;" horiz-adv-x="288" 
d="M91 700h106v-700h-106v700zM62 770q-23 0 -38 15t-15 39q0 23 15 39t38 16t39 -16t16 -39q0 -24 -16 -39t-39 -15zM224 770q-23 0 -38.5 15t-15.5 39q0 23 15.5 39t38.5 16t38.5 -16t15.5 -39q0 -24 -15.5 -39t-38.5 -15z" />
    <glyph glyph-name="Eth" unicode="&#xd0;" horiz-adv-x="708" 
d="M103 310h-72v96h72v294h208q80 0 145.5 -24t112 -67.5t72 -105t25.5 -136.5v-20q0 -78 -25.5 -142t-72 -109.5t-112 -70.5t-145.5 -25h-208v310zM311 96q115 0 179 67.5t64 185.5v19q0 110 -64 173t-179 63h-103v-198h158v-96h-158v-214h103z" />
    <glyph glyph-name="Ntilde" unicode="&#xd1;" horiz-adv-x="708" 
d="M91 700h120l298 -531h5v531h103v-700h-109l-306 544h-7v-544h-104v700zM166 837q20 31 49 47.5t63 16.5q23 0 43.5 -7t43.5 -18q18 -8 35.5 -15t37.5 -7q22 0 39 9.5t27 26.5l38 -50q-20 -31 -48.5 -47.5t-60.5 -16.5q-22 0 -43 7t-45 18q-19 9 -37 15.5t-36 6.5
q-23 0 -41 -10t-29 -27z" />
    <glyph glyph-name="Ograve" unicode="&#xd2;" horiz-adv-x="750" 
d="M43 360q0 80 24 144.5t67.5 110.5t103.5 71t132 25h11q71 0 131 -25t103.5 -71t68 -110.5t24.5 -144.5v-20q0 -79 -24.5 -144t-68 -111t-103.5 -71t-131 -25h-11q-71 0 -131 25t-103.5 71t-68 111t-24.5 144v20zM153 340q0 -58 16.5 -104.5t45.5 -79.5t69 -51t87 -18h9
q47 0 86.5 18t69 51t46 79.5t16.5 104.5v20q0 58 -16.5 104.5t-46 79.5t-69 51t-86.5 18h-9q-47 0 -87 -18t-69 -51t-45.5 -79.5t-16.5 -104.5v-20zM261 903h102l50 -141h-83z" />
    <glyph glyph-name="Oacute" unicode="&#xd3;" horiz-adv-x="750" 
d="M43 360q0 80 24 144.5t67.5 110.5t103.5 71t132 25h11q71 0 131 -25t103.5 -71t68 -110.5t24.5 -144.5v-20q0 -79 -24.5 -144t-68 -111t-103.5 -71t-131 -25h-11q-71 0 -131 25t-103.5 71t-68 111t-24.5 144v20zM153 340q0 -58 16.5 -104.5t45.5 -79.5t69 -51t87 -18h9
q47 0 86.5 18t69 51t46 79.5t16.5 104.5v20q0 58 -16.5 104.5t-46 79.5t-69 51t-86.5 18h-9q-47 0 -87 -18t-69 -51t-45.5 -79.5t-16.5 -104.5v-20zM413 765h-79l49 141h100z" />
    <glyph glyph-name="Ocircumflex" unicode="&#xd4;" horiz-adv-x="750" 
d="M43 360q0 80 24 144.5t67.5 110.5t103.5 71t132 25h11q71 0 131 -25t103.5 -71t68 -110.5t24.5 -144.5v-20q0 -79 -24.5 -144t-68 -111t-103.5 -71t-131 -25h-11q-71 0 -131 25t-103.5 71t-68 111t-24.5 144v20zM153 340q0 -58 16.5 -104.5t45.5 -79.5t69 -51t87 -18h9
q47 0 86.5 18t69 51t46 79.5t16.5 104.5v20q0 58 -16.5 104.5t-46 79.5t-69 51t-86.5 18h-9q-47 0 -87 -18t-69 -51t-45.5 -79.5t-16.5 -104.5v-20zM316 900h118l123 -123h-106l-67 61h-18l-67 -61h-106z" />
    <glyph glyph-name="Otilde" unicode="&#xd5;" horiz-adv-x="750" 
d="M43 360q0 80 24 144.5t67.5 110.5t103.5 71t132 25h11q71 0 131 -25t103.5 -71t68 -110.5t24.5 -144.5v-20q0 -79 -24.5 -144t-68 -111t-103.5 -71t-131 -25h-11q-71 0 -131 25t-103.5 71t-68 111t-24.5 144v20zM153 340q0 -58 16.5 -104.5t45.5 -79.5t69 -51t87 -18h9
q47 0 86.5 18t69 51t46 79.5t16.5 104.5v20q0 58 -16.5 104.5t-46 79.5t-69 51t-86.5 18h-9q-47 0 -87 -18t-69 -51t-45.5 -79.5t-16.5 -104.5v-20zM186 838q20 31 49 47.5t63 16.5q23 0 43.5 -7t43.5 -18q18 -8 35.5 -15t37.5 -7q22 0 39 9.5t27 26.5l38 -50
q-20 -31 -48.5 -47.5t-60.5 -16.5q-22 0 -43 7t-45 18q-19 9 -37 15.5t-36 6.5q-23 0 -41 -10t-29 -27z" />
    <glyph glyph-name="Odieresis" unicode="&#xd6;" horiz-adv-x="750" 
d="M282 769q-24 0 -39.5 15t-15.5 38t15.5 39t39.5 16t40.5 -16t16.5 -39t-16.5 -38t-40.5 -15zM467 769q-24 0 -39.5 15t-15.5 38t15.5 39t39.5 16t40.5 -16t16.5 -39t-16.5 -38t-40.5 -15zM43 360q0 80 24 144.5t67.5 110.5t103.5 71t132 25h11q71 0 131 -25t103.5 -71
t68 -110.5t24.5 -144.5v-20q0 -79 -24.5 -144t-68 -111t-103.5 -71t-131 -25h-11q-71 0 -131 25t-103.5 71t-68 111t-24.5 144v20zM153 340q0 -58 16.5 -104.5t45.5 -79.5t69 -51t87 -18h9q47 0 86.5 18t69 51t46 79.5t16.5 104.5v20q0 58 -16.5 104.5t-46 79.5t-69 51
t-86.5 18h-9q-47 0 -87 -18t-69 -51t-45.5 -79.5t-16.5 -104.5v-20z" />
    <glyph glyph-name="multiply" unicode="&#xd7;" horiz-adv-x="506" 
d="M48 180l145 145l-145 145l60 60l145 -145l145 145l60 -60l-145 -145l145 -145l-60 -60l-145 145l-145 -145z" />
    <glyph glyph-name="Oslash" unicode="&#xd8;" horiz-adv-x="750" 
d="M155 66q-53 46 -83 116t-30 158v20q0 80 24.5 144.5t68 110.5t103.5 71t131 25h11q83 0 151 -34l35 58h90l-61 -100q53 -47 82.5 -116.5t29.5 -158.5v-20q0 -79 -24 -144t-67.5 -111t-103.5 -71t-132 -25h-11q-81 0 -149 34l-35 -59h-92zM151 340q0 -58 16 -105t45 -81
l269 437q-46 26 -102 26h-9q-47 0 -87 -18t-69.5 -52t-46 -81t-16.5 -106v-20zM269 108q47 -25 101 -25h9q47 0 87.5 18t70 52t46 81.5t16.5 105.5v20q0 58 -16 104.5t-45 80.5z" />
    <glyph glyph-name="Ugrave" unicode="&#xd9;" horiz-adv-x="697" 
d="M349 -10q-128 0 -197.5 67t-69.5 195v448h106v-439q0 -86 42 -128.5t119 -42.5t118.5 42.5t41.5 128.5v439h106v-448q0 -129 -69.5 -195.5t-196.5 -66.5zM235 903h102l50 -141h-83z" />
    <glyph glyph-name="Uacute" unicode="&#xda;" horiz-adv-x="697" 
d="M349 -10q-128 0 -197.5 67t-69.5 195v448h106v-439q0 -86 42 -128.5t119 -42.5t118.5 42.5t41.5 128.5v439h106v-448q0 -129 -69.5 -195.5t-196.5 -66.5zM387 765h-79l49 141h100z" />
    <glyph glyph-name="Ucircumflex" unicode="&#xdb;" horiz-adv-x="697" 
d="M349 -10q-128 0 -197.5 67t-69.5 195v448h106v-439q0 -86 42 -128.5t119 -42.5t118.5 42.5t41.5 128.5v439h106v-448q0 -129 -69.5 -195.5t-196.5 -66.5zM290 900h118l123 -123h-106l-67 61h-18l-67 -61h-106z" />
    <glyph glyph-name="Udieresis" unicode="&#xdc;" horiz-adv-x="694" 
d="M254 769q-24 0 -39.5 15t-15.5 38t15.5 39t39.5 16t40.5 -16t16.5 -39t-16.5 -38t-40.5 -15zM439 769q-24 0 -39.5 15t-15.5 38t15.5 39t39.5 16t40.5 -16t16.5 -39t-16.5 -38t-40.5 -15zM348 -10q-128 0 -197.5 67t-69.5 195v448h105v-439q0 -86 42.5 -128.5
t119.5 -42.5t118.5 42.5t41.5 128.5v439h105v-448q0 -129 -69.5 -195.5t-195.5 -66.5z" />
    <glyph glyph-name="Yacute" unicode="&#xdd;" horiz-adv-x="579" 
d="M237 276l-236 424h122l164 -317h6l164 317h121l-235 -424v-276h-106v276zM328 765h-79l49 141h100z" />
    <glyph glyph-name="Thorn" unicode="&#xde;" horiz-adv-x="598" 
d="M91 700h106v-100h115q56 0 101.5 -16t77.5 -45t49 -70.5t17 -92.5v-4q0 -51 -17.5 -93t-49 -72t-76.5 -46t-100 -16h-117v-145h-106v700zM306 239q68 0 106 35t38 98v4q0 61 -38 95.5t-105 34.5h-112v-267h111z" />
    <glyph glyph-name="germandbls" unicode="&#xdf;" horiz-adv-x="579" 
d="M344 -8q-28 0 -60 5.5t-49 12.5v82q12 -5 36.5 -8t43.5 -3q60 0 94.5 34t34.5 92q0 60 -35 95.5t-94 35.5h-59v78h51q45 0 72 30t27 76q0 49 -31 79t-82 30q-55 0 -88 -34.5t-33 -91.5v-505h-99v508q0 47 16 86t45 66.5t70 42.5t91 15q47 0 86 -13.5t67 -37.5t43 -58
t15 -75q0 -47 -19 -84.5t-53 -62.5q53 -25 82.5 -74.5t29.5 -117.5q0 -46 -14.5 -83.5t-40.5 -64t-63.5 -41t-83.5 -14.5z" />
    <glyph glyph-name="agrave" unicode="&#xe0;" horiz-adv-x="554" 
d="M214 -9q-38 0 -69.5 11t-54 31t-35 48.5t-12.5 63.5v8q0 85 72.5 126.5t222.5 41.5h45v29q0 42 -27.5 66.5t-79.5 24.5h-6q-39 0 -81 -14t-77 -40l-44 75q48 32 100 50t109 18h7q92 0 143.5 -47.5t51.5 -130.5v-256q0 -24 5.5 -49.5t12.5 -46.5h-97q-5 11 -8.5 28
t-5.5 34q-36 -35 -80 -53t-92 -18zM230 78q46 0 85.5 19.5t67.5 52.5v96h-32q-111 0 -161 -21t-50 -68v-5q0 -34 24.5 -54t65.5 -20zM164 729h97l56 -145h-79z" />
    <glyph glyph-name="aacute" unicode="&#xe1;" horiz-adv-x="554" 
d="M214 -9q-38 0 -69.5 11t-54 31t-35 48.5t-12.5 63.5v8q0 85 72.5 126.5t222.5 41.5h45v29q0 42 -27.5 66.5t-79.5 24.5h-6q-39 0 -81 -14t-77 -40l-44 75q48 32 100 50t109 18h7q92 0 143.5 -47.5t51.5 -130.5v-256q0 -24 5.5 -49.5t12.5 -46.5h-97q-5 11 -8.5 28
t-5.5 34q-36 -35 -80 -53t-92 -18zM230 78q46 0 85.5 19.5t67.5 52.5v96h-32q-111 0 -161 -21t-50 -68v-5q0 -34 24.5 -54t65.5 -20zM237 581l56 146h97l-74 -146h-79z" />
    <glyph glyph-name="acircumflex" unicode="&#xe2;" horiz-adv-x="554" 
d="M214 -9q-38 0 -69.5 11t-54 31t-35 48.5t-12.5 63.5v8q0 85 72.5 126.5t222.5 41.5h45v29q0 42 -27.5 66.5t-79.5 24.5h-6q-39 0 -81 -14t-77 -40l-44 75q48 32 100 50t109 18h7q92 0 143.5 -47.5t51.5 -130.5v-256q0 -24 5.5 -49.5t12.5 -46.5h-97q-5 11 -8.5 28
t-5.5 34q-36 -35 -80 -53t-92 -18zM230 78q46 0 85.5 19.5t67.5 52.5v96h-32q-111 0 -161 -21t-50 -68v-5q0 -34 24.5 -54t65.5 -20zM356 596l-68 62h-18l-69 -62h-105l124 124h117l124 -124h-105z" />
    <glyph glyph-name="atilde" unicode="&#xe3;" horiz-adv-x="554" 
d="M214 -9q-38 0 -69.5 11t-54 31t-35 48.5t-12.5 63.5v8q0 85 72.5 126.5t222.5 41.5h45v29q0 42 -27.5 66.5t-79.5 24.5h-6q-39 0 -81 -14t-77 -40l-44 75q48 32 100 50t109 18h7q92 0 143.5 -47.5t51.5 -130.5v-256q0 -24 5.5 -49.5t12.5 -46.5h-97q-5 11 -8.5 28
t-5.5 34q-36 -35 -80 -53t-92 -18zM230 78q46 0 85.5 19.5t67.5 52.5v96h-32q-111 0 -161 -21t-50 -68v-5q0 -34 24.5 -54t65.5 -20zM89 660q19 31 48.5 47.5t63.5 16.5q23 0 43.5 -7.5t43.5 -18.5q18 -8 35.5 -14.5t37.5 -6.5q22 0 38.5 9.5t27.5 26.5l37 -50
q-19 -31 -47.5 -47.5t-60.5 -16.5q-23 0 -44 7t-44 18q-19 8 -37 14.5t-36 6.5q-23 0 -41.5 -9.5t-28.5 -26.5z" />
    <glyph glyph-name="adieresis" unicode="&#xe4;" horiz-adv-x="554" 
d="M214 -9q-38 0 -69.5 11t-54 31t-35 48.5t-12.5 63.5v8q0 85 72.5 126.5t222.5 41.5h45v29q0 42 -27.5 66.5t-79.5 24.5h-6q-39 0 -81 -14t-77 -40l-44 75q48 32 100 50t109 18h7q92 0 143.5 -47.5t51.5 -130.5v-256q0 -24 5.5 -49.5t12.5 -46.5h-97q-5 11 -8.5 28
t-5.5 34q-36 -35 -80 -53t-92 -18zM230 78q46 0 85.5 19.5t67.5 52.5v96h-32q-111 0 -161 -21t-50 -68v-5q0 -34 24.5 -54t65.5 -20zM378 618q-24 0 -39.5 15.5t-15.5 38.5t15.5 38.5t39.5 15.5t40.5 -15.5t16.5 -38.5t-16.5 -38.5t-40.5 -15.5zM177 618q-24 0 -40 15.5
t-16 38.5t16 38.5t40 15.5q23 0 39.5 -15.5t16.5 -38.5t-16.5 -38.5t-39.5 -15.5z" />
    <glyph glyph-name="aring" unicode="&#xe5;" horiz-adv-x="554" 
d="M214 -9q-38 0 -69.5 11t-54 31t-35 48.5t-12.5 63.5v8q0 85 72.5 126.5t222.5 41.5h45v29q0 42 -27.5 66.5t-79.5 24.5h-6q-39 0 -81 -14t-77 -40l-44 75q48 32 100 50t109 18h7q92 0 143.5 -47.5t51.5 -130.5v-256q0 -24 5.5 -49.5t12.5 -46.5h-97q-5 11 -8.5 28
t-5.5 34q-36 -35 -80 -53t-92 -18zM230 78q46 0 85.5 19.5t67.5 52.5v96h-32q-111 0 -161 -21t-50 -68v-5q0 -34 24.5 -54t65.5 -20zM279 577q-41 0 -67 25t-26 63q0 39 26 64.5t67 25.5q40 0 66.5 -25.5t26.5 -64.5q0 -38 -26.5 -63t-66.5 -25zM278 627q18 0 29.5 11
t11.5 28t-11.5 28.5t-29.5 11.5q-17 0 -28 -11.5t-11 -28.5t11 -28t28 -11z" />
    <glyph glyph-name="ae" unicode="&#xe6;" horiz-adv-x="885" 
d="M214 -7q-38 0 -69.5 11t-54 30.5t-35 47t-12.5 60.5q0 162 291 162h40v34q-2 49 -27.5 75t-75.5 26q-39 0 -81.5 -14t-77.5 -40l-44 75q102 67 209 67q55 0 96 -20t64 -58q32 37 77.5 57.5t100.5 20.5h3q50 0 92 -17.5t72 -49.5t47 -76t17 -97v-62h-377v-1q7 -63 48 -103
t103 -40h2q44 0 83 20t63 53l64 -57q-37 -48 -94 -76.5t-121 -28.5h-4q-62 0 -111.5 25t-82.5 69q-41 -46 -94.5 -69.5t-110.5 -23.5zM750 300v2q-4 62 -41.5 101t-94.5 39h-2q-56 0 -93.5 -38.5t-46.5 -103.5h278zM382 154q-4 11 -6.5 23t-4.5 26q-1 7 -1 13.5t-1 14.5h-22
q-107 0 -157 -21t-50 -64q0 -30 25 -48t68 -18q45 0 85 20t64 54z" />
    <glyph glyph-name="ccedilla" unicode="&#xe7;" horiz-adv-x="537" 
d="M289 -7q-55 0 -100.5 18.5t-78.5 52t-51 80.5t-18 103v27q0 56 18.5 102.5t51 80t77.5 52t99 18.5h8q68 0 123 -32.5t90 -92.5l-75 -47q-45 86 -137 86h-9q-66 0 -104.5 -45.5t-38.5 -123.5v-24q0 -77 40.5 -122.5t108.5 -45.5h9q85 0 132 84l76 -48q-37 -60 -91 -91.5
t-121 -31.5h-9zM254 -174q-22 0 -45 6l8 58q13 -5 26 -5q16 0 24 7t8 17q0 14 -11 23t-34 9l23 60h62l-16 -34q23 -8 36 -23.5t13 -40.5q0 -14 -6.5 -27.5t-18.5 -24.5t-29.5 -18t-39.5 -7z" />
    <glyph glyph-name="egrave" unicode="&#xe8;" horiz-adv-x="565" 
d="M290 -8q-56 0 -102 18.5t-78.5 51.5t-50.5 80t-18 104v19q0 59 18 107t50.5 82.5t78.5 53.5t101 19h9q51 0 93 -17.5t72 -49t46.5 -76t16.5 -98.5v-62h-384q5 -66 46.5 -104.5t107.5 -38.5h10q50 0 85 21t57 52l64 -57q-37 -50 -91 -77.5t-120 -27.5h-11zM431 301v1
q-3 64 -40 102t-95 38h-10q-59 0 -96.5 -37.5t-45.5 -103.5h287zM179 729h97l56 -145h-79z" />
    <glyph glyph-name="eacute" unicode="&#xe9;" horiz-adv-x="565" 
d="M290 -8q-56 0 -102 18.5t-78.5 51.5t-50.5 80t-18 104v19q0 59 18 107t50.5 82.5t78.5 53.5t101 19h9q51 0 93 -17.5t72 -49t46.5 -76t16.5 -98.5v-62h-384q5 -66 46.5 -104.5t107.5 -38.5h10q50 0 85 21t57 52l64 -57q-37 -50 -91 -77.5t-120 -27.5h-11zM431 301v1
q-3 64 -40 102t-95 38h-10q-59 0 -96.5 -37.5t-45.5 -103.5h287zM251 581l56 146h97l-74 -146h-79z" />
    <glyph glyph-name="ecircumflex" unicode="&#xea;" horiz-adv-x="565" 
d="M290 -8q-56 0 -102 18.5t-78.5 51.5t-50.5 80t-18 104v19q0 59 18 107t50.5 82.5t78.5 53.5t101 19h9q51 0 93 -17.5t72 -49t46.5 -76t16.5 -98.5v-62h-384q5 -66 46.5 -104.5t107.5 -38.5h10q50 0 85 21t57 52l64 -57q-37 -50 -91 -77.5t-120 -27.5h-11zM431 301v1
q-3 64 -40 102t-95 38h-10q-59 0 -96.5 -37.5t-45.5 -103.5h287zM371 596l-68 62h-18l-69 -62h-105l124 124h117l124 -124h-105z" />
    <glyph glyph-name="edieresis" unicode="&#xeb;" horiz-adv-x="565" 
d="M290 -8q-56 0 -102 18.5t-78.5 51.5t-50.5 80t-18 104v19q0 59 18 107t50.5 82.5t78.5 53.5t101 19h9q51 0 93 -17.5t72 -49t46.5 -76t16.5 -98.5v-62h-384q5 -66 46.5 -104.5t107.5 -38.5h10q50 0 85 21t57 52l64 -57q-37 -50 -91 -77.5t-120 -27.5h-11zM431 301v1
q-3 64 -40 102t-95 38h-10q-59 0 -96.5 -37.5t-45.5 -103.5h287zM392 618q-24 0 -39.5 15.5t-15.5 38.5t15.5 38.5t39.5 15.5t40.5 -15.5t16.5 -38.5t-16.5 -38.5t-40.5 -15.5zM191 618q-24 0 -40 15.5t-16 38.5t16 38.5t40 15.5q23 0 39.5 -15.5t16.5 -38.5t-16.5 -38.5
t-39.5 -15.5z" />
    <glyph glyph-name="igrave" unicode="&#xec;" horiz-adv-x="254" 
d="M78 520h99v-520h-99v520zM13 726h97l56 -145h-79z" />
    <glyph glyph-name="iacute" unicode="&#xed;" horiz-adv-x="254" 
d="M78 520h99v-520h-99v520zM85 578l56 146h97l-74 -146h-79z" />
    <glyph glyph-name="icircumflex" unicode="&#xee;" horiz-adv-x="254" 
d="M187 596l-51 62h-18l-50 -62h-102l106 124h111l106 -124h-102zM78 520h99v-520h-99v520z" />
    <glyph glyph-name="idieresis" unicode="&#xef;" horiz-adv-x="254" 
d="M199 615q-22 0 -37 15t-15 39q0 23 15 38.5t37 15.5q23 0 38 -15.5t15 -38.5q0 -24 -15 -39t-38 -15zM55 615q-23 0 -38 15t-15 39q0 23 15 38.5t38 15.5q22 0 37 -15.5t15 -38.5q0 -24 -15 -39t-37 -15zM78 520h99v-520h-99v520z" />
    <glyph glyph-name="eth" unicode="&#xf0;" horiz-adv-x="582" 
d="M140 591l106 55q-39 28 -91 52l48 59q33 -16 63 -33.5t57 -37.5l115 60l32 -57l-91 -48q78 -71 120 -161.5t42 -205.5v-10q0 -61 -18 -111.5t-50.5 -86t-78 -55t-100.5 -19.5h-6q-55 0 -100.5 19t-78 53t-50.5 82t-18 105v10q0 57 18 105t49 82t73.5 53t90.5 19h5
q32 0 63 -11t57 -30q-18 34 -41 64.5t-53 57.5l-131 -68zM293 78q33 0 59.5 12.5t45.5 35.5t29.5 55.5t10.5 71.5v7q0 80 -39.5 127.5t-105.5 47.5h-3q-33 0 -60 -12.5t-46 -35.5t-29.5 -55t-10.5 -72v-7q0 -39 10.5 -71.5t29.5 -55.5t46 -35.5t60 -12.5h3z" />
    <glyph glyph-name="ntilde" unicode="&#xf1;" 
d="M78 520h78q5 -14 9 -34.5t6 -37.5q32 38 77.5 59.5t99.5 21.5h6q88 0 133 -50.5t45 -145.5v-333h-99v314q0 60 -25 92t-81 32h-7q-64 0 -103.5 -40t-39.5 -109v-289h-99v520zM114 660q19 31 48.5 47.5t63.5 16.5q23 0 43.5 -7.5t43.5 -18.5q18 -8 35.5 -14.5t37.5 -6.5
q22 0 38.5 9.5t27.5 26.5l37 -50q-19 -31 -47.5 -47.5t-60.5 -16.5q-23 0 -44 7t-44 18q-19 8 -37 14.5t-36 6.5q-23 0 -41.5 -9.5t-28.5 -26.5z" />
    <glyph glyph-name="ograve" unicode="&#xf2;" horiz-adv-x="588" 
d="M289 -8q-55 0 -100.5 18.5t-78.5 52.5t-51 80.5t-18 102.5v28q0 56 18 102.5t51 80.5t78.5 52.5t100.5 18.5h10q55 0 100.5 -18.5t78.5 -52.5t51 -80.5t18 -102.5v-28q0 -56 -18 -102.5t-51 -80.5t-78.5 -52.5t-100.5 -18.5h-10zM298 79q33 0 60 12.5t46 34.5t29.5 53.5
t10.5 68.5v25q0 38 -10.5 69t-30 53t-46 34t-59.5 12h-8q-33 0 -59.5 -12t-46 -34t-30 -53t-10.5 -69v-25q0 -37 10.5 -68.5t29.5 -53.5t46 -34.5t60 -12.5h8zM180 729h97l56 -145h-79z" />
    <glyph glyph-name="oacute" unicode="&#xf3;" horiz-adv-x="588" 
d="M289 -8q-55 0 -100.5 18.5t-78.5 52.5t-51 80.5t-18 102.5v28q0 56 18 102.5t51 80.5t78.5 52.5t100.5 18.5h10q55 0 100.5 -18.5t78.5 -52.5t51 -80.5t18 -102.5v-28q0 -56 -18 -102.5t-51 -80.5t-78.5 -52.5t-100.5 -18.5h-10zM298 79q33 0 60 12.5t46 34.5t29.5 53.5
t10.5 68.5v25q0 38 -10.5 69t-30 53t-46 34t-59.5 12h-8q-33 0 -59.5 -12t-46 -34t-30 -53t-10.5 -69v-25q0 -37 10.5 -68.5t29.5 -53.5t46 -34.5t60 -12.5h8zM252 581l56 146h97l-74 -146h-79z" />
    <glyph glyph-name="ocircumflex" unicode="&#xf4;" horiz-adv-x="588" 
d="M289 -8q-55 0 -100.5 18.5t-78.5 52.5t-51 80.5t-18 102.5v28q0 56 18 102.5t51 80.5t78.5 52.5t100.5 18.5h10q55 0 100.5 -18.5t78.5 -52.5t51 -80.5t18 -102.5v-28q0 -56 -18 -102.5t-51 -80.5t-78.5 -52.5t-100.5 -18.5h-10zM298 79q33 0 60 12.5t46 34.5t29.5 53.5
t10.5 68.5v25q0 38 -10.5 69t-30 53t-46 34t-59.5 12h-8q-33 0 -59.5 -12t-46 -34t-30 -53t-10.5 -69v-25q0 -37 10.5 -68.5t29.5 -53.5t46 -34.5t60 -12.5h8zM371 596l-68 62h-18l-69 -62h-105l124 124h117l124 -124h-105z" />
    <glyph glyph-name="otilde" unicode="&#xf5;" horiz-adv-x="588" 
d="M289 -8q-55 0 -100.5 18.5t-78.5 52.5t-51 80.5t-18 102.5v28q0 56 18 102.5t51 80.5t78.5 52.5t100.5 18.5h10q55 0 100.5 -18.5t78.5 -52.5t51 -80.5t18 -102.5v-28q0 -56 -18 -102.5t-51 -80.5t-78.5 -52.5t-100.5 -18.5h-10zM298 79q33 0 60 12.5t46 34.5t29.5 53.5
t10.5 68.5v25q0 38 -10.5 69t-30 53t-46 34t-59.5 12h-8q-33 0 -59.5 -12t-46 -34t-30 -53t-10.5 -69v-25q0 -37 10.5 -68.5t29.5 -53.5t46 -34.5t60 -12.5h8zM104 660q19 31 48.5 47.5t63.5 16.5q23 0 43.5 -7.5t43.5 -18.5q18 -8 35.5 -14.5t37.5 -6.5q22 0 38.5 9.5
t27.5 26.5l37 -50q-19 -31 -47.5 -47.5t-60.5 -16.5q-23 0 -44 7t-44 18q-19 8 -37 14.5t-36 6.5q-23 0 -41.5 -9.5t-28.5 -26.5z" />
    <glyph glyph-name="odieresis" unicode="&#xf6;" horiz-adv-x="588" 
d="M289 -8q-55 0 -100.5 18.5t-78.5 52.5t-51 80.5t-18 102.5v28q0 56 18 102.5t51 80.5t78.5 52.5t100.5 18.5h10q55 0 100.5 -18.5t78.5 -52.5t51 -80.5t18 -102.5v-28q0 -56 -18 -102.5t-51 -80.5t-78.5 -52.5t-100.5 -18.5h-10zM298 79q33 0 60 12.5t46 34.5t29.5 53.5
t10.5 68.5v25q0 38 -10.5 69t-30 53t-46 34t-59.5 12h-8q-33 0 -59.5 -12t-46 -34t-30 -53t-10.5 -69v-25q0 -37 10.5 -68.5t29.5 -53.5t46 -34.5t60 -12.5h8zM393 618q-24 0 -39.5 15.5t-15.5 38.5t15.5 38.5t39.5 15.5t40.5 -15.5t16.5 -38.5t-16.5 -38.5t-40.5 -15.5z
M192 618q-24 0 -40 15.5t-16 38.5t16 38.5t40 15.5q23 0 39.5 -15.5t16.5 -38.5t-16.5 -38.5t-39.5 -15.5z" />
    <glyph glyph-name="divide" unicode="&#xf7;" horiz-adv-x="591" 
d="M294 440q-27 0 -46 18.5t-19 45.5v3q0 26 19 44t46 18q28 0 48 -18t20 -44v-3q0 -27 -20 -45.5t-48 -18.5zM48 368h495v-86h-495v86zM294 81q-27 0 -46.5 18t-19.5 45v4q0 26 19.5 44t46.5 18q28 0 48 -18t20 -44v-4q0 -27 -20 -45t-48 -18z" />
    <glyph glyph-name="oslash" unicode="&#xf8;" horiz-adv-x="588" 
d="M129 46q-42 34 -65 85.5t-23 114.5v28q0 56 18 102.5t51 80.5t78.5 52.5t100.5 18.5h10q49 0 94 -17l28 49h87l-49 -87q42 -34 65 -85t23 -114v-28q0 -56 -18 -102.5t-51 -80.5t-78.5 -52.5t-100.5 -18.5h-10q-26 0 -49 4t-44 12l-29 -50h-88zM355 432q-27 11 -57 11h-9
q-67 0 -108 -46.5t-41 -122.5v-26q0 -76 41 -123zM298 77q34 0 61.5 12.5t47 35t30 54t10.5 69.5v26q0 75 -39 120l-175 -307q28 -10 56 -10h9z" />
    <glyph glyph-name="ugrave" unicode="&#xf9;" horiz-adv-x="595" 
d="M243 -9q-87 0 -131 50.5t-44 145.5v333h99v-313q0 -61 24.5 -93t78.5 -32h6q63 0 102.5 40t39.5 110v288h99v-520h-78q-5 14 -9 34.5t-6 37.5q-32 -38 -76.5 -59.5t-98.5 -21.5h-6zM178 729h97l56 -145h-79z" />
    <glyph glyph-name="uacute" unicode="&#xfa;" horiz-adv-x="595" 
d="M243 -9q-87 0 -131 50.5t-44 145.5v333h99v-313q0 -61 24.5 -93t78.5 -32h6q63 0 102.5 40t39.5 110v288h99v-520h-78q-5 14 -9 34.5t-6 37.5q-32 -38 -76.5 -59.5t-98.5 -21.5h-6zM250 581l56 146h97l-74 -146h-79z" />
    <glyph glyph-name="ucircumflex" unicode="&#xfb;" horiz-adv-x="595" 
d="M243 -9q-87 0 -131 50.5t-44 145.5v333h99v-313q0 -61 24.5 -93t78.5 -32h6q63 0 102.5 40t39.5 110v288h99v-520h-78q-5 14 -9 34.5t-6 37.5q-32 -38 -76.5 -59.5t-98.5 -21.5h-6zM370 596l-68 62h-18l-69 -62h-105l124 124h117l124 -124h-105z" />
    <glyph glyph-name="udieresis" unicode="&#xfc;" horiz-adv-x="595" 
d="M243 -9q-87 0 -131 50.5t-44 145.5v333h99v-313q0 -61 24.5 -93t78.5 -32h6q63 0 102.5 40t39.5 110v288h99v-520h-78q-5 14 -9 34.5t-6 37.5q-32 -38 -76.5 -59.5t-98.5 -21.5h-6zM391 618q-24 0 -39.5 15.5t-15.5 38.5t15.5 38.5t39.5 15.5t40.5 -15.5t16.5 -38.5
t-16.5 -38.5t-40.5 -15.5zM190 618q-24 0 -40 15.5t-16 38.5t16 38.5t40 15.5q23 0 39.5 -15.5t16.5 -38.5t-16.5 -38.5t-39.5 -15.5z" />
    <glyph glyph-name="yacute" unicode="&#xfd;" horiz-adv-x="522" 
d="M139 -199q-18 0 -41.5 4t-43.5 15v87q36 -17 68 -17q35 0 63.5 23t46.5 65l-224 542h108l164 -417h7l129 417h102l-181 -545q-13 -39 -31 -71t-42.5 -55t-55.5 -35.5t-69 -12.5zM224 581l56 146h97l-74 -146h-79z" />
    <glyph glyph-name="thorn" unicode="&#xfe;" horiz-adv-x="633" 
d="M78 720h99v-264q31 34 74.5 53t95.5 19h5q52 0 96 -19t76 -53t50 -80.5t18 -101.5v-28q0 -55 -18 -101.5t-50 -80.5t-76 -53t-96 -19h-5q-52 0 -95.5 19t-74.5 53v-254h-99v910zM335 82q35 0 63.5 12.5t48.5 34.5t31 52.5t11 66.5v24q0 36 -11 66.5t-31 52.5t-48.5 34.5
t-63.5 12.5h-5q-35 0 -63 -12.5t-48 -34.5t-31 -52.5t-11 -66.5v-24q0 -36 11 -66.5t31 -52.5t48 -34.5t63 -12.5h5z" />
    <glyph glyph-name="ydieresis" unicode="&#xff;" horiz-adv-x="522" 
d="M139 -199q-18 0 -41.5 4t-43.5 15v87q36 -17 68 -17q35 0 63.5 23t46.5 65l-224 542h108l164 -417h7l129 417h102l-181 -545q-13 -39 -31 -71t-42.5 -55t-55.5 -35.5t-69 -12.5zM365 618q-24 0 -39.5 15.5t-15.5 38.5t15.5 38.5t39.5 15.5t40.5 -15.5t16.5 -38.5
t-16.5 -38.5t-40.5 -15.5zM164 618q-24 0 -40 15.5t-16 38.5t16 38.5t40 15.5q23 0 39.5 -15.5t16.5 -38.5t-16.5 -38.5t-39.5 -15.5z" />
    <glyph glyph-name="Amacron" unicode="&#x100;" horiz-adv-x="627" 
d="M242 700h144l241 -700h-114l-60 183h-278l-60 -183h-114zM425 275l-108 324h-6l-107 -324h221zM176 885h275v-76h-275v76z" />
    <glyph glyph-name="amacron" unicode="&#x101;" horiz-adv-x="554" 
d="M214 -9q-38 0 -69.5 11t-54 31t-35 48.5t-12.5 63.5v8q0 85 72.5 126.5t222.5 41.5h45v29q0 42 -27.5 66.5t-79.5 24.5h-6q-39 0 -81 -14t-77 -40l-44 75q48 32 100 50t109 18h7q92 0 143.5 -47.5t51.5 -130.5v-256q0 -24 5.5 -49.5t12.5 -46.5h-97q-5 11 -8.5 28
t-5.5 34q-36 -35 -80 -53t-92 -18zM230 78q46 0 85.5 19.5t67.5 52.5v96h-32q-111 0 -161 -21t-50 -68v-5q0 -34 24.5 -54t65.5 -20zM141 710h275v-78h-275v78z" />
    <glyph glyph-name="Abreve" unicode="&#x102;" horiz-adv-x="627" 
d="M242 700h144l241 -700h-114l-60 183h-278l-60 -183h-114zM425 275l-108 324h-6l-107 -324h221zM244 900q0 -32 19.5 -50.5t51.5 -18.5t51 18.5t19 50.5h88q0 -64 -42.5 -102.5t-115.5 -38.5q-72 0 -115.5 38.5t-43.5 102.5h88z" />
    <glyph glyph-name="abreve" unicode="&#x103;" horiz-adv-x="554" 
d="M214 -9q-38 0 -69.5 11t-54 31t-35 48.5t-12.5 63.5v8q0 85 72.5 126.5t222.5 41.5h45v29q0 42 -27.5 66.5t-79.5 24.5h-6q-39 0 -81 -14t-77 -40l-44 75q48 32 100 50t109 18h7q92 0 143.5 -47.5t51.5 -130.5v-256q0 -24 5.5 -49.5t12.5 -46.5h-97q-5 11 -8.5 28
t-5.5 34q-36 -35 -80 -53t-92 -18zM230 78q46 0 85.5 19.5t67.5 52.5v96h-32q-111 0 -161 -21t-50 -68v-5q0 -34 24.5 -54t65.5 -20zM207 720q0 -32 19.5 -50.5t51.5 -18.5t51 18.5t19 50.5h88q0 -64 -43 -102.5t-115 -38.5q-73 0 -116 38.5t-43 102.5h88z" />
    <glyph glyph-name="Aogonek" unicode="&#x104;" horiz-adv-x="627" 
d="M242 700h144l241 -700h-114l-60 183h-278l-60 -183h-114zM425 275l-108 324h-6l-107 -324h221zM587 -174q-38 0 -61 20.5t-23 55.5t22 69t62 62l40 -33q-29 -26 -40.5 -45t-11.5 -39q0 -32 28 -32q6 0 12 2l12 4v-58q-19 -6 -40 -6z" />
    <glyph glyph-name="aogonek" unicode="&#x105;" horiz-adv-x="554" 
d="M214 -9q-38 0 -69.5 11t-54 31t-35 48.5t-12.5 63.5v8q0 85 72.5 126.5t222.5 41.5h45v29q0 42 -27.5 66.5t-79.5 24.5h-6q-39 0 -81 -14t-77 -40l-44 75q48 32 100 50t109 18h7q92 0 143.5 -47.5t51.5 -130.5v-256q0 -24 5.5 -49.5t12.5 -46.5h-97q-5 11 -8.5 28
t-5.5 34q-36 -35 -80 -53t-92 -18zM230 78q46 0 85.5 19.5t67.5 52.5v96h-32q-111 0 -161 -21t-50 -68v-5q0 -34 24.5 -54t65.5 -20zM457 -174q-38 0 -61 20.5t-23 55.5t22 69t62 62l40 -33q-29 -26 -40.5 -45t-11.5 -39q0 -32 28 -32q6 0 12 2l12 4v-58q-19 -6 -40 -6z" />
    <glyph glyph-name="Cacute" unicode="&#x106;" horiz-adv-x="662" 
d="M367 -9q-73 0 -133 25t-102.5 71t-65.5 110.5t-23 143.5v19q0 78 24 142t66.5 110.5t101.5 72t129 25.5h9q41 0 79 -10.5t72 -30t62 -47t48 -62.5l-85 -57q-27 51 -71 80t-105 29h-8q-48 0 -87 -18t-66.5 -51t-43 -79.5t-15.5 -103.5v-20q0 -57 15.5 -103.5t43.5 -79
t67.5 -50.5t87.5 -18h10q60 0 104.5 29.5t72.5 79.5l81 -58q-40 -71 -108 -110t-152 -39h-8zM407 765h-79l49 141h100z" />
    <glyph glyph-name="cacute" unicode="&#x107;" horiz-adv-x="537" 
d="M289 -7q-55 0 -100.5 18.5t-78.5 52t-51 80.5t-18 103v27q0 56 18.5 102.5t51 80t77.5 52t99 18.5h8q68 0 123 -32.5t90 -92.5l-75 -47q-45 86 -137 86h-9q-66 0 -104.5 -45.5t-38.5 -123.5v-24q0 -77 40.5 -122.5t108.5 -45.5h9q85 0 132 84l76 -48q-37 -60 -91 -91.5
t-121 -31.5h-9zM251 581l56 146h97l-74 -146h-79z" />
    <glyph glyph-name="Ccircumflex" unicode="&#x108;" horiz-adv-x="662" 
d="M367 -9q-73 0 -133 25t-102.5 71t-65.5 110.5t-23 143.5v19q0 78 24 142t66.5 110.5t101.5 72t129 25.5h9q41 0 79 -10.5t72 -30t62 -47t48 -62.5l-85 -57q-27 51 -71 80t-105 29h-8q-48 0 -87 -18t-66.5 -51t-43 -79.5t-15.5 -103.5v-20q0 -57 15.5 -103.5t43.5 -79
t67.5 -50.5t87.5 -18h10q60 0 104.5 29.5t72.5 79.5l81 -58q-40 -71 -108 -110t-152 -39h-8zM310 900h118l123 -123h-106l-67 61h-18l-67 -61h-106z" />
    <glyph glyph-name="ccircumflex" unicode="&#x109;" horiz-adv-x="537" 
d="M289 -7q-55 0 -100.5 18.5t-78.5 52t-51 80.5t-18 103v27q0 56 18.5 102.5t51 80t77.5 52t99 18.5h8q68 0 123 -32.5t90 -92.5l-75 -47q-45 86 -137 86h-9q-66 0 -104.5 -45.5t-38.5 -123.5v-24q0 -77 40.5 -122.5t108.5 -45.5h9q85 0 132 84l76 -48q-37 -60 -91 -91.5
t-121 -31.5h-9zM371 596l-68 62h-18l-69 -62h-105l124 124h117l124 -124h-105z" />
    <glyph glyph-name="Cdotaccent" unicode="&#x10a;" horiz-adv-x="662" 
d="M367 -9q-73 0 -133 25t-102.5 71t-65.5 110.5t-23 143.5v19q0 78 24 142t66.5 110.5t101.5 72t129 25.5h9q41 0 79 -10.5t72 -30t62 -47t48 -62.5l-85 -57q-27 51 -71 80t-105 29h-8q-48 0 -87 -18t-66.5 -51t-43 -79.5t-15.5 -103.5v-20q0 -57 15.5 -103.5t43.5 -79
t67.5 -50.5t87.5 -18h10q60 0 104.5 29.5t72.5 79.5l81 -58q-40 -71 -108 -110t-152 -39h-8zM368 785q-26 0 -43.5 16t-17.5 42q0 25 17.5 41.5t43.5 16.5q27 0 44.5 -16.5t17.5 -41.5q0 -26 -17.5 -42t-44.5 -16z" />
    <glyph glyph-name="cdotaccent" unicode="&#x10b;" horiz-adv-x="537" 
d="M289 -7q-55 0 -100.5 18.5t-78.5 52t-51 80.5t-18 103v27q0 56 18.5 102.5t51 80t77.5 52t99 18.5h8q68 0 123 -32.5t90 -92.5l-75 -47q-45 86 -137 86h-9q-66 0 -104.5 -45.5t-38.5 -123.5v-24q0 -77 40.5 -122.5t108.5 -45.5h9q85 0 132 84l76 -48q-37 -60 -91 -91.5
t-121 -31.5h-9zM293 614q-26 0 -43.5 16t-17.5 42q0 25 17.5 42t43.5 17q27 0 45 -17t18 -42q0 -26 -18 -42t-45 -16z" />
    <glyph glyph-name="Ccaron" unicode="&#x10c;" horiz-adv-x="662" 
d="M367 -9q-73 0 -133 25t-102.5 71t-65.5 110.5t-23 143.5v19q0 78 24 142t66.5 110.5t101.5 72t129 25.5h9q41 0 79 -10.5t72 -30t62 -47t48 -62.5l-85 -57q-27 51 -71 80t-105 29h-8q-48 0 -87 -18t-66.5 -51t-43 -79.5t-15.5 -103.5v-20q0 -57 15.5 -103.5t43.5 -79
t67.5 -50.5t87.5 -18h10q60 0 104.5 29.5t72.5 79.5l81 -58q-40 -71 -108 -110t-152 -39h-8zM187 900h106l67 -62h18l67 62h106l-123 -123h-118z" />
    <glyph glyph-name="ccaron" unicode="&#x10d;" horiz-adv-x="537" 
d="M289 -7q-55 0 -100.5 18.5t-78.5 52t-51 80.5t-18 103v27q0 56 18.5 102.5t51 80t77.5 52t99 18.5h8q68 0 123 -32.5t90 -92.5l-75 -47q-45 86 -137 86h-9q-66 0 -104.5 -45.5t-38.5 -123.5v-24q0 -77 40.5 -122.5t108.5 -45.5h9q85 0 132 84l76 -48q-37 -60 -91 -91.5
t-121 -31.5h-9zM106 720h105l69 -63h18l68 63h105l-124 -124h-117z" />
    <glyph glyph-name="Dcaron" unicode="&#x10e;" horiz-adv-x="697" 
d="M91 700h208q80 0 145.5 -24t112 -67.5t72 -105t25.5 -136.5v-20q0 -78 -25.5 -142t-72 -109.5t-112 -70.5t-145.5 -25h-208v700zM300 96q57 0 102 17.5t76.5 50t48 79.5t16.5 106v19q0 110 -64 173t-179 63h-104v-508h104zM160 897h106l67 -62h18l67 62h106l-123 -123
h-118z" />
    <glyph glyph-name="dcaron" unicode="&#x10f;" horiz-adv-x="653" 
d="M273 -8q-51 0 -94 18.5t-73.5 52.5t-47.5 80.5t-17 102.5v28q0 56 17 102.5t47.5 80.5t73.5 52.5t94 18.5h9q50 0 91 -17.5t71 -49.5v259h99v-720h-78q-5 12 -9 30t-6 35q-31 -35 -74 -54t-95 -19h-8zM298 79q33 0 60 12.5t46 34.5t29.5 53.5t10.5 68.5v25q0 38 -10.5 69
t-30 53t-46 34t-59.5 12h-8q-66 0 -105.5 -46t-39.5 -122v-25q0 -38 10.5 -69t29.5 -53.5t45.5 -34.5t59.5 -12h8zM623 720h92l-36 -161h-68z" />
    <glyph glyph-name="Dcroat" unicode="&#x110;" horiz-adv-x="708" 
d="M103 310h-72v96h72v294h208q80 0 145.5 -24t112 -67.5t72 -105t25.5 -136.5v-20q0 -78 -25.5 -142t-72 -109.5t-112 -70.5t-145.5 -25h-208v310zM311 96q115 0 179 67.5t64 185.5v19q0 110 -64 173t-179 63h-103v-198h158v-96h-158v-214h103z" />
    <glyph glyph-name="dcroat" unicode="&#x111;" horiz-adv-x="613" 
d="M273 -8q-51 0 -94 18.5t-73.5 52.5t-47.5 80.5t-17 102.5v28q0 56 17 102.5t47.5 80.5t73.5 52.5t94 18.5h8q51 0 92 -18t71 -50v133h-154v72h154v55h98v-55h59v-72h-59v-593h-78q-5 12 -8.5 30t-5.5 35q-31 -35 -74 -54t-95 -19h-8zM298 82q33 0 60 12t45.5 34t29 52.5
t10.5 67.5v24q0 75 -39.5 120.5t-105.5 45.5h-8q-66 0 -106 -45.5t-40 -120.5v-24q0 -75 40 -120.5t106 -45.5h8z" />
    <glyph glyph-name="Emacron" unicode="&#x112;" horiz-adv-x="559" 
d="M91 700h401v-96h-295v-201h275v-93h-275v-214h305v-96h-411v700zM160 885h275v-76h-275v76z" />
    <glyph glyph-name="emacron" unicode="&#x113;" horiz-adv-x="565" 
d="M290 -8q-56 0 -102 18.5t-78.5 51.5t-50.5 80t-18 104v19q0 59 18 107t50.5 82.5t78.5 53.5t101 19h9q51 0 93 -17.5t72 -49t46.5 -76t16.5 -98.5v-62h-384q5 -66 46.5 -104.5t107.5 -38.5h10q50 0 85 21t57 52l64 -57q-37 -50 -91 -77.5t-120 -27.5h-11zM431 301v1
q-3 64 -40 102t-95 38h-10q-59 0 -96.5 -37.5t-45.5 -103.5h287zM156 710h275v-78h-275v78z" />
    <glyph glyph-name="Ebreve" unicode="&#x114;" horiz-adv-x="559" 
d="M91 700h401v-96h-295v-201h275v-93h-275v-214h305v-96h-411v700zM227 900q0 -32 19.5 -50.5t51.5 -18.5t51 18.5t19 50.5h88q0 -64 -42.5 -102.5t-115.5 -38.5q-72 0 -115.5 38.5t-43.5 102.5h88z" />
    <glyph glyph-name="ebreve" unicode="&#x115;" horiz-adv-x="565" 
d="M290 -8q-56 0 -102 18.5t-78.5 51.5t-50.5 80t-18 104v19q0 59 18 107t50.5 82.5t78.5 53.5t101 19h9q51 0 93 -17.5t72 -49t46.5 -76t16.5 -98.5v-62h-384q5 -66 46.5 -104.5t107.5 -38.5h10q50 0 85 21t57 52l64 -57q-37 -50 -91 -77.5t-120 -27.5h-11zM431 301v1
q-3 64 -40 102t-95 38h-10q-59 0 -96.5 -37.5t-45.5 -103.5h287zM222 720q0 -32 19.5 -50.5t51.5 -18.5t51 18.5t19 50.5h88q0 -64 -43 -102.5t-115 -38.5q-73 0 -116 38.5t-43 102.5h88z" />
    <glyph glyph-name="Edotaccent" unicode="&#x116;" horiz-adv-x="559" 
d="M91 700h401v-96h-295v-201h275v-93h-275v-214h305v-96h-411v700zM297 785q-26 0 -43.5 16t-17.5 42q0 25 17.5 41.5t43.5 16.5q27 0 44.5 -16.5t17.5 -41.5q0 -26 -17.5 -42t-44.5 -16z" />
    <glyph glyph-name="edotaccent" unicode="&#x117;" horiz-adv-x="565" 
d="M290 -8q-56 0 -102 18.5t-78.5 51.5t-50.5 80t-18 104v19q0 59 18 107t50.5 82.5t78.5 53.5t101 19h9q51 0 93 -17.5t72 -49t46.5 -76t16.5 -98.5v-62h-384q5 -66 46.5 -104.5t107.5 -38.5h10q50 0 85 21t57 52l64 -57q-37 -50 -91 -77.5t-120 -27.5h-11zM431 301v1
q-3 64 -40 102t-95 38h-10q-59 0 -96.5 -37.5t-45.5 -103.5h287zM293 614q-26 0 -43.5 16t-17.5 42q0 25 17.5 42t43.5 17q27 0 45 -17t18 -42q0 -26 -18 -42t-45 -16z" />
    <glyph glyph-name="Eogonek" unicode="&#x118;" horiz-adv-x="559" 
d="M91 700h401v-96h-295v-201h275v-93h-275v-214h305v-96h-411v700zM461 -174q-38 0 -61 20.5t-23 55.5t22 69t62 62l40 -33q-29 -26 -40.5 -45t-11.5 -39q0 -32 28 -32q6 0 12 2l12 4v-58q-19 -6 -40 -6z" />
    <glyph glyph-name="eogonek" unicode="&#x119;" horiz-adv-x="565" 
d="M512 97q-51 -70 -134 -94q-30 -12 -51.5 -34t-21.5 -51q0 -34 28 -34q7 0 13 2t11 4v-58q-19 -6 -40 -6q-38 0 -61 20.5t-23 55.5q0 46 40 91q-52 3 -95 22t-73.5 52t-47 78.5t-16.5 100.5v19q0 59 18 107t50.5 82.5t78.5 53.5t101 19h9q51 0 93 -17.5t72 -49t46.5 -76
t16.5 -98.5v-62h-384q5 -65 46.5 -104t107.5 -39h10q50 0 85 21t57 52zM431 301v1q-3 64 -40 102t-95 38h-10q-59 0 -96.5 -37.5t-45.5 -103.5h287z" />
    <glyph glyph-name="Ecaron" unicode="&#x11a;" horiz-adv-x="559" 
d="M91 700h401v-96h-295v-201h275v-93h-275v-214h305v-96h-411v700zM115 900h106l67 -62h18l67 62h106l-123 -123h-118z" />
    <glyph glyph-name="ecaron" unicode="&#x11b;" horiz-adv-x="565" 
d="M290 -8q-56 0 -102 18.5t-78.5 51.5t-50.5 80t-18 104v19q0 59 18 107t50.5 82.5t78.5 53.5t101 19h9q51 0 93 -17.5t72 -49t46.5 -76t16.5 -98.5v-62h-384q5 -66 46.5 -104.5t107.5 -38.5h10q50 0 85 21t57 52l64 -57q-37 -50 -91 -77.5t-120 -27.5h-11zM431 301v1
q-3 64 -40 102t-95 38h-10q-59 0 -96.5 -37.5t-45.5 -103.5h287zM108 720h105l69 -63h18l68 63h105l-124 -124h-117z" />
    <glyph glyph-name="Gcircumflex" unicode="&#x11c;" horiz-adv-x="718" 
d="M357 -9q-72 0 -130 25t-99 71t-63 110.5t-22 143.5v18q0 78 23.5 143t66.5 111t102 71.5t130 25.5h11q81 0 151 -40.5t111 -111.5l-87 -55q-28 52 -72 81t-104 29h-9q-48 0 -87.5 -18t-67.5 -51.5t-43 -80t-15 -103.5v-20q0 -57 15.5 -103.5t43.5 -79.5t68.5 -51
t89.5 -18h9q39 0 72.5 12.5t57.5 35t37.5 53t13.5 66.5v17h-170v93h270v-365h-78q-6 13 -10.5 35.5t-6.5 43.5q-30 -39 -84.5 -63.5t-115.5 -24.5h-8zM317 900h118l123 -123h-106l-67 61h-18l-67 -61h-106z" />
    <glyph glyph-name="gcircumflex" unicode="&#x11d;" horiz-adv-x="535" 
d="M340 598l-67 60h-18l-66 -60h-106l123 122h117l123 -122h-106zM42 346q0 40 15.5 73.5t43.5 57.5t67 37.5t86 13.5h19q63 0 113 -25q7 19 15 36t19 31h94l-62 -120q34 -45 34 -104v-13q0 -40 -16 -73.5t-44 -57.5t-67 -37.5t-86 -13.5h-19h-17.5t-16.5 2v-57q9 2 18.5 2
h20.5h25q51 0 92 -10.5t70.5 -29.5t45.5 -46.5t16 -61.5v-9q0 -34 -16 -61t-45.5 -46.5t-71 -30t-91.5 -10.5h-25q-51 0 -92 10.5t-70.5 29.5t-45.5 46.5t-16 61.5v11q0 43 26.5 75.5t73.5 50.5v101q-44 23 -68.5 63t-24.5 91v13zM141 330q0 -45 32.5 -72.5t83.5 -27.5h13
q51 0 83.5 27.5t32.5 72.5v15q0 45 -32.5 72.5t-83.5 27.5h-13q-51 0 -83.5 -27.5t-32.5 -72.5v-15zM136 -55q0 -33 32.5 -52.5t94.5 -19.5h18q63 0 95.5 20t32.5 52v6q0 33 -33 53t-95 20h-18q-62 0 -94.5 -20t-32.5 -53v-6z" />
    <glyph glyph-name="Gbreve" unicode="&#x11e;" horiz-adv-x="718" 
d="M357 -9q-72 0 -130 25t-99 71t-63 110.5t-22 143.5v18q0 78 23.5 143t66.5 111t102 71.5t130 25.5h11q81 0 151 -40.5t111 -111.5l-87 -55q-28 52 -72 81t-104 29h-9q-48 0 -87.5 -18t-67.5 -51.5t-43 -80t-15 -103.5v-20q0 -57 15.5 -103.5t43.5 -79.5t68.5 -51
t89.5 -18h9q39 0 72.5 12.5t57.5 35t37.5 53t13.5 66.5v17h-170v93h270v-365h-78q-6 13 -10.5 35.5t-6.5 43.5q-30 -39 -84.5 -63.5t-115.5 -24.5h-8zM306 900q0 -32 19.5 -50.5t51.5 -18.5t51 18.5t19 50.5h88q0 -64 -42.5 -102.5t-115.5 -38.5q-72 0 -115.5 38.5
t-43.5 102.5h88z" />
    <glyph glyph-name="gbreve" unicode="&#x11f;" horiz-adv-x="535" 
d="M198 720q0 -29 18 -47t48 -18t48.5 18t18.5 47h88q0 -62 -41.5 -99.5t-112.5 -37.5t-113 37.5t-42 99.5h88zM42 346q0 40 15.5 73.5t43.5 57.5t67 37.5t86 13.5h19q63 0 113 -25q7 19 15.5 36.5t19.5 31.5h94l-63 -121q34 -45 34 -104v-13q0 -40 -16 -73.5t-44 -57.5
t-67 -37.5t-86 -13.5h-19h-17.5t-16.5 2v-57q9 2 18.5 2h20.5h25q51 0 92 -10.5t70.5 -29.5t45.5 -46.5t16 -61.5v-9q0 -34 -16 -61t-45.5 -46.5t-71 -30t-91.5 -10.5h-25q-51 0 -92 10.5t-70.5 29.5t-45.5 46.5t-16 61.5v11q0 43 26.5 75.5t73.5 50.5v101q-44 23 -68.5 63
t-24.5 91v13zM141 330q0 -45 32.5 -72.5t83.5 -27.5h13q51 0 83.5 27.5t32.5 72.5v15q0 45 -32.5 72.5t-83.5 27.5h-13q-51 0 -83.5 -27.5t-32.5 -72.5v-15zM136 -55q0 -33 32.5 -52.5t94.5 -19.5h18q63 0 95.5 20t32.5 52v6q0 33 -33 53t-95 20h-18q-62 0 -94.5 -20
t-32.5 -53v-6z" />
    <glyph glyph-name="Gdotaccent" unicode="&#x120;" horiz-adv-x="718" 
d="M357 -9q-72 0 -130 25t-99 71t-63 110.5t-22 143.5v18q0 78 23.5 143t66.5 111t102 71.5t130 25.5h11q81 0 151 -40.5t111 -111.5l-87 -55q-28 52 -72 81t-104 29h-9q-48 0 -87.5 -18t-67.5 -51.5t-43 -80t-15 -103.5v-20q0 -57 15.5 -103.5t43.5 -79.5t68.5 -51
t89.5 -18h9q39 0 72.5 12.5t57.5 35t37.5 53t13.5 66.5v17h-170v93h270v-365h-78q-6 13 -10.5 35.5t-6.5 43.5q-30 -39 -84.5 -63.5t-115.5 -24.5h-8zM376 785q-26 0 -43.5 16t-17.5 42q0 25 17.5 41.5t43.5 16.5q27 0 44.5 -16.5t17.5 -41.5q0 -26 -17.5 -42t-44.5 -16z
" />
    <glyph glyph-name="gdotaccent" unicode="&#x121;" horiz-adv-x="535" 
d="M264 612q-27 0 -44.5 16t-17.5 42t17.5 42.5t44.5 16.5t44.5 -16.5t17.5 -42.5t-17.5 -42t-44.5 -16zM42 346q0 40 15.5 73.5t43.5 57.5t67 37.5t86 13.5h19q63 0 113 -25q7 19 15.5 36.5t19.5 31.5h94l-63 -121q34 -45 34 -104v-13q0 -40 -16 -73.5t-44 -57.5t-67 -37.5
t-86 -13.5h-19h-17.5t-16.5 2v-57q9 2 18.5 2h20.5h25q51 0 92 -10.5t70.5 -29.5t45.5 -46.5t16 -61.5v-9q0 -34 -16 -61t-45.5 -46.5t-71 -30t-91.5 -10.5h-25q-51 0 -92 10.5t-70.5 29.5t-45.5 46.5t-16 61.5v11q0 43 26.5 75.5t73.5 50.5v101q-44 23 -68.5 63t-24.5 91
v13zM141 330q0 -45 32.5 -72.5t83.5 -27.5h13q51 0 83.5 27.5t32.5 72.5v15q0 45 -32.5 72.5t-83.5 27.5h-13q-51 0 -83.5 -27.5t-32.5 -72.5v-15zM136 -55q0 -33 32.5 -52.5t94.5 -19.5h18q63 0 95.5 20t32.5 52v6q0 33 -33 53t-95 20h-18q-62 0 -94.5 -20t-32.5 -53v-6z
" />
    <glyph glyph-name="uni0122" unicode="&#x122;" horiz-adv-x="718" 
d="M357 -9q-72 0 -130 25t-99 71t-63 110.5t-22 143.5v18q0 78 23.5 143t66.5 111t102 71.5t130 25.5h11q81 0 151 -40.5t111 -111.5l-87 -55q-28 52 -72 81t-104 29h-9q-48 0 -87.5 -18t-67.5 -51.5t-43 -80t-15 -103.5v-20q0 -57 15.5 -103.5t43.5 -79.5t68.5 -51
t89.5 -18h9q39 0 72.5 12.5t57.5 35t37.5 53t13.5 66.5v17h-170v93h270v-365h-78q-6 13 -10.5 35.5t-6.5 43.5q-30 -39 -84.5 -63.5t-115.5 -24.5h-8zM325 -41h90l-63 -147h-65z" />
    <glyph glyph-name="uni0123" unicode="&#x123;" horiz-adv-x="535" 
d="M306 709q-17 -9 -26 -22t-9 -27q20 -1 31.5 -14t11.5 -32q0 -20 -13.5 -34.5t-36.5 -14.5q-26 0 -41.5 18.5t-15.5 45.5q0 30 17.5 60.5t49.5 50.5zM42 346q0 40 15.5 73.5t43.5 57.5t67 37.5t86 13.5h19q63 0 113 -25q7 19 15.5 36.5t19.5 31.5h94l-63 -121
q34 -45 34 -104v-13q0 -40 -16 -73.5t-44 -57.5t-67 -37.5t-86 -13.5h-19h-17.5t-16.5 2v-57q9 2 18.5 2h20.5h25q51 0 92 -10.5t70.5 -29.5t45.5 -46.5t16 -61.5v-9q0 -34 -16 -61t-45.5 -46.5t-71 -30t-91.5 -10.5h-25q-51 0 -92 10.5t-70.5 29.5t-45.5 46.5t-16 61.5v11
q0 43 26.5 75.5t73.5 50.5v101q-44 23 -68.5 63t-24.5 91v13zM141 330q0 -45 32.5 -72.5t83.5 -27.5h13q51 0 83.5 27.5t32.5 72.5v15q0 45 -32.5 72.5t-83.5 27.5h-13q-51 0 -83.5 -27.5t-32.5 -72.5v-15zM136 -55q0 -33 32.5 -52.5t94.5 -19.5h18q63 0 95.5 20t32.5 52v6
q0 33 -33 53t-95 20h-18q-62 0 -94.5 -20t-32.5 -53v-6z" />
    <glyph glyph-name="Hcircumflex" unicode="&#x124;" horiz-adv-x="696" 
d="M91 700h105v-294h303v294h105v-700h-105v310h-303v-310h-105v700zM289 897h118l123 -123h-106l-67 61h-18l-67 -61h-106z" />
    <glyph glyph-name="hcircumflex" unicode="&#x125;" 
d="M195 776l-58 62h-18l-58 -62h-105l114 124h116l114 -124h-105zM78 720h99v-268q33 36 78.5 56.5t99.5 20.5q85 0 131 -51t46 -145v-333h-99v314q0 124 -112 124q-66 0 -105 -40t-39 -107v-291h-99v720z" />
    <glyph glyph-name="Hbar" unicode="&#x126;" horiz-adv-x="696" 
d="M91 700h105v-104h303v104h105v-700h-105v310h-303v-310h-105v700zM499 406v112h-303v-112h303z" />
    <glyph glyph-name="hbar" unicode="&#x127;" horiz-adv-x="601" 
d="M79 592h-67v72h67v56h99v-56h154v-73h-154v-143q32 34 75.5 53t95.5 19h2q91 0 136.5 -50.5t45.5 -145.5v-324h-99v305q0 61 -26 92.5t-83 31.5h-3q-65 0 -104.5 -38t-39.5 -108v-283h-99v592z" />
    <glyph glyph-name="Itilde" unicode="&#x128;" horiz-adv-x="288" 
d="M91 700h106v-700h-106v700zM-44 838q20 31 49 47.5t63 16.5q23 0 43.5 -7t43.5 -18q18 -8 35.5 -15t37.5 -7q22 0 39 9.5t27 26.5l38 -50q-20 -31 -48.5 -47.5t-60.5 -16.5q-22 0 -43 7t-45 18q-19 9 -37 15.5t-36 6.5q-23 0 -41 -10t-29 -27z" />
    <glyph glyph-name="itilde" unicode="&#x129;" horiz-adv-x="254" 
d="M201 605q-20 0 -38 5.5t-35 13.5q-16 6 -31.5 11.5t-32.5 5.5q-19 0 -35.5 -9t-25.5 -25l-45 53q17 26 42.5 39t55.5 13q22 0 40 -5.5t35 -13.5q16 -7 30.5 -12t29.5 -5q40 0 60 34l45 -53q-17 -26 -41.5 -39t-53.5 -13zM78 520h99v-520h-99v520z" />
    <glyph glyph-name="Imacron" unicode="&#x12a;" horiz-adv-x="288" 
d="M91 700h106v-700h-106v700zM7 885h275v-76h-275v76z" />
    <glyph glyph-name="imacron" unicode="&#x12b;" horiz-adv-x="261" 
d="M5 704h251v-78h-251v78zM81 520h99v-520h-99v520z" />
    <glyph glyph-name="Ibreve" unicode="&#x12c;" horiz-adv-x="288" 
d="M91 700h106v-700h-106v700zM74 900q0 -32 19.5 -50.5t51.5 -18.5t51 18.5t19 50.5h88q0 -64 -42.5 -102.5t-115.5 -38.5q-72 0 -115.5 38.5t-43.5 102.5h88z" />
    <glyph glyph-name="ibreve" unicode="&#x12d;" horiz-adv-x="256" 
d="M128 655q26 0 41.5 18t15.5 47h87q0 -62 -39 -99.5t-105 -37.5t-105 37.5t-39 99.5h87q0 -29 15.5 -47t41.5 -18zM78 520h99v-520h-99v520z" />
    <glyph glyph-name="Iogonek" unicode="&#x12e;" horiz-adv-x="288" 
d="M91 700h106v-700h-106v700zM156 -174q-38 0 -61 20.5t-23 55.5t22 69t62 62l40 -33q-29 -26 -40.5 -45t-11.5 -39q0 -32 28 -32q6 0 12 2l12 4v-58q-19 -6 -40 -6z" />
    <glyph glyph-name="iogonek" unicode="&#x12f;" horiz-adv-x="254" 
d="M127 611q-27 0 -44 16t-17 42q0 25 17 42t44 17q26 0 43.5 -17t17.5 -42q0 -26 -17.5 -42t-43.5 -16zM78 520h99v-520h-99v520zM136 -174q-38 0 -61 20.5t-23 55.5t22 69t62 62l40 -33q-29 -26 -40.5 -45t-11.5 -39q0 -32 28 -32q6 0 12 2l12 4v-58q-19 -6 -40 -6z" />
    <glyph glyph-name="Idotaccent" unicode="&#x130;" horiz-adv-x="288" 
d="M91 700h106v-700h-106v700zM144 785q-26 0 -43.5 16t-17.5 42q0 25 17.5 41.5t43.5 16.5q27 0 44.5 -16.5t17.5 -41.5q0 -26 -17.5 -42t-44.5 -16z" />
    <glyph glyph-name="dotlessi" unicode="&#x131;" horiz-adv-x="254" 
d="M78 520h99v-520h-99v520z" />
    <glyph glyph-name="IJ" unicode="&#x132;" horiz-adv-x="631" 
d="M379 -7q-53 0 -94 19v101q15 -10 33 -16.5t40 -6.5q51 0 74 29.5t23 80.5v500h105v-505q0 -94 -45.5 -148t-135.5 -54zM91 700h105v-700h-105v700z" />
    <glyph glyph-name="ij" unicode="&#x133;" horiz-adv-x="535" 
d="M127 611q-26 0 -43.5 16t-17.5 42q0 25 17.5 42t43.5 17q27 0 45 -17t18 -42q0 -26 -18 -42t-45 -16zM406 611q-26 0 -43.5 16t-17.5 42q0 25 17.5 42t43.5 17q27 0 45 -17t18 -42q0 -26 -18 -42t-45 -16zM319 -197q-21 0 -47 4t-46 14v85q12 -5 26 -8.5t30 -3.5
q38 0 56.5 18t18.5 68v540h99v-559q0 -78 -37 -118t-100 -40zM78 520h99v-520h-99v520z" />
    <glyph glyph-name="Jcircumflex" unicode="&#x134;" horiz-adv-x="396" 
d="M130 -7q-52 0 -93 19v101q14 -10 32.5 -16.5t41.5 -6.5q52 0 75 29.5t23 80.5v500h105v-505q0 -94 -46 -148t-138 -54zM202 898h118l123 -123h-106l-67 61h-18l-67 -61h-106z" />
    <glyph glyph-name="jcircumflex" unicode="&#x135;" horiz-adv-x="277" 
d="M206 596l-50 62h-18l-51 -62h-102l106 124h111l106 -124h-102zM62 -197q-21 0 -47 4t-47 14v85q13 -5 26.5 -8.5t30.5 -3.5q38 0 56.5 18t18.5 68v540h99v-559q0 -78 -37 -118t-100 -40z" />
    <glyph glyph-name="uni0136" unicode="&#x136;" horiz-adv-x="631" 
d="M91 700h106v-305h5l268 305h128l-293 -322l322 -378h-136l-289 345h-5v-345h-106v700zM299 -36h90l-63 -147h-65z" />
    <glyph glyph-name="uni0137" unicode="&#x137;" horiz-adv-x="526" 
d="M78 720h99v-423h5l211 223h117l-234 -242l244 -278h-125l-212 252h-6v-252h-99v720zM237 -36h90l-63 -147h-65z" />
    <glyph glyph-name="kgreenlandic" unicode="&#x138;" horiz-adv-x="526" 
d="M78 520h99v-223h5l211 223h117l-234 -242l244 -278h-125l-212 252h-6v-252h-99v520z" />
    <glyph glyph-name="Lacute" unicode="&#x139;" horiz-adv-x="509" 
d="M91 700h106v-604h276v-96h-382v700zM182 762h-79l49 141h100z" />
    <glyph glyph-name="lacute" unicode="&#x13a;" horiz-adv-x="254" 
d="M78 720h99v-720h-99v720zM165 764h-79l49 141h100z" />
    <glyph glyph-name="uni013B" unicode="&#x13b;" horiz-adv-x="509" 
d="M91 700h106v-604h276v-96h-382v700zM240 -36h90l-63 -147h-65z" />
    <glyph glyph-name="uni013C" unicode="&#x13c;" horiz-adv-x="254" 
d="M78 720h99v-720h-99v720zM84 -36h90l-63 -147h-65z" />
    <glyph glyph-name="Lcaron" unicode="&#x13d;" horiz-adv-x="509" 
d="M91 700h106v-604h276v-96h-382v700zM304 700h92l-36 -161h-68z" />
    <glyph glyph-name="lcaron" unicode="&#x13e;" horiz-adv-x="287" 
d="M78 720h99v-720h-99v720zM258 720h92l-36 -161h-68z" />
    <glyph glyph-name="Ldot" unicode="&#x13f;" horiz-adv-x="516" 
d="M91 700h106v-604h276v-96h-382v700zM379 308q-27 0 -44 16t-17 42t17 42.5t44 16.5t44.5 -16.5t17.5 -42.5t-17.5 -42t-44.5 -16z" />
    <glyph glyph-name="ldot" unicode="&#x140;" horiz-adv-x="367" 
d="M76 720h99v-720h-99v720zM305 308q-27 0 -44 16t-17 42t17 42.5t44 16.5t44.5 -16.5t17.5 -42.5t-17.5 -42t-44.5 -16z" />
    <glyph glyph-name="Lslash" unicode="&#x141;" horiz-adv-x="517" 
d="M19 365l80 29v306h106v-268l144 52v-89l-144 -52v-247h276v-96h-382v305l-80 -29v89z" />
    <glyph glyph-name="lslash" unicode="&#x142;" horiz-adv-x="330" 
d="M31 346l85 47v327h99v-273l84 46v-85l-84 -46v-362h-99v308l-85 -47v85z" />
    <glyph glyph-name="Nacute" unicode="&#x143;" horiz-adv-x="708" 
d="M91 700h120l298 -531h5v531h103v-700h-109l-306 544h-7v-544h-104v700zM392 765h-79l49 141h100z" />
    <glyph glyph-name="nacute" unicode="&#x144;" 
d="M78 520h78q5 -14 9 -34.5t6 -37.5q32 38 77.5 59.5t99.5 21.5h6q88 0 133 -50.5t45 -145.5v-333h-99v314q0 60 -25 92t-81 32h-7q-64 0 -103.5 -40t-39.5 -109v-289h-99v520zM262 581l56 146h97l-74 -146h-79z" />
    <glyph glyph-name="uni0145" unicode="&#x145;" horiz-adv-x="708" 
d="M91 700h120l298 -531h5v531h103v-700h-109l-306 544h-7v-544h-104v700zM312 -36h90l-63 -147h-65z" />
    <glyph glyph-name="uni0146" unicode="&#x146;" 
d="M78 520h78q5 -14 9 -34.5t6 -37.5q32 38 77.5 59.5t99.5 21.5h6q88 0 133 -50.5t45 -145.5v-333h-99v314q0 60 -25 92t-81 32h-7q-64 0 -103.5 -40t-39.5 -109v-289h-99v520zM263 -36h90l-63 -147h-65z" />
    <glyph glyph-name="Ncaron" unicode="&#x147;" horiz-adv-x="708" 
d="M91 700h120l298 -531h5v531h103v-700h-109l-306 544h-7v-544h-104v700zM172 899h106l67 -62h18l67 62h106l-123 -123h-118z" />
    <glyph glyph-name="ncaron" unicode="&#x148;" 
d="M78 520h78q5 -14 9 -34.5t6 -37.5q32 38 77.5 59.5t99.5 21.5h6q88 0 133 -50.5t45 -145.5v-333h-99v314q0 60 -25 92t-81 32h-7q-64 0 -103.5 -40t-39.5 -109v-289h-99v520zM121 720h105l69 -63h18l68 63h105l-124 -124h-117z" />
    <glyph glyph-name="napostrophe" unicode="&#x149;" horiz-adv-x="666" 
d="M144 520h78q5 -14 9 -34.5t6 -37.5q32 38 77.5 59.5t99.5 21.5h6q88 0 133 -50.5t45 -145.5v-333h-99v314q0 60 -25 92t-81 32h-7q-64 0 -103.5 -40t-39.5 -109v-289h-99v520zM74 700h101l-108 -263h-80z" />
    <glyph glyph-name="Eng" unicode="&#x14a;" horiz-adv-x="723" 
d="M451 -197q-26 0 -50 5.5t-44 13.5v102q14 -11 32.5 -17t40.5 -6q48 0 70.5 24.5t25.5 68.5l-324 538h-6v-532h-105v700h120l310 -513h6v513h105v-700q0 -92 -46 -144.5t-135 -52.5z" />
    <glyph glyph-name="eng" unicode="&#x14b;" horiz-adv-x="609" 
d="M394 -197q-21 0 -46.5 4t-46.5 14v85q12 -5 26 -8.5t31 -3.5q38 0 56.5 18t18.5 68v334q0 60 -25 92t-81 32h-7q-64 0 -103.5 -40t-39.5 -110v-288h-99v520h78q5 -14 9 -34.5t6 -37.5q32 38 77.5 59.5t99.5 21.5h6q88 0 133 -50.5t45 -145.5v-372q0 -78 -37.5 -118
t-100.5 -40z" />
    <glyph glyph-name="Omacron" unicode="&#x14c;" horiz-adv-x="750" 
d="M43 360q0 80 24 144.5t67.5 110.5t103.5 71t132 25h11q71 0 131 -25t103.5 -71t68 -110.5t24.5 -144.5v-20q0 -79 -24.5 -144t-68 -111t-103.5 -71t-131 -25h-11q-71 0 -131 25t-103.5 71t-68 111t-24.5 144v20zM153 340q0 -58 16.5 -104.5t45.5 -79.5t69 -51t87 -18h9
q47 0 86.5 18t69 51t46 79.5t16.5 104.5v20q0 58 -16.5 104.5t-46 79.5t-69 51t-86.5 18h-9q-47 0 -87 -18t-69 -51t-45.5 -79.5t-16.5 -104.5v-20zM237 885h275v-76h-275v76z" />
    <glyph glyph-name="omacron" unicode="&#x14d;" horiz-adv-x="588" 
d="M289 -8q-55 0 -100.5 18.5t-78.5 52.5t-51 80.5t-18 102.5v28q0 56 18 102.5t51 80.5t78.5 52.5t100.5 18.5h10q55 0 100.5 -18.5t78.5 -52.5t51 -80.5t18 -102.5v-28q0 -56 -18 -102.5t-51 -80.5t-78.5 -52.5t-100.5 -18.5h-10zM298 79q33 0 60 12.5t46 34.5t29.5 53.5
t10.5 68.5v25q0 38 -10.5 69t-30 53t-46 34t-59.5 12h-8q-33 0 -59.5 -12t-46 -34t-30 -53t-10.5 -69v-25q0 -37 10.5 -68.5t29.5 -53.5t46 -34.5t60 -12.5h8zM156 710h275v-78h-275v78z" />
    <glyph glyph-name="Obreve" unicode="&#x14e;" horiz-adv-x="750" 
d="M43 360q0 80 24 144.5t67.5 110.5t103.5 71t132 25h11q71 0 131 -25t103.5 -71t68 -110.5t24.5 -144.5v-20q0 -79 -24.5 -144t-68 -111t-103.5 -71t-131 -25h-11q-71 0 -131 25t-103.5 71t-68 111t-24.5 144v20zM153 340q0 -58 16.5 -104.5t45.5 -79.5t69 -51t87 -18h9
q47 0 86.5 18t69 51t46 79.5t16.5 104.5v20q0 58 -16.5 104.5t-46 79.5t-69 51t-86.5 18h-9q-47 0 -87 -18t-69 -51t-45.5 -79.5t-16.5 -104.5v-20zM305 900q0 -32 19.5 -50.5t51.5 -18.5t51 18.5t19 50.5h88q0 -64 -42.5 -102.5t-115.5 -38.5q-72 0 -115.5 38.5
t-43.5 102.5h88z" />
    <glyph glyph-name="obreve" unicode="&#x14f;" horiz-adv-x="588" 
d="M289 -8q-55 0 -100.5 18.5t-78.5 52.5t-51 80.5t-18 102.5v28q0 56 18 102.5t51 80.5t78.5 52.5t100.5 18.5h10q55 0 100.5 -18.5t78.5 -52.5t51 -80.5t18 -102.5v-28q0 -56 -18 -102.5t-51 -80.5t-78.5 -52.5t-100.5 -18.5h-10zM298 79q33 0 60 12.5t46 34.5t29.5 53.5
t10.5 68.5v25q0 38 -10.5 69t-30 53t-46 34t-59.5 12h-8q-33 0 -59.5 -12t-46 -34t-30 -53t-10.5 -69v-25q0 -37 10.5 -68.5t29.5 -53.5t46 -34.5t60 -12.5h8zM223 720q0 -32 19.5 -50.5t51.5 -18.5t51 18.5t19 50.5h88q0 -64 -43 -102.5t-115 -38.5q-73 0 -116 38.5
t-43 102.5h88z" />
    <glyph glyph-name="Ohungarumlaut" unicode="&#x150;" horiz-adv-x="750" 
d="M43 360q0 80 24 144.5t67.5 110.5t103.5 71t132 25h11q71 0 131 -25t103.5 -71t68 -110.5t24.5 -144.5v-20q0 -79 -24.5 -144t-68 -111t-103.5 -71t-131 -25h-11q-71 0 -131 25t-103.5 71t-68 111t-24.5 144v20zM153 340q0 -58 16.5 -104.5t45.5 -79.5t69 -51t87 -18h9
q47 0 86.5 18t69 51t46 79.5t16.5 104.5v20q0 58 -16.5 104.5t-46 79.5t-69 51t-86.5 18h-9q-47 0 -87 -18t-69 -51t-45.5 -79.5t-16.5 -104.5v-20zM255 762l49 141h100l-67 -141h-82zM407 762l49 141h100l-68 -141h-81z" />
    <glyph glyph-name="ohungarumlaut" unicode="&#x151;" horiz-adv-x="588" 
d="M289 -8q-55 0 -100.5 18.5t-78.5 52.5t-51 80.5t-18 102.5v28q0 56 18 102.5t51 80.5t78.5 52.5t100.5 18.5h10q55 0 100.5 -18.5t78.5 -52.5t51 -80.5t18 -102.5v-28q0 -56 -18 -102.5t-51 -80.5t-78.5 -52.5t-100.5 -18.5h-10zM298 79q33 0 60 12.5t46 34.5t29.5 53.5
t10.5 68.5v25q0 38 -10.5 69t-30 53t-46 34t-59.5 12h-8q-33 0 -59.5 -12t-46 -34t-30 -53t-10.5 -69v-25q0 -37 10.5 -68.5t29.5 -53.5t46 -34.5t60 -12.5h8zM224 729h97l-65 -145h-78zM373 729h97l-65 -145h-78z" />
    <glyph glyph-name="OE" unicode="&#x152;" horiz-adv-x="923" 
d="M855 700v-94h-277v-203h257v-93h-257v-216h287v-94h-390q-21 -5 -43 -8t-46 -3h-11q-72 0 -133.5 25t-105.5 71t-69 111t-25 144v20q0 80 25 144.5t69 110.5t105 71t134 25h11q47 0 89 -12v1h380zM475 591q-20 11 -42 16.5t-48 5.5h-9q-48 0 -89 -18t-71 -51t-47 -79.5
t-17 -104.5v-20q0 -58 17 -104.5t47 -79.5t71 -51t89 -18h9q50 0 90 20v484z" />
    <glyph glyph-name="oe" unicode="&#x153;" horiz-adv-x="963" 
d="M693 -8q-63 0 -113 27t-82 73q-33 -46 -84.5 -73t-116.5 -27h-6q-55 0 -101 19t-79 52.5t-51.5 80.5t-18.5 102v28q0 56 18.5 102.5t51.5 80t79 52.5t101 19h6q66 0 118.5 -27.5t84.5 -75.5q32 48 82 75t113 27h3q50 0 91.5 -17.5t71.5 -49.5t46.5 -76.5t16.5 -97.5v-62
h-376q3 -31 15.5 -57.5t32.5 -45.5t46 -29.5t57 -10.5h2q46 0 84.5 21t60.5 52l64 -57q-37 -50 -93.5 -77.5t-119.5 -27.5h-4zM829 301v1q-4 63 -41.5 101.5t-94.5 38.5h-1q-57 0 -94.5 -38t-46.5 -103h278zM297 79q33 0 60.5 12.5t47.5 34.5t31 53.5t11 68.5v25
q0 38 -11 68.5t-31 53t-47.5 34.5t-60.5 12h-3q-33 0 -60.5 -12t-47.5 -34.5t-31 -53t-11 -68.5v-25q0 -37 11 -68.5t31 -53.5t47.5 -34.5t60.5 -12.5h3z" />
    <glyph glyph-name="Racute" unicode="&#x154;" horiz-adv-x="635" 
d="M91 700h236q114 0 177.5 -56t63.5 -156v-10q0 -70 -34 -120.5t-94 -73.5l177 -284h-128l-156 263h-136v-263h-106v700zM316 353q72 0 108 32t36 90v10q0 58 -37 89.5t-107 31.5h-121v-253h121zM350 765h-79l49 141h100z" />
    <glyph glyph-name="racute" unicode="&#x155;" horiz-adv-x="364" 
d="M78 520h76q5 -14 9.5 -32.5t6.5 -35.5q28 32 67.5 50t87.5 18h13v-98q-7 2 -17 2.5t-18 0.5q-126 0 -126 -148v-277h-99v520zM170 580l56 146h97l-74 -146h-79z" />
    <glyph glyph-name="uni0156" unicode="&#x156;" horiz-adv-x="635" 
d="M91 700h236q114 0 177.5 -56t63.5 -156v-10q0 -70 -34 -120.5t-94 -73.5l177 -284h-128l-156 263h-136v-263h-106v700zM316 353q72 0 108 32t36 90v10q0 58 -37 89.5t-107 31.5h-121v-253h121zM291 -36h90l-63 -147h-65z" />
    <glyph glyph-name="uni0157" unicode="&#x157;" horiz-adv-x="364" 
d="M78 520h76q5 -14 9.5 -32.5t6.5 -35.5q28 32 67.5 50t87.5 18h13v-98q-7 2 -17 2.5t-18 0.5q-126 0 -126 -148v-277h-99v520zM84 -36h90l-63 -147h-65z" />
    <glyph glyph-name="Rcaron" unicode="&#x158;" horiz-adv-x="635" 
d="M91 700h236q114 0 177.5 -56t63.5 -156v-10q0 -70 -34 -120.5t-94 -73.5l177 -284h-128l-156 263h-136v-263h-106v700zM316 353q72 0 108 32t36 90v10q0 58 -37 89.5t-107 31.5h-121v-253h121zM130 900h106l67 -62h18l67 62h106l-123 -123h-118z" />
    <glyph glyph-name="rcaron" unicode="&#x159;" horiz-adv-x="364" 
d="M78 520h76q5 -14 9.5 -32.5t6.5 -35.5q28 32 67.5 50t87.5 18h13v-98q-7 2 -17 2.5t-18 0.5q-126 0 -126 -148v-277h-99v520zM22 720h105l69 -63h18l68 63h105l-124 -124h-117z" />
    <glyph glyph-name="Sacute" unicode="&#x15a;" horiz-adv-x="572" 
d="M293 -11q-72 0 -141 26.5t-118 73.5l62 82q39 -41 93 -61.5t108 -20.5q64 0 98 25t34 73q0 35 -18 56.5t-49 36.5t-70.5 26.5t-83.5 26.5q-32 11 -60 25t-49 36t-33 52t-12 72q0 43 16 78.5t45.5 61t71 39.5t91.5 14q67 0 127 -22.5t106 -63.5l-60 -83q-35 35 -82.5 52
t-91.5 17q-57 0 -87.5 -24.5t-30.5 -66.5q0 -27 13 -45t35.5 -31.5t53.5 -23t66 -20.5q38 -11 75.5 -26t67.5 -38t48.5 -57.5t18.5 -84.5q0 -47 -17 -85t-48.5 -64.5t-77 -41t-101.5 -14.5zM324 765h-79l49 141h100z" />
    <glyph glyph-name="sacute" unicode="&#x15b;" horiz-adv-x="480" 
d="M254 -9q-66 0 -124 20t-100 57l53 73q37 -31 81 -47t90 -16q47 0 71.5 17t24.5 50q0 21 -10.5 33.5t-29 21.5t-44 15.5t-55.5 15.5q-29 7 -58 16.5t-52 25.5t-37 40.5t-14 62.5q0 71 48.5 112t132.5 41q54 0 105 -17t90 -46l-48 -75q-32 23 -71.5 37t-79.5 14
q-39 0 -60.5 -15.5t-21.5 -44.5q0 -18 10 -30t27 -20t39.5 -13.5t46.5 -11.5q32 -8 64 -18t58 -27t42.5 -43.5t16.5 -68.5q0 -75 -52.5 -117t-142.5 -42zM194 581l56 146h97l-74 -146h-79z" />
    <glyph glyph-name="Scircumflex" unicode="&#x15c;" horiz-adv-x="572" 
d="M293 -11q-72 0 -141 26.5t-118 73.5l62 82q39 -41 93 -61.5t108 -20.5q64 0 98 25t34 73q0 35 -18 56.5t-49 36.5t-70.5 26.5t-83.5 26.5q-32 11 -60 25t-49 36t-33 52t-12 72q0 43 16 78.5t45.5 61t71 39.5t91.5 14q67 0 127 -22.5t106 -63.5l-60 -83q-35 35 -82.5 52
t-91.5 17q-57 0 -87.5 -24.5t-30.5 -66.5q0 -27 13 -45t35.5 -31.5t53.5 -23t66 -20.5q38 -11 75.5 -26t67.5 -38t48.5 -57.5t18.5 -84.5q0 -47 -17 -85t-48.5 -64.5t-77 -41t-101.5 -14.5zM227 900h118l123 -123h-106l-67 61h-18l-67 -61h-106z" />
    <glyph glyph-name="scircumflex" unicode="&#x15d;" horiz-adv-x="480" 
d="M254 -9q-66 0 -124 20t-100 57l53 73q37 -31 81 -47t90 -16q47 0 71.5 17t24.5 50q0 21 -10.5 33.5t-29 21.5t-44 15.5t-55.5 15.5q-29 7 -58 16.5t-52 25.5t-37 40.5t-14 62.5q0 71 48.5 112t132.5 41q54 0 105 -17t90 -46l-48 -75q-32 23 -71.5 37t-79.5 14
q-39 0 -60.5 -15.5t-21.5 -44.5q0 -18 10 -30t27 -20t39.5 -13.5t46.5 -11.5q32 -8 64 -18t58 -27t42.5 -43.5t16.5 -68.5q0 -75 -52.5 -117t-142.5 -42zM313 596l-68 62h-18l-69 -62h-105l124 124h117l124 -124h-105z" />
    <glyph glyph-name="Scedilla" unicode="&#x15e;" horiz-adv-x="572" 
d="M293 -11q-72 0 -141 26.5t-118 73.5l62 82q39 -41 93 -61.5t108 -20.5q64 0 98 25t34 73q0 35 -18 56.5t-49 36.5t-70.5 26.5t-83.5 26.5q-32 11 -60 25t-49 36t-33 52t-12 72q0 43 16 78.5t45.5 61t71 39.5t91.5 14q67 0 127 -22.5t106 -63.5l-60 -83q-35 35 -82.5 52
t-91.5 17q-57 0 -87.5 -24.5t-30.5 -66.5q0 -27 13 -45t35.5 -31.5t53.5 -23t66 -20.5q38 -11 75.5 -26t67.5 -38t48.5 -57.5t18.5 -84.5q0 -47 -17 -85t-48.5 -64.5t-77 -41t-101.5 -14.5zM254 -174q-22 0 -45 6l8 58q13 -5 26 -5q16 0 24 7t8 17q0 14 -11 23t-34 9l23 60
h62l-16 -34q23 -8 36 -23.5t13 -40.5q0 -14 -6.5 -27.5t-18.5 -24.5t-29.5 -18t-39.5 -7z" />
    <glyph glyph-name="scedilla" unicode="&#x15f;" horiz-adv-x="480" 
d="M254 -9q-66 0 -124 20t-100 57l53 73q37 -31 81 -47t90 -16q47 0 71.5 17t24.5 50q0 21 -10.5 33.5t-29 21.5t-44 15.5t-55.5 15.5q-29 7 -58 16.5t-52 25.5t-37 40.5t-14 62.5q0 71 48.5 112t132.5 41q54 0 105 -17t90 -46l-48 -75q-32 23 -71.5 37t-79.5 14
q-39 0 -60.5 -15.5t-21.5 -44.5q0 -18 10 -30t27 -20t39.5 -13.5t46.5 -11.5q32 -8 64 -18t58 -27t42.5 -43.5t16.5 -68.5q0 -75 -52.5 -117t-142.5 -42zM212 -174q-22 0 -45 6l8 58q13 -5 26 -5q16 0 24 7t8 17q0 14 -11 23t-34 9l23 60h62l-16 -34q23 -8 36 -23.5
t13 -40.5q0 -14 -6.5 -27.5t-18.5 -24.5t-29.5 -18t-39.5 -7z" />
    <glyph glyph-name="Scaron" unicode="&#x160;" horiz-adv-x="572" 
d="M293 -11q-72 0 -141 26.5t-118 73.5l62 82q39 -41 93 -61.5t108 -20.5q64 0 98 25t34 73q0 35 -18 56.5t-49 36.5t-70.5 26.5t-83.5 26.5q-32 11 -60 25t-49 36t-33 52t-12 72q0 43 16 78.5t45.5 61t71 39.5t91.5 14q67 0 127 -22.5t106 -63.5l-60 -83q-35 35 -82.5 52
t-91.5 17q-57 0 -87.5 -24.5t-30.5 -66.5q0 -27 13 -45t35.5 -31.5t53.5 -23t66 -20.5q38 -11 75.5 -26t67.5 -38t48.5 -57.5t18.5 -84.5q0 -47 -17 -85t-48.5 -64.5t-77 -41t-101.5 -14.5zM104 900h106l67 -62h18l67 62h106l-123 -123h-118z" />
    <glyph glyph-name="scaron" unicode="&#x161;" horiz-adv-x="480" 
d="M254 -9q-66 0 -124 20t-100 57l53 73q37 -31 81 -47t90 -16q47 0 71.5 17t24.5 50q0 21 -10.5 33.5t-29 21.5t-44 15.5t-55.5 15.5q-29 7 -58 16.5t-52 25.5t-37 40.5t-14 62.5q0 71 48.5 112t132.5 41q54 0 105 -17t90 -46l-48 -75q-32 23 -71.5 37t-79.5 14
q-39 0 -60.5 -15.5t-21.5 -44.5q0 -18 10 -30t27 -20t39.5 -13.5t46.5 -11.5q32 -8 64 -18t58 -27t42.5 -43.5t16.5 -68.5q0 -75 -52.5 -117t-142.5 -42zM54 720h105l69 -63h18l68 63h105l-124 -124h-117z" />
    <glyph glyph-name="uni0162" unicode="&#x162;" horiz-adv-x="517" 
d="M206 604h-186v96h477v-96h-186v-604h-105v604zM227 -174q-22 0 -45 6l8 58q13 -5 26 -5q16 0 24 7t8 17q0 14 -11 23t-34 9l23 60h62l-16 -34q23 -8 36 -23.5t13 -40.5q0 -14 -6.5 -27.5t-18.5 -24.5t-29.5 -18t-39.5 -7z" />
    <glyph glyph-name="uni0163" unicode="&#x163;" horiz-adv-x="375" 
d="M233 -4q-69 0 -105 36t-36 112v291h-69v69q15 5 33.5 9.5t35.5 6.5v120l99 13v-133h148v-85h-149v-272q0 -45 17.5 -61.5t50.5 -16.5q9 0 21 1t24.5 2.5t24 3.5t19.5 4v-82q-10 -4 -24.5 -7.5t-30 -6t-31 -3.5t-28.5 -1zM189 -174q-22 0 -45 6l8 58q13 -5 26 -5
q16 0 24 7t8 17q0 14 -11 23t-34 9l23 60h62l-16 -34q23 -8 36 -23.5t13 -40.5q0 -14 -6.5 -27.5t-18.5 -24.5t-29.5 -18t-39.5 -7z" />
    <glyph glyph-name="Tcaron" unicode="&#x164;" horiz-adv-x="517" 
d="M206 604h-186v96h477v-96h-186v-604h-105v604zM77 900h106l67 -62h18l67 62h106l-123 -123h-118z" />
    <glyph glyph-name="tcaron" unicode="&#x165;" horiz-adv-x="380" 
d="M233 -4q-69 0 -105 36t-36 112v291h-69v69q15 5 33.5 9.5t35.5 6.5v120l99 13v-133h148v-85h-149v-272q0 -45 17.5 -61.5t50.5 -16.5q9 0 21 1t24.5 2.5t24 3.5t19.5 4v-82q-10 -4 -24.5 -7.5t-30 -6t-31 -3.5t-28.5 -1zM296 721h92l-36 -161h-68z" />
    <glyph glyph-name="Tbar" unicode="&#x166;" horiz-adv-x="517" 
d="M98 395h108v209h-186v96h477v-96h-186v-209h109v-78h-109v-317h-105v317h-108v78z" />
    <glyph glyph-name="tbar" unicode="&#x167;" horiz-adv-x="378" 
d="M31 329h60v106h-69v69q15 5 33.5 9.5t35.5 6.5v120l99 13v-133h148v-85h-149v-106h129v-76h-129v-90q0 -45 17.5 -61.5t50.5 -16.5q9 0 21 1t24.5 2.5t24 3.5t19.5 4v-82q-10 -4 -24.5 -7.5t-30 -6t-31 -3.5t-28.5 -1q-69 0 -105 36t-36 112v109h-60v76z" />
    <glyph glyph-name="Utilde" unicode="&#x168;" horiz-adv-x="697" 
d="M349 -10q-128 0 -197.5 67t-69.5 195v448h106v-439q0 -86 42 -128.5t119 -42.5t118.5 42.5t41.5 128.5v439h106v-448q0 -129 -69.5 -195.5t-196.5 -66.5zM161 838q20 31 49 47.5t63 16.5q23 0 43.5 -7t43.5 -18q18 -8 35.5 -15t37.5 -7q22 0 39 9.5t27 26.5l38 -50
q-20 -31 -48.5 -47.5t-60.5 -16.5q-22 0 -43 7t-45 18q-19 9 -37 15.5t-36 6.5q-23 0 -41 -10t-29 -27z" />
    <glyph glyph-name="utilde" unicode="&#x169;" horiz-adv-x="595" 
d="M243 -9q-87 0 -131 50.5t-44 145.5v333h99v-313q0 -61 24.5 -93t78.5 -32h6q63 0 102.5 40t39.5 110v288h99v-520h-78q-5 14 -9 34.5t-6 37.5q-32 -38 -76.5 -59.5t-98.5 -21.5h-6zM103 660q19 31 48.5 47.5t63.5 16.5q23 0 43.5 -7.5t43.5 -18.5q18 -8 35.5 -14.5
t37.5 -6.5q22 0 38.5 9.5t27.5 26.5l37 -50q-19 -31 -47.5 -47.5t-60.5 -16.5q-23 0 -44 7t-44 18q-19 8 -37 14.5t-36 6.5q-23 0 -41.5 -9.5t-28.5 -26.5z" />
    <glyph glyph-name="Umacron" unicode="&#x16a;" horiz-adv-x="697" 
d="M349 -10q-128 0 -197.5 67t-69.5 195v448h106v-439q0 -86 42 -128.5t119 -42.5t118.5 42.5t41.5 128.5v439h106v-448q0 -129 -69.5 -195.5t-196.5 -66.5zM212 885h275v-76h-275v76z" />
    <glyph glyph-name="umacron" unicode="&#x16b;" horiz-adv-x="595" 
d="M243 -9q-87 0 -131 50.5t-44 145.5v333h99v-313q0 -61 24.5 -93t78.5 -32h6q63 0 102.5 40t39.5 110v288h99v-520h-78q-5 14 -9 34.5t-6 37.5q-32 -38 -76.5 -59.5t-98.5 -21.5h-6zM155 710h275v-78h-275v78z" />
    <glyph glyph-name="Ubreve" unicode="&#x16c;" horiz-adv-x="697" 
d="M349 -10q-128 0 -197.5 67t-69.5 195v448h106v-439q0 -86 42 -128.5t119 -42.5t118.5 42.5t41.5 128.5v439h106v-448q0 -129 -69.5 -195.5t-196.5 -66.5zM279 900q0 -32 19.5 -50.5t51.5 -18.5t51 18.5t19 50.5h88q0 -64 -42.5 -102.5t-115.5 -38.5q-72 0 -115.5 38.5
t-43.5 102.5h88z" />
    <glyph glyph-name="ubreve" unicode="&#x16d;" horiz-adv-x="595" 
d="M243 -9q-87 0 -131 50.5t-44 145.5v333h99v-313q0 -61 24.5 -93t78.5 -32h6q63 0 102.5 40t39.5 110v288h99v-520h-78q-5 14 -9 34.5t-6 37.5q-32 -38 -76.5 -59.5t-98.5 -21.5h-6zM221 720q0 -32 19.5 -50.5t51.5 -18.5t51 18.5t19 50.5h88q0 -64 -43 -102.5t-115 -38.5
q-73 0 -116 38.5t-43 102.5h88z" />
    <glyph glyph-name="Uring" unicode="&#x16e;" horiz-adv-x="697" 
d="M349 -10q-128 0 -197.5 67t-69.5 195v448h106v-439q0 -86 42 -128.5t119 -42.5t118.5 42.5t41.5 128.5v439h106v-448q0 -129 -69.5 -195.5t-196.5 -66.5zM348 750q-42 0 -68 25t-26 63q0 39 26 64.5t68 25.5q41 0 68 -26t27 -64t-26.5 -63t-68.5 -25zM348 799
q17 0 28.5 11t11.5 28t-11.5 29t-28.5 12q-18 0 -29 -12t-11 -29t11 -28t29 -11z" />
    <glyph glyph-name="uring" unicode="&#x16f;" horiz-adv-x="595" 
d="M243 -9q-87 0 -131 50.5t-44 145.5v333h99v-313q0 -61 24.5 -93t78.5 -32h6q63 0 102.5 40t39.5 110v288h99v-520h-78q-5 14 -9 34.5t-6 37.5q-32 -38 -76.5 -59.5t-98.5 -21.5h-6zM292 577q-41 0 -67 25t-26 63q0 39 26 64.5t67 25.5q40 0 66.5 -25.5t26.5 -64.5
q0 -38 -26.5 -63t-66.5 -25zM291 627q18 0 29.5 11t11.5 28t-11.5 28.5t-29.5 11.5q-17 0 -28 -11.5t-11 -28.5t11 -28t28 -11z" />
    <glyph glyph-name="Uhungarumlaut" unicode="&#x170;" horiz-adv-x="697" 
d="M349 -10q-128 0 -197.5 67t-69.5 195v448h106v-439q0 -86 42 -128.5t119 -42.5t118.5 42.5t41.5 128.5v439h106v-448q0 -129 -69.5 -195.5t-196.5 -66.5zM229 762l49 141h100l-67 -141h-82zM381 762l49 141h100l-68 -141h-81z" />
    <glyph glyph-name="uhungarumlaut" unicode="&#x171;" horiz-adv-x="595" 
d="M243 -9q-87 0 -131 50.5t-44 145.5v333h99v-313q0 -61 24.5 -93t78.5 -32h6q63 0 102.5 40t39.5 110v288h99v-520h-78q-5 14 -9 34.5t-6 37.5q-32 -38 -76.5 -59.5t-98.5 -21.5h-6zM223 729h97l-65 -145h-78zM372 729h97l-65 -145h-78z" />
    <glyph glyph-name="Uogonek" unicode="&#x172;" horiz-adv-x="697" 
d="M414 -168q-19 -6 -40 -6q-38 0 -61 20t-23 55q0 45 40 90q-119 5 -183.5 72t-64.5 189v448h106v-439q0 -86 42 -128.5t119 -42.5t118.5 42.5t41.5 128.5v439h106v-448q0 -104 -46 -167.5t-131 -84.5q-31 -11 -53.5 -32t-22.5 -51q0 -33 28 -33q7 0 13 2t11 4v-58z" />
    <glyph glyph-name="uogonek" unicode="&#x173;" horiz-adv-x="595" 
d="M243 -9q-87 0 -131 50.5t-44 145.5v333h99v-313q0 -61 24.5 -93t78.5 -32h6q63 0 102.5 40t39.5 110v288h99v-520h-78q-5 14 -9 34.5t-6 37.5q-32 -38 -76.5 -59.5t-98.5 -21.5h-6zM477 -174q-38 0 -61 20.5t-23 55.5t22 69t62 62l40 -33q-29 -26 -40.5 -45t-11.5 -39
q0 -32 28 -32q6 0 12 2l12 4v-58q-19 -6 -40 -6z" />
    <glyph glyph-name="Wcircumflex" unicode="&#x174;" horiz-adv-x="903" 
d="M25 700h109l113 -581h5l149 581h93l149 -581h6l120 581h109l-157 -700h-138l-133 515h-4l-134 -515h-138zM389 900h118l123 -123h-106l-67 61h-18l-67 -61h-106z" />
    <glyph glyph-name="wcircumflex" unicode="&#x175;" horiz-adv-x="787" 
d="M25 520h102l88 -410h10l119 410h97l119 -411h10l89 411h103l-122 -520h-131l-114 388h-4l-114 -388h-130zM470 596l-68 62h-18l-69 -62h-105l124 124h117l124 -124h-105z" />
    <glyph glyph-name="Ycircumflex" unicode="&#x176;" horiz-adv-x="579" 
d="M237 276l-236 424h122l164 -317h6l164 317h121l-235 -424v-276h-106v276zM231 900h118l123 -123h-106l-67 61h-18l-67 -61h-106z" />
    <glyph glyph-name="ycircumflex" unicode="&#x177;" horiz-adv-x="522" 
d="M139 -199q-18 0 -41.5 4t-43.5 15v87q36 -17 68 -17q35 0 63.5 23t46.5 65l-224 542h108l164 -417h7l129 417h102l-181 -545q-13 -39 -31 -71t-42.5 -55t-55.5 -35.5t-69 -12.5zM343 596l-68 62h-18l-69 -62h-105l124 124h117l124 -124h-105z" />
    <glyph glyph-name="Ydieresis" unicode="&#x178;" horiz-adv-x="579" 
d="M237 276l-236 424h122l164 -317h6l164 317h121l-235 -424v-276h-106v276zM208 770q-23 0 -38 15t-15 39q0 23 15 39t38 16t39 -16t16 -39q0 -24 -16 -39t-39 -15zM370 770q-23 0 -38.5 15t-15.5 39q0 23 15.5 39t38.5 16t38.5 -16t15.5 -39q0 -24 -15.5 -39t-38.5 -15z
" />
    <glyph glyph-name="Zacute" unicode="&#x179;" horiz-adv-x="562" 
d="M38 82l344 517v5h-322v96h453v-82l-341 -514v-8h352v-96h-486v82zM319 762h-79l49 141h100z" />
    <glyph glyph-name="zacute" unicode="&#x17a;" horiz-adv-x="485" 
d="M31 86l290 344v5h-269v85h389v-86l-291 -344v-5h304v-85h-423v86zM201 581l56 146h97l-74 -146h-79z" />
    <glyph glyph-name="Zdotaccent" unicode="&#x17b;" horiz-adv-x="562" 
d="M38 82l344 517v5h-322v96h453v-82l-341 -514v-8h352v-96h-486v82zM281 782q-26 0 -43.5 16t-17.5 42q0 25 17.5 41.5t43.5 16.5q27 0 44.5 -16.5t17.5 -41.5q0 -26 -17.5 -42t-44.5 -16z" />
    <glyph glyph-name="zdotaccent" unicode="&#x17c;" horiz-adv-x="485" 
d="M31 86l290 344v5h-269v85h389v-86l-291 -344v-5h304v-85h-423v86zM242 614q-26 0 -43.5 16t-17.5 42q0 25 17.5 42t43.5 17q27 0 45 -17t18 -42q0 -26 -18 -42t-45 -16z" />
    <glyph glyph-name="Zcaron" unicode="&#x17d;" horiz-adv-x="562" 
d="M38 82l344 517v5h-322v96h453v-82l-341 -514v-8h352v-96h-486v82zM100 897h106l67 -62h18l67 62h106l-123 -123h-118z" />
    <glyph glyph-name="zcaron" unicode="&#x17e;" horiz-adv-x="485" 
d="M31 86l290 344v5h-269v85h389v-86l-291 -344v-5h304v-85h-423v86zM60 720h105l69 -63h18l68 63h105l-124 -124h-117z" />
    <glyph glyph-name="longs" unicode="&#x17f;" horiz-adv-x="279" 
d="M78 554q0 78 37 121t102 43q23 0 51 -5t48 -16v-82q-37 17 -72 17q-34 0 -50.5 -19t-16.5 -65v-548h-99v554z" />
    <glyph glyph-name="uni018F" unicode="&#x18f;" horiz-adv-x="706" 
d="M554 396q-5 50 -22 90t-45 68t-65 43.5t-82 15.5h-9q-63 0 -109.5 -29t-76.5 -80l-83 59q44 65 114 106t156 41h9q70 0 129 -25.5t102 -72t67.5 -110.5t24.5 -142v-19q0 -79 -22.5 -143.5t-63.5 -110.5t-98 -71t-127 -25h-9q-70 0 -127 25t-98 71t-63.5 110t-22.5 142v57
h521zM144 308q3 -51 19 -92t42 -70t61.5 -44.5t78.5 -15.5h9q43 0 78.5 15.5t61.5 44.5t42 70t19 92h-411z" />
    <glyph glyph-name="florin" unicode="&#x192;" horiz-adv-x="343" 
d="M48 -197q-21 0 -47 4t-46 14v85q12 -5 26 -8.5t30 -3.5q38 0 57 18t19 68v454h-62v66q13 5 29.5 9.5t32.5 6.5v38q0 78 37 121t102 43q23 0 51 -5t48 -16v-82q-19 8 -37 12.5t-38 4.5q-34 0 -50.5 -19t-16.5 -64v-31h136v-84h-133v-474q-1 -77 -38 -117t-100 -40z" />
    <glyph glyph-name="uni01CD" unicode="&#x1cd;" horiz-adv-x="627" 
d="M242 700h144l241 -700h-114l-60 183h-278l-60 -183h-114zM425 275l-108 324h-6l-107 -324h221zM132 900h106l67 -62h18l67 62h106l-123 -123h-118z" />
    <glyph glyph-name="uni01CE" unicode="&#x1ce;" horiz-adv-x="554" 
d="M214 -9q-38 0 -69.5 11t-54 31t-35 48.5t-12.5 63.5v8q0 85 72.5 126.5t222.5 41.5h45v29q0 42 -27.5 66.5t-79.5 24.5h-6q-39 0 -81 -14t-77 -40l-44 75q48 32 100 50t109 18h7q92 0 143.5 -47.5t51.5 -130.5v-256q0 -24 5.5 -49.5t12.5 -46.5h-97q-5 11 -8.5 28
t-5.5 34q-36 -35 -80 -53t-92 -18zM230 78q46 0 85.5 19.5t67.5 52.5v96h-32q-111 0 -161 -21t-50 -68v-5q0 -34 24.5 -54t65.5 -20zM97 720h105l69 -63h18l68 63h105l-124 -124h-117z" />
    <glyph glyph-name="uni01DD" unicode="&#x1dd;" horiz-adv-x="565" 
d="M275 528q56 0 102 -18.5t78.5 -51.5t50.5 -80t18 -104v-19q0 -58 -18 -106.5t-50.5 -83t-78 -53.5t-101.5 -19h-9q-51 0 -93 17.5t-72 49t-46.5 76t-16.5 98.5v62h384q-5 66 -46.5 104.5t-107.5 38.5h-10q-50 0 -85 -21t-57 -52l-64 57q37 50 91 77.5t120 27.5h11z
M134 219v-1q3 -64 40 -102t95 -38h10q59 0 96.5 37.5t45.5 103.5h-287z" />
    <glyph glyph-name="uni01F4" unicode="&#x1f4;" horiz-adv-x="715" 
d="M334 760l50 141h102l-73 -149zM357 -9q-72 0 -130 25t-99 71t-63 110.5t-22 143.5v19q0 78 24 142.5t66.5 110.5t102 71.5t130.5 25.5h10q81 0 151 -40t111 -112l-87 -55q-28 51 -71.5 79.5t-103.5 28.5h-9q-48 0 -87.5 -18t-67.5 -51t-43.5 -79t-15.5 -103v-20
q0 -57 15.5 -103t43.5 -78.5t68.5 -50.5t89.5 -18h9q39 0 72.5 12.5t57.5 34.5t37.5 52t13.5 66v17h-170v93h270v-365h-78q-6 13 -10.5 35.5t-6.5 43.5q-30 -39 -84.5 -63.5t-115.5 -24.5h-8z" />
    <glyph glyph-name="uni01F5" unicode="&#x1f5;" horiz-adv-x="535" 
d="M221 582l56 145h97l-75 -145h-78zM42 346q0 40 15.5 73.5t43.5 57.5t67 37.5t86 13.5h19q63 0 113 -25q7 19 15.5 36.5t19.5 31.5h94l-63 -121q34 -45 34 -104v-13q0 -40 -16 -73.5t-44 -57.5t-67 -37.5t-86 -13.5h-19h-17.5t-16.5 2v-57q9 2 18.5 2h20.5h25
q51 0 92 -10.5t70.5 -29.5t45.5 -46.5t16 -61.5v-9q0 -34 -16 -61t-45.5 -46.5t-71 -30t-91.5 -10.5h-25q-51 0 -92 10.5t-70.5 29.5t-45.5 46.5t-16 61.5v11q0 43 26.5 75.5t73.5 50.5v101q-44 23 -68.5 63t-24.5 91v13zM141 330q0 -45 32.5 -72.5t83.5 -27.5h13
q51 0 83.5 27.5t32.5 72.5v15q0 45 -32.5 72.5t-83.5 27.5h-13q-51 0 -83.5 -27.5t-32.5 -72.5v-15zM136 -55q0 -33 32.5 -52.5t94.5 -19.5h18q63 0 95.5 20t32.5 52v6q0 33 -33 53t-95 20h-18q-62 0 -94.5 -20t-32.5 -53v-6z" />
    <glyph glyph-name="AEacute" unicode="&#x1fc;" horiz-adv-x="821" 
d="M258 700h495v-96h-278v-201h258v-93h-258v-214h288v-96h-390v183h-192l-66 -183h-115zM373 275v329h-44l-117 -329h161zM462 745h-79l49 141h100z" />
    <glyph glyph-name="aeacute" unicode="&#x1fd;" horiz-adv-x="885" 
d="M214 -7q-38 0 -69.5 11t-54 30.5t-35 47t-12.5 60.5q0 162 291 162h40v34q-2 49 -27.5 75t-75.5 26q-39 0 -81.5 -14t-77.5 -40l-44 75q102 67 209 67q55 0 96 -20t64 -58q32 37 77.5 57.5t100.5 20.5h3q50 0 92 -17.5t72 -49.5t47 -76t17 -97v-62h-377v-1q7 -63 48 -103
t103 -40h2q44 0 83 20t63 53l64 -57q-37 -48 -94 -76.5t-121 -28.5h-4q-62 0 -111.5 25t-82.5 69q-41 -46 -94.5 -69.5t-110.5 -23.5zM750 300v2q-4 62 -41.5 101t-94.5 39h-2q-56 0 -93.5 -38.5t-46.5 -103.5h278zM382 154q-4 11 -6.5 23t-4.5 26q-1 7 -1 13.5t-1 14.5h-22
q-107 0 -157 -21t-50 -64q0 -30 25 -48t68 -18q45 0 85 20t64 54zM404 561l56 146h97l-74 -146h-79z" />
    <glyph glyph-name="Oslashacute" unicode="&#x1fe;" horiz-adv-x="750" 
d="M155 66q-53 46 -83 116t-30 158v20q0 80 24.5 144.5t68 110.5t103.5 71t131 25h11q83 0 151 -34l35 58h90l-61 -100q53 -47 82.5 -116.5t29.5 -158.5v-20q0 -79 -24 -144t-67.5 -111t-103.5 -71t-132 -25h-11q-81 0 -149 34l-35 -59h-92zM151 340q0 -58 16 -105t45 -81
l269 437q-46 26 -102 26h-9q-47 0 -87 -18t-69.5 -52t-46 -81t-16.5 -106v-20zM269 108q47 -25 101 -25h9q47 0 87.5 18t70 52t46 81.5t16.5 105.5v20q0 58 -16 104.5t-45 80.5zM414 762h-79l49 141h100z" />
    <glyph glyph-name="oslashacute" unicode="&#x1ff;" horiz-adv-x="588" 
d="M129 46q-42 34 -65 85.5t-23 114.5v28q0 56 18 102.5t51 80.5t78.5 52.5t100.5 18.5h10q49 0 94 -17l28 49h87l-49 -87q42 -34 65 -85t23 -114v-28q0 -56 -18 -102.5t-51 -80.5t-78.5 -52.5t-100.5 -18.5h-10q-26 0 -49 4t-44 12l-29 -50h-88zM355 432q-27 11 -57 11h-9
q-67 0 -108 -46.5t-41 -122.5v-26q0 -76 41 -123zM298 77q34 0 61.5 12.5t47 35t30 54t10.5 69.5v26q0 75 -39 120l-175 -307q28 -10 56 -10h9zM252 579l56 146h97l-74 -146h-79z" />
    <glyph glyph-name="uni0218" unicode="&#x218;" horiz-adv-x="572" 
d="M293 -11q-72 0 -141 26.5t-118 73.5l62 82q39 -41 93 -61.5t108 -20.5q64 0 98 25t34 73q0 35 -18 56.5t-49 36.5t-70.5 26.5t-83.5 26.5q-32 11 -60 25t-49 36t-33 52t-12 72q0 43 16 78.5t45.5 61t71 39.5t91.5 14q67 0 127 -22.5t106 -63.5l-60 -83q-35 35 -82.5 52
t-91.5 17q-57 0 -87.5 -24.5t-30.5 -66.5q0 -27 13 -45t35.5 -31.5t53.5 -23t66 -20.5q38 -11 75.5 -26t67.5 -38t48.5 -57.5t18.5 -84.5q0 -47 -17 -85t-48.5 -64.5t-77 -41t-101.5 -14.5zM250 -36h90l-63 -147h-65z" />
    <glyph glyph-name="uni0219" unicode="&#x219;" horiz-adv-x="480" 
d="M254 -9q-66 0 -124 20t-100 57l53 73q37 -31 81 -47t90 -16q47 0 71.5 17t24.5 50q0 21 -10.5 33.5t-29 21.5t-44 15.5t-55.5 15.5q-29 7 -58 16.5t-52 25.5t-37 40.5t-14 62.5q0 71 48.5 112t132.5 41q54 0 105 -17t90 -46l-48 -75q-32 23 -71.5 37t-79.5 14
q-39 0 -60.5 -15.5t-21.5 -44.5q0 -18 10 -30t27 -20t39.5 -13.5t46.5 -11.5q32 -8 64 -18t58 -27t42.5 -43.5t16.5 -68.5q0 -75 -52.5 -117t-142.5 -42zM207 -36h90l-63 -147h-65z" />
    <glyph glyph-name="uni021A" unicode="&#x21a;" horiz-adv-x="517" 
d="M206 604h-186v96h477v-96h-186v-604h-105v604zM216 -36h90l-63 -147h-65z" />
    <glyph glyph-name="uni021B" unicode="&#x21b;" horiz-adv-x="375" 
d="M233 -4q-69 0 -105 36t-36 112v291h-69v69q15 5 33.5 9.5t35.5 6.5v120l99 13v-133h148v-85h-149v-272q0 -45 17.5 -61.5t50.5 -16.5q9 0 21 1t24.5 2.5t24 3.5t19.5 4v-82q-10 -4 -24.5 -7.5t-30 -6t-31 -3.5t-28.5 -1zM185 -36h90l-63 -147h-65z" />
    <glyph glyph-name="uni0237" unicode="&#x237;" horiz-adv-x="277" 
d="M62 -197q-21 0 -47 4t-47 14v85q13 -5 26.5 -8.5t30.5 -3.5q38 0 56.5 18t18.5 68v540h99v-559q0 -78 -37 -118t-100 -40z" />
    <glyph glyph-name="circumflex" unicode="&#x2c6;" horiz-adv-x="383" 
d="M269 596l-68 62h-18l-69 -62h-105l124 124h117l124 -124h-105z" />
    <glyph glyph-name="caron" unicode="&#x2c7;" horiz-adv-x="383" 
d="M9 720h105l69 -63h18l68 63h105l-124 -124h-117z" />
    <glyph glyph-name="breve" unicode="&#x2d8;" horiz-adv-x="343" 
d="M101 720q0 -32 19.5 -50.5t51.5 -18.5t51 18.5t19 50.5h88q0 -64 -43 -102.5t-115 -38.5q-73 0 -116 38.5t-43 102.5h88z" />
    <glyph glyph-name="dotaccent" unicode="&#x2d9;" horiz-adv-x="260" 
d="M129 611q-26 0 -43.5 16t-17.5 42q0 25 17.5 42t43.5 17q27 0 45 -17t18 -42q0 -26 -18 -42t-45 -16z" />
    <glyph glyph-name="ring" unicode="&#x2da;" horiz-adv-x="216" 
d="M108 574q-41 0 -67 25t-26 63q0 39 26 64.5t67 25.5q40 0 66.5 -25.5t26.5 -64.5q0 -38 -26.5 -63t-66.5 -25zM107 624q18 0 29.5 11t11.5 28t-11.5 28.5t-29.5 11.5q-17 0 -28 -11.5t-11 -28.5t11 -28t28 -11z" />
    <glyph glyph-name="ogonek" unicode="&#x2db;" horiz-adv-x="199" 
d="M118 -174q-38 0 -61 20.5t-23 55.5t22 69t62 62l40 -33q-29 -26 -40.5 -45t-11.5 -39q0 -32 28 -32q6 0 12 2l12 4v-58q-19 -6 -40 -6z" />
    <glyph glyph-name="tilde" unicode="&#x2dc;" horiz-adv-x="414" 
d="M21 659q19 31 48.5 47.5t63.5 16.5q23 0 43.5 -7.5t43.5 -18.5q18 -8 35.5 -14.5t37.5 -6.5q22 0 38.5 9.5t27.5 26.5l37 -50q-19 -31 -47.5 -47.5t-60.5 -16.5q-23 0 -44 7t-44 18q-19 8 -37 14.5t-36 6.5q-23 0 -41.5 -9.5t-28.5 -26.5z" />
    <glyph glyph-name="hungarumlaut" unicode="&#x2dd;" horiz-adv-x="461" 
d="M84 726h97l-65 -145h-78zM233 726h97l-65 -145h-78z" />
    <glyph glyph-name="uni0326" unicode="&#x326;" horiz-adv-x="160" 
d="M46 -36h90l-63 -147h-65z" />
    <glyph glyph-name="uni0394" unicode="&#x394;" horiz-adv-x="627" 
d="M242 700h144l241 -700h-626zM483 92l-166 507h-6l-166 -507h338z" />
    <glyph glyph-name="uni03A9" unicode="&#x3a9;" horiz-adv-x="770" 
d="M163 341q0 -48 13.5 -88.5t37 -72t54.5 -53t66 -31.5v-96h-250v94h79q-51 45 -80.5 109.5t-29.5 145.5v20q0 78 24 141t67.5 107.5t103.5 69t132 24.5h11q71 0 131 -24.5t103.5 -70t68 -109.5t24.5 -142v-20q0 -78 -30 -142t-81 -109h79v-94h-250v94h1l-1 3q36 10 67 31
t54.5 52.5t37 72.5t13.5 89v20q0 57 -16.5 103.5t-46 79t-69 50.5t-86.5 18h-9q-47 0 -87 -18t-69 -51t-45.5 -79.5t-16.5 -103.5v-20z" />
    <glyph glyph-name="uni03BC" unicode="&#x3bc;" horiz-adv-x="605" 
d="M265 -9q-56 0 -94 26l9 -217h-102v720h99v-313q0 -61 24 -93t78 -32h7q63 0 102.5 40t39.5 110v288h99v-520h-78q-5 14 -9 34.5t-6 37.5q-29 -38 -71 -59.5t-92 -21.5h-6z" />
    <glyph glyph-name="pi" unicode="&#x3c0;" horiz-adv-x="587" 
d="M509 -6q-26 0 -49 7.5t-39.5 25t-26 45t-9.5 67.5v296h-194v-435h-99v435h-67v85h527v-85h-68v-278q0 -48 11.5 -63t35.5 -15q13 0 29 6v-84q-24 -7 -51 -7z" />
    <glyph glyph-name="uni0401" unicode="&#x401;" horiz-adv-x="551" 
d="M194 769q-24 0 -39.5 15t-15.5 38t15.5 39t39.5 16t40.5 -16t16.5 -39t-16.5 -38t-40.5 -15zM396 769q-24 0 -39.5 15t-15.5 38t15.5 39t39.5 16t40.5 -16t16.5 -39t-16.5 -38t-40.5 -15zM91 700h400v-96h-295v-201h275v-93h-275v-214h305v-96h-410v700z" />
    <glyph glyph-name="uni0402" unicode="&#x402;" horiz-adv-x="694" 
d="M180 604h-160v96h477v-96h-212v-174q43 15 80.5 23t74.5 8q100 0 156.5 -58.5t56.5 -167.5v-38q0 -46 -13 -84t-36.5 -64.5t-56.5 -41t-74 -14.5q-18 0 -37.5 3t-39.5 11v86q29 -8 49 -8q51 0 77.5 33t26.5 93v25q0 69 -31 100.5t-91 31.5q-32 0 -67.5 -8.5t-74.5 -23.5
v-336h-105v604z" />
    <glyph glyph-name="uni0403" unicode="&#x403;" horiz-adv-x="492" 
d="M91 700h381v-96h-275v-604h-106v700zM320 745h-79l49 141h100z" />
    <glyph glyph-name="uni0404" unicode="&#x404;" horiz-adv-x="663" 
d="M367 -9q-73 0 -132.5 25t-102.5 71t-66.5 110.5t-23.5 143.5v19q0 78 24 142t67 110.5t102.5 72t129.5 25.5h9q81 0 151 -40t110 -110l-85 -57q-28 51 -71.5 80t-104.5 29h-10q-88 0 -144.5 -57.5t-66.5 -155.5h304v-91h-305q5 -50 22 -90.5t44.5 -69t65.5 -44t83 -15.5
h9q60 0 105.5 29.5t72.5 79.5l82 -58q-40 -71 -108.5 -110t-151.5 -39h-9z" />
    <glyph glyph-name="uni0405" unicode="&#x405;" horiz-adv-x="568" 
d="M292 -11q-73 0 -141.5 26.5t-117.5 73.5l61 82q39 -41 94 -61.5t109 -20.5q63 0 96.5 25t33.5 73q0 33 -16.5 54t-44 35.5t-63 24.5t-73.5 22q-40 12 -73 28t-56 39t-36 53.5t-13 72.5q0 44 16 79.5t45 61.5t71 40t93 14q66 0 126.5 -22.5t105.5 -63.5l-60 -83
q-35 35 -83 52t-93 17q-55 0 -85.5 -24.5t-30.5 -65.5q0 -25 11.5 -43t31.5 -31t48.5 -23t62.5 -19q45 -12 86 -28.5t72 -40.5t49 -58.5t18 -83.5q0 -47 -17 -85t-49 -64.5t-77 -41t-101 -14.5z" />
    <glyph glyph-name="uni0406" unicode="&#x406;" horiz-adv-x="287" 
d="M91 700h105v-700h-105v700z" />
    <glyph glyph-name="uni0407" unicode="&#x407;" horiz-adv-x="287" 
d="M62 768q-23 0 -38 15t-15 39q0 23 15 39t38 16t39 -16t16 -39q0 -24 -16 -39t-39 -15zM223 768q-23 0 -38 15t-15 39q0 23 15 39t38 16t39 -16t16 -39q0 -24 -16 -39t-39 -15zM91 700h105v-700h-105v700z" />
    <glyph glyph-name="uni0408" unicode="&#x408;" horiz-adv-x="396" 
d="M130 -7q-52 0 -93 19v101q14 -10 32.5 -16.5t41.5 -6.5q52 0 75 29.5t23 80.5v500h105v-505q0 -94 -46 -148t-138 -54z" />
    <glyph glyph-name="uni0409" unicode="&#x409;" horiz-adv-x="984" 
d="M73 -10q-17 0 -31.5 3t-28.5 8v93q24 -9 47 -9q29 0 47 15.5t28.5 59.5t15.5 123.5t8 207.5l4 209h419v-269h123q54 0 98 -14.5t75 -41.5t48 -66t17 -88v-8q0 -49 -16.5 -88t-47 -67t-74.5 -43t-98 -15h-230v604h-213l-3 -139q-3 -135 -11 -226.5t-28 -146.5t-55.5 -78.5
t-93.5 -23.5zM698 94q69 0 104 30.5t35 87.5v8q0 57 -35 87t-104 30h-116v-243h116z" />
    <glyph glyph-name="uni040A" unicode="&#x40a;" horiz-adv-x="987" 
d="M91 700h106v-269h282v269h106v-269h123q54 0 98 -14.5t75 -41.5t48 -66t17 -88v-8q0 -49 -16.5 -88t-47 -67t-74.5 -43t-99 -15h-230v335h-282v-335h-106v700zM700 94q69 0 104 30.5t35 87.5v8q0 57 -35 87t-104 30h-115v-243h115z" />
    <glyph glyph-name="uni040B" unicode="&#x40b;" horiz-adv-x="711" 
d="M180 604h-160v96h477v-96h-212v-173q45 16 82 23t73 7q104 0 153.5 -52.5t49.5 -163.5v-245h-106v234q0 73 -27 102.5t-92 29.5q-33 0 -64 -7t-69 -22v-337h-105v604z" />
    <glyph glyph-name="uni040C" unicode="&#x40c;" horiz-adv-x="631" 
d="M91 700h106v-305h5l268 305h128l-293 -322l322 -378h-136l-289 345h-5v-345h-106v700zM372 745h-79l49 141h100z" />
    <glyph glyph-name="uni040E" unicode="&#x40e;" horiz-adv-x="583" 
d="M210 -10q-50 0 -95 20v91q19 -8 38.5 -13.5t37.5 -5.5q52 0 72 40l-252 578h114l186 -457h11l147 457h108l-207 -577q-21 -60 -58 -96.5t-102 -36.5zM234 900q0 -32 19.5 -50.5t51.5 -18.5t51 18.5t19 50.5h88q0 -64 -42.5 -102.5t-115.5 -38.5q-72 0 -115.5 38.5
t-43.5 102.5h88z" />
    <glyph glyph-name="uni040F" unicode="&#x40f;" horiz-adv-x="683" 
d="M592 0h-200v-135h-101v135h-200v700h106v-606h289v606h106v-700z" />
    <glyph glyph-name="uni0410" unicode="&#x410;" horiz-adv-x="627" 
d="M242 700h144l241 -700h-114l-60 183h-278l-60 -183h-114zM425 275l-108 324h-6l-107 -324h221z" />
    <glyph glyph-name="uni0411" unicode="&#x411;" horiz-adv-x="619" 
d="M91 700h446v-96h-340v-174h143q54 0 98 -14.5t75 -42t48 -66t17 -86.5v-7q0 -49 -17 -88.5t-48 -67.5t-75 -43t-99 -15h-248v700zM333 95q65 0 101 31.5t36 87.5v8q0 57 -36.5 87t-100.5 30h-137v-244h137z" />
    <glyph glyph-name="uni0412" unicode="&#x412;" horiz-adv-x="632" 
d="M91 700h222q52 0 94.5 -12t73 -34.5t47 -54.5t16.5 -72v-11q0 -91 -80 -143q57 -25 87 -68t30 -101v-11q0 -45 -17 -80.5t-47.5 -60.5t-74.5 -38.5t-98 -13.5h-253v700zM316 401q58 0 90 26.5t32 73.5v9q0 45 -31.5 70.5t-90.5 25.5h-122v-205h122zM339 95q63 0 99 26.5
t36 77.5v10q0 50 -36.5 77.5t-99.5 27.5h-144v-219h145z" />
    <glyph glyph-name="uni0413" unicode="&#x413;" horiz-adv-x="492" 
d="M91 700h381v-96h-275v-604h-106v700z" />
    <glyph glyph-name="uni0414" unicode="&#x414;" horiz-adv-x="676" 
d="M20 94h47q36 37 53 168t17 364v74h435v-606h78v-229h-101v135h-428v-135h-101v229zM239 592q-1 -190 -18 -311.5t-49 -186.5h296v513h-229v-15z" />
    <glyph glyph-name="uni0415" unicode="&#x415;" horiz-adv-x="559" 
d="M91 700h401v-96h-295v-201h275v-93h-275v-214h305v-96h-411v700z" />
    <glyph glyph-name="uni0416" unicode="&#x416;" horiz-adv-x="844" 
d="M370 345h-7l-228 -345h-129l263 378l-230 322h118l206 -305h7v305h104v-305h7l207 305h118l-230 -322l262 -378h-128l-229 345h-7v-345h-104v345z" />
    <glyph glyph-name="uni0417" unicode="&#x417;" 
d="M299 -10q-89 0 -158 41.5t-114 114.5l87 54q35 -59 79.5 -86.5t104.5 -27.5q66 0 104 30.5t38 83.5v3q0 53 -35 82t-97 29h-87v89h65q57 0 88.5 28t31.5 78v3q0 45 -33.5 73t-87.5 28q-50 0 -88 -25.5t-63 -73.5l-89 54q43 69 107 106t142 37q47 0 87.5 -13.5t69.5 -37.5
t45.5 -57t16.5 -72v-6q0 -48 -22.5 -86.5t-60.5 -65.5q54 -24 86.5 -70.5t32.5 -108.5v-5q0 -43 -19 -79.5t-52.5 -63t-79 -41.5t-99.5 -15z" />
    <glyph glyph-name="uni0418" unicode="&#x418;" horiz-adv-x="708" 
d="M91 700h105v-531h8l294 531h119v-700h-105v544h-9l-303 -544h-109v700z" />
    <glyph glyph-name="uni0419" unicode="&#x419;" horiz-adv-x="708" 
d="M91 700h105v-531h8l294 531h119v-700h-105v544h-9l-303 -544h-109v700zM284 900q0 -32 19.5 -50.5t51.5 -18.5t51 18.5t19 50.5h88q0 -64 -42.5 -102.5t-115.5 -38.5q-72 0 -115.5 38.5t-43.5 102.5h88z" />
    <glyph glyph-name="uni041A" unicode="&#x41a;" horiz-adv-x="631" 
d="M91 700h106v-305h5l268 305h128l-293 -322l322 -378h-136l-289 345h-5v-345h-106v700z" />
    <glyph glyph-name="uni041B" unicode="&#x41b;" horiz-adv-x="684" 
d="M72 -10q-16 0 -30.5 2.5t-28.5 7.5v93q11 -4 21.5 -6t23.5 -2q30 0 48 15.5t28.5 58.5t15.5 118t7 193l5 230h431v-700h-106v604h-223l-4 -144q-3 -138 -11 -229t-28.5 -144.5t-56 -75t-92.5 -21.5z" />
    <glyph glyph-name="uni041C" unicode="&#x41c;" horiz-adv-x="856" 
d="M91 700h154l180 -466h5l180 466h155v-700h-104v571h-6l-183 -473h-88l-183 473h-6v-571h-104v700z" />
    <glyph glyph-name="uni041D" unicode="&#x41d;" horiz-adv-x="696" 
d="M91 700h105v-294h303v294h105v-700h-105v310h-303v-310h-105v700z" />
    <glyph glyph-name="uni041E" unicode="&#x41e;" horiz-adv-x="750" 
d="M43 360q0 80 24 144.5t67.5 110.5t103.5 71t132 25h11q71 0 131 -25t103.5 -71t68 -110.5t24.5 -144.5v-20q0 -79 -24.5 -144t-68 -111t-103.5 -71t-131 -25h-11q-71 0 -131 25t-103.5 71t-68 111t-24.5 144v20zM153 340q0 -58 16.5 -104.5t45.5 -79.5t69 -51t87 -18h9
q47 0 86.5 18t69 51t46 79.5t16.5 104.5v20q0 58 -16.5 104.5t-46 79.5t-69 51t-86.5 18h-9q-47 0 -87 -18t-69 -51t-45.5 -79.5t-16.5 -104.5v-20z" />
    <glyph glyph-name="uni041F" unicode="&#x41f;" horiz-adv-x="690" 
d="M91 700h508v-700h-105v604h-297v-604h-106v700z" />
    <glyph glyph-name="uni0420" unicode="&#x420;" horiz-adv-x="598" 
d="M91 700h221q55 0 100 -15t77.5 -43.5t50 -68.5t17.5 -91v-15q0 -51 -17.5 -92t-49 -69.5t-76.5 -44t-100 -15.5h-117v-246h-106v700zM306 337q68 0 106 33.5t38 94.5v15q0 60 -38 92.5t-105 32.5h-112v-268h111z" />
    <glyph glyph-name="uni0421" unicode="&#x421;" horiz-adv-x="662" 
d="M367 -9q-73 0 -133 25t-102.5 71t-65.5 110.5t-23 143.5v19q0 78 24 142t66.5 110.5t101.5 72t129 25.5h9q41 0 79 -10.5t72 -30t62 -47t48 -62.5l-85 -57q-27 51 -71 80t-105 29h-8q-48 0 -87 -18t-66.5 -51t-43 -79.5t-15.5 -103.5v-20q0 -57 15.5 -103.5t43.5 -79
t67.5 -50.5t87.5 -18h10q60 0 104.5 29.5t72.5 79.5l81 -58q-40 -71 -108 -110t-152 -39h-8z" />
    <glyph glyph-name="uni0422" unicode="&#x422;" horiz-adv-x="517" 
d="M206 604h-186v96h477v-96h-186v-604h-105v604z" />
    <glyph glyph-name="uni0423" unicode="&#x423;" horiz-adv-x="583" 
d="M210 -10q-50 0 -95 20v91q19 -8 38.5 -13.5t37.5 -5.5q52 0 72 40l-252 578h114l186 -457h11l147 457h108l-207 -577q-21 -60 -58 -96.5t-102 -36.5z" />
    <glyph glyph-name="uni0424" unicode="&#x424;" horiz-adv-x="776" 
d="M439 71v-71h-102v71h-17q-62 0 -113 20.5t-88 57.5t-57 89t-20 115v16q0 63 20 115t57 89t88 57t113 20h17v55h102v-55h16q62 0 113 -20t88 -57t57 -89t20 -115v-16q0 -63 -20 -115t-57 -89t-88 -57.5t-113 -20.5h-16zM339 160v401h-18q-39 0 -70.5 -13.5t-54 -38.5
t-35 -61t-12.5 -80v-15q0 -44 12.5 -80t35 -61t54 -38.5t70.5 -13.5h18zM455 160q39 0 70.5 14t54 39t34.5 61t12 79v15q0 44 -12 79.5t-34.5 61t-54 39t-70.5 13.5h-18v-401h18z" />
    <glyph glyph-name="uni0425" unicode="&#x425;" horiz-adv-x="596" 
d="M226 361v4l-199 335h124l144 -257h6l148 257h119l-199 -335v-4l216 -361h-124l-160 285h-6l-162 -285h-123z" />
    <glyph glyph-name="uni0426" unicode="&#x426;" horiz-adv-x="696" 
d="M569 0h-478v700h106v-606h289v606h106v-605h78v-230h-101v135z" />
    <glyph glyph-name="uni0427" unicode="&#x427;" horiz-adv-x="650" 
d="M454 290q-49 -17 -89 -24.5t-79 -7.5q-109 0 -161.5 52.5t-52.5 163.5v226h106v-215q0 -73 29 -102.5t99 -29.5q35 0 69.5 7.5t78.5 23.5v316h105v-700h-105v290z" />
    <glyph glyph-name="uni0428" unicode="&#x428;" horiz-adv-x="997" 
d="M91 700h105v-606h250v606h105v-606h250v606h105v-700h-815v700z" />
    <glyph glyph-name="uni0429" unicode="&#x429;" horiz-adv-x="1005" 
d="M877 0h-786v700h105v-606h248v606h104v-606h248v606h105v-604h78v-231h-102v135z" />
    <glyph glyph-name="uni042A" unicode="&#x42a;" horiz-adv-x="654" 
d="M137 606h-143v94h249v-253h127q55 0 99.5 -15t76.5 -43t49.5 -68.5t17.5 -90.5v-10q0 -51 -17 -91.5t-48.5 -69t-76 -44t-99.5 -15.5h-235v606zM360 95q69 0 107 32t38 94v9q0 60 -38 92t-107 32h-119v-259h119z" />
    <glyph glyph-name="uni042B" unicode="&#x42b;" horiz-adv-x="841" 
d="M91 700h106v-253h124q55 0 99.5 -15t76.5 -43t49.5 -68.5t17.5 -90.5v-10q0 -50 -17 -91t-48.5 -69.5t-76 -44t-99.5 -15.5h-232v700zM644 700h106v-700h-106v700zM312 95q69 0 106.5 32.5t37.5 93.5v9q0 60 -37.5 92t-106.5 32h-117v-259h117z" />
    <glyph glyph-name="uni042C" unicode="&#x42c;" horiz-adv-x="607" 
d="M91 700h106v-253h127q54 0 99 -15t76.5 -43t49 -68.5t17.5 -90.5v-10q0 -51 -17 -91.5t-48.5 -69t-76 -44t-99.5 -15.5h-234v700zM314 95q69 0 107 32.5t38 93.5v9q0 60 -37.5 92t-107.5 32h-119v-259h119z" />
    <glyph glyph-name="uni042D" unicode="&#x42d;" horiz-adv-x="661" 
d="M284 -9q-83 0 -150 39t-107 110l82 58q27 -50 71.5 -80t104.5 -30h9q45 0 83 15.5t66 44.5t45 69.5t21 90.5h-305v91h304q-5 49 -22 88.5t-44.5 67.5t-64 43t-80.5 15h-9q-61 0 -104 -29.5t-71 -80.5l-85 57q40 70 109 110t150 40h8q71 0 130 -25.5t102 -72t67 -110.5
t24 -142v-19q0 -79 -23.5 -143.5t-66 -110.5t-102.5 -71t-133 -25h-9z" />
    <glyph glyph-name="uni042E" unicode="&#x42e;" horiz-adv-x="989" 
d="M614 -10q-70 0 -127.5 22.5t-99 64.5t-66 101.5t-29.5 132.5h-95v-311h-106v700h106v-295h96q6 70 31.5 126.5t67 96.5t98 61.5t124.5 21.5h10q73 0 132.5 -25t102 -71t65.5 -110.5t23 -143.5v-20q0 -79 -23 -144t-65.5 -111t-102 -71t-132.5 -25h-10zM401 341
q0 -58 15 -104.5t43 -79.5t67.5 -51t88.5 -18h8q49 0 88.5 18t67.5 51t43 79.5t15 104.5v20q0 58 -15 104.5t-43 79.5t-67.5 51t-88.5 18h-8q-49 0 -88.5 -18t-67.5 -51t-43 -79.5t-15 -104.5v-20z" />
    <glyph glyph-name="uni042F" unicode="&#x42f;" horiz-adv-x="630" 
d="M184 273q-64 25 -102.5 78t-38.5 124v14q0 50 18 89t51.5 66t81 41.5t105.5 14.5h239v-700h-105v253h-143l-146 -253h-122zM435 606h-129q-72 0 -113.5 -30.5t-41.5 -89.5v-13q0 -58 41 -94t115 -36h128v263z" />
    <glyph glyph-name="uni0430" unicode="&#x430;" horiz-adv-x="554" 
d="M214 -9q-38 0 -69.5 11t-54 31t-35 48.5t-12.5 63.5v8q0 85 72.5 126.5t222.5 41.5h45v29q0 42 -27.5 66.5t-79.5 24.5h-6q-39 0 -81 -14t-77 -40l-44 75q48 32 100 50t109 18h7q92 0 143.5 -47.5t51.5 -130.5v-256q0 -24 5.5 -49.5t12.5 -46.5h-97q-5 11 -8.5 28
t-5.5 34q-36 -35 -80 -53t-92 -18zM230 78q46 0 85.5 19.5t67.5 52.5v96h-32q-111 0 -161 -21t-50 -68v-5q0 -34 24.5 -54t65.5 -20z" />
    <glyph glyph-name="uni0431" unicode="&#x431;" horiz-adv-x="591" 
d="M300 -8q-127 0 -193 88.5t-66 260.5q0 167 63 258t178 117q29 6 59 10.5t59 7.5t55.5 4t46.5 1v-97q-54 0 -104.5 -5t-95.5 -14q-79 -16 -123 -67.5t-52 -156.5q27 54 74.5 87.5t112.5 33.5h6q52 0 94.5 -19t72.5 -52.5t46.5 -80t16.5 -101.5v-21q0 -55 -18.5 -101.5
t-51 -80.5t-77 -53t-96.5 -19h-7zM303 79q32 0 58.5 12.5t46 34.5t30.5 52.5t11 67.5v21q0 75 -39.5 121t-105.5 46h-2q-33 0 -60 -13t-47 -35.5t-31 -54t-11 -68.5v-17q0 -37 11 -67.5t30.5 -52.5t46 -34.5t57.5 -12.5h5z" />
    <glyph glyph-name="uni0432" unicode="&#x432;" horiz-adv-x="532" 
d="M78 520h236q72 0 115.5 -36t43.5 -96v-16q0 -32 -15 -57.5t-41 -43.5q38 -17 60 -46.5t22 -67.5v-15q0 -32 -12.5 -58t-36 -45t-55.5 -29t-71 -10h-246v520zM297 302q36 0 57 18t21 48v6q0 31 -21 49t-56 18h-125v-139h124zM312 79q39 0 63 19.5t24 50.5v9q0 32 -23 51
t-64 19h-139v-149h139z" />
    <glyph glyph-name="uni0433" unicode="&#x433;" horiz-adv-x="403" 
d="M78 520h307v-85h-208v-435h-99v520z" />
    <glyph glyph-name="uni0434" unicode="&#x434;" horiz-adv-x="578" 
d="M14 84h42q30 24 44.5 130.5t14.5 305.5h368v-436h69v-212h-95v128h-349v-128h-94v212zM384 84v353h-175q-2 -160 -16 -246.5t-36 -106.5h227z" />
    <glyph glyph-name="uni0435" unicode="&#x435;" horiz-adv-x="565" 
d="M290 -8q-56 0 -102 18.5t-78.5 51.5t-50.5 80t-18 104v19q0 59 18 107t50.5 82.5t78.5 53.5t101 19h9q51 0 93 -17.5t72 -49t46.5 -76t16.5 -98.5v-62h-384q5 -66 46.5 -104.5t107.5 -38.5h10q50 0 85 21t57 52l64 -57q-37 -50 -91 -77.5t-120 -27.5h-11zM431 301v1
q-3 64 -40 102t-95 38h-10q-59 0 -96.5 -37.5t-45.5 -103.5h287z" />
    <glyph glyph-name="uni0436" unicode="&#x436;" horiz-adv-x="704" 
d="M304 252h-9l-174 -252h-116l203 278l-189 242h109l168 -223h8v223h96v-223h8l168 223h109l-189 -242l203 -278h-116l-173 252h-10v-252h-96v252z" />
    <glyph glyph-name="uni0437" unicode="&#x437;" horiz-adv-x="481" 
d="M240 -8q-67 0 -122.5 30t-90.5 91l77 48q23 -40 55.5 -60.5t80.5 -20.5h9q45 0 72 19t27 51v7q0 35 -23.5 52.5t-68.5 17.5h-74v76h72q33 0 53 18t20 47v8q0 29 -22.5 46.5t-59.5 17.5h-8q-44 0 -75 -20.5t-48 -57.5l-76 53q32 53 84 83t122 30h9q37 0 68.5 -10t55 -28.5
t36.5 -43.5t13 -55v-12q0 -32 -16 -58.5t-45 -46.5q39 -20 61 -50.5t22 -71.5v-11q0 -33 -14.5 -60t-41 -47t-62.5 -31t-80 -11h-10z" />
    <glyph glyph-name="uni0438" unicode="&#x438;" horiz-adv-x="609" 
d="M78 520h97v-360h10l240 360h106v-520h-98v377h-9l-251 -377h-95v520z" />
    <glyph glyph-name="uni0439" unicode="&#x439;" horiz-adv-x="609" 
d="M78 520h97v-360h10l240 360h106v-520h-98v377h-9l-251 -377h-95v520zM234 720q0 -32 19.5 -50.5t51.5 -18.5t51 18.5t19 50.5h88q0 -64 -43 -102.5t-115 -38.5q-73 0 -116 38.5t-43 102.5h88z" />
    <glyph glyph-name="uni043A" unicode="&#x43a;" horiz-adv-x="526" 
d="M78 520h99v-223h5l211 223h117l-234 -242l244 -278h-125l-212 252h-6v-252h-99v520z" />
    <glyph glyph-name="uni043B" unicode="&#x43b;" horiz-adv-x="559" 
d="M66 -8q-28 0 -51 9v84q8 -5 17.5 -6.5t17.5 -1.5q21 0 34.5 10t21 36.5t10.5 74t4 122.5l3 200h358v-520h-99v435h-167l-2 -130q-1 -94 -10.5 -155t-27.5 -96t-45 -48.5t-64 -13.5z" />
    <glyph glyph-name="uni043C" unicode="&#x43c;" horiz-adv-x="693" 
d="M78 520h105l159 -325h9l159 325h105v-520h-96v345h-10l-127 -257h-71l-128 256h-9v-344h-96v520z" />
    <glyph glyph-name="uni043D" unicode="&#x43d;" horiz-adv-x="598" 
d="M78 520h99v-206h245v206h99v-520h-99v229h-245v-229h-99v520z" />
    <glyph glyph-name="uni043E" unicode="&#x43e;" horiz-adv-x="588" 
d="M289 -8q-55 0 -100.5 18.5t-78.5 52.5t-51 80.5t-18 102.5v28q0 56 18 102.5t51 80.5t78.5 52.5t100.5 18.5h10q55 0 100.5 -18.5t78.5 -52.5t51 -80.5t18 -102.5v-28q0 -56 -18 -102.5t-51 -80.5t-78.5 -52.5t-100.5 -18.5h-10zM298 79q33 0 60 12.5t46 34.5t29.5 53.5
t10.5 68.5v25q0 38 -10.5 69t-30 53t-46 34t-59.5 12h-8q-33 0 -59.5 -12t-46 -34t-30 -53t-10.5 -69v-25q0 -37 10.5 -68.5t29.5 -53.5t46 -34.5t60 -12.5h8z" />
    <glyph glyph-name="uni043F" unicode="&#x43f;" horiz-adv-x="602" 
d="M78 520h447v-520h-99v435h-249v-435h-99v520z" />
    <glyph glyph-name="uni0440" unicode="&#x440;" horiz-adv-x="620" 
d="M78 520h78q5 -12 8.5 -30t5.5 -35q31 34 74 53.5t95 19.5h9q51 0 93.5 -18.5t73 -52.5t47.5 -80.5t17 -102.5v-28q0 -56 -17 -102.5t-47.5 -80.5t-73 -52.5t-93.5 -18.5h-9q-50 0 -91 17.5t-71 49.5v-259h-99v720zM330 79q33 0 59.5 12t46 34.5t30 53.5t10.5 69v25
q0 38 -10.5 69t-30 53t-46 34t-59.5 12h-8q-66 0 -105.5 -46.5t-39.5 -121.5v-25q0 -38 10.5 -69t29.5 -53.5t45.5 -34.5t59.5 -12h8z" />
    <glyph glyph-name="uni0441" unicode="&#x441;" horiz-adv-x="537" 
d="M289 -7q-55 0 -100.5 18.5t-78.5 52t-51 80.5t-18 103v27q0 56 18.5 102.5t51 80t77.5 52t99 18.5h8q68 0 123 -32.5t90 -92.5l-75 -47q-45 86 -137 86h-9q-66 0 -104.5 -45.5t-38.5 -123.5v-24q0 -77 40.5 -122.5t108.5 -45.5h9q85 0 132 84l76 -48q-37 -60 -91 -91.5
t-121 -31.5h-9z" />
    <glyph glyph-name="uni0442" unicode="&#x442;" horiz-adv-x="446" 
d="M174 434h-156v86h410v-86h-155v-434h-99v434z" />
    <glyph glyph-name="uni0443" unicode="&#x443;" horiz-adv-x="522" 
d="M139 -199q-18 0 -41.5 4t-43.5 15v87q36 -17 68 -17q35 0 63.5 23t46.5 65l-224 542h108l164 -417h7l129 417h102l-181 -545q-13 -39 -31 -71t-42.5 -55t-55.5 -35.5t-69 -12.5z" />
    <glyph glyph-name="uni0444" unicode="&#x444;" horiz-adv-x="710" 
d="M404 720v-194q5 1 8.5 1h6.5q56 0 102 -18.5t79 -52.5t51 -80.5t18 -102.5v-26q0 -56 -18 -102.5t-51 -80.5t-79 -52.5t-101 -18.5h-8.5t-6.5 1v-184h-99v184q-4 -1 -8 -1h-8q-55 0 -101 18.5t-79 52.5t-51 80.5t-18 102.5v26q0 56 18 102.5t51 80.5t79 52.5t101 18.5h8
t8 -1v194h98zM141 248q0 -39 11 -71.5t31 -55t48.5 -35t62.5 -12.5h6.5t5.5 1v370q-2 1 -5.5 1h-6.5q-34 0 -62 -12.5t-48 -35.5t-31.5 -55t-11.5 -71v-24zM568 272q0 79 -41.5 126.5t-111.5 47.5q-7 0 -12 -1v-370q3 -1 6.5 -1h5.5q70 0 111.5 47.5t41.5 126.5v24z" />
    <glyph glyph-name="uni0445" unicode="&#x445;" horiz-adv-x="509" 
d="M192 265v4l-168 251h117l116 -186h4l111 186h114l-167 -251v-4l174 -265h-116l-120 199h-5l-122 -199h-114z" />
    <glyph glyph-name="uni0446" unicode="&#x446;" horiz-adv-x="614" 
d="M493 0h-415v520h99v-436h241v436h99v-436h71v-212h-95v128z" />
    <glyph glyph-name="uni0447" unicode="&#x447;" horiz-adv-x="545" 
d="M368 204q-35 -14 -71 -21.5t-71 -7.5q-85 0 -126.5 42t-41.5 123v180h96v-170q0 -46 21 -68t67 -22q33 0 65.5 6t60.5 19v235h99v-520h-99v204z" />
    <glyph glyph-name="uni0448" unicode="&#x448;" horiz-adv-x="820" 
d="M78 520h98v-436h185v436h98v-436h186v436h98v-520h-665v520z" />
    <glyph glyph-name="uni0449" unicode="&#x449;" horiz-adv-x="829" 
d="M708 0h-630v520h98v-436h181v436h98v-436h182v436h98v-436h68v-212h-95v128z" />
    <glyph glyph-name="uni044A" unicode="&#x44a;" horiz-adv-x="535" 
d="M107 437h-93v83h191v-174h123q39 0 71.5 -12t55.5 -34t35.5 -52.5t12.5 -66.5v-16q0 -36 -12.5 -66.5t-35.5 -52.5t-55.5 -34t-72.5 -12h-220v437zM321 82q38 0 60 23.5t22 61.5v13q0 38 -22 61.5t-60 23.5h-117v-183h117z" />
    <glyph glyph-name="uni044B" unicode="&#x44b;" horiz-adv-x="729" 
d="M78 520h99v-174h120q39 0 71 -12.5t55.5 -34.5t36.5 -52t13 -66v-16q0 -36 -12.5 -66.5t-36 -52.5t-56 -34t-72.5 -12h-218v520zM555 520h97v-520h-97v520zM292 83q37 0 59.5 23.5t22.5 61.5v11q0 37 -23 61t-59 24h-118v-181h118z" />
    <glyph glyph-name="uni044C" unicode="&#x44c;" horiz-adv-x="510" 
d="M78 520h98v-174h127q39 0 71.5 -12t55.5 -34t35.5 -52.5t12.5 -66.5v-16q0 -36 -12.5 -66.5t-35.5 -52.5t-55.5 -34t-72.5 -12h-224v520zM297 83q38 0 60 23.5t22 61.5v11q0 38 -22 61.5t-60 23.5h-122v-181h122z" />
    <glyph glyph-name="uni044D" unicode="&#x44d;" horiz-adv-x="540" 
d="M242 -7q-67 0 -122 31.5t-93 91.5l76 48q49 -84 135 -84h10q63 0 102.5 39t46.5 105h-224v77h224q-8 65 -46 102.5t-98 37.5h-9q-46 0 -81.5 -21.5t-58.5 -64.5l-75 47q35 60 90.5 92.5t123.5 32.5h8q54 0 99.5 -18.5t78.5 -52t51.5 -80t18.5 -102.5v-27q0 -56 -18 -103
t-50.5 -80.5t-78 -52t-101.5 -18.5h-9z" />
    <glyph glyph-name="uni044E" unicode="&#x44e;" horiz-adv-x="786" 
d="M496 -8q-51 0 -94 17t-74.5 48.5t-50 75t-21.5 95.5h-82v-228h-96v520h96v-207h84q6 48 25.5 88t50 68t72 43.5t90.5 15.5h9q54 0 98.5 -18.5t76 -52t48.5 -80t17 -103.5v-28q0 -57 -17 -103.5t-48.5 -80t-76 -52t-98.5 -18.5h-9zM504 79q62 0 100 46.5t38 122.5v25
q0 76 -38 122t-100 46h-7q-63 0 -100.5 -46t-37.5 -122v-25q0 -76 37.5 -122.5t100.5 -46.5h7z" />
    <glyph glyph-name="uni044F" unicode="&#x44f;" horiz-adv-x="536" 
d="M153 203q-45 19 -72 55.5t-27 86.5v16q0 35 13 64.5t36 50.5t55 32.5t71 11.5h230v-520h-96v187h-116l-106 -187h-108zM364 268v169h-128q-37 0 -60 -21t-23 -57v-11q0 -35 24 -57.5t59 -22.5h128z" />
    <glyph glyph-name="uni0451" unicode="&#x451;" horiz-adv-x="565" 
d="M290 -8q-56 0 -102 18.5t-78.5 51.5t-50.5 80t-18 104v19q0 59 18 107t50.5 82.5t78.5 53.5t101 19h9q51 0 93 -17.5t72 -49t46.5 -76t16.5 -98.5v-62h-384q5 -66 46.5 -104.5t107.5 -38.5h10q50 0 85 21t57 52l64 -57q-37 -50 -91 -77.5t-120 -27.5h-11zM431 301v1
q-3 64 -40 102t-95 38h-10q-59 0 -96.5 -37.5t-45.5 -103.5h287zM392 618q-24 0 -39.5 15.5t-15.5 38.5t15.5 38.5t39.5 15.5t40.5 -15.5t16.5 -38.5t-16.5 -38.5t-40.5 -15.5zM191 618q-24 0 -40 15.5t-16 38.5t16 38.5t40 15.5q23 0 39.5 -15.5t16.5 -38.5t-16.5 -38.5
t-39.5 -15.5z" />
    <glyph glyph-name="uni0452" unicode="&#x452;" horiz-adv-x="598" 
d="M76 592h-67v72h67v56h99v-56h154v-73h-154v-143q32 34 75.5 53t95.5 19h2q91 0 136.5 -50.5t45.5 -145.5v-315q0 -47 -13 -85t-36.5 -65t-56.5 -41.5t-74 -14.5q-17 0 -37 3t-39 11v86q13 -5 26 -7.5t24 -2.5q51 0 79 30t28 87v295q0 61 -26 92.5t-83 31.5h-3
q-65 0 -104.5 -38t-39.5 -108v-283h-99v592z" />
    <glyph glyph-name="uni0453" unicode="&#x453;" horiz-adv-x="403" 
d="M78 520h307v-85h-208v-435h-99v520zM190 561l56 146h97l-74 -146h-79z" />
    <glyph glyph-name="uni0454" unicode="&#x454;" horiz-adv-x="541" 
d="M292 -7q-56 0 -102 18.5t-79 52t-51.5 80.5t-18.5 103v27q0 56 18.5 102.5t51.5 80t78.5 52t99.5 18.5h8q69 0 124.5 -32.5t90.5 -92.5l-75 -47q-47 86 -140 86h-9q-60 0 -98 -37.5t-46 -102.5h224v-77h-224q7 -66 47 -105t103 -39h10q86 0 133 84l76 -48
q-36 -60 -90.5 -91.5t-122.5 -31.5h-8z" />
    <glyph glyph-name="uni0455" unicode="&#x455;" horiz-adv-x="480" 
d="M254 -9q-66 0 -124 20t-100 57l53 73q37 -31 81 -47t90 -16q47 0 71.5 17t24.5 50q0 21 -10.5 33.5t-29 21.5t-44 15.5t-55.5 15.5q-29 7 -58 16.5t-52 25.5t-37 40.5t-14 62.5q0 71 48.5 112t132.5 41q54 0 105 -17t90 -46l-48 -75q-32 23 -71.5 37t-79.5 14
q-39 0 -60.5 -15.5t-21.5 -44.5q0 -18 10 -30t27 -20t39.5 -13.5t46.5 -11.5q32 -8 64 -18t58 -27t42.5 -43.5t16.5 -68.5q0 -75 -52.5 -117t-142.5 -42z" />
    <glyph glyph-name="uni0456" unicode="&#x456;" horiz-adv-x="254" 
d="M127 611q-27 0 -44 16t-17 42q0 25 17 42t44 17q26 0 43.5 -17t17.5 -42q0 -26 -17.5 -42t-43.5 -16zM78 520h99v-520h-99v520z" />
    <glyph glyph-name="uni0457" unicode="&#x457;" horiz-adv-x="254" 
d="M199 615q-22 0 -37 15t-15 39q0 23 15 38.5t37 15.5q23 0 38 -15.5t15 -38.5q0 -24 -15 -39t-38 -15zM55 615q-23 0 -38 15t-15 39q0 23 15 38.5t38 15.5q22 0 37 -15.5t15 -38.5q0 -24 -15 -39t-37 -15zM78 520h99v-520h-99v520z" />
    <glyph glyph-name="uni0458" unicode="&#x458;" horiz-adv-x="273" 
d="M145 611q-27 0 -44.5 16t-17.5 42q0 25 17.5 42t44.5 17t44.5 -17t17.5 -42q0 -26 -17.5 -42t-44.5 -16zM56 -201q-20 0 -46 4.5t-46 13.5v85q25 -11 56 -11q38 0 56.5 17.5t18.5 67.5v544h99v-563q0 -78 -37 -118t-101 -40z" />
    <glyph glyph-name="uni0459" unicode="&#x459;" horiz-adv-x="793" 
d="M66 -8q-28 0 -51 9v84q8 -5 17.5 -6.5t17.5 -1.5q21 0 34.5 10t21 36.5t10.5 74t4 122.5l3 200h345v-189h122q39 0 70.5 -11.5t54 -32.5t35 -50t12.5 -64v-15q0 -35 -12.5 -64t-36 -50t-55.5 -32.5t-71 -11.5h-218v435h-154l-2 -130q-2 -94 -11.5 -155t-27.5 -96
t-44.5 -48.5t-63.5 -13.5zM582 82q36 0 57.5 21.5t21.5 56.5v10q0 35 -21.5 57t-57.5 22h-114v-167h114z" />
    <glyph glyph-name="uni045A" unicode="&#x45a;" horiz-adv-x="826" 
d="M78 520h99v-189h225v189h99v-189h121q39 0 71 -11.5t54.5 -32.5t34.5 -50t12 -64v-15q0 -35 -12.5 -64t-35.5 -50t-55 -32.5t-71 -11.5h-218v246h-225v-246h-99v520zM615 82q36 0 57 21.5t21 56.5v10q0 35 -21 57t-57 22h-114v-167h114z" />
    <glyph glyph-name="uni045B" unicode="&#x45b;" horiz-adv-x="598" 
d="M76 592h-67v72h67v56h99v-56h154v-73h-154v-143q32 34 75.5 53t95.5 19h2q91 0 136.5 -50.5t45.5 -145.5v-324h-99v305q0 61 -26 92.5t-83 31.5h-3q-65 0 -104.5 -38t-39.5 -108v-283h-99v592z" />
    <glyph glyph-name="uni045C" unicode="&#x45c;" horiz-adv-x="526" 
d="M78 520h99v-223h5l211 223h117l-234 -242l244 -278h-125l-212 252h-6v-252h-99v520zM238 561l56 146h97l-74 -146h-79z" />
    <glyph glyph-name="uni045E" unicode="&#x45e;" horiz-adv-x="522" 
d="M139 -199q-18 0 -41.5 4t-43.5 15v87q36 -17 68 -17q35 0 63.5 23t46.5 65l-224 542h108l164 -417h7l129 417h102l-181 -545q-13 -39 -31 -71t-42.5 -55t-55.5 -35.5t-69 -12.5zM195 720q0 -32 19.5 -50.5t51.5 -18.5t51 18.5t19 50.5h88q0 -64 -43 -102.5t-115 -38.5
q-73 0 -116 38.5t-43 102.5h88z" />
    <glyph glyph-name="uni045F" unicode="&#x45f;" horiz-adv-x="595" 
d="M177 520v-436h241v436h99v-520h-172v-128h-95v128h-172v520h99z" />
    <glyph glyph-name="uni0490" unicode="&#x490;" horiz-adv-x="481" 
d="M91 700h270v123h100v-219h-264v-604h-106v700z" />
    <glyph glyph-name="uni0491" unicode="&#x491;" horiz-adv-x="397" 
d="M78 520h206v107h95v-192h-202v-435h-99v520z" />
    <glyph glyph-name="uni0492" unicode="&#x492;" horiz-adv-x="508" 
d="M107 300h-72v86h72v314h381v-96h-275v-218h152v-86h-152v-300h-106v300z" />
    <glyph glyph-name="uni0493" unicode="&#x493;" horiz-adv-x="413" 
d="M88 209h-66v83h66v228h307v-85h-208v-143h127v-83h-127v-209h-99v209z" />
    <glyph glyph-name="uni049A" unicode="&#x49a;" horiz-adv-x="631" 
d="M91 700h106v-305h5l268 305h128l-293 -322l241 -283h81v-230h-101v135h-35l-289 345h-5v-345h-106v700z" />
    <glyph glyph-name="uni049B" unicode="&#x49b;" horiz-adv-x="516" 
d="M78 520h99v-223h5l211 223h117l-234 -242l171 -194h74v-212h-95v128h-31l-212 252h-6v-252h-99v520z" />
    <glyph glyph-name="uni04A2" unicode="&#x4a2;" horiz-adv-x="710" 
d="M582 0h-83v310h-303v-310h-105v700h105v-294h303v294h105v-605h79v-230h-101v135z" />
    <glyph glyph-name="uni04A3" unicode="&#x4a3;" horiz-adv-x="616" 
d="M495 0h-73v229h-245v-229h-99v520h99v-206h245v206h99v-436h69v-212h-95v128z" />
    <glyph glyph-name="uni04AE" unicode="&#x4ae;" horiz-adv-x="579" 
d="M237 276l-236 424h122l164 -317h6l164 317h121l-235 -424v-276h-106v276z" />
    <glyph glyph-name="uni04AF" unicode="&#x4af;" horiz-adv-x="537" 
d="M19 520h106l139 -421h10l139 421h106l-189 -520h-12v-200h-99v200h-12z" />
    <glyph glyph-name="uni04B0" unicode="&#x4b0;" horiz-adv-x="586" 
d="M120 316h100l-219 384h122l164 -317h6l164 317h121l-218 -384h98v-85h-115v-231h-106v231h-117v85z" />
    <glyph glyph-name="uni04B1" unicode="&#x4b1;" horiz-adv-x="537" 
d="M113 0h94l-188 520h106l139 -421h10l139 421h106l-189 -520h91v-83h-103v-117h-99v117h-106v83z" />
    <glyph glyph-name="uni04BA" unicode="&#x4ba;" horiz-adv-x="650" 
d="M196.027 410.018q48.9971 16.999 88.9951 24.499q39.9971 7.49902 78.9951 7.49902q108.993 0 161.49 -52.4971q52.4961 -52.4961 52.4961 -163.489v-225.986h-105.993v214.986q0 72.9961 -28.998 102.494t-98.9941 29.498q-34.998 0 -69.4961 -7.49902
q-34.4971 -7.5 -78.4951 -23.499v-315.98h-104.993v699.957h104.993v-289.982z" />
    <glyph glyph-name="uni04BB" unicode="&#x4bb;" 
d="M78 720h99v-268q33 36 78.5 56.5t99.5 20.5q85 0 131 -51t46 -145v-333h-99v314q0 124 -112 124q-66 0 -105 -40t-39 -107v-291h-99v720z" />
    <glyph glyph-name="uni04D4" unicode="&#x4d4;" horiz-adv-x="821" 
d="M258 700h495v-96h-278v-201h258v-93h-258v-214h288v-96h-390v183h-192l-66 -183h-115zM373 275v329h-44l-117 -329h161z" />
    <glyph glyph-name="uni04D5" unicode="&#x4d5;" horiz-adv-x="885" 
d="M214 -7q-38 0 -69.5 11t-54 30.5t-35 47t-12.5 60.5q0 162 291 162h40v34q-2 49 -27.5 75t-75.5 26q-39 0 -81.5 -14t-77.5 -40l-44 75q102 67 209 67q55 0 96 -20t64 -58q32 37 77.5 57.5t100.5 20.5h3q50 0 92 -17.5t72 -49.5t47 -76t17 -97v-62h-377v-1q7 -63 48 -103
t103 -40h2q44 0 83 20t63 53l64 -57q-37 -48 -94 -76.5t-121 -28.5h-4q-62 0 -111.5 25t-82.5 69q-41 -46 -94.5 -69.5t-110.5 -23.5zM750 300v2q-4 62 -41.5 101t-94.5 39h-2q-56 0 -93.5 -38.5t-46.5 -103.5h278zM382 154q-4 11 -6.5 23t-4.5 26q-1 7 -1 13.5t-1 14.5h-22
q-107 0 -157 -21t-50 -64q0 -30 25 -48t68 -18q45 0 85 20t64 54z" />
    <glyph glyph-name="uni04D8" unicode="&#x4d8;" horiz-adv-x="706" 
d="M554 396q-5 50 -22 90t-45 68t-65 43.5t-82 15.5h-9q-63 0 -109.5 -29t-76.5 -80l-83 59q44 65 114 106t156 41h9q70 0 129 -25.5t102 -72t67.5 -110.5t24.5 -142v-19q0 -79 -22.5 -143.5t-63.5 -110.5t-98 -71t-127 -25h-9q-70 0 -127 25t-98 71t-63.5 110t-22.5 142v57
h521zM144 308q3 -51 19 -92t42 -70t61.5 -44.5t78.5 -15.5h9q43 0 78.5 15.5t61.5 44.5t42 70t19 92h-411z" />
    <glyph glyph-name="uni04D9" unicode="&#x4d9;" horiz-adv-x="565" 
d="M275 528q56 0 102 -18.5t78.5 -51.5t50.5 -80t18 -104v-19q0 -58 -18 -106.5t-50.5 -83t-78 -53.5t-101.5 -19h-9q-51 0 -93 17.5t-72 49t-46.5 76t-16.5 98.5v62h384q-5 66 -46.5 104.5t-107.5 38.5h-10q-50 0 -85 -21t-57 -52l-64 57q37 50 91 77.5t120 27.5h11z
M134 219v-1q3 -64 40 -102t95 -38h10q59 0 96.5 37.5t45.5 103.5h-287z" />
    <glyph glyph-name="uni04E8" unicode="&#x4e8;" horiz-adv-x="750" 
d="M43 360q0 80 24 144.5t67.5 110.5t103.5 71t132 25h11q71 0 131 -25t103.5 -71t68 -110.5t24.5 -144.5v-20q0 -79 -24.5 -144t-68 -111t-103.5 -71t-131 -25h-11q-71 0 -131 25t-103.5 71t-68 111t-24.5 144v20zM596 396q-5 50 -23.5 90t-47 68.5t-65.5 43.5t-80 15h-9
q-43 0 -80.5 -15t-66 -43.5t-47 -68.5t-23.5 -90h442zM154 308q5 -51 23 -92t48 -69.5t69.5 -44t85.5 -15.5q43 0 80.5 15.5t66 44t47 69.5t22.5 92h-442z" />
    <glyph glyph-name="uni04E9" unicode="&#x4e9;" horiz-adv-x="588" 
d="M289 -8q-55 0 -100.5 18.5t-78.5 52.5t-51 80.5t-18 102.5v28q0 56 18 102.5t51 80.5t78.5 52.5t100.5 18.5h10q55 0 100.5 -18.5t78.5 -52.5t51 -80.5t18 -102.5v-28q0 -56 -18 -102.5t-51 -80.5t-78.5 -52.5t-100.5 -18.5h-10zM442 299q-6 66 -45 105t-99 39h-8
q-60 0 -99 -39t-45 -105h296zM298 77q61 0 99.5 39.5t44.5 105.5h-296q6 -66 44.5 -105.5t99.5 -39.5h8z" />
    <glyph glyph-name="uni058F" unicode="&#x58f;" horiz-adv-x="625" 
d="M289 710q121 0 188 -66.5t67 -195.5v-107h80v-86h-80v-43h80v-86h-80v-126h-105v126h-137v86h137v43h-137v86h137v98q0 87 -39 129t-111 42q-73 0 -112.5 -42t-39.5 -129v-32h-105v41q0 128 66.5 195t190.5 67z" />
    <glyph glyph-name="Wgrave" unicode="&#x1e80;" horiz-adv-x="903" 
d="M25 700h109l113 -581h5l149 581h93l149 -581h6l120 581h109l-157 -700h-138l-133 515h-4l-134 -515h-138zM334 903h102l50 -141h-83z" />
    <glyph glyph-name="wgrave" unicode="&#x1e81;" horiz-adv-x="787" 
d="M25 520h102l88 -410h10l119 410h97l119 -411h10l89 411h103l-122 -520h-131l-114 388h-4l-114 -388h-130zM279 729h97l56 -145h-79z" />
    <glyph glyph-name="Wacute" unicode="&#x1e82;" horiz-adv-x="903" 
d="M25 700h109l113 -581h5l149 581h93l149 -581h6l120 581h109l-157 -700h-138l-133 515h-4l-134 -515h-138zM486 765h-79l49 141h100z" />
    <glyph glyph-name="wacute" unicode="&#x1e83;" horiz-adv-x="787" 
d="M25 520h102l88 -410h10l119 410h97l119 -411h10l89 411h103l-122 -520h-131l-114 388h-4l-114 -388h-130zM351 581l56 146h97l-74 -146h-79z" />
    <glyph glyph-name="Wdieresis" unicode="&#x1e84;" horiz-adv-x="903" 
d="M355 769q-24 0 -40 15t-16 38t16 39t40 16q23 0 39.5 -16t16.5 -39t-16.5 -38t-39.5 -15zM540 769q-24 0 -39.5 15t-15.5 38t15.5 39t39.5 16t40.5 -16t16.5 -39t-16.5 -38t-40.5 -15zM25 700h109l114 -581h3l150 581h93l150 -581h4l121 581h109l-157 -700h-138l-133 515
h-4l-134 -515h-138z" />
    <glyph glyph-name="wdieresis" unicode="&#x1e85;" horiz-adv-x="787" 
d="M25 520h102l88 -410h10l119 410h97l119 -411h10l89 411h103l-122 -520h-131l-114 388h-4l-114 -388h-130zM492 618q-24 0 -39.5 15.5t-15.5 38.5t15.5 38.5t39.5 15.5t40.5 -15.5t16.5 -38.5t-16.5 -38.5t-40.5 -15.5zM291 618q-24 0 -40 15.5t-16 38.5t16 38.5t40 15.5
q23 0 39.5 -15.5t16.5 -38.5t-16.5 -38.5t-39.5 -15.5z" />
    <glyph glyph-name="Germandbls" unicode="&#x1e9e;" horiz-adv-x="699" 
d="M399 -10q-45 0 -81.5 10t-67.5 29l57 88q44 -26 94 -26q66 0 105 35.5t39 95.5q0 58 -36.5 93.5t-96.5 35.5q-24 0 -49 -5.5t-42 -16.5l-41 69l175 206h-110q-35 0 -64 -12t-49.5 -34.5t-32 -53.5t-11.5 -69v-435h-106v436q0 60 18 108.5t51 83t79.5 53.5t103.5 19h248
v-82l-159 -181q6 0 12 0.5t12 0.5q47 -1 85 -17t65 -44t41.5 -67.5t14.5 -87.5q0 -53 -18 -96t-51 -73t-80 -46.5t-105 -16.5z" />
    <glyph glyph-name="uni1EBC" unicode="&#x1ebc;" horiz-adv-x="559" 
d="M91 700h401v-96h-295v-201h275v-93h-275v-214h305v-96h-411v700zM109 838q20 31 49 47.5t63 16.5q23 0 43.5 -7t43.5 -18q18 -8 35.5 -15t37.5 -7q22 0 39 9.5t27 26.5l38 -50q-20 -31 -48.5 -47.5t-60.5 -16.5q-22 0 -43 7t-45 18q-19 9 -37 15.5t-36 6.5q-23 0 -41 -10
t-29 -27z" />
    <glyph glyph-name="uni1EBD" unicode="&#x1ebd;" horiz-adv-x="565" 
d="M290 -8q-56 0 -102 18.5t-78.5 51.5t-50.5 80t-18 104v19q0 59 18 107t50.5 82.5t78.5 53.5t101 19h9q51 0 93 -17.5t72 -49t46.5 -76t16.5 -98.5v-62h-384q5 -66 46.5 -104.5t107.5 -38.5h10q50 0 85 21t57 52l64 -57q-37 -50 -91 -77.5t-120 -27.5h-11zM431 301v1
q-3 64 -40 102t-95 38h-10q-59 0 -96.5 -37.5t-45.5 -103.5h287zM104 660q19 31 48.5 47.5t63.5 16.5q23 0 43.5 -7.5t43.5 -18.5q18 -8 35.5 -14.5t37.5 -6.5q22 0 38.5 9.5t27.5 26.5l37 -50q-19 -31 -47.5 -47.5t-60.5 -16.5q-23 0 -44 7t-44 18q-19 8 -37 14.5t-36 6.5
q-23 0 -41.5 -9.5t-28.5 -26.5z" />
    <glyph glyph-name="uni2010" unicode="&#x2010;" horiz-adv-x="450" 
d="M65 336h320v-86h-320v86z" />
    <glyph glyph-name="endash" unicode="&#x2013;" horiz-adv-x="640" 
d="M65 350h510v-80h-510v80z" />
    <glyph glyph-name="emdash" unicode="&#x2014;" horiz-adv-x="1130" 
d="M65 350h1000v-80h-1000v80z" />
    <glyph glyph-name="quoteleft" unicode="&#x2018;" horiz-adv-x="254" 
d="M145.008 437.043h-100.994l107.994 262.983h79.9951z" />
    <glyph glyph-name="quoteright" unicode="&#x2019;" horiz-adv-x="252" 
d="M128 700h101l-108 -263h-80z" />
    <glyph glyph-name="quotesinglbase" unicode="&#x201a;" horiz-adv-x="240" 
d="M100 145h101l-108 -264h-80z" />
    <glyph glyph-name="quotedblleft" unicode="&#x201c;" horiz-adv-x="425" 
d="M317.007 436.009h-99.9941l107.993 263.984h78.9951zM143.018 436.009h-99.9941l107.993 263.984h78.9951z" />
    <glyph glyph-name="quotedblright" unicode="&#x201d;" horiz-adv-x="425" 
d="M128 700h100l-108 -264h-79zM302 700h100l-108 -264h-79z" />
    <glyph glyph-name="quotedblbase" unicode="&#x201e;" horiz-adv-x="425" 
d="M108 145h100l-108 -264h-79zM282 145h100l-108 -264h-79z" />
    <glyph glyph-name="dagger" unicode="&#x2020;" horiz-adv-x="373" 
d="M143 435h-128v85h128v200h87v-200h128v-85h-128v-563h-87v563z" />
    <glyph glyph-name="daggerdbl" unicode="&#x2021;" horiz-adv-x="373" 
d="M141 168h-126v86h126v181h-126v85h126v200h91v-200h126v-85h-126v-181h126v-86h-126v-296h-91v296z" />
    <glyph glyph-name="bullet" unicode="&#x2022;" horiz-adv-x="238" 
d="M119 222q-32 0 -53 20.5t-21 49.5v4q0 29 21 49t53 20q31 0 52.5 -20t21.5 -49v-4q0 -29 -22 -49.5t-52 -20.5z" />
    <glyph glyph-name="ellipsis" unicode="&#x2026;" horiz-adv-x="662" 
d="M550 -10q-28 0 -47.5 18.5t-19.5 44.5v4q0 26 19.5 44t47.5 18q27 0 47 -18t20 -44v-4q0 -26 -20 -44.5t-47 -18.5zM112 -10q-28 0 -47.5 18.5t-19.5 44.5v4q0 26 19.5 44t47.5 18q27 0 47 -18t20 -44v-4q0 -26 -20 -44.5t-47 -18.5zM331 -10q-28 0 -47.5 18.5
t-19.5 44.5v4q0 26 19.5 44t47.5 18q27 0 47 -18t20 -44v-4q0 -26 -20 -44.5t-47 -18.5z" />
    <glyph glyph-name="perthousand" unicode="&#x2030;" horiz-adv-x="1189" 
d="M202 335q-36 0 -65 13t-49.5 36t-32 56t-11.5 72v18q0 39 11.5 72t32 56t49.5 36t65 13h7q36 0 65 -13t49.5 -36t32 -56t11.5 -72v-18q0 -39 -11.5 -72t-32 -56t-49.5 -36t-65 -13h-7zM612 700h117l-528 -701h-117zM207 418q33 0 53 26t20 70v14q0 44 -20 70t-53 26h-3
q-33 0 -53 -26t-20 -70v-14q0 -44 20 -70t53 -26h3zM603 -9q-35 0 -64 13t-49.5 36t-32 56t-11.5 72v18q0 39 11.5 72t32 56t49.5 36t64 13h8q35 0 64 -13t50 -36t32.5 -56t11.5 -72v-18q0 -39 -11.5 -72t-32.5 -56t-50 -36t-64 -13h-8zM608 74q33 0 53.5 26t20.5 70v14
q0 44 -20.5 70t-53.5 26h-2q-33 0 -53.5 -26t-20.5 -70v-14q0 -44 20.5 -70t53.5 -26h2zM980 -8q-36 0 -65 13t-49.5 36t-32 56t-11.5 72v18q0 39 11.5 72t32 56t49.5 36t65 13h7q36 0 65 -13t49.5 -36t32 -56t11.5 -72v-18q0 -39 -11.5 -72t-32 -56t-49.5 -36t-65 -13h-7z
M985 75q33 0 53 26t20 70v14q0 44 -20 70t-53 26h-3q-33 0 -53 -26t-20 -70v-14q0 -44 20 -70t53 -26h3z" />
    <glyph glyph-name="minute" unicode="&#x2032;" horiz-adv-x="251" 
d="M117 700h102l-92 -265h-75z" />
    <glyph glyph-name="second" unicode="&#x2033;" horiz-adv-x="431" 
d="M116 700h102l-92 -265h-75zM295 700h102l-92 -265h-75z" />
    <glyph glyph-name="guilsinglleft" unicode="&#x2039;" horiz-adv-x="380" 
d="M54 271v6l162 201h105l-161 -200v-8l161 -200h-105z" />
    <glyph glyph-name="guilsinglright" unicode="&#x203a;" horiz-adv-x="380" 
d="M326.003 271v6l-161.989 201h-104.994l160.99 -200v-8l-160.99 -200h104.994z" />
    <glyph glyph-name="fraction" unicode="&#x2044;" horiz-adv-x="316" 
d="M190 720h98l-163 -831h-97z" />
    <glyph glyph-name="Euro" unicode="&#x20ac;" horiz-adv-x="620" 
d="M366 -10q-106 0 -177 63.5t-94 177.5h-79v84h69q-1 6 -1 12.5v13.5v18v12.5t1 12.5h-69v83h79q12 56 37 101t60.5 76.5t81 48.5t97.5 17q68 0 121 -26t88 -76l-77 -63q-24 32 -58.5 49t-75.5 17q-62 0 -105 -38t-61 -106h245v-83h-256q-1 -6 -1 -12.5v-12.5v-19v-13
t1 -12h256v-84h-244q17 -68 59 -105t102 -37q42 0 81.5 18t66.5 50l80 -63q-39 -50 -98 -77t-129 -27z" />
    <glyph glyph-name="uni20B4" unicode="&#x20b4;" horiz-adv-x="591" 
d="M16 467h380q17 20 17 48q-1 44 -32 70t-83 26q-42 0 -84.5 -16.5t-71.5 -45.5l-53 79q42 39 96 60.5t114 21.5q48 0 88 -13t68 -36.5t43.5 -56.5t15.5 -72q0 -35 -14 -65h75v-84h-559v84zM301 -10q-52 0 -95 13.5t-74 38t-47.5 59t-16.5 75.5q0 31 9 55h-61v84h559v-84
h-397q-8 -18 -8 -39q0 -47 35.5 -75t96.5 -28q50 0 97.5 19.5t81.5 53.5l57 -80q-43 -43 -105.5 -67.5t-131.5 -24.5z" />
    <glyph glyph-name="uni20B8" unicode="&#x20b8;" horiz-adv-x="517" 
d="M20 700h477v-84h-477v84zM206 482h-186v92h477v-92h-186v-482h-105v482z" />
    <glyph glyph-name="uni20BD" unicode="&#x20bd;" horiz-adv-x="606" 
d="M17 364h76v336h223q57 0 103 -14.5t78.5 -40.5t50 -63.5t17.5 -83.5v-14q0 -47 -17.5 -85t-49.5 -64.5t-77.5 -40.5t-101.5 -14h-121v-73h234v-84h-234v-123h-105v123h-76v84h76v73h-76v84zM311 364q70 0 108 30t38 85v13q0 54 -38 83.5t-107 29.5h-114v-241h113z" />
    <glyph glyph-name="uni2116" unicode="&#x2116;" horiz-adv-x="970" 
d="M801 436q-57 0 -92 36t-35 96v6q0 59 35 95t92 36h10q57 0 91.5 -36t34.5 -95v-6q0 -60 -34.5 -96t-91.5 -36h-10zM91 700h119l282 -531h4v531h101v-700h-110l-288 542h-7v-542h-101v700zM810 502q24 0 39.5 17.5t15.5 48.5v6q0 30 -15.5 47.5t-39.5 17.5h-5
q-26 0 -42.5 -17.5t-16.5 -47.5v-6q0 -31 16.5 -48.5t42.5 -17.5h5zM692 385h229v-70h-229v70z" />
    <glyph glyph-name="trademark" unicode="&#x2122;" horiz-adv-x="605" 
d="M260 700h115l36 -128h4l35 128h115v-245h-68v182h-7l-39 -136h-77l-39 136h-6v-182h-69v245zM85 635h-75v65h220v-65h-76v-180h-69v180z" />
    <glyph glyph-name="estimated" unicode="&#x212e;" horiz-adv-x="805" 
d="M232 108q37 -25 80 -39.5t91 -14.5q41 0 79 11t71 30.5t60.5 47.5t46.5 61h72q-21 -47 -54.5 -86.5t-76 -68t-93 -44t-105.5 -15.5q-75 0 -141 28.5t-114.5 77.5t-77 114.5t-28.5 140.5q0 74 28.5 139.5t77 114.5t114.5 77.5t141 28.5q74 0 139.5 -28.5t114.5 -77
t77.5 -114t28.5 -140.5h-531v-243zM573 593q-37 26 -79.5 40t-90.5 14t-91 -14.5t-80 -39.5v-178h341v178z" />
    <glyph glyph-name="partialdiff" unicode="&#x2202;" horiz-adv-x="602" 
d="M202 745q27 5 52.5 8t50.5 3q75 0 124 -23t78 -64t40.5 -97t11.5 -122q0 -75 -11.5 -155.5t-44.5 -148t-92 -111t-153 -43.5q-50 0 -90 16t-68.5 44.5t-43.5 69t-15 89.5q0 61 19.5 117t55.5 98.5t86.5 68t113.5 25.5q51 0 89.5 -24t60.5 -62v26q0 47 -9.5 87t-32.5 69
t-61.5 45.5t-96.5 16.5q-17 0 -35 -2.5t-38 -6.5zM269 78q42 0 73.5 19t52.5 49t32 67.5t11 74.5q0 66 -32.5 106.5t-90.5 40.5q-42 0 -74 -18.5t-53.5 -48.5t-32 -68.5t-10.5 -79.5q0 -65 33.5 -103.5t90.5 -38.5z" />
    <glyph glyph-name="uni2206" unicode="&#x2206;" horiz-adv-x="627" 
d="M242 700h144l241 -700h-626zM483 92l-166 507h-6l-166 -507h338z" />
    <glyph glyph-name="product" unicode="&#x220f;" horiz-adv-x="697" 
d="M36 700h625v-96h-69v-604h-106v604h-277v-604h-105v604h-68v96z" />
    <glyph glyph-name="summation" unicode="&#x2211;" horiz-adv-x="542" 
d="M183 100v-4h321v-96h-453v82l212 268l-212 268v82h453v-96h-321v-4l195 -250z" />
    <glyph glyph-name="minus" unicode="&#x2212;" horiz-adv-x="591" 
d="M48 368h495v-86h-495v86z" />
    <glyph glyph-name="radical" unicode="&#x221a;" horiz-adv-x="671" 
d="M148 433h-130v87h208l136 -404h8l184 584h109l-231 -700h-134z" />
    <glyph glyph-name="proportional" unicode="&#x221d;" horiz-adv-x="741" 
d="M681 169q-60 0 -119 28.5t-111 76.5q-52 -48 -111 -76.5t-119 -28.5q-34 0 -63 11.5t-51 32t-34.5 49.5t-12.5 63v10q0 35 12.5 63.5t34.5 49t51 32t63 11.5q60 0 119 -28.5t111 -76.5q52 48 111 76.5t119 28.5v-85q-41 0 -89.5 -19.5t-90.5 -56.5q44 -37 91.5 -56.5
t88.5 -19.5v-85zM152 328q0 -34 22.5 -54t63.5 -20t81.5 22t81.5 54q-41 32 -81.5 54t-81.5 22t-63.5 -20t-22.5 -54v-4z" />
    <glyph glyph-name="infinity" unicode="&#x221e;" horiz-adv-x="902" 
d="M221 491q60 0 119 -28.5t111 -76.5q52 48 111 76.5t119 28.5q34 0 63.5 -11.5t51 -32t34 -49t12.5 -63.5v-10q0 -34 -12.5 -63t-34 -49.5t-51 -32t-63.5 -11.5q-60 0 -119 28.5t-111 76.5q-52 -48 -111 -76.5t-119 -28.5q-34 0 -63 11.5t-51 32t-34.5 49.5t-12.5 63v10
q0 35 12.5 63.5t34.5 49t51 32t63 11.5zM750 328v4q0 34 -22.5 54t-63.5 20t-81.5 -22t-81.5 -54q41 -32 81.5 -54t81.5 -22t63.5 20t22.5 54zM152 328q0 -34 22.5 -54t63.5 -20t81.5 22t81.5 54q-41 32 -81.5 54t-81.5 22t-63.5 -20t-22.5 -54v-4z" />
    <glyph glyph-name="integral" unicode="&#x222b;" horiz-adv-x="337" 
d="M57 -197q-20 0 -44.5 4t-44.5 14v85q11 -5 24 -8.5t28 -3.5q35 0 50.5 18t19.5 68l52 573q7 78 40 121.5t96 43.5q23 0 47 -5t44 -15v-86q-16 8 -32 12t-33 4q-32 0 -45.5 -18.5t-17.5 -64.5l-52 -585q-8 -77 -40 -117t-92 -40z" />
    <glyph glyph-name="approxequal" unicode="&#x2248;" horiz-adv-x="608" 
d="M58 355v85q29 26 59 36t59 10q33 0 66.5 -9.5t66.5 -21.5t65.5 -21.5t64.5 -9.5q29 0 56.5 10t54.5 36v-85q-29 -26 -57.5 -35.5t-57.5 -9.5q-33 0 -66.5 10t-66.5 21.5t-65.5 21.5t-65.5 10q-29 0 -57 -11t-56 -37zM58 192v85q29 26 59 36t59 10q33 0 66.5 -9.5
t66.5 -21.5t65.5 -21.5t64.5 -9.5q29 0 56.5 10t54.5 36v-85q-29 -26 -57.5 -35.5t-57.5 -9.5q-33 0 -66 10t-66 21.5t-66 21.5t-66 10q-29 0 -57 -10.5t-56 -37.5z" />
    <glyph glyph-name="notequal" unicode="&#x2260;" horiz-adv-x="571" 
d="M53 449h267l95 162h74l-94 -162h123v-82h-171l-48 -83h219v-82h-267l-95 -162h-74l94 162h-123v82h171l48 83h-219v82z" />
    <glyph glyph-name="lessequal" unicode="&#x2264;" horiz-adv-x="558" 
d="M54 314v80l450 212v-99l-337 -152v-2l337 -154v-98zM54 86h450v-86h-450v86z" />
    <glyph glyph-name="greaterequal" unicode="&#x2265;" horiz-adv-x="558" 
d="M504.003 314v80l-449.972 212v-99l336.979 -152v-2l-336.979 -154v-98zM504.003 86h-449.972v-86h449.972v86z" />
    <glyph glyph-name="A.ss01" horiz-adv-x="646" 
d="M16 0q0 83 26.5 176t68 186t92.5 180t101 158h134l178 -700h-113l-44 183h-303q-14 -48 -21.5 -94t-7.5 -89h-111zM436 276l-76 321h-14q-18 -29 -39.5 -66t-43 -78.5t-42 -86.5t-37.5 -90h252z" />
    <glyph glyph-name="Aacute.ss01" horiz-adv-x="634" 
d="M316 762l49 141h100l-69 -141h-80zM4 0q0 83 26.5 176t68 186t92.5 180t101 158h134l178 -700h-113l-44 183h-303q-14 -48 -21.5 -94t-7.5 -89h-111zM424 276l-76 321h-14q-18 -29 -39.5 -66t-43 -78.5t-42 -86.5t-37.5 -90h252z" />
    <glyph glyph-name="Abreve.ss01" horiz-adv-x="634" 
d="M357 763q-73 0 -114 36t-41 101h87q0 -32 18 -49t50 -17q33 0 50 17t16 49h88q1 -65 -40.5 -101t-113.5 -36zM4 0q0 83 26.5 176t68 186t92.5 180t101 158h134l178 -700h-113l-44 183h-303q-14 -48 -21.5 -94t-7.5 -89h-111zM424 276l-76 321h-14q-18 -29 -39.5 -66
t-43 -78.5t-42 -86.5t-37.5 -90h252z" />
    <glyph glyph-name="Acircumflex.ss01" horiz-adv-x="634" 
d="M297 900h118l123 -123h-106l-67 61h-18l-67 -61h-106zM4 0q0 83 26.5 176t68 186t92.5 180t101 158h134l178 -700h-113l-44 183h-303q-14 -48 -21.5 -94t-7.5 -89h-111zM424 276l-76 321h-14q-18 -29 -39.5 -66t-43 -78.5t-42 -86.5t-37.5 -90h252z" />
    <glyph glyph-name="Adieresis.ss01" horiz-adv-x="634" 
d="M252 769q-24 0 -39.5 15t-15.5 38t15.5 39t39.5 16t40.5 -16t16.5 -39t-16.5 -38t-40.5 -15zM454 769q-24 0 -39.5 15t-15.5 38t15.5 39t39.5 16t40.5 -16t16.5 -39t-16.5 -38t-40.5 -15zM4 0q0 83 26.5 176t68 186t92.5 180t101 158h134l178 -700h-113l-44 183h-303
q-14 -48 -21.5 -94t-7.5 -89h-111zM424 276l-76 321h-14q-18 -29 -39.5 -66t-43 -78.5t-42 -86.5t-37.5 -90h252z" />
    <glyph glyph-name="Agrave.ss01" horiz-adv-x="634" 
d="M243 903h101l51 -141h-83zM4 0q0 83 26.5 176t68 186t92.5 180t101 158h134l178 -700h-113l-44 183h-303q-14 -48 -21.5 -94t-7.5 -89h-111zM424 276l-76 321h-14q-18 -29 -39.5 -66t-43 -78.5t-42 -86.5t-37.5 -90h252z" />
    <glyph glyph-name="Amacron.ss01" horiz-adv-x="646" 
d="M16 0q0 83 26.5 176t68 186t92.5 180t101 158h134l178 -700h-113l-44 183h-303q-14 -48 -21.5 -94t-7.5 -89h-111zM436 276l-76 321h-14q-18 -29 -39.5 -66t-43 -78.5t-42 -86.5t-37.5 -90h252zM231 885h275v-76h-275v76z" />
    <glyph glyph-name="Aogonek.ss01" horiz-adv-x="646" 
d="M16 0q0 83 26.5 176t68 186t92.5 180t101 158h134l178 -700h-113l-44 183h-303q-14 -48 -21.5 -94t-7.5 -89h-111zM436 276l-76 321h-14q-18 -29 -39.5 -66t-43 -78.5t-42 -86.5t-37.5 -90h252zM576 -174q-38 0 -61 20.5t-23 55.5t22 69t62 62l40 -33q-29 -26 -40.5 -45
t-11.5 -39q0 -32 28 -32q6 0 12 2l12 4v-58q-19 -6 -40 -6z" />
    <glyph glyph-name="Aring.ss01" horiz-adv-x="646" 
d="M16 0q0 83 26.5 176t68 186t92.5 180t101 158h134l178 -700h-113l-44 183h-303q-14 -48 -21.5 -94t-7.5 -89h-111zM436 276l-76 321h-14q-18 -29 -39.5 -66t-43 -78.5t-42 -86.5t-37.5 -90h252zM368 750q-42 0 -68 25t-26 63q0 39 26 64.5t68 25.5q41 0 68 -26t27 -64
t-26.5 -63t-68.5 -25zM368 799q17 0 28.5 11t11.5 28t-11.5 29t-28.5 12q-18 0 -29 -12t-11 -29t11 -28t29 -11z" />
    <glyph glyph-name="Atilde.ss01" horiz-adv-x="646" 
d="M16 0q0 83 26.5 176t68 186t92.5 180t101 158h134l178 -700h-113l-44 183h-303q-14 -48 -21.5 -94t-7.5 -89h-111zM436 276l-76 321h-14q-18 -29 -39.5 -66t-43 -78.5t-42 -86.5t-37.5 -90h252zM180 838q20 31 49 47.5t63 16.5q23 0 43.5 -7t43.5 -18q18 -8 35.5 -15
t37.5 -7q22 0 39 9.5t27 26.5l38 -50q-20 -31 -48.5 -47.5t-60.5 -16.5q-22 0 -43 7t-45 18q-19 9 -37 15.5t-36 6.5q-23 0 -41 -10t-29 -27z" />
    <glyph glyph-name="AE.ss01" horiz-adv-x="827" 
d="M16 0q0 83 27.5 176t70.5 186t95.5 180t102.5 158h448v-96h-277v-201h257v-93h-257v-214h287v-96h-393v187h-218q-14 -48 -23 -95t-9 -92h-111zM377 280v328h-16q-41 -64 -88 -149.5t-84 -178.5h188z" />
    <glyph glyph-name="G.ss01" horiz-adv-x="715" 
d="M551 503q-28 52 -72 81t-104 29h-9q-48 0 -87.5 -18t-67.5 -51.5t-43 -80t-15 -103.5v-20q0 -57 15.5 -103.5t44 -79.5t68.5 -51t90 -18h8q39 0 72 11t57 30t37.5 44.5t13.5 53.5q0 29 -17 43.5t-47 14.5q-17 0 -35 -5v89q14 4 30 5t30 1q66 0 104.5 -38t38.5 -112v-225
h-98v77q-16 -19 -38 -35t-47.5 -27t-53 -17.5t-56.5 -6.5h-8q-73 0 -132 25t-100.5 71t-64 110.5t-22.5 143.5v19q0 78 24 142.5t66.5 110.5t102 71.5t130.5 25.5h11q81 0 150.5 -40t110.5 -112z" />
    <glyph glyph-name="uni01F4.ss01" horiz-adv-x="715" 
d="M551 503q-28 52 -72 81t-104 29h-9q-48 0 -87.5 -18t-67.5 -51.5t-43 -80t-15 -103.5v-20q0 -57 15.5 -103.5t44 -79.5t68.5 -51t90 -18h8q39 0 72 11t57 30t37.5 44.5t13.5 53.5q0 29 -17 43.5t-47 14.5q-17 0 -35 -5v89q14 4 30 5t30 1q66 0 104.5 -38t38.5 -112v-225
h-98v77q-16 -19 -38 -35t-47.5 -27t-53 -17.5t-56.5 -6.5h-8q-73 0 -132 25t-100.5 71t-64 110.5t-22.5 143.5v19q0 78 24 142.5t66.5 110.5t102 71.5t130.5 25.5h11q81 0 150.5 -40t110.5 -112zM414 765h-79l49 141h100z" />
    <glyph glyph-name="Gbreve.ss01" horiz-adv-x="715" 
d="M551 503q-28 52 -72 81t-104 29h-9q-48 0 -87.5 -18t-67.5 -51.5t-43 -80t-15 -103.5v-20q0 -57 15.5 -103.5t44 -79.5t68.5 -51t90 -18h8q39 0 72 11t57 30t37.5 44.5t13.5 53.5q0 29 -17 43.5t-47 14.5q-17 0 -35 -5v89q14 4 30 5t30 1q66 0 104.5 -38t38.5 -112v-225
h-98v77q-16 -19 -38 -35t-47.5 -27t-53 -17.5t-56.5 -6.5h-8q-73 0 -132 25t-100.5 71t-64 110.5t-22.5 143.5v19q0 78 24 142.5t66.5 110.5t102 71.5t130.5 25.5h11q81 0 150.5 -40t110.5 -112zM306 900q0 -32 19.5 -50.5t51.5 -18.5t51 18.5t19 50.5h88
q0 -64 -42.5 -102.5t-115.5 -38.5q-72 0 -115.5 38.5t-43.5 102.5h88z" />
    <glyph glyph-name="Gcircumflex.ss01" horiz-adv-x="715" 
d="M551 503q-28 52 -72 81t-104 29h-9q-48 0 -87.5 -18t-67.5 -51.5t-43 -80t-15 -103.5v-20q0 -57 15.5 -103.5t44 -79.5t68.5 -51t90 -18h8q39 0 72 11t57 30t37.5 44.5t13.5 53.5q0 29 -17 43.5t-47 14.5q-17 0 -35 -5v89q14 4 30 5t30 1q66 0 104.5 -38t38.5 -112v-225
h-98v77q-16 -19 -38 -35t-47.5 -27t-53 -17.5t-56.5 -6.5h-8q-73 0 -132 25t-100.5 71t-64 110.5t-22.5 143.5v19q0 78 24 142.5t66.5 110.5t102 71.5t130.5 25.5h11q81 0 150.5 -40t110.5 -112zM317 900h118l123 -123h-106l-67 61h-18l-67 -61h-106z" />
    <glyph glyph-name="uni0122.ss01" horiz-adv-x="715" 
d="M551 503q-28 52 -72 81t-104 29h-9q-48 0 -87.5 -18t-67.5 -51.5t-43 -80t-15 -103.5v-20q0 -57 15.5 -103.5t44 -79.5t68.5 -51t90 -18h8q39 0 72 11t57 30t37.5 44.5t13.5 53.5q0 29 -17 43.5t-47 14.5q-17 0 -35 -5v89q14 4 30 5t30 1q66 0 104.5 -38t38.5 -112v-225
h-98v77q-16 -19 -38 -35t-47.5 -27t-53 -17.5t-56.5 -6.5h-8q-73 0 -132 25t-100.5 71t-64 110.5t-22.5 143.5v19q0 78 24 142.5t66.5 110.5t102 71.5t130.5 25.5h11q81 0 150.5 -40t110.5 -112zM325 -41h90l-63 -147h-65z" />
    <glyph glyph-name="Gdotaccent.ss01" horiz-adv-x="715" 
d="M551 503q-28 52 -72 81t-104 29h-9q-48 0 -87.5 -18t-67.5 -51.5t-43 -80t-15 -103.5v-20q0 -57 15.5 -103.5t44 -79.5t68.5 -51t90 -18h8q39 0 72 11t57 30t37.5 44.5t13.5 53.5q0 29 -17 43.5t-47 14.5q-17 0 -35 -5v89q14 4 30 5t30 1q66 0 104.5 -38t38.5 -112v-225
h-98v77q-16 -19 -38 -35t-47.5 -27t-53 -17.5t-56.5 -6.5h-8q-73 0 -132 25t-100.5 71t-64 110.5t-22.5 143.5v19q0 78 24 142.5t66.5 110.5t102 71.5t130.5 25.5h11q81 0 150.5 -40t110.5 -112zM376 785q-26 0 -43.5 16t-17.5 42q0 25 17.5 41.5t43.5 16.5q27 0 44.5 -16.5
t17.5 -41.5q0 -26 -17.5 -42t-44.5 -16z" />
    <glyph glyph-name="J.ss01" horiz-adv-x="308" 
d="M73 -149q-25 0 -47.5 5.5t-42.5 14.5v100q16 -11 31.5 -16.5t33.5 -5.5q40 0 56 25.5t16 76.5v649h106v-654q0 -94 -39.5 -144.5t-113.5 -50.5z" />
    <glyph glyph-name="Jcircumflex.ss01" horiz-adv-x="308" 
d="M73 -149q-25 0 -47.5 5.5t-42.5 14.5v100q16 -11 31.5 -16.5t33.5 -5.5q40 0 56 25.5t16 76.5v649h106v-654q0 -94 -39.5 -144.5t-113.5 -50.5zM114 897h118l123 -123h-106l-67 61h-18l-67 -61h-106z" />
    <glyph glyph-name="K.ss01" horiz-adv-x="632" 
d="M91 700h106v-305h5q95 49 163 122.5t105 182.5h115q-22 -61 -52 -112t-65 -92t-74 -72.5t-81 -54.5l315 -369h-136l-290 345h-5v-345h-106v700z" />
    <glyph glyph-name="uni0136.ss01" horiz-adv-x="632" 
d="M91 700h106v-305h5q95 49 163 122.5t105 182.5h115q-22 -61 -52 -112t-65 -92t-74 -72.5t-81 -54.5l315 -369h-136l-290 345h-5v-345h-106v700zM299 -36h90l-63 -147h-65z" />
    <glyph glyph-name="M.ss01" horiz-adv-x="875" 
d="M66 0q0 99 10.5 198.5t28.5 191t43 171t55 139.5h109l117 -463h6l203 463h146v-700h-106v566h-5l-209 -468h-89l-120 468h-6q-15 -33 -29 -93t-24.5 -136.5t-16.5 -163.5t-6 -173h-107z" />
    <glyph glyph-name="N.ss01" horiz-adv-x="729" 
d="M83 0q-3 200 4 380t23 320h113l307 -523h5v523h103v-700h-112l-322 552h-6q-11 -128 -12 -266t4 -286h-107z" />
    <glyph glyph-name="Nacute.ss01" horiz-adv-x="729" 
d="M83 0q-3 200 4 380t23 320h113l307 -523h5v523h103v-700h-112l-322 552h-6q-11 -128 -12 -266t4 -286h-107zM416 765h-79l49 141h100z" />
    <glyph glyph-name="Ncaron.ss01" horiz-adv-x="729" 
d="M83 0q-3 200 4 380t23 320h113l307 -523h5v523h103v-700h-112l-322 552h-6q-11 -128 -12 -266t4 -286h-107zM196 899h106l67 -62h18l67 62h106l-123 -123h-118z" />
    <glyph glyph-name="uni0145.ss01" horiz-adv-x="729" 
d="M83 0q-3 200 4 380t23 320h113l307 -523h5v523h103v-700h-112l-322 552h-6q-11 -128 -12 -266t4 -286h-107zM313 -36h90l-63 -147h-65z" />
    <glyph glyph-name="Eng.ss01" horiz-adv-x="720" 
d="M457 -197q-26 0 -50 5.5t-44 13.5v102q15 -11 33 -17t40 -6q48 0 72 25t24 68v6l-327 546h-7q-11 -128 -12 -263t4 -283h-107q-3 200 4 380t23 320h115l301 -506h7v506h105v-700q0 -92 -46 -144.5t-135 -52.5z" />
    <glyph glyph-name="Ntilde.ss01" horiz-adv-x="729" 
d="M83 0q-3 200 4 380t23 320h113l307 -523h5v523h103v-700h-112l-322 552h-6q-11 -128 -12 -266t4 -286h-107zM189 837q20 31 49 47.5t63 16.5q23 0 43.5 -7t43.5 -18q18 -8 35.5 -15t37.5 -7q22 0 39 9.5t27 26.5l38 -50q-20 -31 -48.5 -47.5t-60.5 -16.5q-22 0 -43 7
t-45 18q-19 9 -37 15.5t-36 6.5q-23 0 -41 -10t-29 -27z" />
    <glyph glyph-name="Q.ss01" horiz-adv-x="757" 
d="M566 -102q-45 0 -83 15t-70.5 32.5t-59.5 32.5t-50 15q-46 0 -46 -54l-92 18q0 56 32 93t86 37q17 0 32.5 -2.5t30.5 -6.5q57 0 103.5 17.5t79 51t50.5 82.5t18 113v17q0 58 -16.5 105t-45.5 80t-69 51t-87 18h-9q-46 0 -86 -17.5t-69.5 -50t-46 -78.5t-16.5 -103v-17
q0 -71 26 -126t70 -87l-71 -73q-63 47 -99 120t-36 167v17q0 79 24.5 143t68 109t103.5 69.5t131 24.5h11q72 0 132 -25t103.5 -70t67.5 -109t24 -142v-15q0 -65 -16.5 -120t-47 -98.5t-72.5 -73t-93 -43.5q21 -11 40.5 -18t38.5 -7q17 0 28 5t17 13.5t8.5 18t2.5 18.5
l92 -18q0 -27 -9 -50.5t-27 -41t-44 -27.5t-59 -10z" />
    <glyph glyph-name="V.ss01" horiz-adv-x="617" 
d="M8 700h114l147 -603h12q29 51 61.5 123t59.5 153.5t45.5 166t19.5 160.5h111q-3 -89 -27 -184.5t-59.5 -187.5t-77.5 -176.5t-81 -151.5h-142z" />
    <glyph glyph-name="W.ss01" horiz-adv-x="906" 
d="M1 700h114l110 -590h11q17 35 34.5 79.5t35 95t33.5 105t28.5 108.5t20 105.5t8.5 96.5h111l132 -590h11q22 51 46.5 122t45.5 150.5t35.5 162t15.5 155.5h113q-4 -85 -24.5 -180t-50 -188t-64.5 -179t-68 -153h-132l-107 490h-8q-12 -55 -31 -119t-42.5 -128.5
t-49.5 -127t-51 -115.5h-131z" />
    <glyph glyph-name="Wacute.ss01" horiz-adv-x="906" 
d="M1 700h114l110 -590h11q17 35 34.5 79.5t35 95t33.5 105t28.5 108.5t20 105.5t8.5 96.5h111l132 -590h11q22 51 46.5 122t45.5 150.5t35.5 162t15.5 155.5h113q-4 -85 -24.5 -180t-50 -188t-64.5 -179t-68 -153h-132l-107 490h-8q-12 -55 -31 -119t-42.5 -128.5
t-49.5 -127t-51 -115.5h-131zM493 765h-79l49 141h100z" />
    <glyph glyph-name="Wcircumflex.ss01" horiz-adv-x="906" 
d="M1 700h114l110 -590h11q17 35 34.5 79.5t35 95t33.5 105t28.5 108.5t20 105.5t8.5 96.5h111l132 -590h11q22 51 46.5 122t45.5 150.5t35.5 162t15.5 155.5h113q-4 -85 -24.5 -180t-50 -188t-64.5 -179t-68 -153h-132l-107 490h-8q-12 -55 -31 -119t-42.5 -128.5
t-49.5 -127t-51 -115.5h-131zM396 900h118l123 -123h-106l-67 61h-18l-67 -61h-106z" />
    <glyph glyph-name="Wdieresis.ss01" horiz-adv-x="906" 
d="M1 700h114l110 -590h11q17 35 34.5 79.5t35 95t33.5 105t28.5 108.5t20 105.5t8.5 96.5h111l132 -590h11q22 51 46.5 122t45.5 150.5t35.5 162t15.5 155.5h113q-4 -85 -24.5 -180t-50 -188t-64.5 -179t-68 -153h-132l-107 490h-8q-12 -55 -31 -119t-42.5 -128.5
t-49.5 -127t-51 -115.5h-131zM373 770q-23 0 -38 15t-15 39q0 23 15 39t38 16t39 -16t16 -39q0 -24 -16 -39t-39 -15zM535 770q-23 0 -38.5 15t-15.5 39q0 23 15.5 39t38.5 16t38.5 -16t15.5 -39q0 -24 -15.5 -39t-38.5 -15z" />
    <glyph glyph-name="Wgrave.ss01" horiz-adv-x="906" 
d="M1 700h114l110 -590h11q17 35 34.5 79.5t35 95t33.5 105t28.5 108.5t20 105.5t8.5 96.5h111l132 -590h11q22 51 46.5 122t45.5 150.5t35.5 162t15.5 155.5h113q-4 -85 -24.5 -180t-50 -188t-64.5 -179t-68 -153h-132l-107 490h-8q-12 -55 -31 -119t-42.5 -128.5
t-49.5 -127t-51 -115.5h-131zM341 903h102l50 -141h-83z" />
    <glyph glyph-name="X.ss01" horiz-adv-x="586" 
d="M10 0q34 112 87.5 200.5t119.5 160.5v4l-197 335h124l154 -269q53 60 89 129t48 140h119q-24 -96 -75 -179t-118 -156v-4l216 -361h-124l-169 296q-52 -60 -93.5 -135.5t-58.5 -160.5h-122z" />
    <glyph glyph-name="Y.ss01" horiz-adv-x="581" 
d="M236 275l-235 425h121l170 -329h7q26 31 50 70t43.5 82.5t32.5 88.5t16 88h121q-28 -120 -84.5 -223t-136.5 -200v-277h-105v275z" />
    <glyph glyph-name="Yacute.ss01" horiz-adv-x="581" 
d="M236 275l-235 425h121l170 -329h7q26 31 50 70t43.5 82.5t32.5 88.5t16 88h121q-28 -120 -84.5 -223t-136.5 -200v-277h-105v275zM329 762h-79l49 141h100z" />
    <glyph glyph-name="Ycircumflex.ss01" horiz-adv-x="581" 
d="M236 275l-235 425h121l170 -329h7q26 31 50 70t43.5 82.5t32.5 88.5t16 88h121q-28 -120 -84.5 -223t-136.5 -200v-277h-105v275zM232 897h118l123 -123h-106l-67 61h-18l-67 -61h-106z" />
    <glyph glyph-name="Ydieresis.ss01" horiz-adv-x="581" 
d="M210 768q-23 0 -38 15t-15 39q0 23 15 39t38 16t39 -16t16 -39q0 -24 -16 -39t-39 -15zM371 768q-23 0 -38 15t-15 39q0 23 15 39t38 16t39 -16t16 -39q0 -24 -16 -39t-39 -15zM236 275l-235 425h121l170 -329h7q26 31 50 70t43.5 82.5t32.5 88.5t16 88h121
q-28 -120 -84.5 -223t-136.5 -200v-277h-105v275z" />
    <glyph glyph-name="Z.ss01" horiz-adv-x="569" 
d="M429 -43q-45 0 -83.5 13.5t-71 29.5t-60.5 29t-52 13t-36.5 -11.5t-12.5 -37.5l-92 26q2 26 10.5 46t22.5 35l332 504h-324v96h453v-83l-319 -489q33 -6 64 -18.5t59 -25t53.5 -21.5t48.5 -9q35 0 47 17.5t12 35.5l94 -19q0 -27 -9.5 -50.5t-28 -41.5t-45.5 -28.5
t-62 -10.5z" />
    <glyph glyph-name="Zacute.ss01" horiz-adv-x="569" 
d="M429 -43q-45 0 -83.5 13.5t-71 29.5t-60.5 29t-52 13t-36.5 -11.5t-12.5 -37.5l-92 26q2 26 10.5 46t22.5 35l332 504h-324v96h453v-83l-319 -489q33 -6 64 -18.5t59 -25t53.5 -21.5t48.5 -9q35 0 47 17.5t12 35.5l94 -19q0 -27 -9.5 -50.5t-28 -41.5t-45.5 -28.5
t-62 -10.5zM320 763h-79l49 141h100z" />
    <glyph glyph-name="Zcaron.ss01" horiz-adv-x="569" 
d="M429 -43q-45 0 -83.5 13.5t-71 29.5t-60.5 29t-52 13t-36.5 -11.5t-12.5 -37.5l-92 26q2 26 10.5 46t22.5 35l332 504h-324v96h453v-83l-319 -489q33 -6 64 -18.5t59 -25t53.5 -21.5t48.5 -9q35 0 47 17.5t12 35.5l94 -19q0 -27 -9.5 -50.5t-28 -41.5t-45.5 -28.5
t-62 -10.5zM100 898h106l67 -62h18l67 62h106l-123 -123h-118z" />
    <glyph glyph-name="Zdotaccent.ss01" horiz-adv-x="569" 
d="M429 -43q-45 0 -83.5 13.5t-71 29.5t-60.5 29t-52 13t-36.5 -11.5t-12.5 -37.5l-92 26q2 26 10.5 46t22.5 35l332 504h-324v96h453v-83l-319 -489q33 -6 64 -18.5t59 -25t53.5 -21.5t48.5 -9q35 0 47 17.5t12 35.5l94 -19q0 -27 -9.5 -50.5t-28 -41.5t-45.5 -28.5
t-62 -10.5zM282 783q-26 0 -43.5 16t-17.5 42q0 25 17.5 41.5t43.5 16.5q27 0 44.5 -16.5t17.5 -41.5q0 -26 -17.5 -42t-44.5 -16z" />
    <glyph glyph-name="a.ss01" horiz-adv-x="599" 
d="M247 -7q-46 0 -84 17.5t-64 49t-40.5 76t-14.5 98.5v25q0 61 20 110.5t54.5 85t82 54.5t102.5 19h8q60 0 115 -22t100 -58v-448h-78q-6 17 -11 42t-5 42v10q-12 -21 -31.5 -39.5t-43 -32t-49.5 -21.5t-53 -8h-8zM281 82q30 0 57 14t47 39t31.5 59t11.5 74v136
q-21 18 -53.5 28t-71.5 10h-5q-32 0 -59.5 -12.5t-47.5 -35.5t-31.5 -55t-11.5 -71v-22q0 -75 32 -119.5t94 -44.5h7z" />
    <glyph glyph-name="aacute.ss01" horiz-adv-x="599" 
d="M247 -7q-46 0 -84 17.5t-64 49t-40.5 76t-14.5 98.5v25q0 61 20 110.5t54.5 85t82 54.5t102.5 19h8q60 0 115 -22t100 -58v-448h-78q-6 17 -11 42t-5 42v10q-12 -21 -31.5 -39.5t-43 -32t-49.5 -21.5t-53 -8h-8zM281 82q30 0 57 14t47 39t31.5 59t11.5 74v136
q-21 18 -53.5 28t-71.5 10h-5q-32 0 -59.5 -12.5t-47.5 -35.5t-31.5 -55t-11.5 -71v-22q0 -75 32 -119.5t94 -44.5h7zM263 581l56 146h97l-74 -146h-79z" />
    <glyph glyph-name="abreve.ss01" horiz-adv-x="599" 
d="M247 -7q-46 0 -84 17.5t-64 49t-40.5 76t-14.5 98.5v25q0 61 20 110.5t54.5 85t82 54.5t102.5 19h8q60 0 115 -22t100 -58v-448h-78q-6 17 -11 42t-5 42v10q-12 -21 -31.5 -39.5t-43 -32t-49.5 -21.5t-53 -8h-8zM281 82q30 0 57 14t47 39t31.5 59t11.5 74v136
q-21 18 -53.5 28t-71.5 10h-5q-32 0 -59.5 -12.5t-47.5 -35.5t-31.5 -55t-11.5 -71v-22q0 -75 32 -119.5t94 -44.5h7zM234 720q0 -32 19.5 -50.5t51.5 -18.5t51 18.5t19 50.5h88q0 -64 -43 -102.5t-115 -38.5q-73 0 -116 38.5t-43 102.5h88z" />
    <glyph glyph-name="acircumflex.ss01" horiz-adv-x="599" 
d="M247 -7q-46 0 -84 17.5t-64 49t-40.5 76t-14.5 98.5v25q0 61 20 110.5t54.5 85t82 54.5t102.5 19h8q60 0 115 -22t100 -58v-448h-78q-6 17 -11 42t-5 42v10q-12 -21 -31.5 -39.5t-43 -32t-49.5 -21.5t-53 -8h-8zM281 82q30 0 57 14t47 39t31.5 59t11.5 74v136
q-21 18 -53.5 28t-71.5 10h-5q-32 0 -59.5 -12.5t-47.5 -35.5t-31.5 -55t-11.5 -71v-22q0 -75 32 -119.5t94 -44.5h7zM382 596l-68 62h-18l-69 -62h-105l124 124h117l124 -124h-105z" />
    <glyph glyph-name="adieresis.ss01" horiz-adv-x="599" 
d="M247 -7q-46 0 -84 17.5t-64 49t-40.5 76t-14.5 98.5v25q0 61 20 110.5t54.5 85t82 54.5t102.5 19h8q60 0 115 -22t100 -58v-448h-78q-6 17 -11 42t-5 42v10q-12 -21 -31.5 -39.5t-43 -32t-49.5 -21.5t-53 -8h-8zM281 82q30 0 57 14t47 39t31.5 59t11.5 74v136
q-21 18 -53.5 28t-71.5 10h-5q-32 0 -59.5 -12.5t-47.5 -35.5t-31.5 -55t-11.5 -71v-22q0 -75 32 -119.5t94 -44.5h7zM404 618q-24 0 -39.5 15.5t-15.5 38.5t15.5 38.5t39.5 15.5t40.5 -15.5t16.5 -38.5t-16.5 -38.5t-40.5 -15.5zM203 618q-24 0 -40 15.5t-16 38.5t16 38.5
t40 15.5q23 0 39.5 -15.5t16.5 -38.5t-16.5 -38.5t-39.5 -15.5z" />
    <glyph glyph-name="agrave.ss01" horiz-adv-x="599" 
d="M247 -7q-46 0 -84 17.5t-64 49t-40.5 76t-14.5 98.5v25q0 61 20 110.5t54.5 85t82 54.5t102.5 19h8q60 0 115 -22t100 -58v-448h-78q-6 17 -11 42t-5 42v10q-12 -21 -31.5 -39.5t-43 -32t-49.5 -21.5t-53 -8h-8zM281 82q30 0 57 14t47 39t31.5 59t11.5 74v136
q-21 18 -53.5 28t-71.5 10h-5q-32 0 -59.5 -12.5t-47.5 -35.5t-31.5 -55t-11.5 -71v-22q0 -75 32 -119.5t94 -44.5h7zM191 729h97l56 -145h-79z" />
    <glyph glyph-name="amacron.ss01" horiz-adv-x="599" 
d="M247 -7q-46 0 -84 17.5t-64 49t-40.5 76t-14.5 98.5v25q0 61 20 110.5t54.5 85t82 54.5t102.5 19h8q60 0 115 -22t100 -58v-448h-78q-6 17 -11 42t-5 42v10q-12 -21 -31.5 -39.5t-43 -32t-49.5 -21.5t-53 -8h-8zM281 82q30 0 57 14t47 39t31.5 59t11.5 74v136
q-21 18 -53.5 28t-71.5 10h-5q-32 0 -59.5 -12.5t-47.5 -35.5t-31.5 -55t-11.5 -71v-22q0 -75 32 -119.5t94 -44.5h7zM167 710h275v-78h-275v78z" />
    <glyph glyph-name="aogonek.ss01" horiz-adv-x="599" 
d="M247 -7q-46 0 -84 17.5t-64 49t-40.5 76t-14.5 98.5v25q0 61 20 110.5t54.5 85t82 54.5t102.5 19h8q60 0 115 -22t100 -58v-448h-78q-6 17 -11 42t-5 42v10q-12 -21 -31.5 -39.5t-43 -32t-49.5 -21.5t-53 -8h-8zM281 82q30 0 57 14t47 39t31.5 59t11.5 74v136
q-21 18 -53.5 28t-71.5 10h-5q-32 0 -59.5 -12.5t-47.5 -35.5t-31.5 -55t-11.5 -71v-22q0 -75 32 -119.5t94 -44.5h7zM486 -174q-38 0 -61 20.5t-23 55.5t22 69t62 62l40 -33q-29 -26 -40.5 -45t-11.5 -39q0 -32 28 -32q6 0 12 2l12 4v-58q-19 -6 -40 -6z" />
    <glyph glyph-name="aring.ss01" horiz-adv-x="599" 
d="M247 -7q-46 0 -84 17.5t-64 49t-40.5 76t-14.5 98.5v25q0 61 20 110.5t54.5 85t82 54.5t102.5 19h8q60 0 115 -22t100 -58v-448h-78q-6 17 -11 42t-5 42v10q-12 -21 -31.5 -39.5t-43 -32t-49.5 -21.5t-53 -8h-8zM281 82q30 0 57 14t47 39t31.5 59t11.5 74v136
q-21 18 -53.5 28t-71.5 10h-5q-32 0 -59.5 -12.5t-47.5 -35.5t-31.5 -55t-11.5 -71v-22q0 -75 32 -119.5t94 -44.5h7zM305 577q-41 0 -67 25t-26 63q0 39 26 64.5t67 25.5q40 0 66.5 -25.5t26.5 -64.5q0 -38 -26.5 -63t-66.5 -25zM304 627q18 0 29.5 11t11.5 28t-11.5 28.5
t-29.5 11.5q-17 0 -28 -11.5t-11 -28.5t11 -28t28 -11z" />
    <glyph glyph-name="atilde.ss01" horiz-adv-x="599" 
d="M247 -7q-46 0 -84 17.5t-64 49t-40.5 76t-14.5 98.5v25q0 61 20 110.5t54.5 85t82 54.5t102.5 19h8q60 0 115 -22t100 -58v-448h-78q-6 17 -11 42t-5 42v10q-12 -21 -31.5 -39.5t-43 -32t-49.5 -21.5t-53 -8h-8zM281 82q30 0 57 14t47 39t31.5 59t11.5 74v136
q-21 18 -53.5 28t-71.5 10h-5q-32 0 -59.5 -12.5t-47.5 -35.5t-31.5 -55t-11.5 -71v-22q0 -75 32 -119.5t94 -44.5h7zM115 660q19 31 48.5 47.5t63.5 16.5q23 0 43.5 -7.5t43.5 -18.5q18 -8 35.5 -14.5t37.5 -6.5q22 0 38.5 9.5t27.5 26.5l37 -50q-19 -31 -47.5 -47.5
t-60.5 -16.5q-23 0 -44 7t-44 18q-19 8 -37 14.5t-36 6.5q-23 0 -41.5 -9.5t-28.5 -26.5z" />
    <glyph glyph-name="ae.ss01" horiz-adv-x="867" 
d="M610 -8q-63 0 -111.5 24.5t-79.5 69.5q-37 -44 -91 -69t-112 -25q-39 0 -70.5 11.5t-54.5 31.5t-35.5 48t-12.5 62q0 166 290 166l40 1v36q1 45 -26 68t-75 23q-40 0 -83 -14t-77 -40l-44 75q51 33 104.5 50.5t104.5 17.5q57 0 97.5 -20.5t62.5 -57.5q32 36 78.5 56.5
t101.5 20.5h10q44 0 81 -12.5t64 -35t42 -53.5t15 -68q0 -66 -49.5 -97.5t-155.5 -31.5h-157q6 -67 47 -107.5t102 -40.5h10q42 0 76.5 19t60.5 54l66 -55q-36 -52 -90 -79.5t-119 -27.5h-10zM619 306q60 0 85 15.5t25 44.5q0 32 -28.5 54t-78.5 22h-6q-29 0 -54 -10.5
t-44 -28.5t-31.5 -43t-17.5 -54h150zM345 236q-106 0 -155.5 -21t-49.5 -65q0 -31 25.5 -50.5t68.5 -19.5q45 0 85 22t64 60q-10 37 -11 74h-27z" />
    <glyph glyph-name="b.ss01" horiz-adv-x="599" 
d="M172 720v-286q26 40 73.5 67t98.5 27h9q47 0 84 -17.5t63 -49.5t40 -76t14 -98v-25q0 -61 -20 -110.5t-54.5 -85t-82 -55t-102.5 -19.5h-8q-60 0 -114.5 22.5t-99.5 58.5v647h99zM171 120q21 -20 53.5 -30.5t70.5 -10.5h7q32 0 59 12.5t47 35.5t31.5 55t11.5 71v22
q0 75 -32.5 119.5t-93.5 44.5h-8q-30 0 -56.5 -14t-46.5 -39t-31.5 -59t-11.5 -74v-133z" />
    <glyph glyph-name="d.ss01" horiz-adv-x="604" 
d="M246 -7q-46 0 -83.5 17.5t-64 49t-40.5 76t-14 98.5v25q0 61 20 110.5t54.5 85t82 54.5t102.5 19h8q31 0 59.5 -7t56.5 -19v218h99v-720h-78q-7 17 -11.5 42t-4.5 43v9q-13 -21 -32.5 -39.5t-42.5 -32t-49.5 -21.5t-52.5 -8h-9zM281 82q30 0 57 14t47 39t31.5 59t11.5 74
v133q-21 20 -53.5 30.5t-71.5 10.5h-5q-32 0 -59.5 -12.5t-47.5 -35.5t-31.5 -55t-11.5 -71v-22q0 -75 32 -119.5t94 -44.5h7z" />
    <glyph glyph-name="dcaron.ss01" horiz-adv-x="637" 
d="M246 -7q-46 0 -83.5 17.5t-64 49t-40.5 76t-14 98.5v25q0 61 20 110.5t54.5 85t82 54.5t102.5 19h8q31 0 59.5 -7t56.5 -19v218h99v-720h-78q-7 17 -11.5 42t-4.5 43v9q-13 -21 -32.5 -39.5t-42.5 -32t-49.5 -21.5t-52.5 -8h-9zM281 82q30 0 57 14t47 39t31.5 59t11.5 74
v133q-21 20 -53.5 30.5t-71.5 10.5h-5q-32 0 -59.5 -12.5t-47.5 -35.5t-31.5 -55t-11.5 -71v-22q0 -75 32 -119.5t94 -44.5h7zM603 720h92l-36 -161h-68z" />
    <glyph glyph-name="dcroat.ss01" horiz-adv-x="598" 
d="M246 -7q-46 0 -83.5 17.5t-64 49t-40.5 76t-14 98.5v25q0 61 20 110.5t54.5 85t82 54.5t102.5 19h8q31 0 59.5 -7t56.5 -19v91h-154v71h154v56h99v-56h60v-72h-60v-592h-78q-7 17 -11.5 42t-4.5 43v9q-13 -21 -32.5 -39.5t-42.5 -32t-49.5 -21.5t-52.5 -8h-9zM281 82
q30 0 57 14t47 39t31.5 59t11.5 74v133q-21 20 -53.5 30.5t-71.5 10.5h-5q-32 0 -59.5 -12.5t-47.5 -35.5t-31.5 -55t-11.5 -71v-22q0 -75 32 -119.5t94 -44.5h7z" />
    <glyph glyph-name="e.ss01" horiz-adv-x="560" 
d="M296 -8q-55 0 -101 18.5t-79.5 52.5t-52 80.5t-18.5 102.5v17q0 57 19 105.5t53 84t81 55.5t104 20h11q46 0 84.5 -13t66.5 -36t43.5 -55t15.5 -70q0 -66 -51.5 -98.5t-159.5 -32.5h-165q8 -66 50.5 -104t105.5 -38h10q44 0 80.5 19t63.5 54l66 -55q-37 -51 -93.5 -79
t-122.5 -28h-11zM308 300q62 0 88 16t26 46q0 35 -30.5 57.5t-82.5 22.5h-5q-66 0 -107 -39.5t-49 -102.5h160z" />
    <glyph glyph-name="eacute.ss01" horiz-adv-x="560" 
d="M296 -8q-55 0 -101 18.5t-79.5 52.5t-52 80.5t-18.5 102.5v17q0 57 19 105.5t53 84t81 55.5t104 20h11q46 0 84.5 -13t66.5 -36t43.5 -55t15.5 -70q0 -66 -51.5 -98.5t-159.5 -32.5h-165q8 -66 50.5 -104t105.5 -38h10q44 0 80.5 19t63.5 54l66 -55q-37 -51 -93.5 -79
t-122.5 -28h-11zM308 300q62 0 88 16t26 46q0 35 -30.5 57.5t-82.5 22.5h-5q-66 0 -107 -39.5t-49 -102.5h160zM268 581l56 146h97l-74 -146h-79z" />
    <glyph glyph-name="ebreve.ss01" horiz-adv-x="560" 
d="M296 -8q-55 0 -101 18.5t-79.5 52.5t-52 80.5t-18.5 102.5v17q0 57 19 105.5t53 84t81 55.5t104 20h11q46 0 84.5 -13t66.5 -36t43.5 -55t15.5 -70q0 -66 -51.5 -98.5t-159.5 -32.5h-165q8 -66 50.5 -104t105.5 -38h10q44 0 80.5 19t63.5 54l66 -55q-37 -51 -93.5 -79
t-122.5 -28h-11zM308 300q62 0 88 16t26 46q0 35 -30.5 57.5t-82.5 22.5h-5q-66 0 -107 -39.5t-49 -102.5h160zM239 720q0 -32 19.5 -50.5t51.5 -18.5t51 18.5t19 50.5h88q0 -64 -43 -102.5t-115 -38.5q-73 0 -116 38.5t-43 102.5h88z" />
    <glyph glyph-name="ecaron.ss01" horiz-adv-x="560" 
d="M296 -8q-55 0 -101 18.5t-79.5 52.5t-52 80.5t-18.5 102.5v17q0 57 19 105.5t53 84t81 55.5t104 20h11q46 0 84.5 -13t66.5 -36t43.5 -55t15.5 -70q0 -66 -51.5 -98.5t-159.5 -32.5h-165q8 -66 50.5 -104t105.5 -38h10q44 0 80.5 19t63.5 54l66 -55q-37 -51 -93.5 -79
t-122.5 -28h-11zM308 300q62 0 88 16t26 46q0 35 -30.5 57.5t-82.5 22.5h-5q-66 0 -107 -39.5t-49 -102.5h160zM124 720h105l69 -63h18l68 63h105l-124 -124h-117z" />
    <glyph glyph-name="ecircumflex.ss01" horiz-adv-x="560" 
d="M296 -8q-55 0 -101 18.5t-79.5 52.5t-52 80.5t-18.5 102.5v17q0 57 19 105.5t53 84t81 55.5t104 20h11q46 0 84.5 -13t66.5 -36t43.5 -55t15.5 -70q0 -66 -51.5 -98.5t-159.5 -32.5h-165q8 -66 50.5 -104t105.5 -38h10q44 0 80.5 19t63.5 54l66 -55q-37 -51 -93.5 -79
t-122.5 -28h-11zM308 300q62 0 88 16t26 46q0 35 -30.5 57.5t-82.5 22.5h-5q-66 0 -107 -39.5t-49 -102.5h160zM387 596l-68 62h-18l-69 -62h-105l124 124h117l124 -124h-105z" />
    <glyph glyph-name="edieresis.ss01" horiz-adv-x="558" 
d="M292 -8q-55 0 -101 18.5t-79.5 52.5t-52 80.5t-18.5 102.5v17q0 57 19 105.5t53 84t81 55.5t104 20h11q46 0 84.5 -13t66.5 -36t43.5 -55t15.5 -70q0 -66 -51.5 -98.5t-159.5 -32.5h-165q8 -66 50.5 -104t105.5 -38h10q44 0 80.5 19t63.5 54l66 -55q-37 -51 -93.5 -79
t-122.5 -28h-11zM304 300q62 0 88 16t26 46q0 35 -30.5 57.5t-82.5 22.5h-5q-66 0 -107 -39.5t-49 -102.5h160zM405 618q-24 0 -39.5 15.5t-15.5 38.5t15.5 38.5t39.5 15.5t40.5 -15.5t16.5 -38.5t-16.5 -38.5t-40.5 -15.5zM204 618q-24 0 -40 15.5t-16 38.5t16 38.5
t40 15.5q23 0 39.5 -15.5t16.5 -38.5t-16.5 -38.5t-39.5 -15.5z" />
    <glyph glyph-name="edotaccent.ss01" horiz-adv-x="560" 
d="M296 -8q-55 0 -101 18.5t-79.5 52.5t-52 80.5t-18.5 102.5v17q0 57 19 105.5t53 84t81 55.5t104 20h11q46 0 84.5 -13t66.5 -36t43.5 -55t15.5 -70q0 -66 -51.5 -98.5t-159.5 -32.5h-165q8 -66 50.5 -104t105.5 -38h10q44 0 80.5 19t63.5 54l66 -55q-37 -51 -93.5 -79
t-122.5 -28h-11zM308 300q62 0 88 16t26 46q0 35 -30.5 57.5t-82.5 22.5h-5q-66 0 -107 -39.5t-49 -102.5h160zM310 614q-26 0 -43.5 16t-17.5 42q0 25 17.5 42t43.5 17q27 0 45 -17t18 -42q0 -26 -18 -42t-45 -16z" />
    <glyph glyph-name="egrave.ss01" horiz-adv-x="560" 
d="M296 -8q-55 0 -101 18.5t-79.5 52.5t-52 80.5t-18.5 102.5v17q0 57 19 105.5t53 84t81 55.5t104 20h11q46 0 84.5 -13t66.5 -36t43.5 -55t15.5 -70q0 -66 -51.5 -98.5t-159.5 -32.5h-165q8 -66 50.5 -104t105.5 -38h10q44 0 80.5 19t63.5 54l66 -55q-37 -51 -93.5 -79
t-122.5 -28h-11zM308 300q62 0 88 16t26 46q0 35 -30.5 57.5t-82.5 22.5h-5q-66 0 -107 -39.5t-49 -102.5h160zM196 729h97l56 -145h-79z" />
    <glyph glyph-name="emacron.ss01" horiz-adv-x="560" 
d="M296 -8q-55 0 -101 18.5t-79.5 52.5t-52 80.5t-18.5 102.5v17q0 57 19 105.5t53 84t81 55.5t104 20h11q46 0 84.5 -13t66.5 -36t43.5 -55t15.5 -70q0 -66 -51.5 -98.5t-159.5 -32.5h-165q8 -66 50.5 -104t105.5 -38h10q44 0 80.5 19t63.5 54l66 -55q-37 -51 -93.5 -79
t-122.5 -28h-11zM308 300q62 0 88 16t26 46q0 35 -30.5 57.5t-82.5 22.5h-5q-66 0 -107 -39.5t-49 -102.5h160zM173 710h275v-78h-275v78z" />
    <glyph glyph-name="eogonek.ss01" horiz-adv-x="560" 
d="M366 -168q-19 -6 -40 -6q-38 0 -61 20.5t-23 55.5q0 46 39 91q-52 2 -95.5 21.5t-74.5 53t-48.5 79t-17.5 99.5v17q0 57 19 105.5t53 84t81 55.5t104 20h11q46 0 84.5 -13t66.5 -36t43.5 -55t15.5 -70q0 -66 -51.5 -98.5t-159.5 -32.5h-165q8 -66 50.5 -104t105.5 -38h10
q44 0 80.5 19t63.5 54l66 -55q-52 -70 -136 -96q-30 -11 -51.5 -33.5t-21.5 -51.5q0 -34 28 -34q6 0 12.5 2t11.5 4v-58zM308 300q62 0 88 16t26 46q0 35 -30.5 57.5t-82.5 22.5h-5q-66 0 -107 -39.5t-49 -102.5h160z" />
    <glyph glyph-name="f.ss01" horiz-adv-x="343" 
d="M94 436h-69v67q13 5 29.5 9t31.5 6q-2 14 -4 30.5t-2 33.5q0 59 39 97.5t105 38.5q24 0 51 -5t47 -16v-83q-37 17 -75 17q-70 0 -70 -65q0 -13 1 -24.5t3 -21.5h138v-84h-126v-626h-99v626z" />
    <glyph glyph-name="g.ss01" horiz-adv-x="550" 
d="M260 -205q-46 0 -85.5 13t-68.5 37t-45.5 57.5t-16.5 73.5v7q0 48 26 91.5t70 68.5q-38 26 -63.5 68t-25.5 96v18q0 45 15 82.5t42.5 64.5t66 41.5t85.5 14.5h18q32 0 62 -8h185v-85h-69q15 -23 23.5 -50.5t8.5 -59.5v-17q0 -44 -15 -80.5t-42 -62.5t-65 -41t-84 -16
q-28 -1 -53.5 -8.5t-44.5 -21.5t-30.5 -35t-11.5 -49v-5q0 -53 36 -79.5t91 -26.5h7q62 0 102 36.5t48 91.5l90 -18q-6 -43 -25 -79.5t-50 -62.5t-73.5 -41t-95.5 -15h-12zM275 190q52 0 83.5 32.5t31.5 86.5v17q0 53 -31.5 86t-83.5 33h-11q-52 0 -84 -32.5t-32 -86.5v-17
q0 -54 32 -86.5t84 -32.5h11z" />
    <glyph glyph-name="uni01F5.ss01" horiz-adv-x="550" 
d="M260 -205q-46 0 -85.5 13t-68.5 37t-45.5 57.5t-16.5 73.5v7q0 48 26 91.5t70 68.5q-38 26 -63.5 68t-25.5 96v18q0 45 15 82.5t42.5 64.5t66 41.5t85.5 14.5h18q32 0 62 -8h185v-85h-69q15 -23 23.5 -50.5t8.5 -59.5v-17q0 -44 -15 -80.5t-42 -62.5t-65 -41t-84 -16
q-28 -1 -53.5 -8.5t-44.5 -21.5t-30.5 -35t-11.5 -49v-5q0 -53 36 -79.5t91 -26.5h7q62 0 102 36.5t48 91.5l90 -18q-6 -43 -25 -79.5t-50 -62.5t-73.5 -41t-95.5 -15h-12zM275 190q52 0 83.5 32.5t31.5 86.5v17q0 53 -31.5 86t-83.5 33h-11q-52 0 -84 -32.5t-32 -86.5v-17
q0 -54 32 -86.5t84 -32.5h11zM227 581l56 146h97l-74 -146h-79z" />
    <glyph glyph-name="gbreve.ss01" horiz-adv-x="550" 
d="M260 -205q-46 0 -85.5 13t-68.5 37t-45.5 57.5t-16.5 73.5v7q0 48 26 91.5t70 68.5q-38 26 -63.5 68t-25.5 96v18q0 45 15 82.5t42.5 64.5t66 41.5t85.5 14.5h18q32 0 62 -8h185v-85h-69q15 -23 23.5 -50.5t8.5 -59.5v-17q0 -44 -15 -80.5t-42 -62.5t-65 -41t-84 -16
q-28 -1 -53.5 -8.5t-44.5 -21.5t-30.5 -35t-11.5 -49v-5q0 -53 36 -79.5t91 -26.5h7q62 0 102 36.5t48 91.5l90 -18q-6 -43 -25 -79.5t-50 -62.5t-73.5 -41t-95.5 -15h-12zM275 190q52 0 83.5 32.5t31.5 86.5v17q0 53 -31.5 86t-83.5 33h-11q-52 0 -84 -32.5t-32 -86.5v-17
q0 -54 32 -86.5t84 -32.5h11zM198 720q0 -32 19.5 -50.5t51.5 -18.5t51 18.5t19 50.5h88q0 -64 -43 -102.5t-115 -38.5q-73 0 -116 38.5t-43 102.5h88z" />
    <glyph glyph-name="gcircumflex.ss01" horiz-adv-x="550" 
d="M260 -205q-46 0 -85.5 13t-68.5 37t-45.5 57.5t-16.5 73.5v7q0 48 26 91.5t70 68.5q-38 26 -63.5 68t-25.5 96v18q0 45 15 82.5t42.5 64.5t66 41.5t85.5 14.5h18q32 0 62 -8h185v-85h-69q15 -23 23.5 -50.5t8.5 -59.5v-17q0 -44 -15 -80.5t-42 -62.5t-65 -41t-84 -16
q-28 -1 -53.5 -8.5t-44.5 -21.5t-30.5 -35t-11.5 -49v-5q0 -53 36 -79.5t91 -26.5h7q62 0 102 36.5t48 91.5l90 -18q-6 -43 -25 -79.5t-50 -62.5t-73.5 -41t-95.5 -15h-12zM275 190q52 0 83.5 32.5t31.5 86.5v17q0 53 -31.5 86t-83.5 33h-11q-52 0 -84 -32.5t-32 -86.5v-17
q0 -54 32 -86.5t84 -32.5h11zM347 596l-68 62h-18l-69 -62h-105l124 124h117l124 -124h-105z" />
    <glyph glyph-name="uni0123.ss01" horiz-adv-x="550" 
d="M260 -205q-46 0 -85.5 13t-68.5 37t-45.5 57.5t-16.5 73.5v7q0 48 26 91.5t70 68.5q-38 26 -63.5 68t-25.5 96v18q0 45 15 82.5t42.5 64.5t66 41.5t85.5 14.5h18q32 0 62 -8h185v-85h-69q15 -23 23.5 -50.5t8.5 -59.5v-17q0 -44 -15 -80.5t-42 -62.5t-65 -41t-84 -16
q-28 -1 -53.5 -8.5t-44.5 -21.5t-30.5 -35t-11.5 -49v-5q0 -53 36 -79.5t91 -26.5h7q62 0 102 36.5t48 91.5l90 -18q-6 -43 -25 -79.5t-50 -62.5t-73.5 -41t-95.5 -15h-12zM275 190q52 0 83.5 32.5t31.5 86.5v17q0 53 -31.5 86t-83.5 33h-11q-52 0 -84 -32.5t-32 -86.5v-17
q0 -54 32 -86.5t84 -32.5h11zM316 707q-17 -9 -26 -22t-9 -27q20 -1 31.5 -14t11.5 -32q0 -21 -13.5 -35t-36.5 -14q-26 0 -41.5 18t-15.5 46q0 29 17.5 60t49.5 51z" />
    <glyph glyph-name="gdotaccent.ss01" horiz-adv-x="550" 
d="M260 -205q-46 0 -85.5 13t-68.5 37t-45.5 57.5t-16.5 73.5v7q0 48 26 91.5t70 68.5q-38 26 -63.5 68t-25.5 96v18q0 45 15 82.5t42.5 64.5t66 41.5t85.5 14.5h18q32 0 62 -8h185v-85h-69q15 -23 23.5 -50.5t8.5 -59.5v-17q0 -44 -15 -80.5t-42 -62.5t-65 -41t-84 -16
q-28 -1 -53.5 -8.5t-44.5 -21.5t-30.5 -35t-11.5 -49v-5q0 -53 36 -79.5t91 -26.5h7q62 0 102 36.5t48 91.5l90 -18q-6 -43 -25 -79.5t-50 -62.5t-73.5 -41t-95.5 -15h-12zM275 190q52 0 83.5 32.5t31.5 86.5v17q0 53 -31.5 86t-83.5 33h-11q-52 0 -84 -32.5t-32 -86.5v-17
q0 -54 32 -86.5t84 -32.5h11zM269 614q-26 0 -43.5 16t-17.5 42q0 25 17.5 42t43.5 17q27 0 45 -17t18 -42q0 -26 -18 -42t-45 -16z" />
    <glyph glyph-name="l.ss01" horiz-adv-x="278" 
d="M177 -4q-51 0 -80 30.5t-29 101.5v592h99v-573q0 -38 11 -50.5t33 -12.5q12 0 25.5 1.5t26.5 5.5v-81q-18 -6 -41.5 -10t-44.5 -4z" />
    <glyph glyph-name="lacute.ss01" horiz-adv-x="278" 
d="M177 -4q-51 0 -80 30.5t-29 101.5v592h99v-573q0 -38 11 -50.5t33 -12.5q12 0 25.5 1.5t26.5 5.5v-81q-18 -6 -41.5 -10t-44.5 -4zM155 763h-79l49 141h100z" />
    <glyph glyph-name="lcaron.ss01" horiz-adv-x="278" 
d="M177 -4q-51 0 -80 30.5t-29 101.5v592h99v-573q0 -38 11 -50.5t33 -12.5q12 0 25.5 1.5t26.5 5.5v-81q-18 -6 -41.5 -10t-44.5 -4zM244 720h92l-36 -161h-68z" />
    <glyph glyph-name="uni013C.ss01" horiz-adv-x="278" 
d="M177 -4q-51 0 -80 30.5t-29 101.5v592h99v-573q0 -38 11 -50.5t33 -12.5q12 0 25.5 1.5t26.5 5.5v-81q-18 -6 -41.5 -10t-44.5 -4zM135 -36h90l-63 -147h-65z" />
    <glyph glyph-name="ldot.ss01" horiz-adv-x="360" 
d="M176 -4q-51 0 -79.5 30.5t-28.5 101.5v592h99v-573q0 -38 11 -50.5t33 -12.5q11 0 25 1.5t27 5.5v-81q-18 -6 -41.5 -10t-45.5 -4zM305 308q-27 0 -44 16t-17 42t17 42.5t44 16.5t44.5 -16.5t17.5 -42.5t-17.5 -42t-44.5 -16z" />
    <glyph glyph-name="lslash.ss01" horiz-adv-x="306" 
d="M12 346l83 46v328h99v-274l87 47v-85l-87 -47v-214q0 -38 11 -50.5t33 -12.5q12 0 25.5 1.5t26.5 5.5v-81q-18 -6 -41.5 -10t-44.5 -4q-51 0 -80 30.5t-29 101.5v179l-83 -46v85z" />
    <glyph glyph-name="oe.ss01" horiz-adv-x="935" 
d="M282 -8q-53 0 -97.5 18.5t-76.5 52.5t-49.5 80.5t-17.5 102.5v28q0 56 17.5 102.5t49.5 80.5t76.5 52.5t97.5 18.5h10q64 0 114.5 -26.5t82.5 -73.5q33 46 83.5 73t113.5 27h11q44 0 80.5 -13t63 -36t41.5 -54.5t15 -69.5q0 -67 -50 -99.5t-155 -32.5h-152
q8 -66 48 -103.5t98 -37.5h9q85 0 136 71l65 -54q-35 -52 -89 -79.5t-117 -27.5h-10q-63 0 -112.5 25.5t-81.5 70.5q-32 -45 -81.5 -70.5t-112.5 -25.5h-10zM288 79q32 0 58.5 12.5t45.5 34.5t29 53.5t10 68.5v25q0 76 -39.5 122t-103.5 46h-8q-64 0 -103 -46t-39 -122v-25
q0 -37 10 -68.5t28.5 -53.5t45 -34.5t58.5 -12.5h8zM690 300q60 0 85 16t25 46q0 34 -28.5 56.5t-77.5 22.5h-6q-63 0 -101.5 -38.5t-47.5 -102.5h151z" />
    <glyph glyph-name="p.ss01" horiz-adv-x="604" 
d="M78 520h78q7 -17 11.5 -42t4.5 -42v-11q13 22 32.5 40.5t42.5 32t49.5 21.5t52.5 8h9q47 0 84 -17.5t63 -49t40 -76t14 -98.5v-25q0 -61 -19.5 -110.5t-54 -84.5t-82 -54.5t-102.5 -19.5h-8q-31 0 -59.5 7t-56.5 19v-208h-99v710zM307 78q32 0 59 12.5t47 35.5t31.5 55
t11.5 71v22q0 75 -32.5 119.5t-93.5 44.5h-7q-30 0 -57 -14t-47 -39t-31.5 -59t-11.5 -74v-133q21 -20 53.5 -30.5t71.5 -10.5h6z" />
    <glyph glyph-name="q.ss01" horiz-adv-x="599" 
d="M428 87q-13 -20 -32.5 -37t-42 -30t-48 -20t-50.5 -7h-8q-46 0 -83.5 17.5t-64 49.5t-40.5 76t-14 98v25q0 61 20 110.5t54.5 85t82 54.5t102.5 19h7q60 0 115.5 -22t100.5 -58v-638h-99v277zM282 82q30 0 57 14t46.5 39t31 59t11.5 74v133q-21 20 -53 30.5t-71 10.5h-6
q-32 0 -59.5 -12.5t-47.5 -35.5t-31.5 -55t-11.5 -71v-22q0 -75 32.5 -119.5t93.5 -44.5h8z" />
    <glyph glyph-name="germandbls.ss01" horiz-adv-x="601" 
d="M94 436h-69v66q15 7 34 11.5t35 6.5q3 44 20 80t46.5 62.5t69 41t87.5 14.5q47 0 86 -13.5t67 -37.5t43 -58t15 -75q0 -47 -19 -84.5t-53 -62.5q53 -25 82.5 -74.5t29.5 -117.5q0 -46 -14.5 -83.5t-40.5 -64t-63.5 -41t-84.5 -14.5q-29 0 -60 5t-48 13v82q12 -5 36.5 -8
t43.5 -3q60 0 94.5 34t34.5 92q0 60 -35 95.5t-94 35.5h-59v78h51q45 1 72 30.5t27 75.5q0 49 -31 79t-82 30q-55 0 -88.5 -34.5t-33.5 -91.5v-695h-99v626z" />
    <glyph glyph-name="t.ss01" horiz-adv-x="370" 
d="M228 -4q-143 0 -143 160q0 30 1.5 66t4 73t6.5 73t9 67h-85v69q16 6 36 10.5t37 5.5v120l99 13v-133h136v-85h-134q-3 -54 -7 -120.5t-4 -136.5q0 -52 17 -72.5t51 -20.5q9 0 21.5 1t25.5 2.5t25 3.5t20 4v-82q-22 -9 -56 -13.5t-60 -4.5z" />
    <glyph glyph-name="tbar.ss01" horiz-adv-x="378" 
d="M33 329h62q3 29 6 55.5t7 50.5h-85v69q16 6 36 10.5t37 5.5v120l99 13v-133h136v-85h-134q-2 -24 -3.5 -50.5t-3.5 -55.5h124v-76h-127q-1 -19 -1 -37.5v-37.5q0 -52 17 -72.5t51 -20.5q9 0 21.5 1t25.5 2.5t25 3.5t20 4v-82q-22 -9 -56 -13.5t-60 -4.5q-143 0 -143 160
q0 45 3 97h-57v76z" />
    <glyph glyph-name="tcaron.ss01" horiz-adv-x="377" 
d="M228 -4q-143 0 -143 160q0 30 1.5 66t4 73t6.5 73t9 67h-85v69q16 6 36 10.5t37 5.5v120l99 13v-133h136v-85h-134q-3 -54 -7 -120.5t-4 -136.5q0 -52 17 -72.5t51 -20.5q9 0 21.5 1t25.5 2.5t25 3.5t20 4v-82q-22 -9 -56 -13.5t-60 -4.5zM283 720h92l-36 -161h-68z" />
    <glyph glyph-name="uni0163.ss01" horiz-adv-x="370" 
d="M228 -4q-143 0 -143 160q0 30 1.5 66t4 73t6.5 73t9 67h-85v69q16 6 36 10.5t37 5.5v120l99 13v-133h136v-85h-134q-3 -54 -7 -120.5t-4 -136.5q0 -52 17 -72.5t51 -20.5q9 0 21.5 1t25.5 2.5t25 3.5t20 4v-82q-22 -9 -56 -13.5t-60 -4.5zM184 -174q-22 0 -45 6l8 58
q13 -5 26 -5q16 0 24 7t8 17q0 14 -11 23t-34 9l23 60h62l-16 -34q23 -8 36 -23.5t13 -40.5q0 -14 -6.5 -27.5t-18.5 -24.5t-29.5 -18t-39.5 -7z" />
    <glyph glyph-name="uni021B.ss01" horiz-adv-x="370" 
d="M228 -4q-143 0 -143 160q0 30 1.5 66t4 73t6.5 73t9 67h-85v69q16 6 36 10.5t37 5.5v120l99 13v-133h136v-85h-134q-3 -54 -7 -120.5t-4 -136.5q0 -52 17 -72.5t51 -20.5q9 0 21.5 1t25.5 2.5t25 3.5t20 4v-82q-22 -9 -56 -13.5t-60 -4.5zM180 -36h90l-63 -147h-65z" />
    <glyph glyph-name="f_f.ss01" horiz-adv-x="622" 
d="M94 436h-69v67q14 5 30 9t32 6q-6 29 -6 64q0 59 38.5 97.5t104.5 38.5q24 0 51 -5t47 -16v-83q-37 17 -74 17q-34 0 -52.5 -16t-18.5 -47q0 -26 5 -48h184q-2 14 -4 29.5t-2 32.5q0 29 10 54t29 43t45.5 28.5t59.5 10.5q23 0 50.5 -5t47.5 -16v-83q-37 17 -75 17
q-70 0 -70 -64q0 -14 1 -25.5t3 -21.5h137v-84h-125v-626h-99v626h-181v-626h-99v626z" />
    <glyph glyph-name="f_f_i.ss01" horiz-adv-x="826" 
d="M698 611q-26 0 -43 16t-17 42q0 25 17 42t43 17q27 0 44.5 -17t17.5 -42q0 -26 -17.5 -42t-44.5 -16zM649 436h-176v-626h-99v626h-181v-626h-99v626h-69v67q14 5 30 9t32 6q-6 29 -6 64q0 59 38.5 97.5t104.5 38.5q24 0 51 -5t47 -16v-83q-37 17 -74 17q-71 0 -71 -64
q0 -14 1 -25.5t3 -21.5h185q-2 14 -4 29.5t-2 32.5q0 29 10 54t29 43t45.5 28.5t59.5 10.5q23 0 50.5 -5t47.5 -16v-83q-37 17 -74 17q-71 0 -71 -64q0 -14 1 -25.5t3 -21.5h287v-520h-99v436z" />
    <glyph glyph-name="f_f_l.ss01" horiz-adv-x="859" 
d="M757 -4q-51 0 -79.5 30.5t-28.5 101.5v475q-20 11 -52 20t-65 9q-38 0 -56.5 -17t-18.5 -47q0 -14 1 -26t3 -22h133v-84h-121v-626h-99v626h-181v-626h-99v626h-69v67q14 5 30 9t32 6q-6 29 -6 64q0 59 38.5 97.5t104.5 38.5q24 0 51 -5t47 -16v-83q-37 17 -74 17
q-71 0 -71 -64q0 -14 1 -25.5t3 -21.5h185q-2 14 -4 29.5t-2 32.5q0 29 10.5 54t31 43t49 28.5t64.5 10.5q32 0 65 -6t63.5 -15.5t57.5 -21t47 -22.5v-506q0 -38 11 -50.5t33 -12.5q11 0 25 1.5t27 5.5v-81q-18 -6 -41.5 -10t-45.5 -4z" />
    <glyph glyph-name="fi.ss01" horiz-adv-x="546" 
d="M418 611q-26 0 -43 16t-17 42q0 25 17 42t43 17q27 0 44.5 -17t17.5 -42q0 -26 -17.5 -42t-44.5 -16zM369 436h-176v-626h-99v626h-69v67q13 5 29.5 9t31.5 6q-2 14 -4 30.5t-2 33.5q0 59 39 97.5t105 38.5q24 0 51 -5t47 -16v-83q-37 17 -75 17q-70 0 -70 -64
q0 -14 1 -25.5t3 -21.5h287v-520h-99v436z" />
    <glyph glyph-name="fl.ss01" horiz-adv-x="580" 
d="M478 -4q-51 0 -80 30.5t-29 101.5v475q-20 11 -51.5 20t-64.5 9q-76 0 -76 -65q0 -14 1 -25.5t3 -21.5h133v-84h-121v-626h-99v626h-69v67q14 5 30 9t32 6q-6 29 -6 64q0 29 10.5 54t31 43t49 28.5t64.5 10.5q32 0 64.5 -6t63 -15.5t57.5 -21t47 -22.5v-506
q0 -38 11 -50.5t34 -12.5q11 0 25 1.5t27 5.5v-81q-19 -6 -42 -10t-45 -4z" />
    <glyph glyph-name="uni0410.ss01" horiz-adv-x="634" 
d="M4 0q0 83 26.5 176t68 186t92.5 180t101 158h134l178 -700h-113l-44 183h-303q-14 -48 -21.5 -94t-7.5 -89h-111zM424 276l-76 321h-14q-18 -29 -39.5 -66t-43 -78.5t-42 -86.5t-37.5 -90h252z" />
    </font>
</defs>
</svg>
