<svg xmlns="http://www.w3.org/2000/svg">
<defs>
<font id="FixelText-Bold" horiz-adv-x="563" >
  <font-face 
    font-family="Fixel Text Bold"
    font-weight="700"
    font-stretch="semi-condensed"
    units-per-em="1000"
    panose-1="0 0 0 0 0 0 0 0 0 0"
    ascent="800"
    descent="-200"
    x-height="520"
    cap-height="700"
    bbox="-54 -211 1161 933"
    underline-thickness="50"
    underline-position="-175"
    unicode-range="U+000D-FB04"
  />
<missing-glyph horiz-adv-x="713" 
d="M198 619q-14 -1 -23 6t-10 18q-2 12 6 20t22 10q16 2 28.5 -5t14.5 -18q1 -11 -10.5 -20t-27.5 -11zM121 427q-20 -2 -36.5 8t-17.5 24q0 7 3.5 14l7.5 15t7.5 18t2.5 22t-6 21t-11 16t-11 13.5t-5 13.5q-1 13 13 25t31 14t35 -9t31 -31q8 -12 15 -18t13 -11t10.5 -10
t5.5 -15t-2.5 -16t-9 -12.5t-12 -14.5t-12.5 -22q-18 -42 -52 -45zM253 551q-17 -2 -28.5 6t-12.5 22q-2 14 8.5 23.5t27.5 11.5q19 2 34.5 -6.5t17.5 -20.5q1 -13 -13 -23.5t-34 -12.5zM260 470q-17 -2 -28 6t-12 22q-2 14 8 23t27 11q19 2 34 -6t16 -21q2 -12 -12 -22.5
t-33 -12.5zM217 401q-14 -1 -23 6t-10 19q-2 11 6.5 19t22.5 10q16 2 28.5 -5.5t13.5 -18.5t-10.5 -19.5t-27.5 -10.5zM563 245q-14 2 -22 10t-7 19q1 12 10 19t23 6q16 -2 27.5 -10.5t10.5 -19.5t-13.5 -18.5t-28.5 -5.5zM450 70q-18 2 -32 13.5t-13 24.5q0 7 5 13.5t11 14
t11 16.5t6 21t-2.5 22t-8 18t-8 15t-2.5 14q2 13 17.5 22.5t35.5 8.5q34 -1 54 -44q6 -14 12.5 -22t12 -14.5t8.5 -12.5t2 -16t-4.5 -15.5t-9.5 -11t-13.5 -11.5t-15.5 -17q-14 -19 -31.5 -30t-34.5 -9zM605 169q-17 2 -27 11t-9 23q2 14 13.5 22t28.5 6q19 -2 33.5 -12.5
t12.5 -23.5q-1 -12 -16.5 -20t-35.5 -6zM598 87q-17 2 -27 11.5t-8 23.5t12.5 22t27.5 6q19 -2 33 -12.5t13 -23.5q-2 -12 -17 -20.5t-34 -6.5zM544 27q-14 2 -22 10t-7 20t10.5 18.5t23.5 5.5q16 -2 27.5 -11t9.5 -20q-1 -11 -14 -18t-28 -5z" />
    <glyph glyph-name="arrowleft" unicode="&#x3c;&#x2d;" horiz-adv-x="698" 
d="M56 328v10l226 246l86 -79l-112 -116h396v-113h-396l112 -116l-86 -78z" />
    <glyph glyph-name="arrowup" unicode="&#x2f;&#x7c;\" horiz-adv-x="578" 
d="M284 630.004h10l246 -225.986l-79 -85.9951l-116 111.993v-395.976h-113v395.976l-116 -111.993l-78 85.9951z" />
    <glyph glyph-name="arrowright" unicode="&#x2d;&#x3e;" horiz-adv-x="698" 
d="M642.004 328v10l-225.986 246l-85.9951 -79l111.993 -116h-395.976v-113h395.976l-111.993 -116l85.9951 -78z" />
    <glyph glyph-name="arrowdown" unicode="\&#x7c;&#x2f;" horiz-adv-x="578" 
d="M284 35.0342h10l246 225.973l-79 85.9902l-116 -111.986v395.951h-113v-395.951l-116 111.986l-78 -85.9902z" />
    <glyph glyph-name="uni2646" unicode="TRIDENT" horiz-adv-x="789" 
d="M434 411q0 -31 7 -56.5t18 -47t25 -40.5l28 -38q16 7 26 15t10 19q0 16 -17.5 25.5t-49.5 9.5v28q0 60 12 108.5t40 90t72.5 78.5t110.5 73v-676h-161q-16 -39 -46 -73.5t-75 -61.5v-61h-78v61q-90 55 -122 135h-160v676q65 -36 110 -73t72.5 -78.5t39.5 -90t12 -108.5
v-28q-32 0 -49 -9.5t-17 -25.5q0 -11 9.5 -19t25.5 -15l28 38t25.5 40.5t18.5 47t7 56.5v333h78v-333zM638 76v455q-37 -34 -56.5 -77.5t-24.5 -100.5q30 -10 46.5 -32t16.5 -55q0 -20 -5.5 -34.5t-15.5 -25.5t-22.5 -19.5t-26.5 -15.5q11 -24 16 -46.5t5 -48.5h67zM219 76
q0 26 4.5 49t16.5 46q-28 14 -49 34.5t-21 60.5q0 67 62 87q-5 57 -24.5 100.5t-55.5 77.5v-455h67zM347 197q13 -8 25 -17.5t23 -22.5q10 13 22 22.5t25 17.5q-12 16 -24 33t-23 37q-11 -20 -23.5 -37t-24.5 -33zM358 76q-6 22 -19.5 36.5t-30.5 25.5q-6 -14 -10 -27.5
t-4 -29.5v-5h64zM495 76q0 17 -3 31.5t-11 30.5q-17 -11 -30.5 -25.5t-19.5 -36.5h64zM362 0h-41q14 -19 32 -36.5t42 -33.5q47 32 73 70h-40v-27h-66v27z" />
    <glyph glyph-name="uniE000" unicode="&#x457;&#x457;" horiz-adv-x="549" 
d="M65 596q-32 0 -51.5 19t-19.5 51q0 31 19.5 50.5t51.5 19.5q29 0 49.5 -19.5t20.5 -50.5q0 -32 -20.5 -51t-49.5 -19zM273 596q-30 0 -49.5 19.5t-19.5 50.5t19.5 50.5t49.5 19.5q32 0 52 -19.5t20 -50.5t-20 -50.5t-52 -19.5zM484 596q-32 0 -51 19t-19 51q0 31 19 50.5
t51 19.5t51.5 -19.5t19.5 -50.5q0 -32 -19.5 -51t-51.5 -19zM63 520h149v-520h-149v520zM337 520h149v-520h-149v520z" />
    <glyph glyph-name="uniE01A" unicode="MACPAWLOGO" horiz-adv-x="728" 
d="M322 654q-7 -5 -16 -5q-12 0 -18 10q-11 20 12 33q8 5 20 5q6 0 11.5 -1.5t7.5 -6.5q5 -8 -0.5 -18.5t-16.5 -16.5zM386 620q-9 -5 -19 -5q-13 0 -21 12q-6 10 -2 20t16 17q11 7 24 7q15 0 21 -10q5 -9 -1 -21t-18 -20zM364 0q-67 0 -127 25.5t-104 70t-70 104t-26 127.5
q0 50 14.5 96t40.5 85.5t63.5 70.5t83.5 50q15 7 34 7q27 0 50 -15t34 -41t5.5 -52.5t-24.5 -45.5q-8 -8 -17 -13l-18 -10l-11 -5q-35 -18 -54.5 -53.5t-19.5 -73.5q0 -30 11.5 -57t31 -46.5t46.5 -31t57 -11.5q26 0 50 9t42.5 24.5t32 36.5t18.5 46q2 8 2 15t1 15
q3 38 26 64t64 26q38 0 64.5 -26t26.5 -64q0 -68 -26 -127.5t-70 -104t-103.5 -70t-127.5 -25.5zM420 561q-10 -6 -19 -6q-13 0 -21 12q-6 11 -2 21t16 17q11 6 23 6q16 0 22 -9q5 -9 -1 -21.5t-18 -19.5zM414 495q-7 -5 -17 -5q-12 0 -18 10q-5 9 -1.5 18t14.5 15q8 5 20 5
q14 0 18 -8q5 -8 0 -18.5t-16 -16.5z" />
    <glyph glyph-name="f_f" unicode="ff" horiz-adv-x="679" 
d="M84 403h-65v93q14 5 31.5 9t33.5 6v28q0 85 39.5 132t113.5 47q27 0 61.5 -5.5t57.5 -15.5v-111q-19 8 -38.5 12.5t-36.5 4.5q-29 0 -43 -16.5t-14 -54.5v-19h166v26q0 85 40 132t114 47q27 0 61 -5.5t57 -15.5v-111q-39 17 -74 17q-29 0 -43 -16.5t-14 -54.5v-19h127
v-110h-119v-403h-149v403h-157v-403h-149v403z" />
    <glyph glyph-name="fi" unicode="fi" horiz-adv-x="605" 
d="M466 590q-38 0 -61 20.5t-23 55.5q0 34 23 55.5t61 21.5t62.5 -21.5t24.5 -55.5q0 -35 -24.5 -55.5t-62.5 -20.5zM84 403h-65v93q14 5 31.5 9t33.5 6v28q0 85 39.5 132t113.5 47q27 0 61.5 -5.5t57.5 -15.5v-111q-19 8 -38.5 12.5t-36.5 4.5q-30 0 -43.5 -17t-13.5 -58
l1 -15h297v-5h20v-508h-149v403h-160v-403h-149v403z" />
    <glyph glyph-name="fl" unicode="fl" horiz-adv-x="610" 
d="M398 574q-20 10 -47 19t-56 9q-30 0 -44.5 -16t-14.5 -57v-16h115v-110h-107v-403h-149v403h-65v93q14 5 32 9t33 6v28q0 84 44.5 131.5t131.5 47.5q38 0 75.5 -7t73 -17.5t68 -23.5t59.5 -25v-645h-149v574z" />
    <glyph glyph-name="f_f_i" unicode="ffi" horiz-adv-x="909" 
d="M771 590q-38 0 -61 20.5t-23 55.5q0 34 23 55.5t61 21.5t62 -21.5t24 -55.5q0 -35 -24 -55.5t-62 -20.5zM698 403h-159v-403h-149v403h-157v-403h-149v403h-65v93q14 5 31.5 9t33.5 6v28q0 85 39.5 132t113.5 47q27 0 61.5 -5.5t57.5 -15.5v-111q-19 8 -38.5 12.5
t-36.5 4.5q-29 0 -43 -16.5t-14 -54.5v-19h166v26q0 85 40 132t114 47q27 0 59.5 -5.5t55.5 -15.5v-111q-39 17 -71 17q-29 0 -43 -16.5t-14 -54.5v-19h316v-513h-149v403z" />
    <glyph glyph-name="f_f_l" unicode="ffl" horiz-adv-x="905" 
d="M84 403h-65v93q14 5 31.5 9t33.5 6v28q0 85 39.5 132t113.5 47q27 0 61.5 -5.5t57.5 -15.5v-111q-19 8 -38.5 12.5t-36.5 4.5q-29 0 -43 -16.5t-14 -54.5v-19h166v26q0 84 44.5 131.5t132.5 47.5q38 0 75 -7t72.5 -17.5t68 -23.5t59.5 -25v-645h-149v574q-19 10 -46.5 19
t-56.5 9q-30 0 -44.5 -16t-14.5 -57v-16h115v-110h-107v-403h-149v403h-157v-403h-149v403z" />
    <glyph glyph-name=".notdef" horiz-adv-x="713" 
d="M198 619q-14 -1 -23 6t-10 18q-2 12 6 20t22 10q16 2 28.5 -5t14.5 -18q1 -11 -10.5 -20t-27.5 -11zM121 427q-20 -2 -36.5 8t-17.5 24q0 7 3.5 14l7.5 15t7.5 18t2.5 22t-6 21t-11 16t-11 13.5t-5 13.5q-1 13 13 25t31 14t35 -9t31 -31q8 -12 15 -18t13 -11t10.5 -10
t5.5 -15t-2.5 -16t-9 -12.5t-12 -14.5t-12.5 -22q-18 -42 -52 -45zM253 551q-17 -2 -28.5 6t-12.5 22q-2 14 8.5 23.5t27.5 11.5q19 2 34.5 -6.5t17.5 -20.5q1 -13 -13 -23.5t-34 -12.5zM260 470q-17 -2 -28 6t-12 22q-2 14 8 23t27 11q19 2 34 -6t16 -21q2 -12 -12 -22.5
t-33 -12.5zM217 401q-14 -1 -23 6t-10 19q-2 11 6.5 19t22.5 10q16 2 28.5 -5.5t13.5 -18.5t-10.5 -19.5t-27.5 -10.5zM563 245q-14 2 -22 10t-7 19q1 12 10 19t23 6q16 -2 27.5 -10.5t10.5 -19.5t-13.5 -18.5t-28.5 -5.5zM450 70q-18 2 -32 13.5t-13 24.5q0 7 5 13.5t11 14
t11 16.5t6 21t-2.5 22t-8 18t-8 15t-2.5 14q2 13 17.5 22.5t35.5 8.5q34 -1 54 -44q6 -14 12.5 -22t12 -14.5t8.5 -12.5t2 -16t-4.5 -15.5t-9.5 -11t-13.5 -11.5t-15.5 -17q-14 -19 -31.5 -30t-34.5 -9zM605 169q-17 2 -27 11t-9 23q2 14 13.5 22t28.5 6q19 -2 33.5 -12.5
t12.5 -23.5q-1 -12 -16.5 -20t-35.5 -6zM598 87q-17 2 -27 11.5t-8 23.5t12.5 22t27.5 6q19 -2 33 -12.5t13 -23.5q-2 -12 -17 -20.5t-34 -6.5zM544 27q-14 2 -22 10t-7 20t10.5 18.5t23.5 5.5q16 -2 27.5 -11t9.5 -20q-1 -11 -14 -18t-28 -5z" />
    <glyph glyph-name=".null" horiz-adv-x="0" 
 />
    <glyph glyph-name=".null" horiz-adv-x="0" 
 />
    <glyph glyph-name="uni000D" unicode="&#xd;" horiz-adv-x="250" 
 />
    <glyph glyph-name="space" unicode=" " horiz-adv-x="259" 
 />
    <glyph glyph-name="exclam" unicode="!" horiz-adv-x="279" 
d="M58 472v228h162v-228l-18 -238h-125zM139 -13q-38 0 -64.5 25t-26.5 60v6q0 17 7 32t19.5 26.5t29 18t35.5 6.5t36 -6.5t29.5 -18t20 -26.5t7.5 -32v-6q0 -18 -7.5 -33.5t-20 -27t-29.5 -18t-36 -6.5z" />
    <glyph glyph-name="quotedbl" unicode="&#x22;" horiz-adv-x="367" 
d="M27 582v118h131v-118l-18 -181h-95zM209 582v118h131v-118l-18 -181h-95z" />
    <glyph glyph-name="numbersign" unicode="#" horiz-adv-x="808" 
d="M120 157h-101v125h141l47 146h-101v125h141l47 147h151l-47 -147h138l47 147h151l-46 -147h101v-125h-141l-47 -146h101v-125h-140l-51 -157h-151l50 157h-138l-50 -157h-151zM450 282l46 146h-138l-46 -146h138z" />
    <glyph glyph-name="dollar" unicode="$" horiz-adv-x="598" 
d="M234 22q-61 8 -116 30t-96 54l70 117q20 -16 46.5 -29.5t56.5 -23t61 -15t60 -5.5q48 0 74 13.5t26 38.5q0 32 -35 50t-104 36q-64 17 -108.5 36.5t-73 43t-41.5 53t-13 65.5q0 74 50 124.5t133 66.5v98h126v-95q54 -7 104 -25t91 -47l-60 -115q-44 28 -96 43.5
t-101 15.5q-46 0 -70.5 -14t-24.5 -40q0 -32 37.5 -48t100.5 -33q65 -17 111 -36.5t75 -43.5t42.5 -53.5t13.5 -66.5q0 -40 -15 -74t-43 -59.5t-67.5 -42t-87.5 -22.5v-94h-126v97z" />
    <glyph glyph-name="percent" unicode="%" horiz-adv-x="818" 
d="M189 336q-34 0 -63 13t-50 36.5t-32.5 56t-11.5 71.5v17q0 39 11.5 71.5t32.5 56t50 36.5t63 13h19q34 0 63 -13t50 -36.5t32.5 -56t11.5 -71.5v-17q0 -39 -11.5 -71.5t-32.5 -56t-50 -36.5t-63 -13h-19zM595 702h157l-528 -702h-157zM200 445q23 0 38 19t15 52v11
q0 33 -15 52t-38 19h-3q-23 0 -38 -19t-15 -52v-11q0 -33 15 -52t38 -19h3zM610 -8q-34 0 -63 13t-50 36.5t-32.5 56t-11.5 71.5v17q0 39 11.5 71.5t32.5 56t50 36.5t63 13h18q35 0 64 -13t50 -36.5t32.5 -56t11.5 -71.5v-17q0 -39 -11.5 -71.5t-32.5 -56t-50 -36.5t-64 -13
h-18zM621 101q23 0 37.5 19t14.5 52v11q0 33 -14.5 52t-37.5 19h-4q-23 0 -37.5 -19t-14.5 -52v-11q0 -33 14.5 -52t37.5 -19h4z" />
    <glyph glyph-name="ampersand" unicode="&#x26;" horiz-adv-x="756" 
d="M303 -12q-58 0 -105 14t-80 39.5t-50.5 62t-17.5 81.5q0 69 41 123t105 82l-1 1q-22 25 -36 44t-22 36t-11 33.5t-3 35.5q0 39 14 71t40 54.5t62.5 35t81.5 12.5q88 0 140.5 -45.5t52.5 -121.5q0 -54 -33 -102t-90 -79l116 -130q10 23 16 50t6 56v35h122v-61
q0 -49 -14 -96t-37 -83l121 -136h-175l-40 45q-42 -26 -93 -41.5t-110 -15.5zM319 447q42 28 58 48.5t16 49.5t-18.5 45.5t-49.5 16.5q-32 0 -51 -17t-19 -43q0 -27 18.5 -49t45.5 -51zM276 301q-44 -16 -67 -42.5t-23 -62.5q0 -44 33.5 -69.5t91.5 -25.5q66 0 114 33z" />
    <glyph glyph-name="quotesingle" unicode="'" horiz-adv-x="201" 
d="M35 582v118h131v-118l-18 -181h-95z" />
    <glyph glyph-name="parenleft" unicode="(" horiz-adv-x="293" 
d="M182 -181q-73 97 -110.5 216.5t-37.5 241.5q0 123 38 243.5t110 219.5l99 -55q-48 -93 -72.5 -197t-24.5 -212q0 -106 24 -208.5t73 -194.5z" />
    <glyph glyph-name="parenright" unicode=")" horiz-adv-x="293" 
d="M12 -127q49 92 73.5 194.5t24.5 208.5q0 108 -25 212t-73 197l99 55q72 -99 110 -219.5t38 -243.5q0 -122 -37 -241.5t-111 -216.5z" />
    <glyph glyph-name="asterisk" unicode="*" horiz-adv-x="450" 
d="M178 405l3 20l-16 -13l-88 -52l-48 83l88 51l21 7l-20 7l-89 51l48 83l88 -52l17 -14l-5 21v102h95v-101l-4 -22l17 14l88 52l48 -83l-89 -51l-20 -7l21 -8l88 -50l-48 -83l-88 52l-17 13l4 -21l1 -101h-95v102z" />
    <glyph glyph-name="plus" unicode="+" horiz-adv-x="593" 
d="M235 265h-191v120h191v202h123v-202h191v-120h-191v-202h-123v202z" />
    <glyph glyph-name="comma" unicode="," horiz-adv-x="258" 
d="M84 156h145l-104 -290h-113z" />
    <glyph glyph-name="hyphen" unicode="-" horiz-adv-x="450" 
d="M65 321h320v-121h-320v121z" />
    <glyph glyph-name="period" unicode="." horiz-adv-x="254" 
d="M127 -13q-19 0 -36 6.5t-29.5 18t-19.5 27t-7 33.5v6q0 17 7 32t19.5 26.5t29.5 18t36 6.5t35.5 -6.5t29 -18t20 -26.5t7.5 -32v-6q0 -18 -7.5 -33.5t-20 -27t-29 -18t-35.5 -6.5z" />
    <glyph glyph-name="slash" unicode="/" horiz-adv-x="331" 
d="M176 720h141l-163 -831h-141z" />
    <glyph glyph-name="zero" unicode="0" horiz-adv-x="631" 
d="M315 -13q-65 0 -117.5 25.5t-89 73t-56.5 114.5t-20 150t20 150.5t56.5 114.5t89 72.5t117.5 25.5t117.5 -25.5t89.5 -72.5t57 -114.5t20 -150.5t-20 -150t-57 -114.5t-89.5 -73t-117.5 -25.5zM315 122q63 0 97.5 59.5t34.5 168.5t-34.5 168.5t-97.5 59.5t-97 -59.5
t-34 -168.5t34 -168.5t97 -59.5z" />
    <glyph glyph-name="one" unicode="1" horiz-adv-x="401" 
d="M327 700v-700h-147v468q-30 -21 -70 -32.5t-86 -11.5v118q75 3 120.5 45t45.5 113h137z" />
    <glyph glyph-name="two" unicode="2" horiz-adv-x="545" 
d="M26 109q28 17 63 42t72.5 55.5t73 65t63.5 71.5t45 74.5t17 73.5q0 41 -24 64.5t-63 23.5q-40 0 -69.5 -28.5t-38.5 -91.5l-146 27q7 53 28.5 94.5t55 71t76.5 45t94 15.5q49 0 92.5 -14.5t75.5 -42t51 -67t19 -90.5q0 -59 -24 -112t-62 -98.5t-84.5 -85t-90.5 -71.5h276
v-131h-500v109z" />
    <glyph glyph-name="three" unicode="3" horiz-adv-x="586" 
d="M285 -12q-45 0 -86.5 11.5t-76 34.5t-60.5 56.5t-40 78.5l133 35q17 -38 48.5 -60t80.5 -22q53 0 85 31.5t32 85.5q0 50 -28.5 79.5t-79.5 29.5q-29 0 -53.5 -8t-43.5 -20l-46 82l178 166h-272v132h454v-109l-161 -142h7q44 -2 80 -18.5t62 -44.5t40.5 -66t14.5 -85
q0 -58 -21.5 -104t-58 -77.5t-85.5 -48.5t-103 -17z" />
    <glyph glyph-name="four" unicode="4" horiz-adv-x="584" 
d="M341 121h-327v110l270 469h198v-456h81v-123h-81v-121h-141v121zM341 244v312h-12l-173 -299v-13h185z" />
    <glyph glyph-name="five" unicode="5" horiz-adv-x="584" 
d="M290 -12q-45 0 -87 11.5t-77 34.5t-61.5 56.5t-40.5 78.5l138 35q17 -39 49 -60.5t78 -21.5q57 0 87 31.5t30 85.5q0 55 -31.5 82t-80.5 27q-37 0 -68.5 -13.5t-54.5 -36.5l-112 38l41 364h409v-132h-297l-16 -146q60 40 137 40q50 0 90.5 -15t70 -43.5t45.5 -69
t16 -92.5q0 -56 -19 -102.5t-54 -80.5t-84 -52.5t-108 -18.5z" />
    <glyph glyph-name="six" unicode="6" horiz-adv-x="616" 
d="M427 510q-31 79 -107 79q-42 0 -69 -19.5t-43 -50t-22.5 -67t-6.5 -70.5q34 37 81 54.5t96 17.5q48 0 90 -15.5t73 -44t49 -69.5t18 -93q0 -54 -20 -99t-55.5 -77.5t-85 -50.5t-108.5 -18q-67 0 -120 24t-89.5 70t-56 112t-19.5 151q0 86 19.5 154.5t56.5 116t90.5 73
t120.5 25.5q90 0 155.5 -45t91.5 -126zM186 242q11 -59 44.5 -91t85.5 -32q55 0 89 33t34 85q0 49 -32 78t-83 29q-43 0 -82 -19.5t-56 -57.5q-1 -12 0 -25z" />
    <glyph glyph-name="seven" unicode="7" horiz-adv-x="493" 
d="M321 553v12h-305v135h463v-111l-234 -589h-165z" />
    <glyph glyph-name="eight" unicode="8" horiz-adv-x="592" 
d="M296 -12q-62 0 -112 14.5t-85 41.5t-54 65.5t-19 85.5q0 63 33 108.5t93 70.5q-48 23 -73 62t-25 92q0 42 17 76.5t48.5 58.5t76 37t100.5 13t100.5 -13t75.5 -37t48 -58.5t17 -76.5q0 -53 -25 -92t-72 -62q60 -25 93 -70.5t33 -108.5q0 -47 -19 -85.5t-54 -65.5
t-85 -41.5t-112 -14.5zM296 425q48 0 75.5 21.5t27.5 60.5t-27.5 60.5t-75.5 21.5q-49 0 -76 -21.5t-27 -60.5t27 -60.5t76 -21.5zM296 118q60 0 92 25.5t32 70.5q0 46 -32 71.5t-92 25.5t-93 -25.5t-33 -71.5q0 -45 33 -70.5t93 -25.5z" />
    <glyph glyph-name="nine" unicode="9" horiz-adv-x="616" 
d="M189.026 190.031q30.998 -78.9951 106.993 -78.9951q41.9971 0 68.9961 19.499q26.998 19.498 42.9971 49.9961q15.999 30.499 22.499 66.9961q6.49902 36.498 6.49902 70.4961q-33.998 -36.998 -80.9951 -54.4971t-95.9941 -17.499q-47.9971 0 -89.9941 15.499
q-41.998 15.499 -72.9961 43.998q-30.998 28.498 -48.9961 69.4951q-17.999 40.998 -17.999 92.9941q0 53.9971 19.998 98.9941q19.999 44.998 55.4971 77.4951q35.498 32.498 84.9951 50.4971t108.493 17.999q66.9961 0 119.992 -23.998q52.9971 -23.999 89.4951 -69.9961
q36.4971 -45.9971 55.9961 -111.993t19.499 -150.99q0 -85.9951 -19.499 -154.491t-56.4961 -115.993q-36.998 -47.4971 -90.4951 -72.9951q-53.4961 -25.498 -120.492 -25.498q-89.9941 0 -155.49 44.9971t-91.4951 125.992zM430.012 458.015q-11 58.9961 -44.498 90.9941
t-85.4941 31.998q-54.9971 0 -88.9951 -32.9971q-33.998 -32.998 -33.998 -84.9951q0 -48.9971 31.998 -77.9951t82.9951 -28.998q42.998 0 81.9951 19.498q38.998 19.499 55.9971 57.4971q1 11.999 0 24.998z" />
    <glyph glyph-name="colon" unicode=":" horiz-adv-x="254" 
d="M127 -13q-19 0 -36 6.5t-29.5 18t-19.5 27t-7 33.5v6q0 17 7 32t19.5 26.5t29.5 18t36 6.5t35.5 -6.5t29 -18t20 -26.5t7.5 -32v-6q0 -18 -7.5 -33.5t-20 -27t-29 -18t-35.5 -6.5zM127 289q-19 0 -36 6.5t-29.5 18t-19.5 27t-7 33.5v6q0 17 7 32t19.5 26.5t29.5 18
t36 6.5t35.5 -6.5t29 -18t20 -26.5t7.5 -32v-6q0 -18 -7.5 -33.5t-20 -27t-29 -18t-35.5 -6.5z" />
    <glyph glyph-name="semicolon" unicode=";" horiz-adv-x="270" 
d="M143 289q-19 0 -36 6.5t-29.5 18t-19.5 27t-7 33.5v6q0 17 7 32t19.5 26.5t29.5 18t36 6.5t36 -6.5t29.5 -18t19.5 -26.5t7 -32v-6q0 -18 -7 -33.5t-19.5 -27t-29.5 -18t-36 -6.5zM84 156h145l-104 -290h-113z" />
    <glyph glyph-name="less" unicode="&#x3c;" horiz-adv-x="554" 
d="M38 272v106l460 230v-136l-312 -147l312 -149v-135z" />
    <glyph glyph-name="equal" unicode="=" horiz-adv-x="593" 
d="M49 486h495v-120h-495v120zM49 284h495v-119h-495v119z" />
    <glyph glyph-name="greater" unicode="&#x3e;" horiz-adv-x="554" 
d="M56 176l313 149l-313 147v136l460 -230v-106l-460 -231v135z" />
    <glyph glyph-name="question" unicode="?" horiz-adv-x="526" 
d="M192 234q-1 4 -1 15v16q0 50 22 85.5t62 70.5q13 12 26 23t23.5 22.5t17 24.5t6.5 28q0 31 -23 47t-61 16q-48 0 -78 -27t-32 -67l-131 19q2 46 21 85t52.5 67.5t79.5 44.5t101 16q50 0 92 -13.5t72 -37.5t47 -57.5t17 -73.5q0 -48 -22.5 -84t-72.5 -76
q-17 -14 -33 -27.5t-29 -28.5t-20.5 -32.5t-7.5 -39.5v-16h-128zM260 -13q-19 0 -35.5 6.5t-29 18t-19.5 27t-7 33.5v6q0 35 26.5 59t64.5 24q19 0 36 -6.5t29.5 -18t20 -26.5t7.5 -32v-6q0 -18 -7.5 -33.5t-20 -27t-29.5 -18t-36 -6.5z" />
    <glyph glyph-name="at" unicode="@" horiz-adv-x="1001" 
d="M501 -193q-97 0 -181.5 35.5t-147.5 96.5t-99 144t-36 177q0 96 36.5 178.5t100 143.5t149.5 96t185 35q98 0 181.5 -34t144.5 -93.5t95.5 -141t34.5 -177.5q0 -59 -14 -106.5t-40.5 -81t-63.5 -51.5t-83 -18q-49 0 -84.5 19.5t-53.5 54.5q-60 -74 -159 -74h-4
q-46 0 -85 17.5t-67 48.5t-44 74t-16 94v25q0 51 16 94t44 74.5t66.5 49t84.5 17.5h3q47 0 86.5 -18t67.5 -51q5 16 9.5 31.5t10.5 29.5h95v-299q0 -40 12 -62t37 -22q37 0 58 40.5t21 109.5q0 77 -26 140.5t-72.5 110t-110.5 72t-141 25.5q-78 0 -145.5 -26.5t-117 -73.5
t-77.5 -110.5t-28 -138.5q0 -74 28 -138.5t76.5 -112t115 -75t143.5 -27.5q115 0 201 59l48 -87q-55 -36 -120 -55t-134 -19zM495 113q47 0 75 37t28 97v18q0 60 -28.5 97t-75.5 37h-1q-47 0 -76.5 -37t-29.5 -97v-18q0 -59 30 -96.5t76 -37.5h2z" />
    <glyph glyph-name="A" unicode="A" horiz-adv-x="650" 
d="M226 700h200l231 -700h-167l-43 146h-244l-43 -146h-167zM413 271l-82 267h-11l-83 -267h176z" />
    <glyph glyph-name="B" unicode="B" horiz-adv-x="643" 
d="M73 700h265q52 0 95.5 -12t74.5 -34.5t48.5 -54t17.5 -70.5v-12q0 -46 -21 -82t-67 -62q58 -25 89 -69t31 -101v-13q0 -43 -17 -78.5t-48.5 -60t-75.5 -38t-99 -13.5h-293v700zM332 410q42 0 67.5 20.5t25.5 55.5v11q0 33 -24.5 52.5t-66.5 19.5h-110v-159h108zM357 132
q43 0 70 20.5t27 55.5v12q0 37 -27.5 58.5t-72.5 21.5h-130v-168h133z" />
    <glyph glyph-name="C" unicode="C" horiz-adv-x="680" 
d="M375 -12q-75 0 -137.5 26t-107 72.5t-69 111t-24.5 142.5v19q0 77 25 142t69.5 112t106 73t134.5 26h7q86 0 157.5 -38.5t116.5 -110.5l-115 -87q-26 46 -64.5 72.5t-90.5 26.5h-8q-39 0 -71.5 -15.5t-55.5 -43.5t-36 -68t-13 -89v-19q0 -49 12.5 -88.5t36 -67.5t56 -43
t71.5 -15h12q51 0 90 26t65 71l113 -86q-45 -72 -115.5 -110.5t-158.5 -38.5h-6z" />
    <glyph glyph-name="D" unicode="D" horiz-adv-x="704" 
d="M73 700h232q82 0 149 -24t114 -68t73 -106t26 -138v-20q0 -77 -26 -140.5t-73 -108.5t-114 -70t-149 -25h-232v700zM308 136q94 0 145.5 56t51.5 153v20q0 92 -51.5 145.5t-145.5 53.5h-78v-428h78z" />
    <glyph glyph-name="E" unicode="E" horiz-adv-x="559" 
d="M74 700h423v-136h-267v-148h247v-129h-247v-151h277v-136h-433v700z" />
    <glyph glyph-name="F" unicode="F" horiz-adv-x="529" 
d="M74 700h410v-136h-254v-165h234v-129h-234v-270h-156v700z" />
    <glyph glyph-name="G" unicode="G" horiz-adv-x="731" 
d="M347 -11q-71 0 -128 25t-97.5 71t-62.5 111t-22 144v18q0 79 24.5 144t69 111.5t107 72.5t137.5 26h11q86 0 159 -41t121 -116l-123 -78q-56 100 -154 100h-11q-41 0 -74 -16t-56.5 -44.5t-36 -68.5t-12.5 -89v-20q0 -49 12.5 -89t36.5 -68t58 -43.5t76 -15.5h11
q30 0 56.5 9.5t46 25.5t31 37t11.5 43v13h-144v128h286v-379h-112q-6 11 -11.5 33.5t-6.5 43.5q-12 -19 -31.5 -35t-45 -28t-55 -18.5t-59.5 -6.5h-12z" />
    <glyph glyph-name="H" unicode="H" horiz-adv-x="704" 
d="M73 700h157v-277h244v277h156v-700h-156v287h-244v-287h-157v700z" />
    <glyph glyph-name="I" unicode="I" horiz-adv-x="303" 
d="M74 700h156v-700h-156v700z" />
    <glyph glyph-name="J" unicode="J" horiz-adv-x="397" 
d="M129 -13q-26 0 -51 4t-48 12v146q13 -9 29.5 -14.5t36.5 -5.5q40 0 59 22.5t19 63.5v485h156v-507q0 -103 -52 -154.5t-149 -51.5z" />
    <glyph glyph-name="K" unicode="K" horiz-adv-x="654" 
d="M74 700h156v-292h8l219 292h178l-261 -322l279 -378h-187l-228 328h-8v-328h-156v700z" />
    <glyph glyph-name="L" unicode="L" horiz-adv-x="510" 
d="M74 700h156v-564h250v-136h-406v700z" />
    <glyph glyph-name="M" unicode="M" horiz-adv-x="869" 
d="M73 700h220l138 -407h7l138 407h219v-700h-152v514h-8l-143 -421h-115l-144 421h-8v-514h-152v700z" />
    <glyph glyph-name="N" unicode="N" horiz-adv-x="725" 
d="M74 700h174l248 -463h5v463h151v-700h-155l-266 497h-7v-497h-150v700z" />
    <glyph glyph-name="O" unicode="O" horiz-adv-x="761" 
d="M37 360q0 80 24.5 145t68.5 111.5t106.5 72t137.5 25.5h13q74 0 136 -25.5t106.5 -72t69.5 -112t25 -144.5v-20q0 -79 -25 -144.5t-69.5 -112t-106.5 -72t-136 -25.5h-13q-74 0 -136 26t-106.5 72.5t-69.5 111.5t-25 144v20zM199 340q0 -50 13 -90.5t36.5 -69t55.5 -43.5
t71 -15h11q39 0 71.5 15t55.5 43.5t36 69t13 90.5v20q0 50 -13 90t-36 68.5t-55.5 43.5t-71.5 15h-11q-39 0 -71 -15t-55.5 -43.5t-36.5 -68.5t-13 -90v-20z" />
    <glyph glyph-name="P" unicode="P" horiz-adv-x="613" 
d="M74 700h251q58 0 105 -16.5t80.5 -46.5t51.5 -72.5t18 -95.5v-12q0 -54 -18.5 -97.5t-52 -73.5t-80.5 -46.5t-104 -16.5h-95v-223h-156v700zM307 346q54 0 86 29.5t32 78.5v11q0 48 -30.5 74.5t-84.5 26.5h-84v-220h81z" />
    <glyph glyph-name="Q" unicode="Q" horiz-adv-x="762" 
d="M569 -158q-26 -7 -54 -11t-55 -4q-160 0 -160 151v16q-59 11 -107.5 41t-83 75t-53.5 103t-19 127v20q0 79 25 144.5t69.5 112t106.5 72t136 25.5h13q75 0 137 -25.5t106.5 -72t69.5 -112t25 -144.5v-20q0 -72 -20.5 -132.5t-58 -106.5t-90.5 -74.5t-117 -36.5v-9
q2 -22 15 -31t36 -9q17 0 41 3.5t38 7.5v-110zM199 340q0 -50 13 -90.5t36.5 -69t55.5 -43.5t71 -15h12q39 0 71 15t55.5 43.5t36.5 69t13 90.5v20q0 50 -13 90t-36.5 68.5t-55.5 43.5t-71 15h-12q-39 0 -71 -15t-55.5 -43.5t-36.5 -68.5t-13 -90v-20z" />
    <glyph glyph-name="R" unicode="R" horiz-adv-x="648" 
d="M74 700h267q116 0 182 -58t66 -161v-10q0 -68 -32 -119.5t-86 -74.5l164 -277h-181l-134 246h-90v-246h-156v700zM314 364q57 0 88.5 28t31.5 74v8q0 46 -31 71t-88 25h-90v-206h89z" />
    <glyph glyph-name="S" unicode="S" horiz-adv-x="584" 
d="M297 -12q-76 0 -148 25.5t-127 70.5l83 124q42 -39 97.5 -58t103.5 -19q96 0 96 66q0 25 -14 40t-41 26.5t-65.5 23t-88.5 29.5q-30 11 -57.5 26.5t-48 38t-32.5 54t-12 75.5q0 45 17.5 82t49 64t74.5 42t93 15q75 0 137 -22.5t120 -64.5l-82 -123q-39 35 -86.5 51.5
t-87.5 16.5q-42 0 -63 -17.5t-21 -46.5q0 -21 13 -35t35.5 -24t53 -19t66.5 -20t71.5 -26t63 -38t45 -57t17.5 -83t-18.5 -89.5t-52.5 -68.5t-82.5 -43.5t-108.5 -15.5z" />
    <glyph glyph-name="T" unicode="T" horiz-adv-x="547" 
d="M195 564h-175v136h507v-136h-175v-564h-157v564z" />
    <glyph glyph-name="U" unicode="U" horiz-adv-x="700" 
d="M351 -13q-136 0 -210 70t-74 199v444h156v-436q0 -66 35.5 -100.5t93.5 -34.5q57 0 91.5 34.5t34.5 100.5v436h156v-444q0 -66 -20 -116.5t-56.5 -84t-89 -51t-117.5 -17.5z" />
    <glyph glyph-name="V" unicode="V" horiz-adv-x="639" 
d="M4 700h165l146 -541h9l145 541h166l-213 -700h-206z" />
    <glyph glyph-name="W" unicode="W" horiz-adv-x="923" 
d="M15 700h159l91 -520h8l124 520h127l125 -520h8l92 520h159l-149 -700h-192l-103 436h-6l-104 -436h-192z" />
    <glyph glyph-name="X" unicode="X" horiz-adv-x="643" 
d="M214 360v6l-196 334h177l122 -232h10l122 232h175l-194 -334v-6l205 -360h-178l-130 262h-10l-129 -262h-180z" />
    <glyph glyph-name="Y" unicode="Y" horiz-adv-x="622" 
d="M233 273l-239 427h180l134 -281h7l133 281h179l-237 -427v-273h-157v273z" />
    <glyph glyph-name="Z" unicode="Z" horiz-adv-x="567" 
d="M26 117l317 441v6h-298v136h488v-117l-314 -438v-9h322v-136h-515v117z" />
    <glyph glyph-name="bracketleft" unicode="[" horiz-adv-x="369" 
d="M63 720h278v-122h-140v-631h140v-123h-278v876z" />
    <glyph glyph-name="backslash" unicode="\" horiz-adv-x="319" 
d="M18 720h125l159 -831h-126z" />
    <glyph glyph-name="bracketright" unicode="]" horiz-adv-x="368" 
d="M28 -33h136v631h-136v122h277v-876h-277v123z" />
    <glyph glyph-name="asciicircum" unicode="^" horiz-adv-x="529" 
d="M209 700h110l193 -361h-133l-105 209h-20l-104 -209h-134z" />
    <glyph glyph-name="underscore" unicode="_" horiz-adv-x="493" 
d="M26 -45h440v-99h-440v99z" />
    <glyph glyph-name="grave" unicode="`" horiz-adv-x="258" 
d="M31 739h129l58 -165h-111z" />
    <glyph glyph-name="a" unicode="a" 
d="M205 -11q-38 0 -69.5 11t-54.5 31t-36 48.5t-13 62.5v12q0 84 71 126t220 42h39v15q0 36 -22 57.5t-66 21.5h-5q-36 0 -75.5 -12.5t-80.5 -38.5l-56 102q47 30 105 47t118 17h9q100 0 156.5 -52.5t56.5 -146.5v-213q0 -32 5 -61t13 -58h-139q-9 25 -14 59
q-29 -33 -71.5 -51.5t-90.5 -18.5zM243 102q33 0 64.5 14.5t54.5 40.5v78h-30q-81 0 -120 -18t-39 -54v-5q0 -25 19 -40.5t51 -15.5z" />
    <glyph glyph-name="b" unicode="b" horiz-adv-x="625" 
d="M358 -11q-51 0 -92.5 18t-71.5 51q-2 -16 -5 -31.5t-8 -26.5h-118v720h149v-242q59 53 146 53h8q51 0 93.5 -18.5t72.5 -52.5t46.5 -81t16.5 -104v-30q0 -57 -16.5 -104t-46.5 -81t-72.5 -52.5t-93.5 -18.5h-8zM331 100q50 0 80 41t30 110v23q0 67 -30 106.5t-80 39.5
h-10q-50 0 -80 -39.5t-30 -106.5v-23q0 -69 30 -110t80 -41h10z" />
    <glyph glyph-name="c" unicode="c" horiz-adv-x="528" 
d="M285 -10q-57 0 -103.5 19t-80.5 53.5t-52.5 81.5t-18.5 103v28q0 55 19 102t53 81t79.5 53t99.5 19h9q69 0 124.5 -29.5t93.5 -85.5l-105 -75q-23 40 -48.5 58t-59.5 18h-6q-49 0 -77 -38t-28 -109v-18q0 -68 29.5 -106t79.5 -38h9q63 0 106 76l104 -80
q-79 -113 -218 -113h-9z" />
    <glyph glyph-name="d" unicode="d" horiz-adv-x="626" 
d="M259 -11q-51 0 -93 18.5t-72.5 52.5t-47 81t-16.5 104v30q0 57 16.5 104t47 81t72.5 52.5t93 18.5h9q87 0 146 -53v242h149v-720h-118q-5 11 -8.5 26.5t-5.5 31.5q-30 -33 -71.5 -51t-92.5 -18h-8zM304 100q51 0 80.5 41t29.5 110v23q0 67 -29.5 106.5t-80.5 39.5h-9
q-50 0 -80 -39.5t-30 -106.5v-23q0 -69 30 -110t80 -41h9z" />
    <glyph glyph-name="e" unicode="e" horiz-adv-x="564" 
d="M292 -11q-59 0 -107 18.5t-82.5 53t-53.5 82.5t-19 106v19q0 58 19 106t53 82.5t81 54t103 19.5h13q53 0 96.5 -17.5t75 -49t49 -75t17.5 -95.5v-74h-362q5 -52 39 -81.5t88 -29.5h9q44 0 78.5 18t57.5 44l74 -93q-38 -38 -95.5 -63t-117.5 -25h-16zM396 310v3
q-2 51 -29 79.5t-70 28.5h-10q-44 0 -72 -29t-36 -82h217z" />
    <glyph glyph-name="f" unicode="f" horiz-adv-x="372" 
d="M84 403h-65v93q14 5 31.5 9t33.5 6v28q0 85 39.5 132t113.5 47q27 0 61.5 -5.5t57.5 -15.5v-111q-19 8 -38.5 12.5t-36.5 4.5q-30 0 -43.5 -17t-13.5 -58l1 -15h127v-110h-119v-403h-149v403z" />
    <glyph glyph-name="g" unicode="g" horiz-adv-x="551" 
d="M29 345q0 40 17 74t47.5 59t72 39t90.5 14h30q21 0 40.5 -2.5t37.5 -7.5q15 47 34 72h128l-64 -127q25 -24 38.5 -55t13.5 -66v-11q0 -40 -17.5 -74.5t-48 -59t-72 -38.5t-90.5 -14h-9h-14.5t-13.5 1v-50q11 1 20.5 1.5t20.5 0.5h13q51 0 93 -11t73 -30.5t48 -47.5
t17 -61v-10q0 -34 -17.5 -62t-48.5 -48t-74 -31t-93 -11h-43q-51 0 -93.5 11t-73.5 31t-48.5 48t-17.5 62v14q0 45 30 79t81 53v87q-50 23 -78.5 65t-28.5 95v11zM174 327q0 -37 26.5 -59t63.5 -22h15q36 0 63 22.5t27 58.5v15q0 37 -27 59.5t-63 22.5h-15q-37 0 -63.5 -22
t-26.5 -60v-15zM173 -52q0 -23 24.5 -38.5t68.5 -15.5h30q45 0 69.5 16t24.5 38v10q0 23 -25 39t-69 16h-30q-44 0 -68.5 -16t-24.5 -39v-10z" />
    <glyph glyph-name="h" unicode="h" horiz-adv-x="613" 
d="M63 720h149v-259q33 33 76.5 51.5t93.5 18.5q85 0 131 -52t46 -146v-333h-149v301q0 105 -88 105q-52 0 -81 -31.5t-29 -88.5v-286h-149v720z" />
    <glyph glyph-name="i" unicode="i" horiz-adv-x="275" 
d="M136 590q-38 0 -61 20.5t-23 55.5q0 34 23 55.5t61 21.5t62.5 -21.5t24.5 -55.5q0 -35 -24.5 -55.5t-62.5 -20.5zM63 520h149v-520h-149v520z" />
    <glyph glyph-name="j" unicode="j" horiz-adv-x="286" 
d="M146 590q-38 0 -62 20.5t-24 55.5q0 34 24 55.5t62 21.5q39 0 63.5 -21.5t24.5 -55.5q0 -35 -24.5 -55.5t-63.5 -20.5zM62 -208q-23 0 -50 4.5t-51 13.5v122q25 -11 52 -11q31 0 45 15.5t14 56.5v527h149v-548q0 -87 -41 -133.5t-118 -46.5z" />
    <glyph glyph-name="k" unicode="k" 
d="M63 720h149v-414h9l171 214h163l-206 -239l208 -281h-173l-162 241h-10v-241h-149v720z" />
    <glyph glyph-name="l" unicode="l" horiz-adv-x="275" 
d="M63 720h149v-720h-149v720z" />
    <glyph glyph-name="m" unicode="m" horiz-adv-x="896" 
d="M63 520h118q5 -14 9 -33.5t6 -36.5q30 37 72 59t91 22h4q52 0 88 -22.5t56 -64.5q30 41 74 64.5t95 23.5h4q78 0 120 -51t42 -145v-335h-149v309q0 52 -17 74.5t-54 22.5h-3q-42 0 -67 -30t-25 -87v-290h-149v309q0 52 -17 74.5t-55 22.5h-3q-42 0 -66.5 -30t-24.5 -87
v-289h-149v520z" />
    <glyph glyph-name="n" unicode="n" horiz-adv-x="613" 
d="M63 520h118q5 -15 10 -37.5t6 -39.5q33 41 79.5 64.5t102.5 23.5h4q85 0 130.5 -51.5t45.5 -146.5v-333h-149v301q0 53 -20 79t-64 26h-5q-49 0 -79 -34.5t-30 -91.5v-280h-149v520z" />
    <glyph glyph-name="o" unicode="o" horiz-adv-x="599" 
d="M294 -11q-58 0 -107 19t-83.5 52.5t-54 80.5t-19.5 104v30q0 57 19.5 104t54 80.5t83.5 52.5t107 19h10q59 0 107.5 -19t83 -52.5t54 -80.5t19.5 -104v-30q0 -57 -19.5 -104t-54 -80.5t-83 -52.5t-107.5 -19h-10zM304 100q50 0 80 41t30 110v23q0 67 -30 106.5t-80 39.5
h-10q-50 0 -80 -39.5t-30 -106.5v-23q0 -69 30 -110t80 -41h10z" />
    <glyph glyph-name="p" unicode="p" horiz-adv-x="625" 
d="M62 520h118q5 -11 8.5 -27t5.5 -31q29 32 70.5 50.5t92.5 18.5h9q51 0 93 -18.5t72.5 -52.5t47 -81t16.5 -104v-30q0 -57 -16.5 -104t-47 -81t-72.5 -52.5t-93 -18.5h-9q-87 0 -146 53v-242h-149v720zM330 100q51 0 80.5 41t29.5 110v23q0 67 -29.5 106.5t-80.5 39.5h-9
q-51 0 -80.5 -40t-29.5 -106v-23q0 -69 30 -110t80 -41h9z" />
    <glyph glyph-name="q" unicode="q" horiz-adv-x="626" 
d="M414 42q-29 -26 -65.5 -39.5t-80.5 -13.5h-8q-51 0 -93.5 18.5t-73 52.5t-47 81t-16.5 104v30q0 57 16.5 104t47 81t73 52.5t93.5 18.5h8q51 0 92.5 -18.5t70.5 -50.5q2 15 6 31t8 27h118v-720h-149v242zM305 100q50 0 80 41t30 110v23q0 67 -30 106.5t-80 39.5h-10
q-50 0 -80 -39.5t-30 -106.5v-23q0 -69 30 -110t80 -41h10z" />
    <glyph glyph-name="r" unicode="r" horiz-adv-x="385" 
d="M63 520h117q5 -15 9.5 -35t5.5 -37q29 34 69 53t88 19h15v-140q-18 5 -43 5q-54 0 -83 -28.5t-29 -82.5v-274h-149v520z" />
    <glyph glyph-name="s" unicode="s" horiz-adv-x="487" 
d="M264 -12q-71 0 -132 19t-112 54l70 107q31 -28 78 -45t90 -17q68 0 68 46q0 17 -10 26t-30 15.5t-50 14.5t-70 22q-24 8 -47 18.5t-40.5 26.5t-28.5 39.5t-11 56.5q0 75 52.5 118t143.5 43q57 0 110.5 -17.5t97.5 -49.5l-70 -101q-29 23 -67 37t-76 14q-58 0 -58 -41
q0 -15 9.5 -24t25.5 -16t37 -11.5t45 -10.5q31 -8 62.5 -18.5t57 -28.5t41.5 -45.5t16 -68.5q0 -75 -55 -119t-147 -44z" />
    <glyph glyph-name="t" unicode="t" horiz-adv-x="394" 
d="M243 -7q-72 0 -115 41t-43 129v242h-68v99q14 5 32.5 9t35.5 6v121l148 18v-138h136v-115h-137v-214q0 -41 14.5 -57t43.5 -16q17 0 42 4t40 7v-113q-26 -11 -63 -17t-66 -6z" />
    <glyph glyph-name="u" unicode="u" horiz-adv-x="607" 
d="M228 -11q-84 0 -129 51.5t-45 146.5v333h149v-300q0 -106 82 -106h4q48 0 77 34.5t29 92.5v279h149v-520h-118q-5 14 -9 36t-6 40q-32 -40 -78 -63.5t-101 -23.5h-4z" />
    <glyph glyph-name="v" unicode="v" horiz-adv-x="544" 
d="M6 520h156l105 -390h10l105 390h156l-173 -520h-186z" />
    <glyph glyph-name="w" unicode="w" horiz-adv-x="793" 
d="M16 520h148l62 -362h10l95 362h131l95 -362h10l61 362h149l-113 -520h-171l-95 336h-4l-94 -336h-171z" />
    <glyph glyph-name="x" unicode="x" horiz-adv-x="547" 
d="M177 268v4l-162 248h164l94 -167h6l91 167h162l-161 -248v-4l168 -268h-164l-100 184h-6l-100 -184h-161z" />
    <glyph glyph-name="y" unicode="y" horiz-adv-x="547" 
d="M155 -204q-25 0 -52 4.5t-50 15.5v126q16 -11 35.5 -17t40.5 -6q27 0 50 15t38 45l-213 541h155l132 -382h7l99 382h150l-175 -548q-27 -83 -80 -129.5t-137 -46.5z" />
    <glyph glyph-name="z" unicode="z" horiz-adv-x="484" 
d="M23 108l252 291v6h-236v115h411v-108l-252 -291v-6h262v-115h-437v108z" />
    <glyph glyph-name="braceleft" unicode="{" horiz-adv-x="395" 
d="M235 -153q-56 0 -91.5 32t-35.5 89v188q0 35 -20 54t-60 19v109q40 0 60 19.5t20 54.5v187q0 57 35.5 89t91.5 32h132v-122h-54q-36 0 -51.5 -16.5t-15.5 -54.5v-146q0 -42 -22 -67t-61 -25v-11q39 0 61 -25t22 -67v-146q0 -38 15.5 -54.5t51.5 -16.5h54v-122h-132z" />
    <glyph glyph-name="bar" unicode="|" horiz-adv-x="265" 
d="M64 720h137v-910h-137v910z" />
    <glyph glyph-name="braceright" unicode="}" horiz-adv-x="395" 
d="M28 -31h54q36 0 51.5 16.5t15.5 54.5v146q0 42 21.5 67t61.5 25v11q-39 0 -61 25t-22 67v146q0 38 -15.5 54.5t-51.5 16.5h-54v122h132q55 0 91 -32t36 -89v-187q0 -35 20 -54.5t60 -19.5v-109q-40 0 -60 -19t-20 -54v-188q0 -57 -36 -89t-91 -32h-132v122z" />
    <glyph glyph-name="asciitilde" unicode="~" horiz-adv-x="560" 
d="M383 243q-29 0 -54.5 9t-49 19.5t-46.5 19.5t-48 9q-26 0 -48 -12t-36 -34l-61 82q23 35 59.5 54t78.5 19q31 0 57 -9t49.5 -19.5t45.5 -19.5t46 -9q27 0 49.5 13t33.5 35l61 -80q-23 -36 -59 -56.5t-78 -20.5z" />
    <glyph glyph-name="exclamdown" unicode="&#xa1;" horiz-adv-x="279" 
d="M140 356q-19 0 -36 6.5t-29.5 18t-19.5 27t-7 32.5v6q0 18 7 33.5t19.5 27t29.5 18t36 6.5t36 -6.5t29.5 -18t19.5 -27t7 -33.5v-6q0 -17 -7 -32.5t-19.5 -27t-29.5 -18t-36 -6.5zM58 45l19 238h125l18 -238v-235h-162v235z" />
    <glyph glyph-name="cent" unicode="&#xa2;" horiz-adv-x="516" 
d="M115 -91l32 118q-55 32 -86 91.5t-31 140.5v3q0 56 15.5 103t43.5 81.5t67.5 55.5t87.5 25q3 1 6.5 1t6.5 1h6l32 123l122 -29l-31 -116q62 -29 103 -89l-95 -76q-14 29 -40 45t-58 16h-4q-51 0 -82 -38.5t-31 -101.5v-3q0 -65 31.5 -104t83.5 -39h5q67 0 104 67l97 -80
q-38 -55 -93.5 -84.5t-123.5 -29.5h-9q-2 0 -3.5 0.5t-3.5 0.5l-30 -113z" />
    <glyph glyph-name="sterling" unicode="&#xa3;" horiz-adv-x="510" 
d="M29 118q9 3 20 5.5t22 4.5v171h-39v103h39v92q0 49 15.5 89.5t43.5 69t67.5 44t87.5 15.5q62 0 113 -28t87 -85l-112 -76q-18 55 -76 55q-32 0 -54 -20.5t-22 -61.5v-94h157v-103h-157v-165h272v-134h-464v118z" />
    <glyph glyph-name="currency" unicode="&#xa4;" horiz-adv-x="560" 
d="M347 170q-14 -6 -30.5 -8.5t-34.5 -2.5q-41 0 -70 13l-68 -68l-85 85l69 69q-6 15 -9.5 31.5t-3.5 35.5q0 38 12 66l-76 76l87 87l75 -76q31 14 69 14q18 0 35.5 -3t31.5 -10l67 67l85 -85l-66 -66q13 -29 13 -70q0 -40 -13 -69l74 -73l-87 -86zM282 256q31 0 49 19
t18 50q0 32 -18 51t-49 19t-49.5 -19t-18.5 -51q0 -31 18.5 -50t49.5 -19z" />
    <glyph glyph-name="yen" unicode="&#xa5;" horiz-adv-x="622" 
d="M48 239h185v34l-19 33h-166v103h109l-163 291h180l134 -281h7l133 281h179l-161 -291h109v-103h-167l-18 -33v-34h185v-103h-185v-136h-157v136h-185v103z" />
    <glyph glyph-name="brokenbar" unicode="&#xa6;" horiz-adv-x="253" 
d="M64 720h125v-380h-125v380zM64 200h125v-390h-125v390z" />
    <glyph glyph-name="section" unicode="&#xa7;" horiz-adv-x="527" 
d="M255 712q63 0 114 -17.5t93 -49.5l-70 -101q-23 23 -55.5 37.5t-74.5 14.5q-34 0 -57.5 -18t-23.5 -46q0 -36 33.5 -54t93.5 -32q35 -9 70 -22t62.5 -34t44.5 -51t17 -72q0 -51 -26.5 -90t-71.5 -62q32 -23 50.5 -55.5t18.5 -78.5q0 -43 -16.5 -76.5t-45 -56t-66 -34.5
t-78.5 -12q-63 0 -115 17.5t-94 49.5l70 101q23 -23 56.5 -38t75.5 -15q35 0 59 18t24 47q0 35 -33 53t-94 33q-35 8 -70 21t-62.5 34t-44.5 51.5t-17 72.5q0 51 26.5 89.5t71.5 62.5q-32 23 -50 55.5t-18 77.5q0 43 16.5 76.5t44 56.5t64.5 35t78 12zM292 162q36 8 58.5 29
t22.5 53q0 27 -13.5 45.5t-34.5 30.5t-45.5 19t-46.5 13q-37 -8 -59.5 -29t-22.5 -53q0 -42 28.5 -62.5t79.5 -36.5q8 -2 16 -4.5t17 -4.5z" />
    <glyph glyph-name="dieresis" unicode="&#xa8;" horiz-adv-x="449" 
d="M333 597q-33 0 -53.5 19t-20.5 50t20.5 50t53.5 19t54.5 -19t21.5 -50t-21.5 -50t-54.5 -19zM116 597q-33 0 -54 19t-21 50t21 50t54 19q32 0 53.5 -19t21.5 -50t-21.5 -50t-53.5 -19z" />
    <glyph glyph-name="copyright" unicode="&#xa9;" horiz-adv-x="794" 
d="M397 -10q-78 0 -144 27t-114 75t-75 114t-27 144q0 77 27.5 142.5t76 114t114.5 76t142 27.5q78 0 144 -27t114 -75t75 -114t27 -144t-27 -144t-75 -114t-114 -75t-144 -27zM397 93q56 0 103 19.5t81.5 53.5t53.5 81.5t19 102.5q0 56 -19 103t-53.5 81.5t-81.5 54
t-103 19.5q-55 0 -102.5 -19.5t-82 -54t-54 -81.5t-19.5 -103q0 -55 19.5 -102.5t54 -81.5t82 -53.5t102.5 -19.5zM400 168q-40 0 -74 14t-58.5 39t-38 59.5t-13.5 75.5t13.5 74.5t37.5 58.5t57 38.5t73 13.5q50 0 91.5 -21t63.5 -58l-84 -54q-17 40 -62 40q-36 0 -57 -25
t-21 -68q0 -45 20.5 -69.5t55.5 -24.5q23 0 42.5 11.5t29.5 33.5l81 -59q-25 -38 -66.5 -58.5t-90.5 -20.5z" />
    <glyph glyph-name="ordfeminine" unicode="&#xaa;" horiz-adv-x="278" 
d="M100 448q-36 0 -58 20.5t-22 53.5v5q0 80 136 80h15q-2 17 -11.5 23.5t-26.5 6.5h-1q-17 0 -35.5 -6.5t-35.5 -17.5l-29 61q52 31 111 31h4q48 0 75.5 -25.5t27.5 -70.5v-94q0 -17 2.5 -31.5t6.5 -30.5h-80q-4 11 -6 24q-34 -29 -73 -29zM131 512q24 0 40 18v26h-6
q-60 -2 -60 -25v-1q0 -18 26 -18zM36 400h218v-87h-218v87z" />
    <glyph glyph-name="guillemotleft" unicode="&#xab;" horiz-adv-x="627" 
d="M288 270v8l147 200h155l-146 -199v-10l146 -199h-155zM41 270v8l148 200h155l-146 -199v-10l146 -199h-155z" />
    <glyph glyph-name="registered" unicode="&#xae;" horiz-adv-x="794" 
d="M397 -10q-78 0 -144 27t-114 75t-75 114t-27 144q0 77 27.5 142.5t76 114t114.5 76t142 27.5q78 0 144 -27t114 -75t75 -114t27 -144t-27 -144t-75 -114t-114 -75t-144 -27zM397 93q56 0 103 19.5t81.5 53.5t53.5 81.5t19 102.5q0 56 -19 103t-53.5 81.5t-81.5 54
t-103 19.5q-55 0 -102.5 -19.5t-82 -54t-54 -81.5t-19.5 -103q0 -55 19.5 -102.5t54 -81.5t82 -53.5t102.5 -19.5zM261 530h149q57 0 89.5 -32.5t32.5 -88.5q0 -65 -44 -97l69 -128h-101l-52 106h-49v-106h-94v346zM401 372q18 0 27.5 9.5t9.5 26.5q0 34 -37 34h-46v-70h46z
" />
    <glyph glyph-name="macron" unicode="&#xaf;" horiz-adv-x="381" 
d="M41 721h299v-106h-299v106z" />
    <glyph glyph-name="degree" unicode="&#xb0;" horiz-adv-x="385" 
d="M192 397q-34 0 -62.5 11t-49 31.5t-31.5 49.5t-11 64t11 63.5t31.5 49t49 31.5t62.5 11q71 0 113 -42.5t42 -112.5q0 -71 -42 -113.5t-113 -42.5zM193 495q25 0 40 16t15 42t-15 42t-40 16q-26 0 -41 -16t-15 -42t15 -42t41 -16z" />
    <glyph glyph-name="plusminus" unicode="&#xb1;" horiz-adv-x="609" 
d="M243 323h-191v120h191v174h123v-174h191v-120h-191v-164h-123v164zM557 121v-121h-505v121h505z" />
    <glyph glyph-name="twosuperior" unicode="&#xb2;" horiz-adv-x="354" 
d="M19 381q43 23 78 48t60.5 49.5t39.5 48t14 43.5q0 18 -11.5 30t-30.5 12q-20 0 -34.5 -14.5t-16.5 -37.5l-104 19q8 61 50 95.5t108 34.5t106 -34t40 -90q0 -47 -30 -95t-83 -90h131v-94h-317v75z" />
    <glyph glyph-name="threesuperior" unicode="&#xb3;" horiz-adv-x="363" 
d="M184 297q-60 0 -105 24.5t-68 69.5l87 55q11 -23 31.5 -36.5t47.5 -13.5q28 0 45 13t17 35q0 21 -17 34t-45 13q-30 0 -56 -13l-36 51l97 77h-145v94h283v-74l-81 -72q49 -8 78.5 -41t29.5 -82q0 -61 -44.5 -97.5t-118.5 -36.5z" />
    <glyph glyph-name="acute" unicode="&#xb4;" horiz-adv-x="259" 
d="M41 576l57 164h130l-76 -164h-111z" />
    <glyph glyph-name="paragraph" unicode="&#xb6;" horiz-adv-x="583" 
d="M272 242q-54 0 -98 16.5t-75.5 46.5t-48.5 72.5t-17 93.5q0 52 18 94t50 72t78 46.5t101 16.5h230v-128h-98v-710h-140v380z" />
    <glyph glyph-name="periodcentered" unicode="&#xb7;" horiz-adv-x="230" 
d="M113 220q-38 0 -61.5 20.5t-23.5 54.5t23.5 55.5t61.5 21.5q39 0 64 -21.5t25 -55.5t-25 -54.5t-64 -20.5z" />
    <glyph glyph-name="cedilla" unicode="&#xb8;" horiz-adv-x="233" 
d="M94 -185q-28 0 -55 7l8 75q13 -5 26 -5q16 0 23 6.5t7 14.5q0 11 -9 19t-34 8l25 60h82l-14 -28q26 -9 39 -27t13 -42q0 -16 -7 -31.5t-21 -28t-35 -20.5t-48 -8z" />
    <glyph glyph-name="onesuperior" unicode="&#xb9;" horiz-adv-x="295" 
d="M23 595q54 0 89 29t35 76h104v-394h-110v219q-25 -16 -55 -24t-63 -6v100z" />
    <glyph glyph-name="ordmasculine" unicode="&#xba;" horiz-adv-x="327" 
d="M155 428q-60 0 -97.5 37t-37.5 98v8q0 30 10 54.5t28 42.5t42.5 27.5t54.5 9.5h14q30 0 54.5 -9.5t42 -27.5t27.5 -42.5t10 -54.5v-8q0 -61 -37 -98t-97 -37h-14zM165 508q23 0 37.5 15t14.5 41v6q0 26 -14.5 40.5t-37.5 14.5h-5q-23 0 -38.5 -14.5t-15.5 -40.5v-6
q0 -26 15.5 -41t38.5 -15h5zM38 384h248v-87h-248v87z" />
    <glyph glyph-name="guillemotright" unicode="&#xbb;" horiz-adv-x="626" 
d="M429 269v10l-147 199h155l148 -200v-8l-148 -200h-155zM183 269v10l-147 199h155l148 -200v-8l-148 -200h-155z" />
    <glyph glyph-name="onequarter" unicode="&#xbc;" horiz-adv-x="758" 
d="M106 552q-14 -6 -29.5 -8.5t-31.5 -2.5h-15v81l14 1q32 2 50 19.5t18 45.5v12h96v-366h-102v218zM545 700h145l-528 -700h-145zM366 120l151 240h122v-222h40v-85h-40v-59h-99v59h-174v67zM540 138v95l-58 -95h58z" />
    <glyph glyph-name="onehalf" unicode="&#xbd;" horiz-adv-x="776" 
d="M106 552q-14 -6 -29.5 -8.5t-31.5 -2.5h-15v81l14 1q32 2 50 19.5t18 45.5v12h96v-366h-102v218zM545 700h145l-528 -700h-145zM432 71l6 3q23 15 50.5 35.5t51.5 44t40 48.5t16 48q0 31 -28 31q-19 0 -27 -15.5t-10 -32.5l-2 -13l-102 19l1 11q3 22 13 43.5t27.5 39
t42 28t57.5 10.5q32 0 56.5 -9.5t41.5 -25.5t26 -37t9 -45q0 -25 -9 -48t-23.5 -44t-33.5 -39.5t-39 -34.5h112v-89h-276v72z" />
    <glyph glyph-name="threequarters" unicode="&#xbe;" horiz-adv-x="814" 
d="M176 329q-56 0 -95 27t-50 70l-3 11l94 21l5 -10q8 -14 18 -21.5t27 -7.5q46 0 46 44q0 40 -42 40q-14 0 -25 -3t-22 -11l-37 55l72 67h-116v89h254v-71l-66 -56q21 -4 37.5 -15.5t27.5 -27t16.5 -33.5t5.5 -36q0 -26 -9.5 -50t-28.5 -42t-46.5 -29t-62.5 -11zM601 700
h145l-528 -700h-145zM422 120l151 240h122v-222h40v-85h-40v-59h-99v59h-174v67zM596 138v95l-58 -95h58z" />
    <glyph glyph-name="questiondown" unicode="&#xbf;" horiz-adv-x="526" 
d="M266 356q-19 0 -36 6.5t-30 18t-20.5 27t-7.5 32.5v6q0 18 7.5 33.5t20.5 27t30 18t36 6.5t35.5 -6.5t28.5 -18t19 -27t7 -33.5v-6q0 -35 -26 -59.5t-64 -24.5zM249 -203q-50 0 -91.5 13.5t-71.5 37.5t-47 57.5t-17 73.5q0 48 22.5 84.5t72.5 76.5q17 14 33 27t29 28
t20.5 32.5t7.5 40.5v15h128q0 -33 -3.5 -58t-13 -46t-25.5 -40.5t-42 -42.5q-13 -12 -26 -23t-23 -22.5t-16.5 -24.5t-6.5 -28q0 -31 22.5 -47t60.5 -16q48 0 78 27t33 67l130 -19q-1 -46 -20.5 -85t-53 -67.5t-79.5 -44.5t-101 -16z" />
    <glyph glyph-name="Agrave" unicode="&#xc0;" horiz-adv-x="650" 
d="M226 700h200l231 -700h-167l-43 146h-244l-43 -146h-167zM413 271l-82 267h-11l-83 -267h176zM185 909h142l62 -152h-126z" />
    <glyph glyph-name="Aacute" unicode="&#xc1;" horiz-adv-x="650" 
d="M226 700h200l231 -700h-167l-43 146h-244l-43 -146h-167zM413 271l-82 267h-11l-83 -267h176zM378 761h-113l55 152h139z" />
    <glyph glyph-name="Acircumflex" unicode="&#xc2;" horiz-adv-x="650" 
d="M226 700h200l231 -700h-167l-43 146h-244l-43 -146h-167zM413 271l-82 267h-11l-83 -267h176zM243 900h164l110 -128h-131l-52 53h-18l-52 -53h-131z" />
    <glyph glyph-name="Atilde" unicode="&#xc3;" horiz-adv-x="650" 
d="M226 700h200l231 -700h-167l-43 146h-244l-43 -146h-167zM413 271l-82 267h-11l-83 -267h176zM121 840q19 36 52.5 56t72.5 20q23 0 43.5 -6.5t48.5 -19.5q19 -8 37.5 -15t38.5 -7q23 0 41 10t29 27l46 -65q-20 -36 -53.5 -56t-71.5 -20q-20 0 -41 6.5t-53 20.5
q-21 9 -39 14.5t-35 5.5q-49 0 -71 -37z" />
    <glyph glyph-name="Adieresis" unicode="&#xc4;" horiz-adv-x="648" 
d="M217 760q-32 0 -52.5 19t-20.5 50t20.5 50t52.5 19q33 0 55 -19t22 -50t-22 -50t-55 -19zM427 760q-33 0 -53.5 19t-20.5 50t20.5 50t53.5 19t54.5 -19t21.5 -50t-21.5 -50t-54.5 -19zM225 700h200l231 -700h-167l-43 146h-244l-43 -146h-167zM412 271l-82 267h-11
l-83 -267h176z" />
    <glyph glyph-name="Aring" unicode="&#xc5;" horiz-adv-x="650" 
d="M226 700h200l231 -700h-167l-43 146h-244l-43 -146h-167zM413 271l-82 267h-11l-83 -267h176zM326 738q-51 0 -81.5 26.5t-30.5 68.5q0 45 30.5 72.5t81.5 27.5q48 0 78.5 -27.5t30.5 -72.5q0 -42 -30.5 -68.5t-78.5 -26.5zM324 800q17 0 28 9.5t11 25.5t-11 26.5
t-28 10.5t-27.5 -10.5t-10.5 -26.5t10.5 -25.5t27.5 -9.5z" />
    <glyph glyph-name="AE" unicode="&#xc6;" horiz-adv-x="846" 
d="M233 700h551v-136h-256v-148h236v-129h-236v-151h266v-136h-414v146h-172l-48 -146h-167zM380 271v293h-44l-93 -293h137z" />
    <glyph glyph-name="Ccedilla" unicode="&#xc7;" horiz-adv-x="680" 
d="M375 -12q-75 0 -137.5 26t-107 72.5t-69 111t-24.5 142.5v19q0 77 25 142t69.5 112t106 73t134.5 26h7q86 0 157.5 -38.5t116.5 -110.5l-115 -87q-26 46 -64.5 72.5t-90.5 26.5h-8q-39 0 -71.5 -15.5t-55.5 -43.5t-36 -68t-13 -89v-19q0 -49 12.5 -88.5t36 -67.5t56 -43
t71.5 -15h12q51 0 90 26t65 71l113 -86q-45 -72 -115.5 -110.5t-158.5 -38.5h-6zM329 -185q-28 0 -55 7l8 75q13 -5 26 -5q16 0 23 6.5t7 14.5q0 11 -9 19t-34 8l25 60h82l-14 -28q26 -9 39 -27t13 -42q0 -16 -7 -31.5t-21 -28t-35 -20.5t-48 -8z" />
    <glyph glyph-name="Egrave" unicode="&#xc8;" horiz-adv-x="559" 
d="M74 700h423v-136h-267v-148h247v-129h-247v-151h277v-136h-433v700zM151 909h142l62 -152h-126z" />
    <glyph glyph-name="Eacute" unicode="&#xc9;" horiz-adv-x="559" 
d="M74 700h423v-136h-267v-148h247v-129h-247v-151h277v-136h-433v700zM344 761h-113l55 152h139z" />
    <glyph glyph-name="Ecircumflex" unicode="&#xca;" horiz-adv-x="559" 
d="M74 700h423v-136h-267v-148h247v-129h-247v-151h277v-136h-433v700zM209 900h164l110 -128h-131l-52 53h-18l-52 -53h-131z" />
    <glyph glyph-name="Edieresis" unicode="&#xcb;" horiz-adv-x="559" 
d="M74 700h423v-136h-267v-148h247v-129h-247v-151h277v-136h-433v700zM201 758q-30 0 -48.5 19t-18.5 51t18.5 51.5t48.5 19.5t50.5 -19.5t20.5 -51.5t-20.5 -51t-50.5 -19zM379 758q-31 0 -49.5 19t-18.5 51t18.5 51.5t49.5 19.5q30 0 50 -19.5t20 -51.5t-20 -51t-50 -19z
" />
    <glyph glyph-name="Igrave" unicode="&#xcc;" horiz-adv-x="303" 
d="M74 700h156v-700h-156v700zM12 909h142l62 -152h-126z" />
    <glyph glyph-name="Iacute" unicode="&#xcd;" horiz-adv-x="303" 
d="M74 700h156v-700h-156v700zM205 761h-113l55 152h139z" />
    <glyph glyph-name="Icircumflex" unicode="&#xce;" horiz-adv-x="303" 
d="M74 700h156v-700h-156v700zM70 900h164l110 -128h-131l-52 53h-18l-52 -53h-131z" />
    <glyph glyph-name="Idieresis" unicode="&#xcf;" horiz-adv-x="303" 
d="M74 700h156v-700h-156v700zM62 758q-30 0 -48.5 19t-18.5 51t18.5 51.5t48.5 19.5t50.5 -19.5t20.5 -51.5t-20.5 -51t-50.5 -19zM240 758q-31 0 -49.5 19t-18.5 51t18.5 51.5t49.5 19.5q30 0 50 -19.5t20 -51.5t-20 -51t-50 -19z" />
    <glyph glyph-name="Eth" unicode="&#xd0;" horiz-adv-x="719" 
d="M88 287h-65v136h65v277h232q82 0 148.5 -24t114 -68t73 -106t25.5 -138v-20q0 -77 -25.5 -140.5t-73 -108.5t-114 -70t-148.5 -25h-232v287zM322 136q93 0 145 56t52 153v20q0 92 -51.5 145.5t-145.5 53.5h-78v-141h124v-136h-124v-151h78z" />
    <glyph glyph-name="Ntilde" unicode="&#xd1;" horiz-adv-x="725" 
d="M74 700h174l248 -463h5v463h151v-700h-155l-266 497h-7v-497h-150v700zM158 838q19 36 52.5 56t72.5 20q23 0 43.5 -6.5t48.5 -19.5q19 -8 37.5 -15t38.5 -7q23 0 41 10t29 27l46 -65q-20 -36 -53.5 -56t-71.5 -20q-20 0 -41 6.5t-53 20.5q-21 9 -39 14.5t-35 5.5
q-49 0 -71 -37z" />
    <glyph glyph-name="Ograve" unicode="&#xd2;" horiz-adv-x="761" 
d="M37 360q0 80 24.5 145t68.5 111.5t106.5 72t137.5 25.5h13q74 0 136 -25.5t106.5 -72t69.5 -112t25 -144.5v-20q0 -79 -25 -144.5t-69.5 -112t-106.5 -72t-136 -25.5h-13q-74 0 -136 26t-106.5 72.5t-69.5 111.5t-25 144v20zM199 340q0 -50 13 -90.5t36.5 -69t55.5 -43.5
t71 -15h11q39 0 71.5 15t55.5 43.5t36 69t13 90.5v20q0 50 -13 90t-36 68.5t-55.5 43.5t-71.5 15h-11q-39 0 -71 -15t-55.5 -43.5t-36.5 -68.5t-13 -90v-20zM241 909h142l62 -152h-126z" />
    <glyph glyph-name="Oacute" unicode="&#xd3;" horiz-adv-x="761" 
d="M37 360q0 80 24.5 145t68.5 111.5t106.5 72t137.5 25.5h13q74 0 136 -25.5t106.5 -72t69.5 -112t25 -144.5v-20q0 -79 -25 -144.5t-69.5 -112t-106.5 -72t-136 -25.5h-13q-74 0 -136 26t-106.5 72.5t-69.5 111.5t-25 144v20zM199 340q0 -50 13 -90.5t36.5 -69t55.5 -43.5
t71 -15h11q39 0 71.5 15t55.5 43.5t36 69t13 90.5v20q0 50 -13 90t-36 68.5t-55.5 43.5t-71.5 15h-11q-39 0 -71 -15t-55.5 -43.5t-36.5 -68.5t-13 -90v-20zM433 761h-113l55 152h139z" />
    <glyph glyph-name="Ocircumflex" unicode="&#xd4;" horiz-adv-x="761" 
d="M37 360q0 80 24.5 145t68.5 111.5t106.5 72t137.5 25.5h13q74 0 136 -25.5t106.5 -72t69.5 -112t25 -144.5v-20q0 -79 -25 -144.5t-69.5 -112t-106.5 -72t-136 -25.5h-13q-74 0 -136 26t-106.5 72.5t-69.5 111.5t-25 144v20zM199 340q0 -50 13 -90.5t36.5 -69t55.5 -43.5
t71 -15h11q39 0 71.5 15t55.5 43.5t36 69t13 90.5v20q0 50 -13 90t-36 68.5t-55.5 43.5t-71.5 15h-11q-39 0 -71 -15t-55.5 -43.5t-36.5 -68.5t-13 -90v-20zM298 900h164l110 -128h-131l-52 53h-18l-52 -53h-131z" />
    <glyph glyph-name="Otilde" unicode="&#xd5;" horiz-adv-x="761" 
d="M37 360q0 80 24.5 145t68.5 111.5t106.5 72t137.5 25.5h13q74 0 136 -25.5t106.5 -72t69.5 -112t25 -144.5v-20q0 -79 -25 -144.5t-69.5 -112t-106.5 -72t-136 -25.5h-13q-74 0 -136 26t-106.5 72.5t-69.5 111.5t-25 144v20zM199 340q0 -50 13 -90.5t36.5 -69t55.5 -43.5
t71 -15h11q39 0 71.5 15t55.5 43.5t36 69t13 90.5v20q0 50 -13 90t-36 68.5t-55.5 43.5t-71.5 15h-11q-39 0 -71 -15t-55.5 -43.5t-36.5 -68.5t-13 -90v-20zM176 840q19 36 52.5 56t72.5 20q23 0 43.5 -6.5t48.5 -19.5q19 -8 37.5 -15t38.5 -7q23 0 41 10t29 27l46 -65
q-20 -36 -53.5 -56t-71.5 -20q-20 0 -41 6.5t-53 20.5q-21 9 -39 14.5t-35 5.5q-49 0 -71 -37z" />
    <glyph glyph-name="Odieresis" unicode="&#xd6;" horiz-adv-x="762" 
d="M275 760q-32 0 -52.5 19t-20.5 50t20.5 50t52.5 19q33 0 55 -19t22 -50t-22 -50t-55 -19zM484 760q-33 0 -53 19t-20 50t20 50t53 19t55 -19t22 -50t-22 -50t-55 -19zM38 360q0 80 24.5 145t68.5 111.5t106.5 72t137.5 25.5h13q74 0 136 -25.5t106.5 -72t69.5 -112
t25 -144.5v-20q0 -79 -25 -144.5t-69.5 -112t-106.5 -72t-136 -25.5h-13q-74 0 -136 26t-106.5 72.5t-69.5 111.5t-25 144v20zM200 340q0 -50 13 -90.5t36.5 -69t55.5 -43.5t71 -15h11q39 0 71.5 15t55.5 43.5t36 69t13 90.5v20q0 50 -13 90t-36 68.5t-55.5 43.5t-71.5 15
h-11q-39 0 -71 -15t-55.5 -43.5t-36.5 -68.5t-13 -90v-20z" />
    <glyph glyph-name="multiply" unicode="&#xd7;" horiz-adv-x="530" 
d="M44 189l136 136l-136 136l85 85l136 -136l136 136l85 -85l-136 -136l136 -136l-85 -85l-136 136l-136 -136z" />
    <glyph glyph-name="Oslash" unicode="&#xd8;" horiz-adv-x="761" 
d="M156 61q-56 48 -87.5 118.5t-31.5 160.5v20q0 80 24.5 145t69 111.5t106.5 72t137 25.5h13q73 0 131 -24l25 45h116l-54 -95q57 -48 88 -118.5t31 -161.5v-20q0 -79 -24.5 -144.5t-69 -112t-106.5 -72t-137 -25.5h-13q-71 0 -130 24l-26 -46h-116zM194 340
q0 -48 10.5 -86.5t30.5 -67.5l224 387q-33 15 -73 15h-11q-40 0 -73 -16t-57 -45t-37.5 -71t-13.5 -95v-21zM302 128q32 -16 73 -16h11q40 0 73.5 16t57.5 45.5t37.5 71.5t13.5 95v21q0 48 -11 86.5t-31 67.5z" />
    <glyph glyph-name="Ugrave" unicode="&#xd9;" horiz-adv-x="700" 
d="M351 -13q-136 0 -210 70t-74 199v444h156v-436q0 -66 35.5 -100.5t93.5 -34.5q57 0 91.5 34.5t34.5 100.5v436h156v-444q0 -66 -20 -116.5t-56.5 -84t-89 -51t-117.5 -17.5zM211 909h142l62 -152h-126z" />
    <glyph glyph-name="Uacute" unicode="&#xda;" horiz-adv-x="700" 
d="M351 -13q-136 0 -210 70t-74 199v444h156v-436q0 -66 35.5 -100.5t93.5 -34.5q57 0 91.5 34.5t34.5 100.5v436h156v-444q0 -66 -20 -116.5t-56.5 -84t-89 -51t-117.5 -17.5zM404 761h-113l55 152h139z" />
    <glyph glyph-name="Ucircumflex" unicode="&#xdb;" horiz-adv-x="700" 
d="M351 -13q-136 0 -210 70t-74 199v444h156v-436q0 -66 35.5 -100.5t93.5 -34.5q57 0 91.5 34.5t34.5 100.5v436h156v-444q0 -66 -20 -116.5t-56.5 -84t-89 -51t-117.5 -17.5zM269 900h164l110 -128h-131l-52 53h-18l-52 -53h-131z" />
    <glyph glyph-name="Udieresis" unicode="&#xdc;" horiz-adv-x="692" 
d="M241 760q-33 0 -53.5 19t-20.5 50t20.5 50t53.5 19q32 0 54 -19t22 -50t-22 -50t-54 -19zM450 760q-33 0 -53 19t-20 50t20 50t53 19t55 -19t22 -50t-22 -50t-55 -19zM347 -13q-136 0 -210.5 70t-74.5 199v444h157v-436q0 -66 35.5 -100.5t92.5 -34.5t91.5 34.5
t34.5 100.5v436h157v-444q0 -66 -20 -116.5t-56.5 -84t-89 -51t-117.5 -17.5z" />
    <glyph glyph-name="Yacute" unicode="&#xdd;" horiz-adv-x="622" 
d="M233 273l-239 427h180l134 -281h7l133 281h179l-237 -427v-273h-157v273zM364 761h-113l55 152h139z" />
    <glyph glyph-name="Thorn" unicode="&#xde;" horiz-adv-x="613" 
d="M74 700h156v-93h95q58 0 105 -16.5t80.5 -47t51.5 -73t18 -95.5v-8q0 -54 -18.5 -97.5t-52 -74.5t-80.5 -48t-104 -17h-95v-130h-156v700zM305 259q55 0 87.5 29.5t32.5 79.5v9q0 47 -31 74.5t-85 27.5h-84v-220h80z" />
    <glyph glyph-name="germandbls" unicode="&#xdf;" horiz-adv-x="596" 
d="M367 -11q-30 0 -61.5 6t-51.5 16v114q11 -5 29.5 -8t34.5 -3q46 0 73.5 28.5t27.5 77.5q0 48 -27 77.5t-72 29.5h-52v93h44q35 0 55.5 26.5t20.5 64.5q0 42 -24 66.5t-64 24.5q-42 0 -67.5 -27t-25.5 -73v-502h-149v509q0 47 17.5 85.5t49 66t76 42.5t99.5 15
q53 0 95.5 -14t73.5 -39t47.5 -60t16.5 -78q0 -45 -17 -80.5t-49 -60.5q48 -27 74 -75.5t26 -113.5q0 -47 -14 -85.5t-40.5 -65.5t-63.5 -42t-82 -15z" />
    <glyph glyph-name="agrave" unicode="&#xe0;" 
d="M205 -11q-38 0 -69.5 11t-54.5 31t-36 48.5t-13 62.5v12q0 84 71 126t220 42h39v15q0 36 -22 57.5t-66 21.5h-5q-36 0 -75.5 -12.5t-80.5 -38.5l-56 102q47 30 105 47t118 17h9q100 0 156.5 -52.5t56.5 -146.5v-213q0 -32 5 -61t13 -58h-139q-9 25 -14 59
q-29 -33 -71.5 -51.5t-90.5 -18.5zM243 102q33 0 64.5 14.5t54.5 40.5v78h-30q-81 0 -120 -18t-39 -54v-5q0 -25 19 -40.5t51 -15.5zM154 742h129l58 -165h-111z" />
    <glyph glyph-name="aacute" unicode="&#xe1;" 
d="M205 -11q-38 0 -69.5 11t-54.5 31t-36 48.5t-13 62.5v12q0 84 71 126t220 42h39v15q0 36 -22 57.5t-66 21.5h-5q-36 0 -75.5 -12.5t-80.5 -38.5l-56 102q47 30 105 47t118 17h9q100 0 156.5 -52.5t56.5 -146.5v-213q0 -32 5 -61t13 -58h-139q-9 25 -14 59
q-29 -33 -71.5 -51.5t-90.5 -18.5zM243 102q33 0 64.5 14.5t54.5 40.5v78h-30q-81 0 -120 -18t-39 -54v-5q0 -25 19 -40.5t51 -15.5zM217 576l57 164h130l-76 -164h-111z" />
    <glyph glyph-name="acircumflex" unicode="&#xe2;" 
d="M205 -11q-38 0 -69.5 11t-54.5 31t-36 48.5t-13 62.5v12q0 84 71 126t220 42h39v15q0 36 -22 57.5t-66 21.5h-5q-36 0 -75.5 -12.5t-80.5 -38.5l-56 102q47 30 105 47t118 17h9q100 0 156.5 -52.5t56.5 -146.5v-213q0 -32 5 -61t13 -58h-139q-9 25 -14 59
q-29 -33 -71.5 -51.5t-90.5 -18.5zM243 102q33 0 64.5 14.5t54.5 40.5v78h-30q-81 0 -120 -18t-39 -54v-5q0 -25 19 -40.5t51 -15.5zM343 589l-55 56h-18l-55 -56h-130l112 131h164l112 -131h-130z" />
    <glyph glyph-name="atilde" unicode="&#xe3;" 
d="M205 -11q-38 0 -69.5 11t-54.5 31t-36 48.5t-13 62.5v12q0 84 71 126t220 42h39v15q0 36 -22 57.5t-66 21.5h-5q-36 0 -75.5 -12.5t-80.5 -38.5l-56 102q47 30 105 47t118 17h9q100 0 156.5 -52.5t56.5 -146.5v-213q0 -32 5 -61t13 -58h-139q-9 25 -14 59
q-29 -33 -71.5 -51.5t-90.5 -18.5zM243 102q33 0 64.5 14.5t54.5 40.5v78h-30q-81 0 -120 -18t-39 -54v-5q0 -25 19 -40.5t51 -15.5zM72 662q19 35 52.5 55.5t73.5 20.5q22 0 42.5 -6.5t48.5 -19.5q20 -8 38 -15t39 -7q45 0 70 37l45 -66q-20 -35 -53 -55.5t-71 -20.5
q-21 0 -42 7t-53 21q-21 9 -39 14.5t-35 5.5q-23 0 -41.5 -10t-29.5 -27z" />
    <glyph glyph-name="adieresis" unicode="&#xe4;" 
d="M205 -11q-38 0 -69.5 11t-54.5 31t-36 48.5t-13 62.5v12q0 84 71 126t220 42h39v15q0 36 -22 57.5t-66 21.5h-5q-36 0 -75.5 -12.5t-80.5 -38.5l-56 102q47 30 105 47t118 17h9q100 0 156.5 -52.5t56.5 -146.5v-213q0 -32 5 -61t13 -58h-139q-9 25 -14 59
q-29 -33 -71.5 -51.5t-90.5 -18.5zM243 102q33 0 64.5 14.5t54.5 40.5v78h-30q-81 0 -120 -18t-39 -54v-5q0 -25 19 -40.5t51 -15.5zM387 600q-33 0 -53.5 19t-20.5 50t20.5 50t53.5 19t54.5 -19t21.5 -50t-21.5 -50t-54.5 -19zM170 600q-33 0 -54 19t-21 50t21 50t54 19
q32 0 53.5 -19t21.5 -50t-21.5 -50t-53.5 -19z" />
    <glyph glyph-name="aring" unicode="&#xe5;" 
d="M205 -11q-38 0 -69.5 11t-54.5 31t-36 48.5t-13 62.5v12q0 84 71 126t220 42h39v15q0 36 -22 57.5t-66 21.5h-5q-36 0 -75.5 -12.5t-80.5 -38.5l-56 102q47 30 105 47t118 17h9q100 0 156.5 -52.5t56.5 -146.5v-213q0 -32 5 -61t13 -58h-139q-9 25 -14 59
q-29 -33 -71.5 -51.5t-90.5 -18.5zM243 102q33 0 64.5 14.5t54.5 40.5v78h-30q-81 0 -120 -18t-39 -54v-5q0 -25 19 -40.5t51 -15.5zM279 574q-49 0 -80 26.5t-31 68.5q0 45 31 72.5t80 27.5q48 0 78.5 -27.5t30.5 -72.5q0 -42 -30.5 -68.5t-78.5 -26.5zM278 636
q17 0 28 9.5t11 25.5t-11 26.5t-28 10.5t-28 -10.5t-11 -26.5t11 -25.5t28 -9.5z" />
    <glyph glyph-name="ae" unicode="&#xe6;" horiz-adv-x="872" 
d="M203 -10q-38 0 -69.5 11t-54 31t-35 48.5t-12.5 64.5q0 168 286 168h36q0 5 -0.5 14t-0.5 14q-3 35 -24 54t-63 19q-35 0 -74 -12t-79 -38l-56 102q47 31 103 47.5t115 16.5q47 0 86.5 -14t68.5 -48q32 29 74.5 45.5t93.5 16.5h9q52 0 96 -17.5t75.5 -49t49 -75
t17.5 -95.5v-73h-357v-1q5 -51 39 -81t86 -30h5q40 0 76.5 17.5t60.5 44.5l74 -93q-18 -19 -43 -35t-53.5 -28t-58.5 -18.5t-60 -6.5h-12q-62 0 -111.5 22.5t-84.5 61.5q-47 -47 -98 -65t-105 -18zM704 309v4q-2 51 -29.5 79.5t-69.5 28.5h-6q-42 0 -70.5 -29.5t-37.5 -82.5
h213zM358 159q-6 18 -9 39q-2 8 -2 15t-1 15h-18q-78 0 -116.5 -18.5t-38.5 -52.5q0 -24 19 -39t51 -15t63 15t52 41z" />
    <glyph glyph-name="ccedilla" unicode="&#xe7;" horiz-adv-x="528" 
d="M285 -10q-57 0 -103.5 19t-80.5 53.5t-52.5 81.5t-18.5 103v28q0 55 19 102t53 81t79.5 53t99.5 19h9q69 0 124.5 -29.5t93.5 -85.5l-105 -75q-23 40 -48.5 58t-59.5 18h-6q-49 0 -77 -38t-28 -109v-18q0 -68 29.5 -106t79.5 -38h9q63 0 106 76l104 -80
q-79 -113 -218 -113h-9zM246 -185q-28 0 -55 7l8 75q13 -5 26 -5q16 0 23 6.5t7 14.5q0 11 -9 19t-34 8l25 60h82l-14 -28q26 -9 39 -27t13 -42q0 -16 -7 -31.5t-21 -28t-35 -20.5t-48 -8z" />
    <glyph glyph-name="egrave" unicode="&#xe8;" horiz-adv-x="564" 
d="M292 -11q-59 0 -107 18.5t-82.5 53t-53.5 82.5t-19 106v19q0 58 19 106t53 82.5t81 54t103 19.5h13q53 0 96.5 -17.5t75 -49t49 -75t17.5 -95.5v-74h-362q5 -52 39 -81.5t88 -29.5h9q44 0 78.5 18t57.5 44l74 -93q-38 -38 -95.5 -63t-117.5 -25h-16zM396 310v3
q-2 51 -29 79.5t-70 28.5h-10q-44 0 -72 -29t-36 -82h217zM169 742h129l58 -165h-111z" />
    <glyph glyph-name="eacute" unicode="&#xe9;" horiz-adv-x="564" 
d="M292 -11q-59 0 -107 18.5t-82.5 53t-53.5 82.5t-19 106v19q0 58 19 106t53 82.5t81 54t103 19.5h13q53 0 96.5 -17.5t75 -49t49 -75t17.5 -95.5v-74h-362q5 -52 39 -81.5t88 -29.5h9q44 0 78.5 18t57.5 44l74 -93q-38 -38 -95.5 -63t-117.5 -25h-16zM396 310v3
q-2 51 -29 79.5t-70 28.5h-10q-44 0 -72 -29t-36 -82h217zM231 576l57 164h130l-76 -164h-111z" />
    <glyph glyph-name="ecircumflex" unicode="&#xea;" horiz-adv-x="564" 
d="M292 -11q-59 0 -107 18.5t-82.5 53t-53.5 82.5t-19 106v19q0 58 19 106t53 82.5t81 54t103 19.5h13q53 0 96.5 -17.5t75 -49t49 -75t17.5 -95.5v-74h-362q5 -52 39 -81.5t88 -29.5h9q44 0 78.5 18t57.5 44l74 -93q-38 -38 -95.5 -63t-117.5 -25h-16zM396 310v3
q-2 51 -29 79.5t-70 28.5h-10q-44 0 -72 -29t-36 -82h217zM358 589l-55 56h-18l-55 -56h-130l112 131h164l112 -131h-130z" />
    <glyph glyph-name="edieresis" unicode="&#xeb;" horiz-adv-x="564" 
d="M292 -11q-59 0 -107 18.5t-82.5 53t-53.5 82.5t-19 106v19q0 58 19 106t53 82.5t81 54t103 19.5h13q53 0 96.5 -17.5t75 -49t49 -75t17.5 -95.5v-74h-362q5 -52 39 -81.5t88 -29.5h9q44 0 78.5 18t57.5 44l74 -93q-38 -38 -95.5 -63t-117.5 -25h-16zM396 310v3
q-2 51 -29 79.5t-70 28.5h-10q-44 0 -72 -29t-36 -82h217zM401 600q-33 0 -53.5 19t-20.5 50t20.5 50t53.5 19t54.5 -19t21.5 -50t-21.5 -50t-54.5 -19zM184 600q-33 0 -54 19t-21 50t21 50t54 19q32 0 53.5 -19t21.5 -50t-21.5 -50t-53.5 -19z" />
    <glyph glyph-name="igrave" unicode="&#xec;" horiz-adv-x="275" 
d="M63 520h149v-520h-149v520zM13 739h129l58 -165h-111z" />
    <glyph glyph-name="iacute" unicode="&#xed;" horiz-adv-x="275" 
d="M63 520h149v-520h-149v520zM75 573l57 164h130l-76 -164h-111z" />
    <glyph glyph-name="icircumflex" unicode="&#xee;" horiz-adv-x="275" 
d="M188 589l-41 56h-18l-42 -56h-126l98 131h157l98 -131h-126zM63 520h149v-520h-149v520z" />
    <glyph glyph-name="idieresis" unicode="&#xef;" horiz-adv-x="275" 
d="M218 596q-29 0 -47.5 19t-18.5 51q0 31 18.5 50.5t47.5 19.5q30 0 49.5 -19.5t19.5 -50.5q0 -32 -19.5 -51t-49.5 -19zM56 596q-30 0 -49 19t-19 51q0 31 19 50.5t49 19.5q28 0 47.5 -19.5t19.5 -50.5q0 -32 -19.5 -51t-47.5 -19zM63 520h149v-520h-149v520z" />
    <glyph glyph-name="eth" unicode="&#xf0;" horiz-adv-x="591" 
d="M133 585l96 48q-20 13 -42 25.5t-47 24.5l64 74q72 -31 131 -72l118 59l38 -72l-87 -42q72 -67 114 -155t42 -199v-18q0 -61 -19.5 -110.5t-54 -84.5t-82.5 -54.5t-105 -19.5h-8q-57 0 -104.5 18.5t-82.5 52t-54.5 79.5t-19.5 101v17q0 55 18.5 101t50 79.5t74 52
t89.5 18.5h8q57 0 104 -28q-14 26 -33 50t-43 47l-129 -63zM300 100q49 0 79 40t30 106v9q0 65 -30 105t-79 40h-5q-50 0 -80 -40t-30 -105v-9q0 -66 30 -106t80 -40h5z" />
    <glyph glyph-name="ntilde" unicode="&#xf1;" horiz-adv-x="613" 
d="M63 520h118q5 -15 10 -37.5t6 -39.5q33 41 79.5 64.5t102.5 23.5h4q85 0 130.5 -51.5t45.5 -146.5v-333h-149v301q0 53 -20 79t-64 26h-5q-49 0 -79 -34.5t-30 -91.5v-280h-149v520zM102 662q19 35 52.5 55.5t73.5 20.5q22 0 42.5 -6.5t48.5 -19.5q20 -8 38 -15t39 -7
q45 0 70 37l45 -66q-20 -35 -53 -55.5t-71 -20.5q-21 0 -42 7t-53 21q-21 9 -39 14.5t-35 5.5q-23 0 -41.5 -10t-29.5 -27z" />
    <glyph glyph-name="ograve" unicode="&#xf2;" horiz-adv-x="599" 
d="M294 -11q-58 0 -107 19t-83.5 52.5t-54 80.5t-19.5 104v30q0 57 19.5 104t54 80.5t83.5 52.5t107 19h10q59 0 107.5 -19t83 -52.5t54 -80.5t19.5 -104v-30q0 -57 -19.5 -104t-54 -80.5t-83 -52.5t-107.5 -19h-10zM304 100q50 0 80 41t30 110v23q0 67 -30 106.5t-80 39.5
h-10q-50 0 -80 -39.5t-30 -106.5v-23q0 -69 30 -110t80 -41h10zM174 742h129l58 -165h-111z" />
    <glyph glyph-name="oacute" unicode="&#xf3;" horiz-adv-x="599" 
d="M294 -11q-58 0 -107 19t-83.5 52.5t-54 80.5t-19.5 104v30q0 57 19.5 104t54 80.5t83.5 52.5t107 19h10q59 0 107.5 -19t83 -52.5t54 -80.5t19.5 -104v-30q0 -57 -19.5 -104t-54 -80.5t-83 -52.5t-107.5 -19h-10zM304 100q50 0 80 41t30 110v23q0 67 -30 106.5t-80 39.5
h-10q-50 0 -80 -39.5t-30 -106.5v-23q0 -69 30 -110t80 -41h10zM237 576l57 164h130l-76 -164h-111z" />
    <glyph glyph-name="ocircumflex" unicode="&#xf4;" horiz-adv-x="599" 
d="M294 -11q-58 0 -107 19t-83.5 52.5t-54 80.5t-19.5 104v30q0 57 19.5 104t54 80.5t83.5 52.5t107 19h10q59 0 107.5 -19t83 -52.5t54 -80.5t19.5 -104v-30q0 -57 -19.5 -104t-54 -80.5t-83 -52.5t-107.5 -19h-10zM304 100q50 0 80 41t30 110v23q0 67 -30 106.5t-80 39.5
h-10q-50 0 -80 -39.5t-30 -106.5v-23q0 -69 30 -110t80 -41h10zM364 589l-55 56h-18l-55 -56h-130l112 131h164l112 -131h-130z" />
    <glyph glyph-name="otilde" unicode="&#xf5;" horiz-adv-x="599" 
d="M294 -11q-58 0 -107 19t-83.5 52.5t-54 80.5t-19.5 104v30q0 57 19.5 104t54 80.5t83.5 52.5t107 19h10q59 0 107.5 -19t83 -52.5t54 -80.5t19.5 -104v-30q0 -57 -19.5 -104t-54 -80.5t-83 -52.5t-107.5 -19h-10zM304 100q50 0 80 41t30 110v23q0 67 -30 106.5t-80 39.5
h-10q-50 0 -80 -39.5t-30 -106.5v-23q0 -69 30 -110t80 -41h10zM92 662q19 35 52.5 55.5t73.5 20.5q22 0 42.5 -6.5t48.5 -19.5q20 -8 38 -15t39 -7q45 0 70 37l45 -66q-20 -35 -53 -55.5t-71 -20.5q-21 0 -42 7t-53 21q-21 9 -39 14.5t-35 5.5q-23 0 -41.5 -10t-29.5 -27z
" />
    <glyph glyph-name="odieresis" unicode="&#xf6;" horiz-adv-x="599" 
d="M294 -11q-58 0 -107 19t-83.5 52.5t-54 80.5t-19.5 104v30q0 57 19.5 104t54 80.5t83.5 52.5t107 19h10q59 0 107.5 -19t83 -52.5t54 -80.5t19.5 -104v-30q0 -57 -19.5 -104t-54 -80.5t-83 -52.5t-107.5 -19h-10zM304 100q50 0 80 41t30 110v23q0 67 -30 106.5t-80 39.5
h-10q-50 0 -80 -39.5t-30 -106.5v-23q0 -69 30 -110t80 -41h10zM407 600q-33 0 -53.5 19t-20.5 50t20.5 50t53.5 19t54.5 -19t21.5 -50t-21.5 -50t-54.5 -19zM190 600q-33 0 -54 19t-21 50t21 50t54 19q32 0 53.5 -19t21.5 -50t-21.5 -50t-53.5 -19z" />
    <glyph glyph-name="divide" unicode="&#xf7;" horiz-adv-x="593" 
d="M295 440q-33 0 -56 22.5t-23 54.5v3q0 32 23 53.5t56 21.5q34 0 58 -21.5t24 -53.5v-3q0 -32 -24 -54.5t-58 -22.5zM44 385h505v-120h-505v120zM295 54q-33 0 -56.5 22t-23.5 55v4q0 32 23.5 53.5t56.5 21.5q34 0 58 -21.5t24 -53.5v-4q0 -33 -24 -55t-58 -22z" />
    <glyph glyph-name="oslash" unicode="&#xf8;" horiz-adv-x="599" 
d="M118 48q-42 35 -65 84.5t-23 112.5v30q0 57 19.5 104t54 80.5t83.5 52.5t107 19h10q52 0 95 -15l25 44h109l-51 -89q41 -34 63.5 -84t22.5 -112v-30q0 -57 -19.5 -104t-54 -80.5t-83 -52.5t-107.5 -19h-10q-48 0 -93 14l-27 -45h-108zM351 415q-21 9 -46 9h-11
q-55 0 -88 -40t-33 -109v-24q0 -56 21 -94zM305 96q55 0 88 42t33 113v24q0 52 -20 89l-157 -260q21 -8 45 -8h11z" />
    <glyph glyph-name="ugrave" unicode="&#xf9;" horiz-adv-x="607" 
d="M228 -11q-84 0 -129 51.5t-45 146.5v333h149v-300q0 -106 82 -106h4q48 0 77 34.5t29 92.5v279h149v-520h-118q-5 14 -9 36t-6 40q-32 -40 -78 -63.5t-101 -23.5h-4zM174 742h129l58 -165h-111z" />
    <glyph glyph-name="uacute" unicode="&#xfa;" horiz-adv-x="607" 
d="M228 -11q-84 0 -129 51.5t-45 146.5v333h149v-300q0 -106 82 -106h4q48 0 77 34.5t29 92.5v279h149v-520h-118q-5 14 -9 36t-6 40q-32 -40 -78 -63.5t-101 -23.5h-4zM236 576l57 164h130l-76 -164h-111z" />
    <glyph glyph-name="ucircumflex" unicode="&#xfb;" horiz-adv-x="607" 
d="M228 -11q-84 0 -129 51.5t-45 146.5v333h149v-300q0 -106 82 -106h4q48 0 77 34.5t29 92.5v279h149v-520h-118q-5 14 -9 36t-6 40q-32 -40 -78 -63.5t-101 -23.5h-4zM363 589l-55 56h-18l-55 -56h-130l112 131h164l112 -131h-130z" />
    <glyph glyph-name="udieresis" unicode="&#xfc;" horiz-adv-x="607" 
d="M228 -11q-84 0 -129 51.5t-45 146.5v333h149v-300q0 -106 82 -106h4q48 0 77 34.5t29 92.5v279h149v-520h-118q-5 14 -9 36t-6 40q-32 -40 -78 -63.5t-101 -23.5h-4zM406 600q-33 0 -53.5 19t-20.5 50t20.5 50t53.5 19t54.5 -19t21.5 -50t-21.5 -50t-54.5 -19zM189 600
q-33 0 -54 19t-21 50t21 50t54 19q32 0 53.5 -19t21.5 -50t-21.5 -50t-53.5 -19z" />
    <glyph glyph-name="yacute" unicode="&#xfd;" horiz-adv-x="547" 
d="M155 -204q-25 0 -52 4.5t-50 15.5v126q16 -11 35.5 -17t40.5 -6q27 0 50 15t38 45l-213 541h155l132 -382h7l99 382h150l-175 -548q-27 -83 -80 -129.5t-137 -46.5zM217 576l57 164h130l-76 -164h-111z" />
    <glyph glyph-name="thorn" unicode="&#xfe;" horiz-adv-x="636" 
d="M63 720h149v-247q29 27 67.5 42.5t83.5 15.5h8q51 0 94 -19.5t74.5 -54t49 -81t17.5 -101.5v-30q0 -55 -17.5 -101.5t-49 -81t-74.5 -54t-94 -19.5h-8q-45 0 -83.5 15.5t-67.5 42.5v-237h-149v910zM336 109q53 0 84.5 39.5t31.5 100.5v22q0 61 -31.5 100.5t-84.5 39.5h-9
q-52 0 -83.5 -39.5t-31.5 -100.5v-22q0 -61 31.5 -100.5t83.5 -39.5h9z" />
    <glyph glyph-name="ydieresis" unicode="&#xff;" horiz-adv-x="547" 
d="M155 -204q-25 0 -52 4.5t-50 15.5v126q16 -11 35.5 -17t40.5 -6q27 0 50 15t38 45l-213 541h155l132 -382h7l99 382h150l-175 -548q-27 -83 -80 -129.5t-137 -46.5zM387 600q-33 0 -53.5 19t-20.5 50t20.5 50t53.5 19t54.5 -19t21.5 -50t-21.5 -50t-54.5 -19zM170 600
q-33 0 -54 19t-21 50t21 50t54 19q32 0 53.5 -19t21.5 -50t-21.5 -50t-53.5 -19z" />
    <glyph glyph-name="Amacron" unicode="&#x100;" horiz-adv-x="650" 
d="M226 700h200l231 -700h-167l-43 146h-244l-43 -146h-167zM413 271l-82 267h-11l-83 -267h176zM176 890h299v-100h-299v100z" />
    <glyph glyph-name="amacron" unicode="&#x101;" 
d="M205 -11q-38 0 -69.5 11t-54.5 31t-36 48.5t-13 62.5v12q0 84 71 126t220 42h39v15q0 36 -22 57.5t-66 21.5h-5q-36 0 -75.5 -12.5t-80.5 -38.5l-56 102q47 30 105 47t118 17h9q100 0 156.5 -52.5t56.5 -146.5v-213q0 -32 5 -61t13 -58h-139q-9 25 -14 59
q-29 -33 -71.5 -51.5t-90.5 -18.5zM243 102q33 0 64.5 14.5t54.5 40.5v78h-30q-81 0 -120 -18t-39 -54v-5q0 -25 19 -40.5t51 -15.5zM130 724h299v-106h-299v106z" />
    <glyph glyph-name="Abreve" unicode="&#x102;" horiz-adv-x="650" 
d="M226 700h200l231 -700h-167l-43 146h-244l-43 -146h-167zM413 271l-82 267h-11l-83 -267h176zM273 900q0 -23 13.5 -37.5t39.5 -14.5q25 0 38.5 14.5t13.5 37.5h120q0 -66 -46.5 -106t-125.5 -40q-80 0 -126.5 40t-46.5 106h120z" />
    <glyph glyph-name="abreve" unicode="&#x103;" 
d="M205 -11q-38 0 -69.5 11t-54.5 31t-36 48.5t-13 62.5v12q0 84 71 126t220 42h39v15q0 36 -22 57.5t-66 21.5h-5q-36 0 -75.5 -12.5t-80.5 -38.5l-56 102q47 30 105 47t118 17h9q100 0 156.5 -52.5t56.5 -146.5v-213q0 -32 5 -61t13 -58h-139q-9 25 -14 59
q-29 -33 -71.5 -51.5t-90.5 -18.5zM243 102q33 0 64.5 14.5t54.5 40.5v78h-30q-81 0 -120 -18t-39 -54v-5q0 -25 19 -40.5t51 -15.5zM225 720q0 -23 14 -37.5t39 -14.5q26 0 39.5 14.5t13.5 37.5h119q0 -66 -46 -106t-126 -40q-79 0 -125.5 40t-46.5 106h119z" />
    <glyph glyph-name="Aogonek" unicode="&#x104;" horiz-adv-x="650" 
d="M226 700h200l231 -700h-167l-43 146h-244l-43 -146h-167zM413 271l-82 267h-11l-83 -267h176zM612 -185q-45 0 -71 22.5t-26 62.5t24 77t66 63l52 -40q-26 -24 -36 -43.5t-10 -37.5q0 -14 6.5 -21t17.5 -7q6 0 11.5 2t10.5 4v-75q-22 -7 -45 -7z" />
    <glyph glyph-name="aogonek" unicode="&#x105;" 
d="M205 -11q-38 0 -69.5 11t-54.5 31t-36 48.5t-13 62.5v12q0 84 71 126t220 42h39v15q0 36 -22 57.5t-66 21.5h-5q-36 0 -75.5 -12.5t-80.5 -38.5l-56 102q47 30 105 47t118 17h9q100 0 156.5 -52.5t56.5 -146.5v-213q0 -32 5 -61t13 -58h-139q-9 25 -14 59
q-29 -33 -71.5 -51.5t-90.5 -18.5zM243 102q33 0 64.5 14.5t54.5 40.5v78h-30q-81 0 -120 -18t-39 -54v-5q0 -25 19 -40.5t51 -15.5zM475 -185q-45 0 -71 22.5t-26 62.5t24 77t66 63l52 -40q-26 -24 -36 -43.5t-10 -37.5q0 -14 6.5 -21t17.5 -7q6 0 11.5 2t10.5 4v-75
q-22 -7 -45 -7z" />
    <glyph glyph-name="Cacute" unicode="&#x106;" horiz-adv-x="680" 
d="M375 -12q-75 0 -137.5 26t-107 72.5t-69 111t-24.5 142.5v19q0 77 25 142t69.5 112t106 73t134.5 26h7q86 0 157.5 -38.5t116.5 -110.5l-115 -87q-26 46 -64.5 72.5t-90.5 26.5h-8q-39 0 -71.5 -15.5t-55.5 -43.5t-36 -68t-13 -89v-19q0 -49 12.5 -88.5t36 -67.5t56 -43
t71.5 -15h12q51 0 90 26t65 71l113 -86q-45 -72 -115.5 -110.5t-158.5 -38.5h-6zM431 761h-113l55 152h139z" />
    <glyph glyph-name="cacute" unicode="&#x107;" horiz-adv-x="528" 
d="M285 -10q-57 0 -103.5 19t-80.5 53.5t-52.5 81.5t-18.5 103v28q0 55 19 102t53 81t79.5 53t99.5 19h9q69 0 124.5 -29.5t93.5 -85.5l-105 -75q-23 40 -48.5 58t-59.5 18h-6q-49 0 -77 -38t-28 -109v-18q0 -68 29.5 -106t79.5 -38h9q63 0 106 76l104 -80
q-79 -113 -218 -113h-9zM225 576l57 164h130l-76 -164h-111z" />
    <glyph glyph-name="Ccircumflex" unicode="&#x108;" horiz-adv-x="680" 
d="M375 -12q-75 0 -137.5 26t-107 72.5t-69 111t-24.5 142.5v19q0 77 25 142t69.5 112t106 73t134.5 26h7q86 0 157.5 -38.5t116.5 -110.5l-115 -87q-26 46 -64.5 72.5t-90.5 26.5h-8q-39 0 -71.5 -15.5t-55.5 -43.5t-36 -68t-13 -89v-19q0 -49 12.5 -88.5t36 -67.5t56 -43
t71.5 -15h12q51 0 90 26t65 71l113 -86q-45 -72 -115.5 -110.5t-158.5 -38.5h-6zM296 900h164l110 -128h-131l-52 53h-18l-52 -53h-131z" />
    <glyph glyph-name="ccircumflex" unicode="&#x109;" horiz-adv-x="528" 
d="M285 -10q-57 0 -103.5 19t-80.5 53.5t-52.5 81.5t-18.5 103v28q0 55 19 102t53 81t79.5 53t99.5 19h9q69 0 124.5 -29.5t93.5 -85.5l-105 -75q-23 40 -48.5 58t-59.5 18h-6q-49 0 -77 -38t-28 -109v-18q0 -68 29.5 -106t79.5 -38h9q63 0 106 76l104 -80
q-79 -113 -218 -113h-9zM352 589l-55 56h-18l-55 -56h-130l112 131h164l112 -131h-130z" />
    <glyph glyph-name="Cdotaccent" unicode="&#x10a;" horiz-adv-x="680" 
d="M375 -12q-75 0 -137.5 26t-107 72.5t-69 111t-24.5 142.5v19q0 77 25 142t69.5 112t106 73t134.5 26h7q86 0 157.5 -38.5t116.5 -110.5l-115 -87q-26 46 -64.5 72.5t-90.5 26.5h-8q-39 0 -71.5 -15.5t-55.5 -43.5t-36 -68t-13 -89v-19q0 -49 12.5 -88.5t36 -67.5t56 -43
t71.5 -15h12q51 0 90 26t65 71l113 -86q-45 -72 -115.5 -110.5t-158.5 -38.5h-6zM376 767q-37 0 -60 21t-23 54q0 34 23 54.5t60 20.5q39 0 63 -20.5t24 -54.5q0 -33 -24 -54t-63 -21z" />
    <glyph glyph-name="cdotaccent" unicode="&#x10b;" horiz-adv-x="528" 
d="M285 -10q-57 0 -103.5 19t-80.5 53.5t-52.5 81.5t-18.5 103v28q0 55 19 102t53 81t79.5 53t99.5 19h9q69 0 124.5 -29.5t93.5 -85.5l-105 -75q-23 40 -48.5 58t-59.5 18h-6q-49 0 -77 -38t-28 -109v-18q0 -68 29.5 -106t79.5 -38h9q63 0 106 76l104 -80
q-79 -113 -218 -113h-9zM288 593q-38 0 -61.5 20.5t-23.5 55.5q0 34 23.5 55.5t61.5 21.5q39 0 63.5 -21.5t24.5 -55.5q0 -35 -24.5 -55.5t-63.5 -20.5z" />
    <glyph glyph-name="Ccaron" unicode="&#x10c;" horiz-adv-x="680" 
d="M375 -12q-75 0 -137.5 26t-107 72.5t-69 111t-24.5 142.5v19q0 77 25 142t69.5 112t106 73t134.5 26h7q86 0 157.5 -38.5t116.5 -110.5l-115 -87q-26 46 -64.5 72.5t-90.5 26.5h-8q-39 0 -71.5 -15.5t-55.5 -43.5t-36 -68t-13 -89v-19q0 -49 12.5 -88.5t36 -67.5t56 -43
t71.5 -15h12q51 0 90 26t65 71l113 -86q-45 -72 -115.5 -110.5t-158.5 -38.5h-6zM186 900h131l52 -53h18l52 53h131l-110 -128h-164z" />
    <glyph glyph-name="ccaron" unicode="&#x10d;" horiz-adv-x="528" 
d="M285 -10q-57 0 -103.5 19t-80.5 53.5t-52.5 81.5t-18.5 103v28q0 55 19 102t53 81t79.5 53t99.5 19h9q69 0 124.5 -29.5t93.5 -85.5l-105 -75q-23 40 -48.5 58t-59.5 18h-6q-49 0 -77 -38t-28 -109v-18q0 -68 29.5 -106t79.5 -38h9q63 0 106 76l104 -80
q-79 -113 -218 -113h-9zM81 720h130l55 -56h18l55 56h130l-112 -131h-164z" />
    <glyph glyph-name="Dcaron" unicode="&#x10e;" horiz-adv-x="704" 
d="M73 700h232q82 0 149 -24t114 -68t73 -106t26 -138v-20q0 -77 -26 -140.5t-73 -108.5t-114 -70t-149 -25h-232v700zM308 136q94 0 145.5 56t51.5 153v20q0 92 -51.5 145.5t-145.5 53.5h-78v-428h78zM149 897h131l52 -53h18l52 53h131l-110 -128h-164z" />
    <glyph glyph-name="dcaron" unicode="&#x10f;" horiz-adv-x="665" 
d="M259 -11q-51 0 -93 18.5t-72.5 52.5t-47 81t-16.5 104v30q0 57 16.5 104t47 81t72.5 52.5t93 18.5h9q87 0 146 -53v242h149v-720h-118q-5 11 -8.5 26.5t-5.5 31.5q-30 -33 -71.5 -51t-92.5 -18h-8zM304 100q51 0 80.5 41t29.5 110v23q0 67 -29.5 106.5t-80.5 39.5h-9
q-50 0 -80 -39.5t-30 -106.5v-23q0 -69 30 -110t80 -41h9zM633 720h123l-39 -171h-92z" />
    <glyph glyph-name="Dcroat" unicode="&#x110;" horiz-adv-x="719" 
d="M88 287h-65v136h65v277h232q82 0 148.5 -24t114 -68t73 -106t25.5 -138v-20q0 -77 -25.5 -140.5t-73 -108.5t-114 -70t-148.5 -25h-232v287zM322 136q93 0 145 56t52 153v20q0 92 -51.5 145.5t-145.5 53.5h-78v-141h124v-136h-124v-151h78z" />
    <glyph glyph-name="dcroat" unicode="&#x111;" horiz-adv-x="625" 
d="M260 -11q-51 0 -93.5 18.5t-73 52.5t-47 81t-16.5 104v30q0 57 16.5 104t47 81t73 52.5t93.5 18.5h8q45 0 82.5 -15t66.5 -41v103h-130v97h130v45h146v-45h56v-97h-56v-578h-118q-5 11 -8.5 26.5t-5.5 31.5q-29 -33 -70.5 -51t-92.5 -18h-8zM304 109q51 0 80.5 38.5
t29.5 101.5v22q0 64 -29.5 102t-80.5 38h-9q-51 0 -80.5 -38t-29.5 -102v-22q0 -64 29.5 -102t80.5 -38h9z" />
    <glyph glyph-name="Emacron" unicode="&#x112;" horiz-adv-x="559" 
d="M74 700h423v-136h-267v-148h247v-129h-247v-151h277v-136h-433v700zM142 890h299v-100h-299v100z" />
    <glyph glyph-name="emacron" unicode="&#x113;" horiz-adv-x="564" 
d="M292 -11q-59 0 -107 18.5t-82.5 53t-53.5 82.5t-19 106v19q0 58 19 106t53 82.5t81 54t103 19.5h13q53 0 96.5 -17.5t75 -49t49 -75t17.5 -95.5v-74h-362q5 -52 39 -81.5t88 -29.5h9q44 0 78.5 18t57.5 44l74 -93q-38 -38 -95.5 -63t-117.5 -25h-16zM396 310v3
q-2 51 -29 79.5t-70 28.5h-10q-44 0 -72 -29t-36 -82h217zM144 724h299v-106h-299v106z" />
    <glyph glyph-name="Ebreve" unicode="&#x114;" horiz-adv-x="559" 
d="M74 700h423v-136h-267v-148h247v-129h-247v-151h277v-136h-433v700zM239 900q0 -23 13.5 -37.5t39.5 -14.5q25 0 38.5 14.5t13.5 37.5h120q0 -66 -46.5 -106t-125.5 -40q-80 0 -126.5 40t-46.5 106h120z" />
    <glyph glyph-name="ebreve" unicode="&#x115;" horiz-adv-x="564" 
d="M292 -11q-59 0 -107 18.5t-82.5 53t-53.5 82.5t-19 106v19q0 58 19 106t53 82.5t81 54t103 19.5h13q53 0 96.5 -17.5t75 -49t49 -75t17.5 -95.5v-74h-362q5 -52 39 -81.5t88 -29.5h9q44 0 78.5 18t57.5 44l74 -93q-38 -38 -95.5 -63t-117.5 -25h-16zM396 310v3
q-2 51 -29 79.5t-70 28.5h-10q-44 0 -72 -29t-36 -82h217zM239 720q0 -23 14 -37.5t39 -14.5q26 0 39.5 14.5t13.5 37.5h119q0 -66 -46 -106t-126 -40q-79 0 -125.5 40t-46.5 106h119z" />
    <glyph glyph-name="Edotaccent" unicode="&#x116;" horiz-adv-x="559" 
d="M74 700h423v-136h-267v-148h247v-129h-247v-151h277v-136h-433v700zM289 767q-37 0 -60 21t-23 54q0 34 23 54.5t60 20.5q39 0 63 -20.5t24 -54.5q0 -33 -24 -54t-63 -21z" />
    <glyph glyph-name="edotaccent" unicode="&#x117;" horiz-adv-x="564" 
d="M292 -11q-59 0 -107 18.5t-82.5 53t-53.5 82.5t-19 106v19q0 58 19 106t53 82.5t81 54t103 19.5h13q53 0 96.5 -17.5t75 -49t49 -75t17.5 -95.5v-74h-362q5 -52 39 -81.5t88 -29.5h9q44 0 78.5 18t57.5 44l74 -93q-38 -38 -95.5 -63t-117.5 -25h-16zM396 310v3
q-2 51 -29 79.5t-70 28.5h-10q-44 0 -72 -29t-36 -82h217zM294 593q-38 0 -61.5 20.5t-23.5 55.5q0 34 23.5 55.5t61.5 21.5q39 0 63.5 -21.5t24.5 -55.5q0 -35 -24.5 -55.5t-63.5 -20.5z" />
    <glyph glyph-name="Eogonek" unicode="&#x118;" horiz-adv-x="559" 
d="M74 700h423v-136h-267v-148h247v-129h-247v-151h277v-136h-433v700zM462 -185q-45 0 -71 22.5t-26 62.5t24 77t66 63l52 -40q-26 -24 -36 -43.5t-10 -37.5q0 -14 6.5 -21t17.5 -7q6 0 11.5 2t10.5 4v-75q-22 -7 -45 -7z" />
    <glyph glyph-name="eogonek" unicode="&#x119;" horiz-adv-x="564" 
d="M521 77q-20 -21 -47 -38t-57 -29h1q-34 -11 -60 -32.5t-26 -53.5q0 -33 26 -33q5 0 10.5 2t10.5 4v-75q-22 -7 -45 -7q-45 0 -71 22.5t-26 62.5q0 45 36 90q-55 3 -100 23t-76.5 53.5t-49 80t-17.5 102.5v19q0 58 19 106t53 82.5t81 54t103 19.5h13q53 0 96.5 -17.5
t75 -49t49 -75t17.5 -95.5v-74h-362q5 -51 39 -81t88 -30h9q44 0 78.5 18t57.5 44zM396 310v3q-2 51 -29 79.5t-70 28.5h-10q-44 0 -72 -29t-36 -82h217z" />
    <glyph glyph-name="Ecaron" unicode="&#x11a;" horiz-adv-x="559" 
d="M74 700h423v-136h-267v-148h247v-129h-247v-151h277v-136h-433v700zM100 900h131l52 -53h18l52 53h131l-110 -128h-164z" />
    <glyph glyph-name="ecaron" unicode="&#x11b;" horiz-adv-x="564" 
d="M292 -11q-59 0 -107 18.5t-82.5 53t-53.5 82.5t-19 106v19q0 58 19 106t53 82.5t81 54t103 19.5h13q53 0 96.5 -17.5t75 -49t49 -75t17.5 -95.5v-74h-362q5 -52 39 -81.5t88 -29.5h9q44 0 78.5 18t57.5 44l74 -93q-38 -38 -95.5 -63t-117.5 -25h-16zM396 310v3
q-2 51 -29 79.5t-70 28.5h-10q-44 0 -72 -29t-36 -82h217zM93 720h130l55 -56h18l55 56h130l-112 -131h-164z" />
    <glyph glyph-name="Gcircumflex" unicode="&#x11c;" horiz-adv-x="731" 
d="M347 -11q-71 0 -128 25t-97.5 71t-62.5 111t-22 144v18q0 79 24.5 144t69 111.5t107 72.5t137.5 26h11q86 0 159 -41t121 -116l-123 -78q-56 100 -154 100h-11q-41 0 -74 -16t-56.5 -44.5t-36 -68.5t-12.5 -89v-20q0 -49 12.5 -89t36.5 -68t58 -43.5t76 -15.5h11
q30 0 56.5 9.5t46 25.5t31 37t11.5 43v13h-144v128h286v-379h-112q-6 11 -11.5 33.5t-6.5 43.5q-12 -19 -31.5 -35t-45 -28t-55 -18.5t-59.5 -6.5h-12zM307 900h164l110 -128h-131l-52 53h-18l-52 -53h-131z" />
    <glyph glyph-name="gcircumflex" unicode="&#x11d;" horiz-adv-x="550" 
d="M331 595l-51 50h-18l-50 -50h-130l107 125h164l108 -125h-130zM29 345q0 40 17 74t47.5 59t72 39t90.5 14h30q51 0 97 -16q6 17 12 30.5t14 24.5h134l-64 -122q17 -22 26 -48t9 -55v-11q0 -40 -17.5 -74.5t-48 -59t-72 -38.5t-90.5 -14h-30h-7v-47h7h47q51 0 93 -11
t73 -30.5t48 -47.5t17 -61v-10q0 -34 -17.5 -62t-48.5 -48t-74 -31t-93 -11h-43q-51 0 -93.5 11t-73.5 31t-48.5 48t-17.5 62v14q0 44 30 78t81 53v88q-49 23 -78 64.5t-29 95.5v11zM174 327q0 -37 26.5 -59t63.5 -22h15q36 0 63 22.5t27 58.5v15q0 37 -27 59.5t-63 22.5
h-15q-37 0 -63.5 -22t-26.5 -60v-15zM173 -52q0 -23 24.5 -38.5t68.5 -15.5h30q45 0 69.5 16t24.5 38v10q0 23 -25 39t-69 16h-30q-44 0 -68.5 -16t-24.5 -39v-10z" />
    <glyph glyph-name="Gbreve" unicode="&#x11e;" horiz-adv-x="731" 
d="M347 -11q-71 0 -128 25t-97.5 71t-62.5 111t-22 144v18q0 79 24.5 144t69 111.5t107 72.5t137.5 26h11q86 0 159 -41t121 -116l-123 -78q-56 100 -154 100h-11q-41 0 -74 -16t-56.5 -44.5t-36 -68.5t-12.5 -89v-20q0 -49 12.5 -89t36.5 -68t58 -43.5t76 -15.5h11
q30 0 56.5 9.5t46 25.5t31 37t11.5 43v13h-144v128h286v-379h-112q-6 11 -11.5 33.5t-6.5 43.5q-12 -19 -31.5 -35t-45 -28t-55 -18.5t-59.5 -6.5h-12zM337 900q0 -23 13.5 -37.5t39.5 -14.5q25 0 38.5 14.5t13.5 37.5h120q0 -66 -46.5 -106t-125.5 -40q-80 0 -126.5 40
t-46.5 106h120z" />
    <glyph glyph-name="gbreve" unicode="&#x11f;" horiz-adv-x="550" 
d="M221 720q0 -23 13 -36.5t37 -13.5t37.5 13.5t13.5 36.5h120q0 -66 -46 -105t-124 -39t-124.5 39t-46.5 105h120zM29 345q0 40 17 74t47.5 59t72 39t90.5 14h30q51 0 97 -16q6 17 13 32t15 26h133l-65 -125q17 -22 26 -48t9 -55v-11q0 -40 -17.5 -74.5t-48 -59t-72 -38.5
t-90.5 -14h-30h-7v-47h7h47q51 0 93 -11t73 -30.5t48 -47.5t17 -61v-10q0 -34 -17.5 -62t-48.5 -48t-74 -31t-93 -11h-43q-51 0 -93.5 11t-73.5 31t-48.5 48t-17.5 62v14q0 44 30 78t81 53v88q-49 23 -78 64.5t-29 95.5v11zM174 327q0 -37 26.5 -59t63.5 -22h15
q36 0 63 22.5t27 58.5v15q0 37 -27 59.5t-63 22.5h-15q-37 0 -63.5 -22t-26.5 -60v-15zM173 -52q0 -23 24.5 -38.5t68.5 -15.5h30q45 0 69.5 16t24.5 38v10q0 23 -25 39t-69 16h-30q-44 0 -68.5 -16t-24.5 -39v-10z" />
    <glyph glyph-name="Gdotaccent" unicode="&#x120;" horiz-adv-x="731" 
d="M347 -11q-71 0 -128 25t-97.5 71t-62.5 111t-22 144v18q0 79 24.5 144t69 111.5t107 72.5t137.5 26h11q86 0 159 -41t121 -116l-123 -78q-56 100 -154 100h-11q-41 0 -74 -16t-56.5 -44.5t-36 -68.5t-12.5 -89v-20q0 -49 12.5 -89t36.5 -68t58 -43.5t76 -15.5h11
q30 0 56.5 9.5t46 25.5t31 37t11.5 43v13h-144v128h286v-379h-112q-6 11 -11.5 33.5t-6.5 43.5q-12 -19 -31.5 -35t-45 -28t-55 -18.5t-59.5 -6.5h-12zM388 767q-37 0 -60 21t-23 54q0 34 23 54.5t60 20.5q39 0 63 -20.5t24 -54.5q0 -33 -24 -54t-63 -21z" />
    <glyph glyph-name="gdotaccent" unicode="&#x121;" horiz-adv-x="550" 
d="M271 594q-38 0 -62 20.5t-24 54.5q0 35 24 56t62 21q39 0 63.5 -21t24.5 -56q0 -34 -24.5 -54.5t-63.5 -20.5zM29 345q0 40 17 74t47.5 59t72 39t90.5 14h30q51 0 97 -16q6 17 13 32t15 26h133l-65 -125q17 -22 26 -48t9 -55v-11q0 -40 -17.5 -74.5t-48 -59t-72 -38.5
t-90.5 -14h-30h-7v-47h7h47q51 0 93 -11t73 -30.5t48 -47.5t17 -61v-10q0 -34 -17.5 -62t-48.5 -48t-74 -31t-93 -11h-43q-51 0 -93.5 11t-73.5 31t-48.5 48t-17.5 62v14q0 44 30 78t81 53v88q-49 23 -78 64.5t-29 95.5v11zM174 327q0 -37 26.5 -59t63.5 -22h15
q36 0 63 22.5t27 58.5v15q0 37 -27 59.5t-63 22.5h-15q-37 0 -63.5 -22t-26.5 -60v-15zM173 -52q0 -23 24.5 -38.5t68.5 -15.5h30q45 0 69.5 16t24.5 38v10q0 23 -25 39t-69 16h-30q-44 0 -68.5 -16t-24.5 -39v-10z" />
    <glyph glyph-name="uni0122" unicode="&#x122;" horiz-adv-x="731" 
d="M347 -11q-71 0 -128 25t-97.5 71t-62.5 111t-22 144v18q0 79 24.5 144t69 111.5t107 72.5t137.5 26h11q86 0 159 -41t121 -116l-123 -78q-56 100 -154 100h-11q-41 0 -74 -16t-56.5 -44.5t-36 -68.5t-12.5 -89v-20q0 -49 12.5 -89t36.5 -68t58 -43.5t76 -15.5h11
q30 0 56.5 9.5t46 25.5t31 37t11.5 43v13h-144v128h286v-379h-112q-6 11 -11.5 33.5t-6.5 43.5q-12 -19 -31.5 -35t-45 -28t-55 -18.5t-59.5 -6.5h-12zM305 -48h126l-65 -155h-97z" />
    <glyph glyph-name="uni0123" unicode="&#x123;" horiz-adv-x="550" 
d="M323 720q-30 -16 -33 -45q21 -3 32 -18t11 -34q0 -23 -15 -41t-47 -18q-33 0 -51 21t-18 51q0 32 19.5 66t59.5 56zM29 345q0 40 17 74t47.5 59t72 39t90.5 14h30q51 0 97 -16q6 17 13 32t15 26h133l-65 -125q17 -22 26 -48t9 -55v-11q0 -40 -17.5 -74.5t-48 -59
t-72 -38.5t-90.5 -14h-30h-7v-47h7h47q51 0 93 -11t73 -30.5t48 -47.5t17 -61v-10q0 -34 -17.5 -62t-48.5 -48t-74 -31t-93 -11h-43q-51 0 -93.5 11t-73.5 31t-48.5 48t-17.5 62v14q0 44 30 78t81 53v88q-49 23 -78 64.5t-29 95.5v11zM174 327q0 -37 26.5 -59t63.5 -22h15
q36 0 63 22.5t27 58.5v15q0 37 -27 59.5t-63 22.5h-15q-37 0 -63.5 -22t-26.5 -60v-15zM173 -52q0 -23 24.5 -38.5t68.5 -15.5h30q45 0 69.5 16t24.5 38v10q0 23 -25 39t-69 16h-30q-44 0 -68.5 -16t-24.5 -39v-10z" />
    <glyph glyph-name="Hcircumflex" unicode="&#x124;" horiz-adv-x="704" 
d="M73 700h157v-277h244v277h156v-700h-156v287h-244v-287h-157v700zM271 897h164l110 -128h-131l-52 53h-18l-52 -53h-131z" />
    <glyph glyph-name="hcircumflex" unicode="&#x125;" horiz-adv-x="613" 
d="M192 769l-45 56h-18l-45 -56h-128l102 131h160l102 -131h-128zM63 720h149v-259q33 33 76.5 51.5t93.5 18.5q85 0 131 -52t46 -146v-333h-149v301q0 105 -88 105q-52 0 -81 -31.5t-29 -88.5v-286h-149v720z" />
    <glyph glyph-name="Hbar" unicode="&#x126;" horiz-adv-x="704" 
d="M73 700h157v-81h244v81h156v-700h-156v287h-244v-287h-157v700zM474 423v90h-244v-90h244z" />
    <glyph glyph-name="hbar" unicode="&#x127;" horiz-adv-x="616" 
d="M67 575h-61v97h61v48h149v-48h127v-98h-127v-117q32 29 73.5 46t89.5 17h2q88 0 135 -51.5t47 -146.5v-322h-149v290q0 56 -21.5 80.5t-65.5 24.5h-1q-52 0 -81 -28.5t-29 -87.5v-279h-149v575z" />
    <glyph glyph-name="Itilde" unicode="&#x128;" horiz-adv-x="303" 
d="M74 700h156v-700h-156v700zM-52 840q19 36 52.5 56t72.5 20q23 0 43.5 -6.5t48.5 -19.5q19 -8 37.5 -15t38.5 -7q23 0 41 10t29 27l46 -65q-20 -36 -53.5 -56t-71.5 -20q-20 0 -41 6.5t-53 20.5q-21 9 -39 14.5t-35 5.5q-49 0 -71 -37z" />
    <glyph glyph-name="itilde" unicode="&#x129;" horiz-adv-x="275" 
d="M217 588q-25 0 -45 6.5t-39 14.5q-16 6 -31.5 11.5t-33.5 5.5q-21 0 -38.5 -9.5t-27.5 -26.5l-56 75q19 29 48 44.5t65 15.5q26 0 46.5 -6.5t38.5 -14.5q17 -7 32 -12t32 -5q20 0 37 9t27 27l57 -76q-20 -29 -48.5 -44t-63.5 -15zM63 520h149v-520h-149v520z" />
    <glyph glyph-name="Imacron" unicode="&#x12a;" horiz-adv-x="303" 
d="M74 700h156v-700h-156v700zM3 890h299v-100h-299v100z" />
    <glyph glyph-name="imacron" unicode="&#x12b;" horiz-adv-x="278" 
d="M5 712h268v-106h-268v106zM64 520h149v-520h-149v520z" />
    <glyph glyph-name="Ibreve" unicode="&#x12c;" horiz-adv-x="303" 
d="M74 700h156v-700h-156v700zM100 900q0 -23 13.5 -37.5t39.5 -14.5q25 0 38.5 14.5t13.5 37.5h120q0 -66 -46.5 -106t-125.5 -40q-80 0 -126.5 40t-46.5 106h120z" />
    <glyph glyph-name="ibreve" unicode="&#x12d;" horiz-adv-x="279" 
d="M140 670q20 0 31 13.5t11 36.5h118q1 -66 -42 -105t-118 -39q-74 0 -117.5 39t-43.5 105h119q0 -23 11 -36.5t31 -13.5zM65 520h149v-520h-149v520z" />
    <glyph glyph-name="Iogonek" unicode="&#x12e;" horiz-adv-x="303" 
d="M74 700h156v-700h-156v700zM185 -185q-45 0 -71 22.5t-26 62.5t24 77t66 63l52 -40q-26 -24 -36 -43.5t-10 -37.5q0 -14 6.5 -21t17.5 -7q6 0 11.5 2t10.5 4v-75q-22 -7 -45 -7z" />
    <glyph glyph-name="iogonek" unicode="&#x12f;" horiz-adv-x="275" 
d="M136 590q-38 0 -61 20.5t-23 55.5q0 34 23 55.5t61 21.5t62.5 -21.5t24.5 -55.5q0 -35 -24.5 -55.5t-62.5 -20.5zM63 520h149v-520h-149v520zM167 -185q-45 0 -71 22.5t-26 62.5t24 77t66 63l52 -40q-26 -24 -36 -43.5t-10 -37.5q0 -14 6.5 -21t17.5 -7q6 0 11.5 2
t10.5 4v-75q-22 -7 -45 -7z" />
    <glyph glyph-name="Idotaccent" unicode="&#x130;" horiz-adv-x="303" 
d="M74 700h156v-700h-156v700zM150 767q-37 0 -60 21t-23 54q0 34 23 54.5t60 20.5q39 0 63 -20.5t24 -54.5q0 -33 -24 -54t-63 -21z" />
    <glyph glyph-name="dotlessi" unicode="&#x131;" horiz-adv-x="275" 
d="M63 520h149v-520h-149v520z" />
    <glyph glyph-name="IJ" unicode="&#x132;" horiz-adv-x="641" 
d="M396 -13q-28 0 -53 4t-48 12v147q27 -21 64 -21q38 0 55.5 22.5t17.5 63.5v485h157v-507q0 -103 -51 -154.5t-142 -51.5zM72 700h157v-700h-157v700z" />
    <glyph glyph-name="ij" unicode="&#x133;" horiz-adv-x="553" 
d="M137 590q-38 0 -61.5 20.5t-23.5 55.5q0 34 23.5 55.5t61.5 21.5q39 0 63.5 -21.5t24.5 -55.5q0 -35 -24.5 -55.5t-63.5 -20.5zM413 590q-38 0 -61.5 20.5t-23.5 55.5q0 34 23.5 55.5t61.5 21.5q39 0 63.5 -21.5t24.5 -55.5q0 -35 -24.5 -55.5t-63.5 -20.5zM332 -197
q-25 0 -51.5 4.5t-51.5 13.5v122q12 -5 24.5 -8.5t26.5 -3.5q32 0 46 15.5t14 56.5v517h149v-538q0 -86 -41 -132.5t-116 -46.5zM64 520h149v-520h-149v520z" />
    <glyph glyph-name="Jcircumflex" unicode="&#x134;" horiz-adv-x="397" 
d="M129 -13q-26 0 -51 4t-48 12v146q13 -9 29.5 -14.5t36.5 -5.5q40 0 59 22.5t19 63.5v485h156v-507q0 -103 -52 -154.5t-149 -51.5zM170 899h164l110 -128h-131l-52 53h-18l-52 -53h-131z" />
    <glyph glyph-name="jcircumflex" unicode="&#x135;" horiz-adv-x="278" 
d="M190 589l-41 56h-18l-41 -56h-127l98 131h158l98 -131h-127zM59 -197q-25 0 -52.5 4.5t-51.5 13.5v122q13 -5 25.5 -8.5t26.5 -3.5q32 0 46 15.5t14 56.5v517h149v-538q0 -86 -41 -132.5t-116 -46.5z" />
    <glyph glyph-name="uni0136" unicode="&#x136;" horiz-adv-x="654" 
d="M74 700h156v-292h8l219 292h178l-261 -322l279 -378h-187l-228 328h-8v-328h-156v700zM283 -40h126l-65 -155h-97z" />
    <glyph glyph-name="uni0137" unicode="&#x137;" 
d="M63 720h149v-414h9l171 214h163l-206 -239l208 -281h-173l-162 241h-10v-241h-149v720zM235 -40h126l-65 -155h-97z" />
    <glyph glyph-name="kgreenlandic" unicode="&#x138;" 
d="M63 520h149v-214h9l171 214h163l-206 -239l208 -281h-173l-162 241h-10v-241h-149v520z" />
    <glyph glyph-name="Lacute" unicode="&#x139;" horiz-adv-x="510" 
d="M74 700h156v-564h250v-136h-406v700zM205 758h-113l55 152h139z" />
    <glyph glyph-name="lacute" unicode="&#x13a;" horiz-adv-x="275" 
d="M63 720h149v-720h-149v720zM189 762h-113l55 152h139z" />
    <glyph glyph-name="uni013B" unicode="&#x13b;" horiz-adv-x="510" 
d="M74 700h156v-564h250v-136h-406v700zM218 -40h126l-65 -155h-97z" />
    <glyph glyph-name="uni013C" unicode="&#x13c;" horiz-adv-x="275" 
d="M63 720h149v-720h-149v720zM78 -40h126l-65 -155h-97z" />
    <glyph glyph-name="Lcaron" unicode="&#x13d;" horiz-adv-x="510" 
d="M74 700h156v-564h250v-136h-406v700zM328 700h123l-39 -171h-92z" />
    <glyph glyph-name="lcaron" unicode="&#x13e;" horiz-adv-x="314" 
d="M63 720h149v-720h-149v720zM282 720h123l-39 -171h-92z" />
    <glyph glyph-name="Ldot" unicode="&#x13f;" horiz-adv-x="529" 
d="M74 700h156v-564h250v-136h-406v700zM392 295q-38 0 -61.5 20.5t-23.5 54.5t23.5 55.5t61.5 21.5q39 0 63.5 -21.5t24.5 -55.5t-24.5 -54.5t-63.5 -20.5z" />
    <glyph glyph-name="ldot" unicode="&#x140;" horiz-adv-x="438" 
d="M59 720h149v-720h-149v720zM350 295q-38 0 -61.5 20.5t-23.5 54.5t23.5 55.5t61.5 21.5q39 0 63.5 -21.5t24.5 -55.5t-24.5 -54.5t-63.5 -20.5z" />
    <glyph glyph-name="Lslash" unicode="&#x141;" horiz-adv-x="524" 
d="M18 379l69 25v296h156v-239l127 46v-116l-127 -46v-209h250v-136h-406v288l-69 -25v116z" />
    <glyph glyph-name="lslash" unicode="&#x142;" horiz-adv-x="362" 
d="M28 357l79 38v325h149v-252l78 38v-109l-78 -38v-359h-149v286l-79 -38v109z" />
    <glyph glyph-name="Nacute" unicode="&#x143;" horiz-adv-x="725" 
d="M74 700h174l248 -463h5v463h151v-700h-155l-266 497h-7v-497h-150v700zM416 759h-113l55 152h139z" />
    <glyph glyph-name="nacute" unicode="&#x144;" horiz-adv-x="613" 
d="M63 520h118q5 -15 10 -37.5t6 -39.5q33 41 79.5 64.5t102.5 23.5h4q85 0 130.5 -51.5t45.5 -146.5v-333h-149v301q0 53 -20 79t-64 26h-5q-49 0 -79 -34.5t-30 -91.5v-280h-149v520zM246 576l57 164h130l-76 -164h-111z" />
    <glyph glyph-name="uni0145" unicode="&#x145;" horiz-adv-x="725" 
d="M74 700h174l248 -463h5v463h151v-700h-155l-266 497h-7v-497h-150v700zM304 -40h126l-65 -155h-97z" />
    <glyph glyph-name="uni0146" unicode="&#x146;" horiz-adv-x="613" 
d="M63 520h118q5 -15 10 -37.5t6 -39.5q33 41 79.5 64.5t102.5 23.5h4q85 0 130.5 -51.5t45.5 -146.5v-333h-149v301q0 53 -20 79t-64 26h-5q-49 0 -79 -34.5t-30 -91.5v-280h-149v520zM253 -40h126l-65 -155h-97z" />
    <glyph glyph-name="Ncaron" unicode="&#x147;" horiz-adv-x="725" 
d="M74 700h174l248 -463h5v463h151v-700h-155l-266 497h-7v-497h-150v700zM171 898h131l52 -53h18l52 53h131l-110 -128h-164z" />
    <glyph glyph-name="ncaron" unicode="&#x148;" horiz-adv-x="613" 
d="M63 520h118q5 -15 10 -37.5t6 -39.5q33 41 79.5 64.5t102.5 23.5h4q85 0 130.5 -51.5t45.5 -146.5v-333h-149v301q0 53 -20 79t-64 26h-5q-49 0 -79 -34.5t-30 -91.5v-280h-149v520zM115 720h130l55 -56h18l55 56h130l-112 -131h-164z" />
    <glyph glyph-name="napostrophe" unicode="&#x149;" horiz-adv-x="771" 
d="M221 520h118q5 -15 10 -37.5t6 -39.5q33 41 79.5 64.5t102.5 23.5h4q85 0 130.5 -51.5t45.5 -146.5v-333h-149v301q0 53 -20 79t-64 26h-5q-49 0 -79 -34.5t-30 -91.5v-280h-149v520zM106 700h141l-113 -298h-114z" />
    <glyph glyph-name="Eng" unicode="&#x14a;" horiz-adv-x="730" 
d="M465 -198q-53 0 -101 17v146q13 -9 28.5 -15t35.5 -6q33 0 50.5 17.5t21.5 47.5l-263 456h-8v-465h-157v700h175l247 -428h8v428h156v-700q0 -98 -51.5 -148t-141.5 -50z" />
    <glyph glyph-name="eng" unicode="&#x14b;" horiz-adv-x="622" 
d="M403 -197q-26 0 -52.5 4.5t-51.5 13.5v122q13 -5 25.5 -8.5t26.5 -3.5q32 0 45.5 15.5t13.5 56.5v298q0 53 -20 79t-65 26h-4q-49 0 -79 -34.5t-30 -92.5v-279h-149v520h118q5 -15 10 -37.5t6 -39.5q33 41 79.5 64.5t102.5 23.5h4q85 0 130.5 -51.5t45.5 -146.5v-351
q0 -86 -40.5 -132.5t-115.5 -46.5z" />
    <glyph glyph-name="Omacron" unicode="&#x14c;" horiz-adv-x="761" 
d="M37 360q0 80 24.5 145t68.5 111.5t106.5 72t137.5 25.5h13q74 0 136 -25.5t106.5 -72t69.5 -112t25 -144.5v-20q0 -79 -25 -144.5t-69.5 -112t-106.5 -72t-136 -25.5h-13q-74 0 -136 26t-106.5 72.5t-69.5 111.5t-25 144v20zM199 340q0 -50 13 -90.5t36.5 -69t55.5 -43.5
t71 -15h11q39 0 71.5 15t55.5 43.5t36 69t13 90.5v20q0 50 -13 90t-36 68.5t-55.5 43.5t-71.5 15h-11q-39 0 -71 -15t-55.5 -43.5t-36.5 -68.5t-13 -90v-20zM231 890h299v-100h-299v100z" />
    <glyph glyph-name="omacron" unicode="&#x14d;" horiz-adv-x="599" 
d="M294 -11q-58 0 -107 19t-83.5 52.5t-54 80.5t-19.5 104v30q0 57 19.5 104t54 80.5t83.5 52.5t107 19h10q59 0 107.5 -19t83 -52.5t54 -80.5t19.5 -104v-30q0 -57 -19.5 -104t-54 -80.5t-83 -52.5t-107.5 -19h-10zM304 100q50 0 80 41t30 110v23q0 67 -30 106.5t-80 39.5
h-10q-50 0 -80 -39.5t-30 -106.5v-23q0 -69 30 -110t80 -41h10zM150 724h299v-106h-299v106z" />
    <glyph glyph-name="Obreve" unicode="&#x14e;" horiz-adv-x="761" 
d="M37 360q0 80 24.5 145t68.5 111.5t106.5 72t137.5 25.5h13q74 0 136 -25.5t106.5 -72t69.5 -112t25 -144.5v-20q0 -79 -25 -144.5t-69.5 -112t-106.5 -72t-136 -25.5h-13q-74 0 -136 26t-106.5 72.5t-69.5 111.5t-25 144v20zM199 340q0 -50 13 -90.5t36.5 -69t55.5 -43.5
t71 -15h11q39 0 71.5 15t55.5 43.5t36 69t13 90.5v20q0 50 -13 90t-36 68.5t-55.5 43.5t-71.5 15h-11q-39 0 -71 -15t-55.5 -43.5t-36.5 -68.5t-13 -90v-20zM328 900q0 -23 13.5 -37.5t39.5 -14.5q25 0 38.5 14.5t13.5 37.5h120q0 -66 -46.5 -106t-125.5 -40
q-80 0 -126.5 40t-46.5 106h120z" />
    <glyph glyph-name="obreve" unicode="&#x14f;" horiz-adv-x="599" 
d="M294 -11q-58 0 -107 19t-83.5 52.5t-54 80.5t-19.5 104v30q0 57 19.5 104t54 80.5t83.5 52.5t107 19h10q59 0 107.5 -19t83 -52.5t54 -80.5t19.5 -104v-30q0 -57 -19.5 -104t-54 -80.5t-83 -52.5t-107.5 -19h-10zM304 100q50 0 80 41t30 110v23q0 67 -30 106.5t-80 39.5
h-10q-50 0 -80 -39.5t-30 -106.5v-23q0 -69 30 -110t80 -41h10zM245 720q0 -23 14 -37.5t39 -14.5q26 0 39.5 14.5t13.5 37.5h119q0 -66 -46 -106t-126 -40q-79 0 -125.5 40t-46.5 106h119z" />
    <glyph glyph-name="Ohungarumlaut" unicode="&#x150;" horiz-adv-x="761" 
d="M37 360q0 80 24.5 145t68.5 111.5t106.5 72t137.5 25.5h13q74 0 136 -25.5t106.5 -72t69.5 -112t25 -144.5v-20q0 -79 -25 -144.5t-69.5 -112t-106.5 -72t-136 -25.5h-13q-74 0 -136 26t-106.5 72.5t-69.5 111.5t-25 144v20zM199 340q0 -50 13 -90.5t36.5 -69t55.5 -43.5
t71 -15h11q39 0 71.5 15t55.5 43.5t36 69t13 90.5v20q0 50 -13 90t-36 68.5t-55.5 43.5t-71.5 15h-11q-39 0 -71 -15t-55.5 -43.5t-36.5 -68.5t-13 -90v-20zM227 757l56 152h139l-75 -152h-120zM413 757l55 152h139l-75 -152h-119z" />
    <glyph glyph-name="ohungarumlaut" unicode="&#x151;" horiz-adv-x="599" 
d="M294 -11q-58 0 -107 19t-83.5 52.5t-54 80.5t-19.5 104v30q0 57 19.5 104t54 80.5t83.5 52.5t107 19h10q59 0 107.5 -19t83 -52.5t54 -80.5t19.5 -104v-30q0 -57 -19.5 -104t-54 -80.5t-83 -52.5t-107.5 -19h-10zM304 100q50 0 80 41t30 110v23q0 67 -30 106.5t-80 39.5
h-10q-50 0 -80 -39.5t-30 -106.5v-23q0 -69 30 -110t80 -41h10zM201 742h130l-67 -165h-110zM382 742h130l-67 -165h-110z" />
    <glyph glyph-name="OE" unicode="&#x152;" horiz-adv-x="964" 
d="M902 700v-130h-253v-154h233v-129h-233v-157h263v-130h-413q-50 -14 -104 -14h-13q-76 0 -139.5 26t-109 72.5t-71 111.5t-25.5 144v20q0 80 25 145t70.5 111.5t109 72t140.5 25.5h13q56 0 104 -15v1h403zM499 535q-37 42 -105 42h-11q-40 0 -74 -15t-58.5 -43.5
t-38 -68.5t-13.5 -90v-20q0 -50 13.5 -90.5t38 -69t58.5 -43.5t74 -15h11q66 0 105 37v376z" />
    <glyph glyph-name="oe" unicode="&#x153;" horiz-adv-x="944" 
d="M679 -11q-60 0 -107.5 22t-80.5 60q-34 -38 -83 -60t-110 -22h-8q-57 0 -104.5 19t-82 53t-54 81t-19.5 103v30q0 56 19.5 103t54 81t82 53t104.5 19h8q62 0 111.5 -22t83.5 -61q32 38 79 60t104 22h8q51 0 94 -17.5t73.5 -49t48 -75t17.5 -95.5v-74h-358q6 -51 40 -81
t85 -30h6q42 0 78 18t59 44l74 -93q-18 -19 -42.5 -35t-52 -28t-56.5 -18.5t-58 -6.5h-13zM776 310v3q-2 51 -29.5 79.5t-70.5 28.5h-3q-43 0 -71.5 -29t-37.5 -82h212zM304 100q50 0 81 41t31 110v23q0 66 -31 106t-81 40h-7q-51 0 -81.5 -40t-30.5 -106v-23
q0 -69 30.5 -110t81.5 -41h7z" />
    <glyph glyph-name="Racute" unicode="&#x154;" horiz-adv-x="648" 
d="M74 700h267q116 0 182 -58t66 -161v-10q0 -68 -32 -119.5t-86 -74.5l164 -277h-181l-134 246h-90v-246h-156v700zM314 364q57 0 88.5 28t31.5 74v8q0 46 -31 71t-88 25h-90v-206h89zM368 761h-113l55 152h139z" />
    <glyph glyph-name="racute" unicode="&#x155;" horiz-adv-x="385" 
d="M63 520h117q5 -15 9.5 -35t5.5 -37q29 34 69 53t88 19h15v-140q-18 5 -43 5q-54 0 -83 -28.5t-29 -82.5v-274h-149v520zM162 574l57 164h130l-76 -164h-111z" />
    <glyph glyph-name="uni0156" unicode="&#x156;" horiz-adv-x="648" 
d="M74 700h267q116 0 182 -58t66 -161v-10q0 -68 -32 -119.5t-86 -74.5l164 -277h-181l-134 246h-90v-246h-156v700zM314 364q57 0 88.5 28t31.5 74v8q0 46 -31 71t-88 25h-90v-206h89zM277 -40h126l-65 -155h-97z" />
    <glyph glyph-name="uni0157" unicode="&#x157;" horiz-adv-x="385" 
d="M63 520h117q5 -15 9.5 -35t5.5 -37q29 34 69 53t88 19h15v-140q-18 5 -43 5q-54 0 -83 -28.5t-29 -82.5v-274h-149v520zM78 -40h126l-65 -155h-97z" />
    <glyph glyph-name="Rcaron" unicode="&#x158;" horiz-adv-x="648" 
d="M74 700h267q116 0 182 -58t66 -161v-10q0 -68 -32 -119.5t-86 -74.5l164 -277h-181l-134 246h-90v-246h-156v700zM314 364q57 0 88.5 28t31.5 74v8q0 46 -31 71t-88 25h-90v-206h89zM124 900h131l52 -53h18l52 53h131l-110 -128h-164z" />
    <glyph glyph-name="rcaron" unicode="&#x159;" horiz-adv-x="385" 
d="M63 520h117q5 -15 9.5 -35t5.5 -37q29 34 69 53t88 19h15v-140q-18 5 -43 5q-54 0 -83 -28.5t-29 -82.5v-274h-149v520zM10 720h130l55 -56h18l55 56h130l-112 -131h-164z" />
    <glyph glyph-name="Sacute" unicode="&#x15a;" horiz-adv-x="584" 
d="M297 -12q-76 0 -148 25.5t-127 70.5l83 124q42 -39 97.5 -58t103.5 -19q96 0 96 66q0 25 -14 40t-41 26.5t-65.5 23t-88.5 29.5q-30 11 -57.5 26.5t-48 38t-32.5 54t-12 75.5q0 45 17.5 82t49 64t74.5 42t93 15q75 0 137 -22.5t120 -64.5l-82 -123q-39 35 -86.5 51.5
t-87.5 16.5q-42 0 -63 -17.5t-21 -46.5q0 -21 13 -35t35.5 -24t53 -19t66.5 -20t71.5 -26t63 -38t45 -57t17.5 -83t-18.5 -89.5t-52.5 -68.5t-82.5 -43.5t-108.5 -15.5zM342 761h-113l55 152h139z" />
    <glyph glyph-name="sacute" unicode="&#x15b;" horiz-adv-x="487" 
d="M264 -12q-71 0 -132 19t-112 54l70 107q31 -28 78 -45t90 -17q68 0 68 46q0 17 -10 26t-30 15.5t-50 14.5t-70 22q-24 8 -47 18.5t-40.5 26.5t-28.5 39.5t-11 56.5q0 75 52.5 118t143.5 43q57 0 110.5 -17.5t97.5 -49.5l-70 -101q-29 23 -67 37t-76 14q-58 0 -58 -41
q0 -15 9.5 -24t25.5 -16t37 -11.5t45 -10.5q31 -8 62.5 -18.5t57 -28.5t41.5 -45.5t16 -68.5q0 -75 -55 -119t-147 -44zM177 576l57 164h130l-76 -164h-111z" />
    <glyph glyph-name="Scircumflex" unicode="&#x15c;" horiz-adv-x="584" 
d="M297 -12q-76 0 -148 25.5t-127 70.5l83 124q42 -39 97.5 -58t103.5 -19q96 0 96 66q0 25 -14 40t-41 26.5t-65.5 23t-88.5 29.5q-30 11 -57.5 26.5t-48 38t-32.5 54t-12 75.5q0 45 17.5 82t49 64t74.5 42t93 15q75 0 137 -22.5t120 -64.5l-82 -123q-39 35 -86.5 51.5
t-87.5 16.5q-42 0 -63 -17.5t-21 -46.5q0 -21 13 -35t35.5 -24t53 -19t66.5 -20t71.5 -26t63 -38t45 -57t17.5 -83t-18.5 -89.5t-52.5 -68.5t-82.5 -43.5t-108.5 -15.5zM207 900h164l110 -128h-131l-52 53h-18l-52 -53h-131z" />
    <glyph glyph-name="scircumflex" unicode="&#x15d;" horiz-adv-x="487" 
d="M264 -12q-71 0 -132 19t-112 54l70 107q31 -28 78 -45t90 -17q68 0 68 46q0 17 -10 26t-30 15.5t-50 14.5t-70 22q-24 8 -47 18.5t-40.5 26.5t-28.5 39.5t-11 56.5q0 75 52.5 118t143.5 43q57 0 110.5 -17.5t97.5 -49.5l-70 -101q-29 23 -67 37t-76 14q-58 0 -58 -41
q0 -15 9.5 -24t25.5 -16t37 -11.5t45 -10.5q31 -8 62.5 -18.5t57 -28.5t41.5 -45.5t16 -68.5q0 -75 -55 -119t-147 -44zM304 589l-55 56h-18l-55 -56h-130l112 131h164l112 -131h-130z" />
    <glyph glyph-name="Scedilla" unicode="&#x15e;" horiz-adv-x="584" 
d="M297 -12q-76 0 -148 25.5t-127 70.5l83 124q42 -39 97.5 -58t103.5 -19q96 0 96 66q0 25 -14 40t-41 26.5t-65.5 23t-88.5 29.5q-30 11 -57.5 26.5t-48 38t-32.5 54t-12 75.5q0 45 17.5 82t49 64t74.5 42t93 15q75 0 137 -22.5t120 -64.5l-82 -123q-39 35 -86.5 51.5
t-87.5 16.5q-42 0 -63 -17.5t-21 -46.5q0 -21 13 -35t35.5 -24t53 -19t66.5 -20t71.5 -26t63 -38t45 -57t17.5 -83t-18.5 -89.5t-52.5 -68.5t-82.5 -43.5t-108.5 -15.5zM254 -185q-28 0 -55 7l8 75q13 -5 26 -5q16 0 23 6.5t7 14.5q0 11 -9 19t-34 8l25 60h82l-14 -28
q26 -9 39 -27t13 -42q0 -16 -7 -31.5t-21 -28t-35 -20.5t-48 -8z" />
    <glyph glyph-name="scedilla" unicode="&#x15f;" horiz-adv-x="487" 
d="M264 -12q-71 0 -132 19t-112 54l70 107q31 -28 78 -45t90 -17q68 0 68 46q0 17 -10 26t-30 15.5t-50 14.5t-70 22q-24 8 -47 18.5t-40.5 26.5t-28.5 39.5t-11 56.5q0 75 52.5 118t143.5 43q57 0 110.5 -17.5t97.5 -49.5l-70 -101q-29 23 -67 37t-76 14q-58 0 -58 -41
q0 -15 9.5 -24t25.5 -16t37 -11.5t45 -10.5q31 -8 62.5 -18.5t57 -28.5t41.5 -45.5t16 -68.5q0 -75 -55 -119t-147 -44zM218 -185q-28 0 -55 7l8 75q13 -5 26 -5q16 0 23 6.5t7 14.5q0 11 -9 19t-34 8l25 60h82l-14 -28q26 -9 39 -27t13 -42q0 -16 -7 -31.5t-21 -28
t-35 -20.5t-48 -8z" />
    <glyph glyph-name="Scaron" unicode="&#x160;" horiz-adv-x="584" 
d="M297 -12q-76 0 -148 25.5t-127 70.5l83 124q42 -39 97.5 -58t103.5 -19q96 0 96 66q0 25 -14 40t-41 26.5t-65.5 23t-88.5 29.5q-30 11 -57.5 26.5t-48 38t-32.5 54t-12 75.5q0 45 17.5 82t49 64t74.5 42t93 15q75 0 137 -22.5t120 -64.5l-82 -123q-39 35 -86.5 51.5
t-87.5 16.5q-42 0 -63 -17.5t-21 -46.5q0 -21 13 -35t35.5 -24t53 -19t66.5 -20t71.5 -26t63 -38t45 -57t17.5 -83t-18.5 -89.5t-52.5 -68.5t-82.5 -43.5t-108.5 -15.5zM97 900h131l52 -53h18l52 53h131l-110 -128h-164z" />
    <glyph glyph-name="scaron" unicode="&#x161;" horiz-adv-x="487" 
d="M264 -12q-71 0 -132 19t-112 54l70 107q31 -28 78 -45t90 -17q68 0 68 46q0 17 -10 26t-30 15.5t-50 14.5t-70 22q-24 8 -47 18.5t-40.5 26.5t-28.5 39.5t-11 56.5q0 75 52.5 118t143.5 43q57 0 110.5 -17.5t97.5 -49.5l-70 -101q-29 23 -67 37t-76 14q-58 0 -58 -41
q0 -15 9.5 -24t25.5 -16t37 -11.5t45 -10.5q31 -8 62.5 -18.5t57 -28.5t41.5 -45.5t16 -68.5q0 -75 -55 -119t-147 -44zM48 720h130l55 -56h18l55 56h130l-112 -131h-164z" />
    <glyph glyph-name="uni0162" unicode="&#x162;" horiz-adv-x="547" 
d="M195 564h-175v136h507v-136h-175v-564h-157v564zM236 -185q-28 0 -55 7l8 75q13 -5 26 -5q16 0 23 6.5t7 14.5q0 11 -9 19t-34 8l25 60h82l-14 -28q26 -9 39 -27t13 -42q0 -16 -7 -31.5t-21 -28t-35 -20.5t-48 -8z" />
    <glyph glyph-name="uni0163" unicode="&#x163;" horiz-adv-x="394" 
d="M243 -7q-72 0 -115 41t-43 129v242h-68v99q14 5 32.5 9t35.5 6v121l148 18v-138h136v-115h-137v-214q0 -41 14.5 -57t43.5 -16q17 0 42 4t40 7v-113q-26 -11 -63 -17t-66 -6zM199 -185q-28 0 -55 7l8 75q13 -5 26 -5q16 0 23 6.5t7 14.5q0 11 -9 19t-34 8l25 60h82
l-14 -28q26 -9 39 -27t13 -42q0 -16 -7 -31.5t-21 -28t-35 -20.5t-48 -8z" />
    <glyph glyph-name="Tcaron" unicode="&#x164;" horiz-adv-x="547" 
d="M195 564h-175v136h507v-136h-175v-564h-157v564zM82 900h131l52 -53h18l52 53h131l-110 -128h-164z" />
    <glyph glyph-name="tcaron" unicode="&#x165;" horiz-adv-x="409" 
d="M243 -7q-72 0 -115 41t-43 129v242h-68v99q14 5 32.5 9t35.5 6v121l148 18v-138h136v-115h-137v-214q0 -41 14.5 -57t43.5 -16q17 0 42 4t40 7v-113q-26 -11 -63 -17t-66 -6zM316 723h123l-39 -171h-92z" />
    <glyph glyph-name="Tbar" unicode="&#x166;" horiz-adv-x="547" 
d="M93 402h102v162h-175v136h507v-136h-175v-162h103v-106h-103v-296h-157v296h-102v106z" />
    <glyph glyph-name="tbar" unicode="&#x167;" horiz-adv-x="394" 
d="M22 330h58v75h-68v99q14 5 32.5 9t35.5 6v121l148 18v-138h136v-115h-137v-75h117v-99h-117v-40q0 -41 14.5 -57t43.5 -16q17 0 42 4t40 7v-113q-26 -11 -63 -17t-66 -6q-72 0 -115 41t-43 129v68h-58v99z" />
    <glyph glyph-name="Utilde" unicode="&#x168;" horiz-adv-x="700" 
d="M351 -13q-136 0 -210 70t-74 199v444h156v-436q0 -66 35.5 -100.5t93.5 -34.5q57 0 91.5 34.5t34.5 100.5v436h156v-444q0 -66 -20 -116.5t-56.5 -84t-89 -51t-117.5 -17.5zM147 840q19 36 52.5 56t72.5 20q23 0 43.5 -6.5t48.5 -19.5q19 -8 37.5 -15t38.5 -7q23 0 41 10
t29 27l46 -65q-20 -36 -53.5 -56t-71.5 -20q-20 0 -41 6.5t-53 20.5q-21 9 -39 14.5t-35 5.5q-49 0 -71 -37z" />
    <glyph glyph-name="utilde" unicode="&#x169;" horiz-adv-x="607" 
d="M228 -11q-84 0 -129 51.5t-45 146.5v333h149v-300q0 -106 82 -106h4q48 0 77 34.5t29 92.5v279h149v-520h-118q-5 14 -9 36t-6 40q-32 -40 -78 -63.5t-101 -23.5h-4zM91 662q19 35 52.5 55.5t73.5 20.5q22 0 42.5 -6.5t48.5 -19.5q20 -8 38 -15t39 -7q45 0 70 37l45 -66
q-20 -35 -53 -55.5t-71 -20.5q-21 0 -42 7t-53 21q-21 9 -39 14.5t-35 5.5q-23 0 -41.5 -10t-29.5 -27z" />
    <glyph glyph-name="Umacron" unicode="&#x16a;" horiz-adv-x="700" 
d="M351 -13q-136 0 -210 70t-74 199v444h156v-436q0 -66 35.5 -100.5t93.5 -34.5q57 0 91.5 34.5t34.5 100.5v436h156v-444q0 -66 -20 -116.5t-56.5 -84t-89 -51t-117.5 -17.5zM202 890h299v-100h-299v100z" />
    <glyph glyph-name="umacron" unicode="&#x16b;" horiz-adv-x="607" 
d="M228 -11q-84 0 -129 51.5t-45 146.5v333h149v-300q0 -106 82 -106h4q48 0 77 34.5t29 92.5v279h149v-520h-118q-5 14 -9 36t-6 40q-32 -40 -78 -63.5t-101 -23.5h-4zM149 724h299v-106h-299v106z" />
    <glyph glyph-name="Ubreve" unicode="&#x16c;" horiz-adv-x="700" 
d="M351 -13q-136 0 -210 70t-74 199v444h156v-436q0 -66 35.5 -100.5t93.5 -34.5q57 0 91.5 34.5t34.5 100.5v436h156v-444q0 -66 -20 -116.5t-56.5 -84t-89 -51t-117.5 -17.5zM299 900q0 -23 13.5 -37.5t39.5 -14.5q25 0 38.5 14.5t13.5 37.5h120q0 -66 -46.5 -106
t-125.5 -40q-80 0 -126.5 40t-46.5 106h120z" />
    <glyph glyph-name="ubreve" unicode="&#x16d;" horiz-adv-x="607" 
d="M228 -11q-84 0 -129 51.5t-45 146.5v333h149v-300q0 -106 82 -106h4q48 0 77 34.5t29 92.5v279h149v-520h-118q-5 14 -9 36t-6 40q-32 -40 -78 -63.5t-101 -23.5h-4zM244 720q0 -23 14 -37.5t39 -14.5q26 0 39.5 14.5t13.5 37.5h119q0 -66 -46 -106t-126 -40
q-79 0 -125.5 40t-46.5 106h119z" />
    <glyph glyph-name="Uring" unicode="&#x16e;" horiz-adv-x="700" 
d="M351 -13q-136 0 -210 70t-74 199v444h156v-436q0 -66 35.5 -100.5t93.5 -34.5q57 0 91.5 34.5t34.5 100.5v436h156v-444q0 -66 -20 -116.5t-56.5 -84t-89 -51t-117.5 -17.5zM352 738q-51 0 -81.5 26.5t-30.5 68.5q0 45 30.5 72.5t81.5 27.5q48 0 78.5 -27.5t30.5 -72.5
q0 -42 -30.5 -68.5t-78.5 -26.5zM350 800q17 0 28 9.5t11 25.5t-11 26.5t-28 10.5t-27.5 -10.5t-10.5 -26.5t10.5 -25.5t27.5 -9.5z" />
    <glyph glyph-name="uring" unicode="&#x16f;" horiz-adv-x="607" 
d="M228 -11q-84 0 -129 51.5t-45 146.5v333h149v-300q0 -106 82 -106h4q48 0 77 34.5t29 92.5v279h149v-520h-118q-5 14 -9 36t-6 40q-32 -40 -78 -63.5t-101 -23.5h-4zM298 574q-49 0 -80 26.5t-31 68.5q0 45 31 72.5t80 27.5q48 0 78.5 -27.5t30.5 -72.5
q0 -42 -30.5 -68.5t-78.5 -26.5zM297 636q17 0 28 9.5t11 25.5t-11 26.5t-28 10.5t-28 -10.5t-11 -26.5t11 -25.5t28 -9.5z" />
    <glyph glyph-name="Uhungarumlaut" unicode="&#x170;" horiz-adv-x="700" 
d="M351 -13q-136 0 -210 70t-74 199v444h156v-436q0 -66 35.5 -100.5t93.5 -34.5q57 0 91.5 34.5t34.5 100.5v436h156v-444q0 -66 -20 -116.5t-56.5 -84t-89 -51t-117.5 -17.5zM198 757l56 152h139l-75 -152h-120zM384 757l55 152h139l-75 -152h-119z" />
    <glyph glyph-name="uhungarumlaut" unicode="&#x171;" horiz-adv-x="607" 
d="M228 -11q-84 0 -129 51.5t-45 146.5v333h149v-300q0 -106 82 -106h4q48 0 77 34.5t29 92.5v279h149v-520h-118q-5 14 -9 36t-6 40q-32 -40 -78 -63.5t-101 -23.5h-4zM200 742h130l-67 -165h-110zM381 742h130l-67 -165h-110z" />
    <glyph glyph-name="Uogonek" unicode="&#x172;" horiz-adv-x="700" 
d="M426 -178q-22 -7 -45 -7q-45 0 -71 22t-26 60q0 47 38 91q-122 8 -188.5 77.5t-66.5 190.5v444h156v-436q0 -66 35.5 -100.5t93.5 -34.5q57 0 91.5 34.5t34.5 100.5v436h156v-444q0 -106 -48.5 -170.5t-136.5 -87.5q-29 -11 -49.5 -30t-20.5 -46q0 -31 26 -31q5 0 10.5 2
t10.5 4v-75z" />
    <glyph glyph-name="uogonek" unicode="&#x173;" horiz-adv-x="607" 
d="M228 -11q-84 0 -129 51.5t-45 146.5v333h149v-300q0 -106 82 -106h4q48 0 77 34.5t29 92.5v279h149v-520h-118q-5 14 -9 36t-6 40q-32 -40 -78 -63.5t-101 -23.5h-4zM500 -185q-45 0 -71 22.5t-26 62.5t24 77t66 63l52 -40q-26 -24 -36 -43.5t-10 -37.5q0 -14 6.5 -21
t17.5 -7q6 0 11.5 2t10.5 4v-75q-22 -7 -45 -7z" />
    <glyph glyph-name="Wcircumflex" unicode="&#x174;" horiz-adv-x="923" 
d="M15 700h159l91 -520h8l124 520h127l125 -520h8l92 520h159l-149 -700h-192l-103 436h-6l-104 -436h-192zM379 900h164l110 -128h-131l-52 53h-18l-52 -53h-131z" />
    <glyph glyph-name="wcircumflex" unicode="&#x175;" horiz-adv-x="793" 
d="M16 520h148l62 -362h10l95 362h131l95 -362h10l61 362h149l-113 -520h-171l-95 336h-4l-94 -336h-171zM461 589l-55 56h-18l-55 -56h-130l112 131h164l112 -131h-130z" />
    <glyph glyph-name="Ycircumflex" unicode="&#x176;" horiz-adv-x="622" 
d="M233 273l-239 427h180l134 -281h7l133 281h179l-237 -427v-273h-157v273zM229 900h164l110 -128h-131l-52 53h-18l-52 -53h-131z" />
    <glyph glyph-name="ycircumflex" unicode="&#x177;" horiz-adv-x="547" 
d="M155 -204q-25 0 -52 4.5t-50 15.5v126q16 -11 35.5 -17t40.5 -6q27 0 50 15t38 45l-213 541h155l132 -382h7l99 382h150l-175 -548q-27 -83 -80 -129.5t-137 -46.5zM344 589l-55 56h-18l-55 -56h-130l112 131h164l112 -131h-130z" />
    <glyph glyph-name="Ydieresis" unicode="&#x178;" horiz-adv-x="622" 
d="M233 273l-239 427h180l134 -281h7l133 281h179l-237 -427v-273h-157v273zM221 758q-30 0 -48.5 19t-18.5 51t18.5 51.5t48.5 19.5t50.5 -19.5t20.5 -51.5t-20.5 -51t-50.5 -19zM399 758q-31 0 -49.5 19t-18.5 51t18.5 51.5t49.5 19.5q30 0 50 -19.5t20 -51.5t-20 -51
t-50 -19z" />
    <glyph glyph-name="Zacute" unicode="&#x179;" horiz-adv-x="567" 
d="M26 117l317 441v6h-298v136h488v-117l-314 -438v-9h322v-136h-515v117zM337 758h-113l55 152h139z" />
    <glyph glyph-name="zacute" unicode="&#x17a;" horiz-adv-x="484" 
d="M23 108l252 291v6h-236v115h411v-108l-252 -291v-6h262v-115h-437v108zM179 576l57 164h130l-76 -164h-111z" />
    <glyph glyph-name="Zdotaccent" unicode="&#x17b;" horiz-adv-x="567" 
d="M26 117l317 441v6h-298v136h488v-117l-314 -438v-9h322v-136h-515v117zM283 764q-37 0 -60 21t-23 54q0 34 23 54.5t60 20.5q39 0 63 -20.5t24 -54.5q0 -33 -24 -54t-63 -21z" />
    <glyph glyph-name="zdotaccent" unicode="&#x17c;" horiz-adv-x="484" 
d="M23 108l252 291v6h-236v115h411v-108l-252 -291v-6h262v-115h-437v108zM242 593q-38 0 -61.5 20.5t-23.5 55.5q0 34 23.5 55.5t61.5 21.5q39 0 63.5 -21.5t24.5 -55.5q0 -35 -24.5 -55.5t-63.5 -20.5z" />
    <glyph glyph-name="Zcaron" unicode="&#x17d;" horiz-adv-x="567" 
d="M26 117l317 441v6h-298v136h488v-117l-314 -438v-9h322v-136h-515v117zM93 897h131l52 -53h18l52 53h131l-110 -128h-164z" />
    <glyph glyph-name="zcaron" unicode="&#x17e;" horiz-adv-x="484" 
d="M23 108l252 291v6h-236v115h411v-108l-252 -291v-6h262v-115h-437v108zM49 720h130l55 -56h18l55 56h130l-112 -131h-164z" />
    <glyph glyph-name="longs" unicode="&#x17f;" horiz-adv-x="294" 
d="M63 539q0 85 40 132t114 47q27 0 61 -5.5t57 -15.5v-111q-37 17 -68 17q-29 0 -42 -17t-13 -58v-528h-149v539z" />
    <glyph glyph-name="uni018F" unicode="&#x18f;" horiz-adv-x="730" 
d="M533 406q-12 78 -58 124t-118 46h-13q-54 0 -96.5 -25t-72.5 -71l-110 90q51 66 125.5 104t167.5 38h6q70 0 130 -26t104.5 -73t69.5 -112t25 -142v-19q0 -78 -24 -142.5t-67.5 -111t-104 -72.5t-133.5 -26h-5q-72 0 -132 25.5t-103.5 71.5t-68 110t-25.5 141v70h503z
M191 293q8 -81 52 -127.5t115 -46.5h11q71 0 115 46.5t52 127.5h-345z" />
    <glyph glyph-name="florin" unicode="&#x192;" horiz-adv-x="372" 
d="M77 -197q-26 0 -53 4.5t-52 13.5v122q13 -5 25.5 -8.5t26.5 -3.5q32 0 46 15.5t14 56.5v400h-65v93q14 5 31.5 9t33.5 6v28q0 85 39.5 132t113.5 47q27 0 61.5 -5.5t57.5 -15.5v-111q-19 8 -38.5 12.5t-36.5 4.5q-30 0 -43.5 -17t-13.5 -55v-18h128v-110h-119v-423
q-1 -85 -41.5 -131t-114.5 -46z" />
    <glyph glyph-name="uni01CD" unicode="&#x1cd;" horiz-adv-x="650" 
d="M226 700h200l231 -700h-167l-43 146h-244l-43 -146h-167zM413 271l-82 267h-11l-83 -267h176zM133 900h131l52 -53h18l52 53h131l-110 -128h-164z" />
    <glyph glyph-name="uni01CE" unicode="&#x1ce;" 
d="M205 -11q-38 0 -69.5 11t-54.5 31t-36 48.5t-13 62.5v12q0 84 71 126t220 42h39v15q0 36 -22 57.5t-66 21.5h-5q-36 0 -75.5 -12.5t-80.5 -38.5l-56 102q47 30 105 47t118 17h9q100 0 156.5 -52.5t56.5 -146.5v-213q0 -32 5 -61t13 -58h-139q-9 25 -14 59
q-29 -33 -71.5 -51.5t-90.5 -18.5zM243 102q33 0 64.5 14.5t54.5 40.5v78h-30q-81 0 -120 -18t-39 -54v-5q0 -25 19 -40.5t51 -15.5zM89 720h130l55 -56h18l55 56h130l-112 -131h-164z" />
    <glyph glyph-name="uni01DD" unicode="&#x1dd;" horiz-adv-x="564" 
d="M272 530q59 0 107 -18.5t82.5 -53t53.5 -82t19 -106.5v-19q0 -58 -19 -106t-53 -82.5t-81 -54t-103 -19.5h-13q-52 0 -96 17.5t-75.5 49t-49 75t-17.5 95.5v74h362q-5 52 -39 81.5t-88 29.5h-9q-44 0 -78.5 -18t-57.5 -44l-74 93q38 38 95.5 63t117.5 25h16zM168 209v-3
q2 -51 29 -79.5t70 -28.5h10q44 0 72 29t36 82h-217z" />
    <glyph glyph-name="uni01F4" unicode="&#x1f4;" horiz-adv-x="736" 
d="M323 751l62 153h142l-85 -165zM348 -11q-71 0 -128 25t-97.5 71t-62.5 111t-22 144v19q0 79 25 144t69.5 111.5t107 72.5t137.5 26h12q85 0 158 -41t120 -117l-123 -78q-56 94 -153 94h-11q-40 0 -73 -15.5t-57 -43.5t-37 -67t-13 -86v-20q0 -48 13 -86.5t36.5 -66
t57.5 -42.5t76 -15h11q30 0 56.5 9t46 24t31 35t11.5 42v12h-144v128h286v-379h-112q-6 11 -11.5 33.5t-6.5 43.5q-12 -19 -31.5 -35t-45 -28t-55 -18.5t-59.5 -6.5h-12z" />
    <glyph glyph-name="uni01F5" unicode="&#x1f5;" horiz-adv-x="550" 
d="M200 578l58 164h129l-75 -164h-112zM29 345q0 40 17 74t47.5 59t72 39t90.5 14h30q51 0 97 -16q6 17 13 32t15 26h133l-65 -125q17 -22 26 -48t9 -55v-11q0 -40 -17.5 -74.5t-48 -59t-72 -38.5t-90.5 -14h-30h-7v-47h7h47q51 0 93 -11t73 -30.5t48 -47.5t17 -61v-10
q0 -34 -17.5 -62t-48.5 -48t-74 -31t-93 -11h-43q-51 0 -93.5 11t-73.5 31t-48.5 48t-17.5 62v14q0 44 30 78t81 53v88q-49 23 -78 64.5t-29 95.5v11zM174 327q0 -37 26.5 -59t63.5 -22h15q36 0 63 22.5t27 58.5v15q0 37 -27 59.5t-63 22.5h-15q-37 0 -63.5 -22t-26.5 -60
v-15zM173 -52q0 -23 24.5 -38.5t68.5 -15.5h30q45 0 69.5 16t24.5 38v10q0 23 -25 39t-69 16h-30q-44 0 -68.5 -16t-24.5 -39v-10z" />
    <glyph glyph-name="AEacute" unicode="&#x1fc;" horiz-adv-x="846" 
d="M233 700h551v-136h-256v-148h236v-129h-236v-151h266v-136h-414v146h-172l-48 -146h-167zM380 271v293h-44l-93 -293h137zM507 741h-113l55 152h139z" />
    <glyph glyph-name="aeacute" unicode="&#x1fd;" horiz-adv-x="872" 
d="M203 -10q-38 0 -69.5 11t-54 31t-35 48.5t-12.5 64.5q0 168 286 168h36q0 5 -0.5 14t-0.5 14q-3 35 -24 54t-63 19q-35 0 -74 -12t-79 -38l-56 102q47 31 103 47.5t115 16.5q47 0 86.5 -14t68.5 -48q32 29 74.5 45.5t93.5 16.5h9q52 0 96 -17.5t75.5 -49t49 -75
t17.5 -95.5v-73h-357v-1q5 -51 39 -81t86 -30h5q40 0 76.5 17.5t60.5 44.5l74 -93q-18 -19 -43 -35t-53.5 -28t-58.5 -18.5t-60 -6.5h-12q-62 0 -111.5 22.5t-84.5 61.5q-47 -47 -98 -65t-105 -18zM704 309v4q-2 51 -29.5 79.5t-69.5 28.5h-6q-42 0 -70.5 -29.5t-37.5 -82.5
h213zM358 159q-6 18 -9 39q-2 8 -2 15t-1 15h-18q-78 0 -116.5 -18.5t-38.5 -52.5q0 -24 19 -39t51 -15t63 15t52 41zM380 556l57 164h130l-76 -164h-111z" />
    <glyph glyph-name="Oslashacute" unicode="&#x1fe;" horiz-adv-x="761" 
d="M156 61q-56 48 -87.5 118.5t-31.5 160.5v20q0 80 24.5 145t69 111.5t106.5 72t137 25.5h13q73 0 131 -24l25 45h116l-54 -95q57 -48 88 -118.5t31 -161.5v-20q0 -79 -24.5 -144.5t-69 -112t-106.5 -72t-137 -25.5h-13q-71 0 -130 24l-26 -46h-116zM194 340
q0 -48 10.5 -86.5t30.5 -67.5l224 387q-33 15 -73 15h-11q-40 0 -73 -16t-57 -45t-37.5 -71t-13.5 -95v-21zM302 128q32 -16 73 -16h11q40 0 73.5 16t57.5 45.5t37.5 71.5t13.5 95v21q0 48 -11 86.5t-31 67.5zM437 758h-113l55 152h139z" />
    <glyph glyph-name="oslashacute" unicode="&#x1ff;" horiz-adv-x="599" 
d="M118 48q-42 35 -65 84.5t-23 112.5v30q0 57 19.5 104t54 80.5t83.5 52.5t107 19h10q52 0 95 -15l25 44h109l-51 -89q41 -34 63.5 -84t22.5 -112v-30q0 -57 -19.5 -104t-54 -80.5t-83 -52.5t-107.5 -19h-10q-48 0 -93 14l-27 -45h-108zM351 415q-21 9 -46 9h-11
q-55 0 -88 -40t-33 -109v-24q0 -56 21 -94zM305 96q55 0 88 42t33 113v24q0 52 -20 89l-157 -260q21 -8 45 -8h11zM237 575l57 164h130l-76 -164h-111z" />
    <glyph glyph-name="uni0218" unicode="&#x218;" horiz-adv-x="584" 
d="M297 -12q-76 0 -148 25.5t-127 70.5l83 124q42 -39 97.5 -58t103.5 -19q96 0 96 66q0 25 -14 40t-41 26.5t-65.5 23t-88.5 29.5q-30 11 -57.5 26.5t-48 38t-32.5 54t-12 75.5q0 45 17.5 82t49 64t74.5 42t93 15q75 0 137 -22.5t120 -64.5l-82 -123q-39 35 -86.5 51.5
t-87.5 16.5q-42 0 -63 -17.5t-21 -46.5q0 -21 13 -35t35.5 -24t53 -19t66.5 -20t71.5 -26t63 -38t45 -57t17.5 -83t-18.5 -89.5t-52.5 -68.5t-82.5 -43.5t-108.5 -15.5zM237 -40h126l-65 -155h-97z" />
    <glyph glyph-name="uni0219" unicode="&#x219;" horiz-adv-x="487" 
d="M264 -12q-71 0 -132 19t-112 54l70 107q31 -28 78 -45t90 -17q68 0 68 46q0 17 -10 26t-30 15.5t-50 14.5t-70 22q-24 8 -47 18.5t-40.5 26.5t-28.5 39.5t-11 56.5q0 75 52.5 118t143.5 43q57 0 110.5 -17.5t97.5 -49.5l-70 -101q-29 23 -67 37t-76 14q-58 0 -58 -41
q0 -15 9.5 -24t25.5 -16t37 -11.5t45 -10.5q31 -8 62.5 -18.5t57 -28.5t41.5 -45.5t16 -68.5q0 -75 -55 -119t-147 -44zM195 -40h126l-65 -155h-97z" />
    <glyph glyph-name="uni021A" unicode="&#x21a;" horiz-adv-x="547" 
d="M195 564h-175v136h507v-136h-175v-564h-157v564zM215 -40h126l-65 -155h-97z" />
    <glyph glyph-name="uni021B" unicode="&#x21b;" horiz-adv-x="394" 
d="M243 -7q-72 0 -115 41t-43 129v242h-68v99q14 5 32.5 9t35.5 6v121l148 18v-138h136v-115h-137v-214q0 -41 14.5 -57t43.5 -16q17 0 42 4t40 7v-113q-26 -11 -63 -17t-66 -6zM182 -40h126l-65 -155h-97z" />
    <glyph glyph-name="uni0237" unicode="&#x237;" horiz-adv-x="278" 
d="M59 -197q-25 0 -52.5 4.5t-51.5 13.5v122q13 -5 25.5 -8.5t26.5 -3.5q32 0 46 15.5t14 56.5v517h149v-538q0 -86 -41 -132.5t-116 -46.5z" />
    <glyph glyph-name="circumflex" unicode="&#x2c6;" horiz-adv-x="402" 
d="M265 589l-55 56h-18l-55 -56h-130l112 131h164l112 -131h-130z" />
    <glyph glyph-name="caron" unicode="&#x2c7;" horiz-adv-x="402" 
d="M7 720h130l55 -56h18l55 56h130l-112 -131h-164z" />
    <glyph glyph-name="breve" unicode="&#x2d8;" horiz-adv-x="362" 
d="M128 720q0 -23 14 -37.5t39 -14.5q26 0 39.5 14.5t13.5 37.5h119q0 -66 -46 -106t-126 -40q-79 0 -125.5 40t-46.5 106h119z" />
    <glyph glyph-name="dotaccent" unicode="&#x2d9;" horiz-adv-x="271" 
d="M134 590q-38 0 -61.5 20.5t-23.5 55.5q0 34 23.5 55.5t61.5 21.5q39 0 63.5 -21.5t24.5 -55.5q0 -35 -24.5 -55.5t-63.5 -20.5z" />
    <glyph glyph-name="ring" unicode="&#x2da;" horiz-adv-x="247" 
d="M123 571q-49 0 -80 26.5t-31 68.5q0 45 31 72.5t80 27.5q48 0 78.5 -27.5t30.5 -72.5q0 -42 -30.5 -68.5t-78.5 -26.5zM122 633q17 0 28 9.5t11 25.5t-11 26.5t-28 10.5t-28 -10.5t-11 -26.5t11 -25.5t28 -9.5z" />
    <glyph glyph-name="ogonek" unicode="&#x2db;" horiz-adv-x="218" 
d="M132 -185q-45 0 -71 22.5t-26 62.5t24 77t66 63l52 -40q-26 -24 -36 -43.5t-10 -37.5q0 -14 6.5 -21t17.5 -7q6 0 11.5 2t10.5 4v-75q-22 -7 -45 -7z" />
    <glyph glyph-name="tilde" unicode="&#x2dc;" horiz-adv-x="457" 
d="M24 660q19 35 52.5 55.5t73.5 20.5q22 0 42.5 -6.5t48.5 -19.5q20 -8 38 -15t39 -7q45 0 70 37l45 -66q-20 -35 -53 -55.5t-71 -20.5q-21 0 -42 7t-53 21q-21 9 -39 14.5t-35 5.5q-23 0 -41.5 -10t-29.5 -27z" />
    <glyph glyph-name="hungarumlaut" unicode="&#x2dd;" horiz-adv-x="530" 
d="M88 739h130l-67 -165h-110zM269 739h130l-67 -165h-110z" />
    <glyph glyph-name="uni0326" unicode="&#x326;" horiz-adv-x="179" 
d="M33 -40h126l-65 -155h-97z" />
    <glyph glyph-name="uni0394" unicode="&#x394;" horiz-adv-x="650" 
d="M226 700h200l231 -700h-664zM453 125l-122 413h-11l-123 -413h256z" />
    <glyph glyph-name="uni03A9" unicode="&#x3a9;" horiz-adv-x="781" 
d="M209 346q0 -41 10.5 -76t28.5 -62.5t42 -46t52 -26.5v-135h-268v130h63q-42 44 -66 101t-24 126v20q0 76 24.5 138t68.5 106.5t106.5 68.5t137.5 24h13q75 0 137 -24.5t106.5 -68.5t69 -106.5t24.5 -139.5v-20q0 -68 -24.5 -124.5t-66.5 -100.5h64v-130h-269v136
q28 8 52.5 26.5t42.5 45.5t28.5 62t10.5 76v20q0 48 -13 86.5t-36.5 66.5t-55.5 43t-71 15h-11q-39 0 -71 -15t-55.5 -43t-36.5 -66.5t-13 -86.5v-20z" />
    <glyph glyph-name="uni03BC" unicode="&#x3bc;" horiz-adv-x="616" 
d="M261 -11q-32 0 -56 10l8 -199h-150v720h149v-300q0 -54 19.5 -80t62.5 -26h3q49 0 78 34.5t29 92.5v279h149v-520h-118q-5 14 -9.5 36t-5.5 40q-26 -40 -66.5 -63.5t-88.5 -23.5h-4z" />
    <glyph glyph-name="pi" unicode="&#x3c0;" horiz-adv-x="608" 
d="M514 -9q-66 0 -107 39.5t-41 125.5v249h-134v-405h-149v405h-64v115h560v-115h-64v-223q0 -44 10 -58t32 -14q5 0 13.5 1.5t16.5 6.5v-116q-19 -6 -36.5 -8.5t-36.5 -2.5z" />
    <glyph glyph-name="uni0401" unicode="&#x401;" horiz-adv-x="556" 
d="M179 760q-33 0 -53.5 19t-20.5 50t20.5 50t53.5 19q32 0 54 -19t22 -50t-22 -50t-54 -19zM397 760q-33 0 -53.5 19t-20.5 50t20.5 50t53.5 19t54.5 -19t21.5 -50t-21.5 -50t-54.5 -19zM72 700h424v-136h-267v-148h247v-129h-247v-151h277v-136h-434v700z" />
    <glyph glyph-name="uni0402" unicode="&#x402;" horiz-adv-x="723" 
d="M177 564h-157v136h507v-136h-193v-129q35 11 69.5 17t67.5 6q106 0 163.5 -59t57.5 -169v-28q0 -49 -14 -88.5t-38.5 -67.5t-59.5 -43t-77 -15q-20 0 -42.5 4t-45.5 12v117q11 -5 22 -6.5t19 -1.5q41 0 63 25t22 70v21q0 54 -25.5 77t-71.5 23q-26 0 -54.5 -6t-55.5 -16
v-307h-157v564z" />
    <glyph glyph-name="uni0403" unicode="&#x403;" horiz-adv-x="501" 
d="M74 700h407v-136h-251v-564h-156v700zM330 741h-113l55 152h139z" />
    <glyph glyph-name="uni0404" unicode="&#x404;" horiz-adv-x="683" 
d="M378 -12q-75 0 -137.5 26t-108 72.5t-70.5 111t-25 142.5v19q0 77 25.5 142t70.5 112t107.5 73t135.5 26h6q86 0 157.5 -38.5t116.5 -110.5l-115 -87q-26 46 -65 72.5t-91 26.5h-12q-68 0 -114 -43.5t-60 -117.5h258v-121h-259q11 -76 58.5 -121.5t119.5 -45.5h11
q51 0 91.5 26t66.5 71l113 -86q-44 -72 -114.5 -110.5t-158.5 -38.5h-7z" />
    <glyph glyph-name="uni0405" unicode="&#x405;" horiz-adv-x="572" 
d="M293 -12q-76 0 -148 25.5t-127 70.5l83 124q42 -39 97.5 -58t106.5 -19q93 0 93 65q0 36 -36 54.5t-101 36.5q-112 30 -167.5 81t-55.5 137q0 47 17 85t48 65.5t74 42.5t95 15q70 0 134.5 -22.5t122.5 -64.5l-82 -123q-38 35 -86.5 51.5t-92.5 16.5q-35 0 -56.5 -17
t-21.5 -46q0 -33 29.5 -50.5t92.5 -33.5q58 -14 103.5 -33t76.5 -45.5t47 -61.5t16 -81q0 -49 -18.5 -88.5t-52.5 -67.5t-82.5 -43.5t-108.5 -15.5z" />
    <glyph glyph-name="uni0406" unicode="&#x406;" horiz-adv-x="301" 
d="M72 700h157v-700h-157v700z" />
    <glyph glyph-name="uni0407" unicode="&#x407;" horiz-adv-x="301" 
d="M60 757q-30 0 -49 19t-19 51t19 51.5t49 19.5t50 -19.5t20 -51.5t-20 -51t-50 -19zM238 757q-31 0 -49.5 19t-18.5 51t18.5 51.5t49.5 19.5q30 0 50 -19.5t20 -51.5t-20 -51t-50 -19zM72 700h157v-700h-157v700z" />
    <glyph glyph-name="uni0408" unicode="&#x408;" horiz-adv-x="397" 
d="M129 -13q-26 0 -51 4t-48 12v146q13 -9 29.5 -14.5t36.5 -5.5q40 0 59 22.5t19 63.5v485h156v-507q0 -103 -52 -154.5t-149 -51.5z" />
    <glyph glyph-name="uni0409" unicode="&#x409;" horiz-adv-x="977" 
d="M88 -13q-23 0 -42 4t-36 11v131q30 -11 51 -11q24 0 39.5 15t24.5 54t13.5 107.5t6.5 175.5l5 226h453v-252h97q56 0 101 -15t77 -43.5t49 -69t17 -90.5v-8q0 -51 -17 -92t-49 -70t-76.5 -44.5t-100.5 -15.5h-254v564h-150l-5 -128q-3 -103 -9.5 -186.5t-27 -141.5
t-60 -89.5t-107.5 -31.5zM678 129q56 0 85.5 23.5t29.5 68.5v7q0 90 -116 90h-74v-189h75z" />
    <glyph glyph-name="uni040A" unicode="&#x40a;" horiz-adv-x="984" 
d="M74 700h156v-252h224v252h156v-252h97q56 0 101 -15t77 -43.5t49 -69t17 -90.5v-8q0 -51 -17 -92t-49 -70t-76.5 -44.5t-100.5 -15.5h-254v312h-224v-312h-156v700zM685 129q56 0 85.5 23.5t29.5 68.5v7q0 90 -115 90h-75v-189h75z" />
    <glyph glyph-name="uni040B" unicode="&#x40b;" horiz-adv-x="736" 
d="M177 564h-157v136h507v-136h-193v-128q72 22 135 22q213 0 213 -224v-234h-156v200q0 69 -22.5 96.5t-78.5 27.5q-23 0 -44.5 -4.5t-46.5 -13.5v-306h-157v564z" />
    <glyph glyph-name="uni040C" unicode="&#x40c;" horiz-adv-x="654" 
d="M74 700h156v-292h8l219 292h178l-261 -322l279 -378h-187l-228 328h-8v-328h-156v700zM404 741h-113l55 152h139z" />
    <glyph glyph-name="uni040E" unicode="&#x40e;" horiz-adv-x="599" 
d="M221 -13q-29 0 -59 5.5t-59 16.5v131q17 -9 40 -16t45 -7q20 0 36 7.5t24 22.5l-244 553h170l150 -390h11l109 390h156l-194 -560q-25 -72 -69 -112.5t-116 -40.5zM260 900q0 -23 13.5 -37.5t39.5 -14.5q25 0 38.5 14.5t13.5 37.5h120q0 -66 -46.5 -106t-125.5 -40
q-80 0 -126.5 40t-46.5 106h120z" />
    <glyph glyph-name="uni040F" unicode="&#x40f;" horiz-adv-x="684" 
d="M611 0h-194v-135h-149v135h-194v700h156v-570h225v570h156v-700z" />
    <glyph glyph-name="uni0410" unicode="&#x410;" horiz-adv-x="650" 
d="M226 700h200l231 -700h-167l-43 146h-244l-43 -146h-167zM413 271l-82 267h-11l-83 -267h176z" />
    <glyph glyph-name="uni0411" unicode="&#x411;" horiz-adv-x="635" 
d="M74 700h487v-136h-331v-129h144q54 0 97.5 -14.5t74 -42t47 -66.5t16.5 -88v-9q0 -49 -17 -88.5t-48.5 -67.5t-76.5 -43.5t-100 -15.5h-293v700zM354 132q44 0 71 23t27 64v9q0 41 -27.5 63.5t-70.5 22.5h-127v-182h127z" />
    <glyph glyph-name="uni0412" unicode="&#x412;" horiz-adv-x="643" 
d="M73 700h265q52 0 95.5 -12t74.5 -34.5t48.5 -54t17.5 -70.5v-12q0 -46 -21 -82t-67 -62q58 -25 89 -69t31 -101v-13q0 -43 -17 -78.5t-48.5 -60t-75.5 -38t-99 -13.5h-293v700zM332 410q42 0 67.5 20.5t25.5 55.5v11q0 33 -24.5 52.5t-66.5 19.5h-110v-159h108zM357 132
q43 0 70 20.5t27 55.5v12q0 37 -27.5 58.5t-72.5 21.5h-130v-168h133z" />
    <glyph glyph-name="uni0413" unicode="&#x413;" horiz-adv-x="501" 
d="M74 700h407v-136h-251v-564h-156v700z" />
    <glyph glyph-name="uni0414" unicode="&#x414;" horiz-adv-x="701" 
d="M19 130h55q29 47 40.5 170t11.5 329v71h477v-570h76v-265h-149v135h-362v-135h-149v265zM276 565q-2 -159 -16.5 -266t-41.5 -169h231v442h-173v-7z" />
    <glyph glyph-name="uni0415" unicode="&#x415;" horiz-adv-x="559" 
d="M74 700h423v-136h-267v-148h247v-129h-247v-151h277v-136h-433v700z" />
    <glyph glyph-name="uni0416" unicode="&#x416;" horiz-adv-x="901" 
d="M375 328h-11l-180 -328h-180l228 378l-198 322h166l164 -292h11v292h151v-292h11l164 292h166l-198 -322l228 -378h-180l-180 328h-11v-328h-151v328z" />
    <glyph glyph-name="uni0417" unicode="&#x417;" horiz-adv-x="619" 
d="M321 -13q-96 0 -170.5 41t-125.5 117l130 78q29 -53 67 -76.5t89 -23.5q53 0 82.5 23t29.5 65v3q0 42 -26 64.5t-76 22.5h-85v113h62q45 0 69.5 22.5t24.5 60.5v2q0 36 -24.5 57t-65.5 21q-42 0 -76 -23t-55 -67l-132 76q47 72 116.5 111.5t157.5 39.5q50 0 92 -13.5
t73.5 -37.5t49 -57t17.5 -72v-10q0 -47 -22.5 -86t-62.5 -65q56 -23 89 -70t33 -107v-8q0 -44 -19.5 -81t-54 -63.5t-82.5 -41.5t-105 -15z" />
    <glyph glyph-name="uni0418" unicode="&#x418;" horiz-adv-x="725" 
d="M74 700h153v-463h6l244 463h175v-700h-155v497h-7l-262 -497h-154v700z" />
    <glyph glyph-name="uni0419" unicode="&#x419;" horiz-adv-x="725" 
d="M74 700h153v-463h6l244 463h175v-700h-155v497h-7l-262 -497h-154v700zM311 900q0 -23 13.5 -37.5t39.5 -14.5q25 0 38.5 14.5t13.5 37.5h120q0 -66 -46.5 -106t-125.5 -40q-80 0 -126.5 40t-46.5 106h120z" />
    <glyph glyph-name="uni041A" unicode="&#x41a;" horiz-adv-x="654" 
d="M74 700h156v-292h8l219 292h178l-261 -322l279 -378h-187l-228 328h-8v-328h-156v700z" />
    <glyph glyph-name="uni041B" unicode="&#x41b;" horiz-adv-x="688" 
d="M85 -13q-43 0 -75 14v131q13 -4 23.5 -6t21.5 -2q27 0 42.5 16t24.5 50.5t12.5 89.5t5.5 133l7 287h467v-700h-156v564h-163l-4 -145q-3 -111 -10.5 -192.5t-29 -135t-61 -79t-105.5 -25.5z" />
    <glyph glyph-name="uni041C" unicode="&#x41c;" horiz-adv-x="869" 
d="M73 700h220l138 -407h7l138 407h219v-700h-152v514h-8l-143 -421h-115l-144 421h-8v-514h-152v700z" />
    <glyph glyph-name="uni041D" unicode="&#x41d;" horiz-adv-x="704" 
d="M73 700h157v-277h244v277h156v-700h-156v287h-244v-287h-157v700z" />
    <glyph glyph-name="uni041E" unicode="&#x41e;" horiz-adv-x="761" 
d="M37 360q0 80 24.5 145t68.5 111.5t106.5 72t137.5 25.5h13q74 0 136 -25.5t106.5 -72t69.5 -112t25 -144.5v-20q0 -79 -25 -144.5t-69.5 -112t-106.5 -72t-136 -25.5h-13q-74 0 -136 26t-106.5 72.5t-69.5 111.5t-25 144v20zM199 340q0 -50 13 -90.5t36.5 -69t55.5 -43.5
t71 -15h11q39 0 71.5 15t55.5 43.5t36 69t13 90.5v20q0 50 -13 90t-36 68.5t-55.5 43.5t-71.5 15h-11q-39 0 -71 -15t-55.5 -43.5t-36.5 -68.5t-13 -90v-20z" />
    <glyph glyph-name="uni041F" unicode="&#x41f;" horiz-adv-x="703" 
d="M74 700h556v-700h-157v564h-243v-564h-156v700z" />
    <glyph glyph-name="uni0420" unicode="&#x420;" horiz-adv-x="613" 
d="M74 700h251q58 0 105 -16.5t80.5 -46.5t51.5 -72.5t18 -95.5v-12q0 -54 -18.5 -97.5t-52 -73.5t-80.5 -46.5t-104 -16.5h-95v-223h-156v700zM307 346q54 0 86 29.5t32 78.5v11q0 48 -30.5 74.5t-84.5 26.5h-84v-220h81z" />
    <glyph glyph-name="uni0421" unicode="&#x421;" horiz-adv-x="680" 
d="M375 -12q-75 0 -137.5 26t-107 72.5t-69 111t-24.5 142.5v19q0 77 25 142t69.5 112t106 73t134.5 26h7q86 0 157.5 -38.5t116.5 -110.5l-115 -87q-26 46 -64.5 72.5t-90.5 26.5h-8q-39 0 -71.5 -15.5t-55.5 -43.5t-36 -68t-13 -89v-19q0 -49 12.5 -88.5t36 -67.5t56 -43
t71.5 -15h12q51 0 90 26t65 71l113 -86q-45 -72 -115.5 -110.5t-158.5 -38.5h-6z" />
    <glyph glyph-name="uni0422" unicode="&#x422;" horiz-adv-x="547" 
d="M195 564h-175v136h507v-136h-175v-564h-157v564z" />
    <glyph glyph-name="uni0423" unicode="&#x423;" horiz-adv-x="599" 
d="M221 -13q-29 0 -59 5.5t-59 16.5v131q17 -9 40 -16t45 -7q20 0 36 7.5t24 22.5l-244 553h170l150 -390h11l109 390h156l-194 -560q-25 -72 -69 -112.5t-116 -40.5z" />
    <glyph glyph-name="uni0424" unicode="&#x424;" horiz-adv-x="795" 
d="M472 68v-68h-150v68h-11q-60 0 -110 20.5t-86.5 58t-57 90t-20.5 115.5v18q0 63 20.5 115.5t57 89.5t86.5 57.5t110 20.5h11v52h150v-52h12q60 0 110 -20.5t86.5 -57.5t57 -89.5t20.5 -115.5v-18q0 -63 -20.5 -115.5t-57 -90t-86.5 -58t-110 -20.5h-12zM328 189v343h-16
q-57 0 -89.5 -44t-32.5 -117v-19q0 -74 32.5 -117.5t89.5 -45.5h16zM482 189q57 2 90 45.5t33 117.5v19q0 73 -33 117t-90 44h-16v-343h16z" />
    <glyph glyph-name="uni0425" unicode="&#x425;" horiz-adv-x="643" 
d="M214 360v6l-196 334h177l122 -232h10l122 232h175l-194 -334v-6l205 -360h-178l-130 262h-10l-129 -262h-180z" />
    <glyph glyph-name="uni0426" unicode="&#x426;" horiz-adv-x="715" 
d="M545 0h-471v700h156v-570h225v570h156v-567h82v-268h-148v135z" />
    <glyph glyph-name="uni0427" unicode="&#x427;" horiz-adv-x="647" 
d="M417 263q-40 -12 -74.5 -17.5t-66.5 -5.5q-219 0 -219 223v237h156v-202q0 -70 23.5 -97t82.5 -27q23 0 46 4.5t52 14.5v307h157v-700h-157v263z" />
    <glyph glyph-name="uni0428" unicode="&#x428;" horiz-adv-x="992" 
d="M74 700h155v-570h190v570h153v-570h191v570h155v-700h-844v700z" />
    <glyph glyph-name="uni0429" unicode="&#x429;" horiz-adv-x="1016" 
d="M846 0h-772v700h155v-570h188v570h153v-570h189v570h155v-564h80v-271h-148v135z" />
    <glyph glyph-name="uni042A" unicode="&#x42a;" horiz-adv-x="679" 
d="M142 570h-150v130h306v-234h99q57 0 103 -16t78.5 -45t50 -71t17.5 -95v-8q0 -53 -17.5 -95.5t-49.5 -72.5t-78 -46.5t-102 -16.5h-257v570zM369 132q58 0 89.5 25.5t31.5 76.5v8q0 99 -122 99h-74v-209h75z" />
    <glyph glyph-name="uni042B" unicode="&#x42b;" horiz-adv-x="868" 
d="M74 700h156v-234h98q56 0 102 -15.5t78.5 -44.5t50.5 -71.5t18 -95.5v-8q0 -52 -17.5 -95t-50 -73t-78.5 -46.5t-102 -16.5h-255v700zM637 700h157v-700h-157v700zM299 132q59 0 90.5 26t31.5 76v7q0 100 -122 100h-73v-209h73z" />
    <glyph glyph-name="uni042C" unicode="&#x42c;" horiz-adv-x="610" 
d="M74 700h156v-234h99q57 0 102.5 -16t78 -45t50 -71t17.5 -95v-8q0 -53 -17.5 -95.5t-49.5 -72.5t-78 -46.5t-102 -16.5h-256v700zM301 132q59 0 90 26t31 76v7q0 100 -122 100h-74v-209h75z" />
    <glyph glyph-name="uni042D" unicode="&#x42d;" horiz-adv-x="682" 
d="M297 -12q-88 0 -158 38.5t-114 110.5l113 86q27 -45 67.5 -71.5t92.5 -26.5h11q72 0 119 45.5t58 122.5h-261v121h260q-14 74 -59.5 118t-114.5 44h-12q-52 0 -91.5 -26t-65.5 -74l-115 87q45 72 116 110.5t157 38.5h6q74 0 136 -26t107 -73t70.5 -112t25.5 -142v-19
q0 -78 -25 -142.5t-70.5 -111t-108 -72.5t-137.5 -26h-7z" />
    <glyph glyph-name="uni042E" unicode="&#x42e;" horiz-adv-x="1023" 
d="M641 -13q-69 0 -126 21.5t-100 61t-69.5 95.5t-33.5 125h-82v-290h-156v700h156v-280h83q9 67 36 121t69.5 92.5t99 59.5t123.5 21h13q74 0 135.5 -25.5t105 -72t67.5 -112t24 -144.5v-20q0 -79 -24 -144t-67.5 -111.5t-105 -72t-135.5 -25.5h-13zM470 340
q0 -101 46.5 -159t125.5 -58h10q80 0 126 58t46 159v20q0 101 -46 159t-126 58h-10q-79 0 -125.5 -58t-46.5 -159v-20z" />
    <glyph glyph-name="uni042F" unicode="&#x42f;" horiz-adv-x="657" 
d="M179 268q-60 28 -94.5 78t-34.5 118v16q0 52 19 92.5t53.5 69t84 43.5t109.5 15h267v-700h-157v238h-103l-128 -238h-170zM432 570h-101q-59 0 -91 -25t-32 -72v-10q0 -47 32 -77t92 -30h100v214z" />
    <glyph glyph-name="uni0430" unicode="&#x430;" 
d="M205 -11q-38 0 -69.5 11t-54.5 31t-36 48.5t-13 62.5v12q0 84 71 126t220 42h39v15q0 36 -22 57.5t-66 21.5h-5q-36 0 -75.5 -12.5t-80.5 -38.5l-56 102q47 30 105 47t118 17h9q100 0 156.5 -52.5t56.5 -146.5v-213q0 -32 5 -61t13 -58h-139q-9 25 -14 59
q-29 -33 -71.5 -51.5t-90.5 -18.5zM243 102q33 0 64.5 14.5t54.5 40.5v78h-30q-81 0 -120 -18t-39 -54v-5q0 -25 19 -40.5t51 -15.5z" />
    <glyph glyph-name="uni0431" unicode="&#x431;" horiz-adv-x="590" 
d="M298 -11q-128 0 -198 90t-70 258q0 160 65 257.5t191 126.5q49 11 108 17t120 6v-135q-72 0 -118.5 -4.5t-84.5 -12.5q-138 -27 -151 -181q29 47 71.5 72.5t99.5 25.5h8q49 0 89.5 -18.5t69.5 -52t45 -79.5t16 -101v-15q0 -55 -19 -101.5t-52.5 -80.5t-79 -53t-99.5 -19
h-11zM302 100q47 0 78.5 38t31.5 102v13q0 65 -31 102.5t-80 37.5h-3q-24 0 -45 -10t-36 -28.5t-24 -45t-9 -58.5v-11q0 -64 32 -102t79 -38h7z" />
    <glyph glyph-name="uni0432" unicode="&#x432;" horiz-adv-x="547" 
d="M63 520h270q36 0 65.5 -9.5t50.5 -27t32.5 -41.5t11.5 -53v-18q0 -31 -15.5 -56t-42.5 -44q38 -17 60.5 -46t22.5 -67v-19q0 -31 -12.5 -56.5t-35 -44t-54.5 -28.5t-71 -10h-282v520zM278 309q74 0 74 52v8q0 53 -73 53h-77v-113h76zM297 98q37 0 57.5 15.5t20.5 41.5v10
q0 28 -20 42t-56 14h-97v-123h95z" />
    <glyph glyph-name="uni0433" unicode="&#x433;" horiz-adv-x="412" 
d="M63 520h335v-115h-186v-405h-149v520z" />
    <glyph glyph-name="uni0434" unicode="&#x434;" horiz-adv-x="601" 
d="M11 111h48q24 36 33.5 136t9.5 273h410v-409h71v-239h-139v128h-293v-128h-140v239zM364 111v299h-124q-5 -240 -40 -299h164z" />
    <glyph glyph-name="uni0435" unicode="&#x435;" 
d="M292 -11q-59 0 -107 18.5t-82.5 53t-53.5 82.5t-19 106v19q0 58 19 106t53 82.5t81 54t103 19.5h13q53 0 96.5 -17.5t75 -49t49 -75t17.5 -95.5v-74h-362q5 -52 39 -81.5t88 -29.5h9q44 0 78.5 18t57.5 44l74 -93q-38 -38 -95.5 -63t-117.5 -25h-16zM396 310v3
q-2 51 -29 79.5t-70 28.5h-10q-44 0 -72 -29t-36 -82h217z" />
    <glyph glyph-name="uni0436" unicode="&#x436;" horiz-adv-x="745" 
d="M302 241h-12l-124 -241h-161l168 281l-156 239h153l121 -214h11v214h141v-214h12l120 214h153l-155 -239l167 -281h-161l-124 241h-12v-241h-141v241z" />
    <glyph glyph-name="uni0437" unicode="&#x437;" horiz-adv-x="495" 
d="M247 -11q-77 0 -135 30.5t-96 94.5l107 68q41 -74 117 -74h8q33 0 53 15t20 38v7q0 25 -18 38.5t-51 13.5h-63v90h54q27 0 43 14t16 37v5q0 23 -17 36t-46 13h-7q-35 0 -62 -19t-43 -49l-100 83q38 45 93.5 73t130.5 28h9q37 0 70.5 -10.5t58.5 -29t40 -43.5t15 -55v-11
q0 -32 -18 -59t-48 -47q39 -18 63.5 -50t24.5 -73v-9q0 -33 -16 -61.5t-44 -49.5t-66.5 -32.5t-82.5 -11.5h-10z" />
    <glyph glyph-name="uni0438" unicode="&#x438;" horiz-adv-x="614" 
d="M63 520h145v-303h8l169 303h166v-520h-145v342h-7l-193 -342h-143v520z" />
    <glyph glyph-name="uni0439" unicode="&#x439;" horiz-adv-x="614" 
d="M63 520h145v-303h8l169 303h166v-520h-145v342h-7l-193 -342h-143v520zM254 720q0 -23 14 -37.5t39 -14.5q26 0 39.5 14.5t13.5 37.5h119q0 -66 -46 -106t-126 -40q-79 0 -125.5 40t-46.5 106h119z" />
    <glyph glyph-name="uni043A" unicode="&#x43a;" 
d="M63 520h149v-214h9l171 214h163l-206 -239l208 -281h-173l-162 241h-10v-241h-149v520z" />
    <glyph glyph-name="uni043B" unicode="&#x43b;" horiz-adv-x="562" 
d="M77 -9q-38 0 -67 11v116q10 -5 20.5 -6.5t17.5 -1.5q18 0 29 9t17.5 34t9 68.5t3.5 113.5l1 185h391v-520h-149v405h-106l-2 -108q-1 -87 -11.5 -145.5t-31 -94t-51 -51t-71.5 -15.5z" />
    <glyph glyph-name="uni043C" unicode="&#x43c;" horiz-adv-x="698" 
d="M63 520h165l117 -284h8l116 284h166v-520h-141v308h-8l-102 -225h-70l-102 225h-8v-308h-141v520z" />
    <glyph glyph-name="uni043D" unicode="&#x43d;" horiz-adv-x="611" 
d="M63 520h149v-189h187v189h149v-520h-149v216h-187v-216h-149v520z" />
    <glyph glyph-name="uni043E" unicode="&#x43e;" horiz-adv-x="599" 
d="M294 -11q-58 0 -107 19t-83.5 52.5t-54 80.5t-19.5 104v30q0 57 19.5 104t54 80.5t83.5 52.5t107 19h10q59 0 107.5 -19t83 -52.5t54 -80.5t19.5 -104v-30q0 -57 -19.5 -104t-54 -80.5t-83 -52.5t-107.5 -19h-10zM304 100q50 0 80 41t30 110v23q0 67 -30 106.5t-80 39.5
h-10q-50 0 -80 -39.5t-30 -106.5v-23q0 -69 30 -110t80 -41h10z" />
    <glyph glyph-name="uni043F" unicode="&#x43f;" horiz-adv-x="605" 
d="M63 520h479v-520h-149v405h-181v-405h-149v520z" />
    <glyph glyph-name="uni0440" unicode="&#x440;" horiz-adv-x="629" 
d="M62 520h118q5 -11 8.5 -27t5.5 -31q29 32 70.5 50.5t92.5 18.5h9q51 0 93 -18.5t72.5 -52.5t47 -81t16.5 -104v-30q0 -57 -16.5 -104t-47 -81t-72.5 -52.5t-93 -18.5h-9q-87 0 -146 53v-242h-149v720zM330 100q51 0 80.5 41t29.5 110v23q0 67 -29.5 106.5t-80.5 39.5h-9
q-51 0 -80.5 -40t-29.5 -106v-23q0 -69 30 -110t80 -41h9z" />
    <glyph glyph-name="uni0441" unicode="&#x441;" horiz-adv-x="528" 
d="M285 -10q-57 0 -103.5 19t-80.5 53.5t-52.5 81.5t-18.5 103v28q0 55 19 102t53 81t79.5 53t99.5 19h9q69 0 124.5 -29.5t93.5 -85.5l-105 -75q-23 40 -48.5 58t-59.5 18h-6q-49 0 -77 -38t-28 -109v-18q0 -68 29.5 -106t79.5 -38h9q63 0 106 76l104 -80
q-79 -113 -218 -113h-9z" />
    <glyph glyph-name="uni0442" unicode="&#x442;" horiz-adv-x="451" 
d="M151 401h-137v119h423v-119h-137v-401h-149v401z" />
    <glyph glyph-name="uni0443" unicode="&#x443;" horiz-adv-x="547" 
d="M155 -204q-25 0 -52 4.5t-50 15.5v126q16 -11 35.5 -17t40.5 -6q27 0 50 15t38 45l-213 541h155l132 -382h7l99 382h150l-175 -548q-27 -83 -80 -129.5t-137 -46.5z" />
    <glyph glyph-name="uni0444" unicode="&#x444;" horiz-adv-x="749" 
d="M449 720v-191q5 1 8.5 1h8.5q56 0 102 -19t79.5 -53t52 -81.5t18.5 -103.5v-26q0 -56 -18.5 -103.5t-52 -81.5t-79.5 -53t-101 -19h-10t-7 1v-181h-149v181q-5 -1 -18 -1q-56 0 -102.5 19t-80 53t-52 81.5t-18.5 103.5v26q0 56 18.5 103.5t52 81.5t80 53t102.5 19h9.5
t8.5 -1v191h148zM178 249q0 -71 31.5 -111.5t85.5 -40.5q5 0 8 1v324q-3 1 -8 1q-53 0 -85 -40.5t-32 -111.5v-22zM571 271q0 72 -31.5 112t-85.5 40q-5 0 -8 -1v-324q2 -1 8 -1q54 0 85.5 40.5t31.5 111.5v22z" />
    <glyph glyph-name="uni0445" unicode="&#x445;" horiz-adv-x="547" 
d="M177 268v4l-162 248h164l94 -167h6l91 167h162l-161 -248v-4l168 -268h-164l-100 184h-6l-100 -184h-161z" />
    <glyph glyph-name="uni0446" unicode="&#x446;" horiz-adv-x="633" 
d="M474 0h-411v520h149v-409h179v409h149v-409h75v-239h-141v128z" />
    <glyph glyph-name="uni0447" unicode="&#x447;" horiz-adv-x="551" 
d="M339 184q-29 -9 -59 -14t-57 -5q-88 0 -133.5 44.5t-45.5 125.5v185h148v-165q0 -37 15 -55t50 -18q21 0 42 4t40 12v222h149v-520h-149v184z" />
    <glyph glyph-name="uni0448" unicode="&#x448;" horiz-adv-x="825" 
d="M63 520h146v-409h130v409h147v-409h130v409h146v-520h-699v520z" />
    <glyph glyph-name="uni0449" unicode="&#x449;" horiz-adv-x="845" 
d="M687 0h-624v520h146v-409h128v409h147v-409h128v409h146v-409h70v-239h-141v128z" />
    <glyph glyph-name="uni044A" unicode="&#x44a;" horiz-adv-x="556" 
d="M102 412h-91v108h237v-159h103q41 0 74.5 -13t57 -35.5t36.5 -54t13 -69.5v-17q0 -37 -13.5 -68.5t-37.5 -54.5t-58.5 -36t-76.5 -13h-244v412zM320 106q33 0 50.5 19.5t17.5 49.5v14q0 30 -17.5 49.5t-50.5 19.5h-76v-152h76z" />
    <glyph glyph-name="uni044B" unicode="&#x44b;" horiz-adv-x="756" 
d="M63 520h149v-159h96q41 0 75 -13t58 -36t37.5 -54.5t13.5 -68.5v-17q0 -37 -13.5 -68.5t-38 -54.5t-59 -36t-77.5 -13h-241v520zM550 520h143v-520h-143v520zM281 109q32 0 50 19.5t18 48.5v11q0 29 -18 48.5t-50 19.5h-76v-147h76z" />
    <glyph glyph-name="uni044C" unicode="&#x44c;" horiz-adv-x="521" 
d="M63 520h148v-159h105q41 0 74.5 -13t57 -35.5t36.5 -54t13 -69.5v-17q0 -37 -13.5 -68.5t-37.5 -54.5t-58.5 -36t-76.5 -13h-248v520zM286 108q33 0 50.5 19.5t17.5 49.5v11q0 31 -17.5 50t-50.5 19h-80v-149h80z" />
    <glyph glyph-name="uni044D" unicode="&#x44d;" horiz-adv-x="539" 
d="M243 -10q-145 0 -227 113l104 80q46 -76 116 -76h10q46 0 75.5 28.5t37.5 79.5h-178v91h178q-8 54 -36.5 82t-74.5 28h-7q-37 0 -65.5 -18t-51.5 -58l-105 75q38 56 95 85.5t128 29.5h8q56 0 103 -19t81.5 -53t54 -81t19.5 -102v-28q0 -56 -18 -103t-51.5 -81.5
t-81 -53.5t-105.5 -19h-9z" />
    <glyph glyph-name="uni044E" unicode="&#x44e;" horiz-adv-x="821" 
d="M525 -11q-53 0 -97 16t-77 45.5t-53 71t-25 91.5h-62v-213h-148v520h148v-192h64q8 46 29.5 83.5t53.5 64t74.5 41t92.5 14.5h10q57 0 104 -18.5t80.5 -52t52 -81t18.5 -104.5v-30q0 -57 -18.5 -104.5t-52 -81t-80.5 -52t-104 -18.5h-10zM534 100q46 0 73.5 41t27.5 110
v23q0 67 -27.5 106.5t-73.5 39.5h-8q-46 0 -73.5 -39.5t-27.5 -106.5v-23q0 -69 27.5 -110t73.5 -41h8z" />
    <glyph glyph-name="uni044F" unicode="&#x44f;" horiz-adv-x="541" 
d="M131 191q-42 21 -67 57t-25 86v18q0 38 13.5 68.5t38 53t58 34.5t73.5 12h256v-520h-139v167h-75l-88 -167h-154zM341 269v143h-86q-33 0 -54 -17t-21 -47v-11q0 -29 21.5 -48.5t53.5 -19.5h86z" />
    <glyph glyph-name="uni0451" unicode="&#x451;" horiz-adv-x="564" 
d="M292 -11q-59 0 -107 18.5t-82.5 53t-53.5 82.5t-19 106v19q0 58 19 106t53 82.5t81 54t103 19.5h13q53 0 96.5 -17.5t75 -49t49 -75t17.5 -95.5v-74h-362q5 -52 39 -81.5t88 -29.5h9q44 0 78.5 18t57.5 44l74 -93q-38 -38 -95.5 -63t-117.5 -25h-16zM396 310v3
q-2 51 -29 79.5t-70 28.5h-10q-44 0 -72 -29t-36 -82h217zM401 600q-33 0 -53.5 19t-20.5 50t20.5 50t53.5 19t54.5 -19t21.5 -50t-21.5 -50t-54.5 -19zM184 600q-33 0 -54 19t-21 50t21 50t54 19q32 0 53.5 -19t21.5 -50t-21.5 -50t-53.5 -19z" />
    <glyph glyph-name="uni0452" unicode="&#x452;" horiz-adv-x="609" 
d="M59 575h-61v97h61v48h149v-48h127v-98h-127v-117q32 29 73.5 46t89.5 17h2q88 0 135 -51.5t47 -146.5v-304q0 -49 -14 -88.5t-39 -67.5t-60 -43.5t-77 -15.5q-20 0 -42.5 4t-45.5 12v117q11 -5 22.5 -7t19.5 -2q40 0 63.5 23.5t23.5 66.5v273q0 56 -21.5 80.5t-65.5 24.5
h-2q-52 0 -80.5 -28.5t-28.5 -87.5v-279h-149v575z" />
    <glyph glyph-name="uni0453" unicode="&#x453;" horiz-adv-x="412" 
d="M63 520h335v-115h-186v-405h-149v520zM168 556l57 164h130l-76 -164h-111z" />
    <glyph glyph-name="uni0454" unicode="&#x454;" horiz-adv-x="540" 
d="M293 -10q-58 0 -106.5 19t-83 53.5t-54 81.5t-19.5 103v28q0 55 19.5 102t54.5 81t82.5 53t102.5 19h9q70 0 127 -29.5t96 -85.5l-105 -75q-23 40 -51.5 58t-64.5 18h-7q-46 0 -74.5 -28t-36.5 -82h177v-91h-177q8 -51 38.5 -79.5t76.5 -28.5h10q70 0 113 76l104 -80
q-79 -113 -222 -113h-9z" />
    <glyph glyph-name="uni0455" unicode="&#x455;" horiz-adv-x="487" 
d="M264 -12q-71 0 -132 19t-112 54l70 107q31 -28 78 -45t90 -17q68 0 68 46q0 17 -10 26t-30 15.5t-50 14.5t-70 22q-24 8 -47 18.5t-40.5 26.5t-28.5 39.5t-11 56.5q0 75 52.5 118t143.5 43q57 0 110.5 -17.5t97.5 -49.5l-70 -101q-29 23 -67 37t-76 14q-58 0 -58 -41
q0 -15 9.5 -24t25.5 -16t37 -11.5t45 -10.5q31 -8 62.5 -18.5t57 -28.5t41.5 -45.5t16 -68.5q0 -75 -55 -119t-147 -44z" />
    <glyph glyph-name="uni0456" unicode="&#x456;" horiz-adv-x="275" 
d="M136 590q-38 0 -61 20.5t-23 55.5q0 34 23 55.5t61 21.5t62.5 -21.5t24.5 -55.5q0 -35 -24.5 -55.5t-62.5 -20.5zM63 520h149v-520h-149v520z" />
    <glyph glyph-name="uni0457" unicode="&#x457;" horiz-adv-x="275" 
d="M218 596q-29 0 -47.5 19t-18.5 51q0 31 18.5 50.5t47.5 19.5q30 0 49.5 -19.5t19.5 -50.5q0 -32 -19.5 -51t-49.5 -19zM56 596q-30 0 -49 19t-19 51q0 31 19 50.5t49 19.5q28 0 47.5 -19.5t19.5 -50.5q0 -32 -19.5 -51t-47.5 -19zM63 520h149v-520h-149v520z" />
    <glyph glyph-name="uni0458" unicode="&#x458;" horiz-adv-x="286" 
d="M146 590q-38 0 -62 20.5t-24 55.5q0 34 24 55.5t62 21.5q39 0 63.5 -21.5t24.5 -55.5q0 -35 -24.5 -55.5t-63.5 -20.5zM62 -208q-23 0 -50 4.5t-51 13.5v122q25 -11 52 -11q31 0 45 15.5t14 56.5v527h149v-548q0 -87 -41 -133.5t-118 -46.5z" />
    <glyph glyph-name="uni0459" unicode="&#x459;" horiz-adv-x="796" 
d="M77 -9q-38 0 -67 11v116q10 -5 20.5 -6.5t17.5 -1.5q18 0 29 9t17.5 34t9 68.5t3.5 113.5l1 185h382v-174h97q42 0 76 -12.5t58 -34t37 -52t13 -66.5v-16q0 -36 -13.5 -66t-38 -52t-59.5 -34.5t-77 -12.5h-242v405h-97l-2 -108q-2 -87 -12.5 -145.5t-30.5 -94t-50.5 -51
t-71.5 -15.5zM559 105q32 0 48.5 18t16.5 46v8q0 28 -16.5 46t-48.5 18h-69v-136h69z" />
    <glyph glyph-name="uni045A" unicode="&#x45a;" horiz-adv-x="833" 
d="M63 520h149v-173h167v173h149v-174h97q42 0 76 -12.5t58 -34t37 -52t13 -66.5v-16q0 -36 -13.5 -66t-38 -52t-59.5 -34.5t-77 -12.5h-242v232h-167v-232h-149v520zM597 105q31 0 48 18t17 46v8q0 28 -17 46t-48 18h-69v-136h69z" />
    <glyph glyph-name="uni045B" unicode="&#x45b;" horiz-adv-x="609" 
d="M59 575h-61v97h61v48h149v-48h127v-98h-127v-117q32 29 73.5 46t89.5 17h2q88 0 135 -51.5t47 -146.5v-322h-149v290q0 56 -21.5 80.5t-65.5 24.5h-1q-52 0 -81 -28.5t-29 -87.5v-279h-149v575z" />
    <glyph glyph-name="uni045C" unicode="&#x45c;" 
d="M63 520h149v-214h9l171 214h163l-206 -239l208 -281h-173l-162 241h-10v-241h-149v520zM240 556l57 164h130l-76 -164h-111z" />
    <glyph glyph-name="uni045E" unicode="&#x45e;" horiz-adv-x="547" 
d="M155 -204q-25 0 -52 4.5t-50 15.5v126q16 -11 35.5 -17t40.5 -6q27 0 50 15t38 45l-213 541h155l132 -382h7l99 382h150l-175 -548q-27 -83 -80 -129.5t-137 -46.5zM225 720q0 -23 14 -37.5t39 -14.5q26 0 39.5 14.5t13.5 37.5h119q0 -66 -46 -106t-126 -40
q-79 0 -125.5 40t-46.5 106h119z" />
    <glyph glyph-name="uni045F" unicode="&#x45f;" horiz-adv-x="603" 
d="M212 520v-409h179v409h149v-520h-168v-128h-141v128h-168v520h149z" />
    <glyph glyph-name="uni0490" unicode="&#x490;" horiz-adv-x="487" 
d="M74 700h246v128h147v-264h-237v-564h-156v700z" />
    <glyph glyph-name="uni0491" unicode="&#x491;" horiz-adv-x="403" 
d="M63 520h188v111h138v-226h-177v-405h-149v520z" />
    <glyph glyph-name="uni0492" unicode="&#x492;" horiz-adv-x="519" 
d="M92 270h-67v121h67v309h407v-136h-251v-173h127v-121h-127v-270h-156v270z" />
    <glyph glyph-name="uni0493" unicode="&#x493;" horiz-adv-x="422" 
d="M73 185h-54v114h54v221h335v-115h-186v-106h113v-114h-113v-185h-149v185z" />
    <glyph glyph-name="uni049A" unicode="&#x49a;" horiz-adv-x="654" 
d="M74 700h156v-292h8l219 292h178l-261 -322l181 -245h98v-268h-148v135h-39l-228 328h-8v-328h-156v700z" />
    <glyph glyph-name="uni049B" unicode="&#x49b;" horiz-adv-x="553" 
d="M63 520h149v-214h9l171 214h163l-206 -239l126 -170h83v-239h-141v128h-33l-162 241h-10v-241h-149v520z" />
    <glyph glyph-name="uni04A2" unicode="&#x4a2;" horiz-adv-x="735" 
d="M564 0h-90v287h-244v-287h-157v700h157v-277h244v277h156v-567h83v-268h-149v135z" />
    <glyph glyph-name="uni04A3" unicode="&#x4a3;" horiz-adv-x="640" 
d="M482 0h-83v216h-187v-216h-149v520h149v-189h187v189h149v-409h75v-239h-141v128z" />
    <glyph glyph-name="uni04AE" unicode="&#x4ae;" horiz-adv-x="622" 
d="M233 273l-239 427h180l134 -281h7l133 281h179l-237 -427v-273h-157v273z" />
    <glyph glyph-name="uni04AF" unicode="&#x4af;" horiz-adv-x="544" 
d="M6 520h156l105 -390h10l105 390h156l-179 -520h-13v-200h-149v200h-12z" />
    <glyph glyph-name="uni04B0" unicode="&#x4b0;" horiz-adv-x="625" 
d="M124 333h80l-210 367h180l134 -281h7l133 281h179l-209 -367h80v-121h-108v-212h-157v212h-109v121z" />
    <glyph glyph-name="uni04B1" unicode="&#x4b1;" horiz-adv-x="544" 
d="M109 0h76l-179 520h156l105 -390h10l105 390h156l-179 -520h74v-114h-87v-86h-149v86h-88v114z" />
    <glyph glyph-name="uni04BA" unicode="&#x4ba;" horiz-adv-x="647" 
d="M230.025 437.016q39.998 12 74.4951 17.499q34.498 5.5 66.4961 5.5q218.987 0 218.987 -222.986v-236.985h-155.991v201.987q0 69.9961 -23.498 96.9941q-23.499 26.998 -82.4951 26.998q-22.999 0 -45.9971 -4.49902q-22.999 -4.5 -51.9971 -14.499v-306.981h-156.99
v699.957h156.99v-262.984z" />
    <glyph glyph-name="uni04BB" unicode="&#x4bb;" horiz-adv-x="613" 
d="M63 720h149v-259q33 33 76.5 51.5t93.5 18.5q85 0 131 -52t46 -146v-333h-149v301q0 105 -88 105q-52 0 -81 -31.5t-29 -88.5v-286h-149v720z" />
    <glyph glyph-name="uni04D4" unicode="&#x4d4;" horiz-adv-x="846" 
d="M233 700h551v-136h-256v-148h236v-129h-236v-151h266v-136h-414v146h-172l-48 -146h-167zM380 271v293h-44l-93 -293h137z" />
    <glyph glyph-name="uni04D5" unicode="&#x4d5;" horiz-adv-x="872" 
d="M203 -10q-38 0 -69.5 11t-54 31t-35 48.5t-12.5 64.5q0 168 286 168h36q0 5 -0.5 14t-0.5 14q-3 35 -24 54t-63 19q-35 0 -74 -12t-79 -38l-56 102q47 31 103 47.5t115 16.5q47 0 86.5 -14t68.5 -48q32 29 74.5 45.5t93.5 16.5h9q52 0 96 -17.5t75.5 -49t49 -75
t17.5 -95.5v-73h-357v-1q5 -51 39 -81t86 -30h5q40 0 76.5 17.5t60.5 44.5l74 -93q-18 -19 -43 -35t-53.5 -28t-58.5 -18.5t-60 -6.5h-12q-62 0 -111.5 22.5t-84.5 61.5q-47 -47 -98 -65t-105 -18zM704 309v4q-2 51 -29.5 79.5t-69.5 28.5h-6q-42 0 -70.5 -29.5t-37.5 -82.5
h213zM358 159q-6 18 -9 39q-2 8 -2 15t-1 15h-18q-78 0 -116.5 -18.5t-38.5 -52.5q0 -24 19 -39t51 -15t63 15t52 41z" />
    <glyph glyph-name="uni04D8" unicode="&#x4d8;" horiz-adv-x="730" 
d="M533 406q-12 78 -58 124t-118 46h-13q-54 0 -96.5 -25t-72.5 -71l-110 90q51 66 125.5 104t167.5 38h6q70 0 130 -26t104.5 -73t69.5 -112t25 -142v-19q0 -78 -24 -142.5t-67.5 -111t-104 -72.5t-133.5 -26h-5q-72 0 -132 25.5t-103.5 71.5t-68 110t-25.5 141v70h503z
M191 293q8 -81 52 -127.5t115 -46.5h11q71 0 115 46.5t52 127.5h-345z" />
    <glyph glyph-name="uni04D9" unicode="&#x4d9;" horiz-adv-x="564" 
d="M272 530q59 0 107 -18.5t82.5 -53t53.5 -82t19 -106.5v-19q0 -58 -19 -106t-53 -82.5t-81 -54t-103 -19.5h-13q-52 0 -96 17.5t-75.5 49t-49 75t-17.5 95.5v74h362q-5 52 -39 81.5t-88 29.5h-9q-44 0 -78.5 -18t-57.5 -44l-74 93q38 38 95.5 63t117.5 25h16zM168 209v-3
q2 -51 29 -79.5t70 -28.5h10q44 0 72 29t36 82h-217z" />
    <glyph glyph-name="uni04E8" unicode="&#x4e8;" horiz-adv-x="761" 
d="M37 360q0 80 24.5 145t68.5 111.5t106.5 72t137.5 25.5h13q74 0 136 -25.5t106.5 -72t69.5 -112t25 -144.5v-20q0 -79 -25 -144.5t-69.5 -112t-106.5 -72t-136 -25.5h-13q-74 0 -136 26t-106.5 72.5t-69.5 111.5t-25 144v20zM559 406q-11 80 -57.5 125.5t-115.5 45.5h-11
q-69 0 -115.5 -45.5t-57.5 -125.5h357zM202 293q11 -80 57.5 -125.5t115.5 -45.5h11q69 0 115.5 45.5t57.5 125.5h-357z" />
    <glyph glyph-name="uni04E9" unicode="&#x4e9;" horiz-adv-x="599" 
d="M294 -11q-58 0 -107 19t-83.5 52.5t-54 80.5t-19.5 104v30q0 57 19.5 104t54 80.5t83.5 52.5t107 19h10q59 0 107.5 -19t83 -52.5t54 -80.5t19.5 -104v-30q0 -57 -19.5 -104t-54 -80.5t-83 -52.5t-107.5 -19h-10zM412 308q-6 54 -34.5 86t-73.5 32h-10q-45 0 -73.5 -32
t-34.5 -86h226zM304 94q45 0 73.5 33t34.5 90h-226q6 -57 34.5 -90t73.5 -33h10z" />
    <glyph glyph-name="uni058F" unicode="&#x58f;" horiz-adv-x="635" 
d="M300 713q63 0 113.5 -17.5t86 -51t54.5 -84t19 -116.5v-92h62v-104h-62v-43h62v-104h-62v-101h-157v101h-107v104h107v43h-107v104h107v84q0 70 -31.5 102.5t-84.5 32.5q-54 0 -86 -32.5t-32 -102.5v-36h-157v44q0 129 72 199t203 70z" />
    <glyph glyph-name="Wgrave" unicode="&#x1e80;" horiz-adv-x="923" 
d="M15 700h159l91 -520h8l124 520h127l125 -520h8l92 520h159l-149 -700h-192l-103 436h-6l-104 -436h-192zM321 909h142l62 -152h-126z" />
    <glyph glyph-name="wgrave" unicode="&#x1e81;" horiz-adv-x="793" 
d="M16 520h148l62 -362h10l95 362h131l95 -362h10l61 362h149l-113 -520h-171l-95 336h-4l-94 -336h-171zM271 742h129l58 -165h-111z" />
    <glyph glyph-name="Wacute" unicode="&#x1e82;" horiz-adv-x="923" 
d="M15 700h159l91 -520h8l124 520h127l125 -520h8l92 520h159l-149 -700h-192l-103 436h-6l-104 -436h-192zM514 761h-113l55 152h139z" />
    <glyph glyph-name="wacute" unicode="&#x1e83;" horiz-adv-x="793" 
d="M16 520h148l62 -362h10l95 362h131l95 -362h10l61 362h149l-113 -520h-171l-95 336h-4l-94 -336h-171zM334 576l57 164h130l-76 -164h-111z" />
    <glyph glyph-name="Wdieresis" unicode="&#x1e84;" horiz-adv-x="922" 
d="M354 760q-33 0 -53.5 19t-20.5 50t20.5 50t53.5 19q32 0 54 -19t22 -50t-22 -50t-54 -19zM563 760q-33 0 -53 19t-20 50t20 50t53 19t55 -19t22 -50t-22 -50t-55 -19zM14 700h159l92 -520h7l124 520h127l126 -520h6l93 520h159l-149 -700h-192l-103 436h-6l-104 -436
h-192z" />
    <glyph glyph-name="wdieresis" unicode="&#x1e85;" horiz-adv-x="793" 
d="M16 520h148l62 -362h10l95 362h131l95 -362h10l61 362h149l-113 -520h-171l-95 336h-4l-94 -336h-171zM504 600q-33 0 -53.5 19t-20.5 50t20.5 50t53.5 19t54.5 -19t21.5 -50t-21.5 -50t-54.5 -19zM287 600q-33 0 -54 19t-21 50t21 50t54 19q32 0 53.5 -19t21.5 -50
t-21.5 -50t-53.5 -19z" />
    <glyph glyph-name="Germandbls" unicode="&#x1e9e;" horiz-adv-x="707" 
d="M428 -13q-95 0 -162 53l85 118q31 -28 73 -28q45 0 71 25.5t26 69.5q0 43 -25 69t-67 26q-19 0 -40.5 -5.5t-38.5 -15.5l-48 81l154 184h-100q-60 0 -96.5 -41t-36.5 -108v-415h-156v418q0 64 18.5 116t52 89t81.5 57t106 20h286v-117l-135 -159q3 0 6 0.5t6 0.5
q86 -7 137 -62t51 -146q0 -52 -18 -94.5t-50.5 -72.5t-78 -46.5t-101.5 -16.5z" />
    <glyph glyph-name="uni1EBC" unicode="&#x1ebc;" horiz-adv-x="559" 
d="M74 700h423v-136h-267v-148h247v-129h-247v-151h277v-136h-433v700zM87 840q19 36 52.5 56t72.5 20q23 0 43.5 -6.5t48.5 -19.5q19 -8 37.5 -15t38.5 -7q23 0 41 10t29 27l46 -65q-20 -36 -53.5 -56t-71.5 -20q-20 0 -41 6.5t-53 20.5q-21 9 -39 14.5t-35 5.5
q-49 0 -71 -37z" />
    <glyph glyph-name="uni1EBD" unicode="&#x1ebd;" horiz-adv-x="564" 
d="M292 -11q-59 0 -107 18.5t-82.5 53t-53.5 82.5t-19 106v19q0 58 19 106t53 82.5t81 54t103 19.5h13q53 0 96.5 -17.5t75 -49t49 -75t17.5 -95.5v-74h-362q5 -52 39 -81.5t88 -29.5h9q44 0 78.5 18t57.5 44l74 -93q-38 -38 -95.5 -63t-117.5 -25h-16zM396 310v3
q-2 51 -29 79.5t-70 28.5h-10q-44 0 -72 -29t-36 -82h217zM86 662q19 35 52.5 55.5t73.5 20.5q22 0 42.5 -6.5t48.5 -19.5q20 -8 38 -15t39 -7q45 0 70 37l45 -66q-20 -35 -53 -55.5t-71 -20.5q-21 0 -42 7t-53 21q-21 9 -39 14.5t-35 5.5q-23 0 -41.5 -10t-29.5 -27z" />
    <glyph glyph-name="uni2010" unicode="&#x2010;" horiz-adv-x="450" 
d="M65 321h320v-121h-320v121z" />
    <glyph glyph-name="endash" unicode="&#x2013;" horiz-adv-x="640" 
d="M65 362h510v-103h-510v103z" />
    <glyph glyph-name="emdash" unicode="&#x2014;" horiz-adv-x="1130" 
d="M65 362h1000v-104h-1000v104z" />
    <glyph glyph-name="quoteleft" unicode="&#x2018;" horiz-adv-x="273" 
d="M173.007 402.043h-140.991l112.993 297.981h113.993z" />
    <glyph glyph-name="quoteright" unicode="&#x2019;" horiz-adv-x="267" 
d="M117 700h141l-113 -298h-114z" />
    <glyph glyph-name="quotesinglbase" unicode="&#x201a;" horiz-adv-x="260" 
d="M92 168h141l-113 -298h-114z" />
    <glyph glyph-name="quotedblleft" unicode="&#x201c;" horiz-adv-x="462" 
d="M365.006 402.01h-137.991l112.993 297.982h110.993zM167.018 402.01h-137.991l112.993 297.982h110.993z" />
    <glyph glyph-name="quotedblright" unicode="&#x201d;" horiz-adv-x="462" 
d="M117 700h138l-113 -298h-111zM315 700h138l-113 -298h-111z" />
    <glyph glyph-name="quotedblbase" unicode="&#x201e;" horiz-adv-x="462" 
d="M97 168h138l-113 -298h-111zM295 168h138l-113 -298h-111z" />
    <glyph glyph-name="dagger" unicode="&#x2020;" horiz-adv-x="398" 
d="M138 400h-123v120h123v200h123v-200h122v-120h-122v-528h-123v528z" />
    <glyph glyph-name="daggerdbl" unicode="&#x2021;" horiz-adv-x="398" 
d="M137 132h-122v121h122v147h-122v120h122v200h124v-200h122v-120h-122v-147h122v-121h-122v-260h-124v260z" />
    <glyph glyph-name="bullet" unicode="&#x2022;" horiz-adv-x="272" 
d="M136 203q-21 0 -39.5 7t-32 20t-21.5 30t-8 37v6q0 19 8 35.5t21.5 29t32 20t39.5 7.5t39 -7.5t32 -20t22 -29t8 -35.5v-6q0 -20 -8 -37t-21.5 -30t-32 -20t-39.5 -7z" />
    <glyph glyph-name="ellipsis" unicode="&#x2026;" horiz-adv-x="732" 
d="M605 -13q-19 0 -36 6.5t-29.5 18t-19.5 27t-7 33.5v6q0 17 7 32t19.5 26.5t29.5 18t36 6.5t35.5 -6.5t29 -18t20 -26.5t7.5 -32v-6q0 -18 -7.5 -33.5t-20 -27t-29 -18t-35.5 -6.5zM127 -13q-19 0 -36 6.5t-29.5 18t-19.5 27t-7 33.5v6q0 17 7 32t19.5 26.5t29.5 18
t36 6.5t35.5 -6.5t29 -18t20 -26.5t7.5 -32v-6q0 -18 -7.5 -33.5t-20 -27t-29 -18t-35.5 -6.5zM366 -13q-19 0 -36 6.5t-29.5 18t-19.5 27t-7 33.5v6q0 17 7 32t19.5 26.5t29.5 18t36 6.5t35.5 -6.5t29 -18t20 -26.5t7.5 -32v-6q0 -18 -7.5 -33.5t-20 -27t-29 -18
t-35.5 -6.5z" />
    <glyph glyph-name="perthousand" unicode="&#x2030;" horiz-adv-x="1192" 
d="M189 335q-34 0 -63 13t-50 36.5t-32.5 56t-11.5 71.5v17q0 39 11.5 71.5t32.5 56t50 36.5t63 13h19q34 0 63 -13t50 -36.5t32.5 -56t11.5 -71.5v-17q0 -39 -11.5 -71.5t-32.5 -56t-50 -36.5t-63 -13h-19zM595 701h157l-528 -702h-157zM200 444q23 0 38 19t15 52v11
q0 33 -15 52t-38 19h-3q-23 0 -38 -19t-15 -52v-11q0 -33 15 -52t38 -19h3zM610 -9q-34 0 -63 13t-50 36.5t-32.5 56t-11.5 71.5v17q0 39 11.5 71.5t32.5 56t50 36.5t63 13h18q35 0 64 -13t50 -36.5t32.5 -56t11.5 -71.5v-17q0 -39 -11.5 -71.5t-32.5 -56t-50 -36.5t-64 -13
h-18zM621 100q23 0 37.5 19t14.5 52v11q0 33 -14.5 52t-37.5 19h-4q-23 0 -37.5 -19t-14.5 -52v-11q0 -33 14.5 -52t37.5 -19h4zM985 -8q-34 0 -63 13t-50 36.5t-32.5 56t-11.5 71.5v17q0 39 11.5 71.5t32.5 56t50 36.5t63 13h18q35 0 64 -13t50 -36.5t32.5 -56t11.5 -71.5
v-17q0 -39 -11.5 -71.5t-32.5 -56t-50 -36.5t-64 -13h-18zM996 101q23 0 37.5 19t14.5 52v11q0 33 -14.5 52t-37.5 19h-4q-23 0 -37.5 -19t-14.5 -52v-11q0 -33 14.5 -52t37.5 -19h4z" />
    <glyph glyph-name="minute" unicode="&#x2032;" horiz-adv-x="269" 
d="M108 700h135l-103 -274h-97z" />
    <glyph glyph-name="second" unicode="&#x2033;" horiz-adv-x="474" 
d="M104 700h135l-103 -274h-97zM307 700h135l-103 -274h-97z" />
    <glyph glyph-name="guilsinglleft" unicode="&#x2039;" horiz-adv-x="380" 
d="M41 270v8l148 200h155l-147 -199v-10l147 -199h-155z" />
    <glyph glyph-name="guilsinglright" unicode="&#x203a;" horiz-adv-x="380" 
d="M339.003 270v8l-147.991 200h-154.99l146.99 -199v-10l-146.99 -199h154.99z" />
    <glyph glyph-name="fraction" unicode="&#x2044;" horiz-adv-x="331" 
d="M176 720h141l-163 -831h-141z" />
    <glyph glyph-name="Euro" unicode="&#x20ac;" horiz-adv-x="661" 
d="M389 -13q-111 0 -187 63t-104 174h-79v102h65v14v20v13h-65v102h79q28 110 104.5 174t187.5 64q72 0 130.5 -28t99.5 -82l-104 -93q-23 32 -57 49.5t-72 17.5q-48 0 -83 -27t-52 -75h211v-102h-226q-1 -3 -1 -6.5v-6.5v-21q0 -9 1 -13h226v-102h-209q17 -48 52 -74.5
t82 -26.5q42 0 77.5 19t57.5 52l113 -83q-42 -60 -105.5 -92t-141.5 -32z" />
    <glyph glyph-name="uni20B4" unicode="&#x20b4;" horiz-adv-x="629" 
d="M19 475h368q8 10 8 24q-2 36 -26 57t-65 21q-33 0 -71 -13.5t-72 -37.5l-60 115q45 35 99.5 53.5t113.5 18.5q51 0 93 -14t72 -38.5t46.5 -59t16.5 -76.5q0 -14 -1.5 -26t-6.5 -24h76v-103h-591v103zM330 -13q-56 0 -102.5 14t-79.5 39t-51 60.5t-18 77.5q0 13 1 24t5 22
h-66v103h591v-103h-379q-5 -13 -5 -27q0 -35 28.5 -54.5t79.5 -19.5q43 0 85 14.5t73 40.5l69 -117q-42 -35 -103 -54.5t-128 -19.5z" />
    <glyph glyph-name="uni20B8" unicode="&#x20b8;" horiz-adv-x="547" 
d="M20 700h507v-99h-507v99zM195 438h-175v124h507v-124h-175v-438h-157v438z" />
    <glyph glyph-name="uni20BD" unicode="&#x20bd;" horiz-adv-x="625" 
d="M11 365h68v335h254q59 0 107 -15t82 -43t52 -67.5t18 -87.5v-10q0 -49 -18.5 -89t-52 -68.5t-81 -43.5t-106.5 -15h-99v-62h202v-103h-202v-96h-156v96h-68v103h68v62h-68v104zM316 365q56 0 88.5 27t32.5 72v10q0 44 -31 68t-85 24h-86v-201h81z" />
    <glyph glyph-name="uni2116" unicode="&#x2116;" horiz-adv-x="1010" 
d="M833 428q-60 0 -97.5 37t-37.5 98v8q0 30 10 54.5t28 42.5t42.5 27.5t54.5 9.5h14q30 0 54.5 -9.5t42 -27.5t27.5 -42.5t10 -54.5v-8q0 -61 -37 -98t-97 -37h-14zM74 700h171l234 -463h5v463h146v-700h-157l-247 491h-6v-491h-146v700zM843 508q23 0 37.5 15t14.5 41v6
q0 26 -14.5 40.5t-37.5 14.5h-5q-23 0 -38.5 -14.5t-15.5 -40.5v-6q0 -26 15.5 -41t38.5 -15h5zM716 384h248v-87h-248v87z" />
    <glyph glyph-name="trademark" unicode="&#x2122;" horiz-adv-x="617" 
d="M261 700h122l33 -113h6l33 113h122v-245h-79v159h-7l-39 -121h-66l-39 121h-7v-159h-79v245zM82 625h-72v75h223v-75h-72v-170h-79v170z" />
    <glyph glyph-name="estimated" unicode="&#x212e;" horiz-adv-x="802" 
d="M235 111q35 -25 77 -38.5t89 -13.5q81 0 148.5 40.5t105.5 107.5h80q-21 -49 -55 -89.5t-77.5 -69.5t-94.5 -45t-107 -16q-75 0 -141.5 28.5t-116 78t-78 115.5t-28.5 141t28.5 141.5t78 116t116 78t141.5 28.5t141 -28.5t115.5 -78t78 -116t28.5 -141.5h-529v-239z
M566 590q-35 25 -77 38.5t-88 13.5q-47 0 -89 -13.5t-77 -38.5v-168h331v168z" />
    <glyph glyph-name="partialdiff" unicode="&#x2202;" horiz-adv-x="617" 
d="M195 741q33 8 64 12t59 4q74 0 124 -22.5t80.5 -63t44 -98t13.5 -126.5q0 -82 -15 -165q-10 -66 -35.5 -120t-65 -92.5t-90.5 -59.5t-112 -21q-52 0 -95 16t-73.5 45t-47 69.5t-16.5 89.5q0 57 19.5 110.5t54.5 95.5t85 67.5t110 25.5q48 0 85.5 -20t60.5 -55
q0 49 -8.5 88.5t-29.5 67.5t-57 43t-90 15q-34 0 -78 -11zM278 100q33 0 58 17t41.5 43.5t25 58t8.5 60.5q0 54 -24 87.5t-67 33.5q-34 0 -59.5 -17t-42 -43.5t-24.5 -59t-8 -62.5q0 -54 24 -86t68 -32z" />
    <glyph glyph-name="uni2206" unicode="&#x2206;" horiz-adv-x="650" 
d="M226 700h200l231 -700h-664zM453 125l-122 413h-11l-123 -413h256z" />
    <glyph glyph-name="product" unicode="&#x220f;" horiz-adv-x="720" 
d="M28 700h664v-136h-65v-564h-156v564h-223v-564h-157v564h-63v136z" />
    <glyph glyph-name="summation" unicode="&#x2211;" horiz-adv-x="561" 
d="M235 141v-5h292v-136h-487v118l203 233l-203 231v118h487v-136h-292v-5l174 -208z" />
    <glyph glyph-name="minus" unicode="&#x2212;" horiz-adv-x="593" 
d="M44 385h505v-120h-505v120z" />
    <glyph glyph-name="radical" unicode="&#x221a;" horiz-adv-x="690" 
d="M139 396h-125v124h244l105 -361h9l152 541h162l-217 -700h-204z" />
    <glyph glyph-name="proportional" unicode="&#x221d;" horiz-adv-x="737" 
d="M677 168q-63 0 -121 26.5t-105 70.5q-47 -44 -105 -70.5t-121 -26.5q-34 0 -64 11.5t-52.5 32t-35.5 49.5t-13 64v10q0 35 13 64t35.5 49.5t52.5 32t64 11.5q63 0 121 -26.5t105 -70.5q47 44 105 70.5t121 26.5v-109q-15 0 -34.5 -3t-40.5 -10t-41.5 -16.5t-38.5 -23.5
q36 -27 80 -40t75 -13v-109zM188 329q0 -24 17 -38t48 -14q30 0 61 14.5t66 38.5q-35 24 -66 38.5t-61 14.5q-31 0 -48 -14t-17 -38v-2z" />
    <glyph glyph-name="infinity" unicode="&#x221e;" horiz-adv-x="902" 
d="M225 492q63 0 121 -26.5t105 -70.5q47 44 105 70.5t121 26.5q34 0 64 -11.5t52.5 -32t35.5 -49.5t13 -64v-10q0 -35 -13 -64t-35.5 -49.5t-52.5 -32t-64 -11.5q-63 0 -121 26.5t-105 70.5q-47 -44 -105 -70.5t-121 -26.5q-34 0 -64 11.5t-52.5 32t-35.5 49.5t-13 64v10
q0 35 13 64t35.5 49.5t52.5 32t64 11.5zM714 329v2q0 24 -17 38t-48 14q-30 0 -61 -14.5t-66 -38.5q35 -24 66 -38.5t61 -14.5q31 0 48 14t17 38zM188 329q0 -24 17 -38t48 -14q30 0 61 14.5t66 38.5q-35 24 -66 38.5t-61 14.5q-31 0 -48 -14t-17 -38v-2z" />
    <glyph glyph-name="integral" unicode="&#x222b;" horiz-adv-x="364" 
d="M74 -197q-24 0 -50.5 4.5t-49.5 13.5v122q11 -5 22 -8.5t25 -3.5q28 0 39 15.5t15 56.5l56 534q10 86 46 133.5t110 47.5q26 0 53 -4.5t50 -14.5v-123q-14 7 -27.5 11t-27.5 4q-29 0 -39.5 -16.5t-14.5 -54.5l-57 -540q-9 -85 -44 -131t-106 -46z" />
    <glyph glyph-name="approxequal" unicode="&#x2248;" horiz-adv-x="600" 
d="M54 351v124q30 26 60.5 36.5t60.5 10.5q33 0 65.5 -8.5t64.5 -19t64 -19.5t63 -9q29 0 57.5 10.5t56.5 36.5v-124q-28 -26 -56 -36t-57 -10q-32 0 -64 9.5t-64 20.5t-64.5 20.5t-65.5 9.5q-30 0 -60.5 -11.5t-60.5 -40.5zM54 147v124q30 26 60.5 36.5t60.5 10.5
q33 0 65.5 -8.5t64.5 -19t64 -19.5t63 -9q29 0 57.5 10.5t56.5 36.5v-124q-28 -26 -56 -36t-57 -10q-32 0 -64 9.5t-64 20.5t-64.5 20.5t-65.5 9.5q-30 0 -60.5 -11.5t-60.5 -40.5z" />
    <glyph glyph-name="notequal" unicode="&#x2260;" horiz-adv-x="593" 
d="M49 486h289l82 144h100l-83 -144h107v-120h-174l-47 -82h221v-119h-289l-82 -145h-100l83 145h-107v119h174l47 82h-221v120z" />
    <glyph glyph-name="lessequal" unicode="&#x2264;" horiz-adv-x="564" 
d="M52 331v107l460 199v-135l-290 -116v-2l290 -118v-136zM52 121h460v-121h-460v121z" />
    <glyph glyph-name="greaterequal" unicode="&#x2265;" horiz-adv-x="564" 
d="M512.003 331v107l-459.972 199v-135l289.982 -116v-2l-289.982 -118v-136zM512.003 121h-459.972v-121h459.972v121z" />
    <glyph glyph-name="A.ss01" horiz-adv-x="668" 
d="M17 0q0 88 20 176.5t57.5 176.5t91.5 175t121 172h162l180 -700h-165l-34 146h-256q-8 -36 -12 -72.5t-4 -73.5h-161zM421 275l-58 257h-14q-34 -56 -67 -124.5t-57 -132.5h196z" />
    <glyph glyph-name="Aacute.ss01" horiz-adv-x="653" 
d="M313 757l56 152h139l-81 -152h-114zM1 0q0 88 20 176.5t57.5 176.5t91.5 175t121 172h162l180 -700h-165l-34 146h-256q-8 -36 -12 -72.5t-4 -73.5h-161zM405 275l-58 257h-14q-34 -56 -67 -124.5t-57 -132.5h196z" />
    <glyph glyph-name="Abreve.ss01" horiz-adv-x="653" 
d="M372 756q-79 0 -125.5 39t-46.5 105h118q0 -25 15.5 -39t40.5 -14q24 0 37 14t13 39h118q1 -66 -45.5 -105t-124.5 -39zM1 0q0 88 20 176.5t57.5 176.5t91.5 175t121 172h162l180 -700h-165l-34 146h-256q-8 -36 -12 -72.5t-4 -73.5h-161zM405 275l-58 257h-14
q-34 -56 -67 -124.5t-57 -132.5h196z" />
    <glyph glyph-name="Acircumflex.ss01" horiz-adv-x="653" 
d="M288 900h164l110 -128h-131l-52 53h-18l-52 -53h-131zM1 0q0 88 20 176.5t57.5 176.5t91.5 175t121 172h162l180 -700h-165l-34 146h-256q-8 -36 -12 -72.5t-4 -73.5h-161zM405 275l-58 257h-14q-34 -56 -67 -124.5t-57 -132.5h196z" />
    <glyph glyph-name="Adieresis.ss01" horiz-adv-x="653" 
d="M254 760q-32 0 -53 19t-21 50t21 50t53 19t54 -19t22 -50t-22 -50t-54 -19zM472 760q-33 0 -53.5 19t-20.5 50t20.5 50t53.5 19t54.5 -19t21.5 -50t-21.5 -50t-54.5 -19zM1 0q0 88 20 176.5t57.5 176.5t91.5 175t121 172h162l180 -700h-165l-34 146h-256
q-8 -36 -12 -72.5t-4 -73.5h-161zM405 275l-58 257h-14q-34 -56 -67 -124.5t-57 -132.5h196z" />
    <glyph glyph-name="Agrave.ss01" horiz-adv-x="653" 
d="M233 909h142l61 -152h-125zM1 0q0 88 20 176.5t57.5 176.5t91.5 175t121 172h162l180 -700h-165l-34 146h-256q-8 -36 -12 -72.5t-4 -73.5h-161zM405 275l-58 257h-14q-34 -56 -67 -124.5t-57 -132.5h196z" />
    <glyph glyph-name="Amacron.ss01" horiz-adv-x="668" 
d="M17 0q0 88 20 176.5t57.5 176.5t91.5 175t121 172h162l180 -700h-165l-34 146h-256q-8 -36 -12 -72.5t-4 -73.5h-161zM421 275l-58 257h-14q-34 -56 -67 -124.5t-57 -132.5h196zM237 890h299v-100h-299v100z" />
    <glyph glyph-name="Aogonek.ss01" horiz-adv-x="668" 
d="M17 0q0 88 20 176.5t57.5 176.5t91.5 175t121 172h162l180 -700h-165l-34 146h-256q-8 -36 -12 -72.5t-4 -73.5h-161zM421 275l-58 257h-14q-34 -56 -67 -124.5t-57 -132.5h196zM604 -185q-45 0 -71 22.5t-26 62.5t24 77t66 63l52 -40q-26 -24 -36 -43.5t-10 -37.5
q0 -14 6.5 -21t17.5 -7q6 0 11.5 2t10.5 4v-75q-22 -7 -45 -7z" />
    <glyph glyph-name="Aring.ss01" horiz-adv-x="668" 
d="M17 0q0 88 20 176.5t57.5 176.5t91.5 175t121 172h162l180 -700h-165l-34 146h-256q-8 -36 -12 -72.5t-4 -73.5h-161zM421 275l-58 257h-14q-34 -56 -67 -124.5t-57 -132.5h196zM388 738q-51 0 -81.5 26.5t-30.5 68.5q0 45 30.5 72.5t81.5 27.5q48 0 78.5 -27.5
t30.5 -72.5q0 -42 -30.5 -68.5t-78.5 -26.5zM386 800q17 0 28 9.5t11 25.5t-11 26.5t-28 10.5t-27.5 -10.5t-10.5 -26.5t10.5 -25.5t27.5 -9.5z" />
    <glyph glyph-name="Atilde.ss01" horiz-adv-x="668" 
d="M17 0q0 88 20 176.5t57.5 176.5t91.5 175t121 172h162l180 -700h-165l-34 146h-256q-8 -36 -12 -72.5t-4 -73.5h-161zM421 275l-58 257h-14q-34 -56 -67 -124.5t-57 -132.5h196zM182 840q19 36 52.5 56t72.5 20q23 0 43.5 -6.5t48.5 -19.5q19 -8 37.5 -15t38.5 -7
q23 0 41 10t29 27l46 -65q-20 -36 -53.5 -56t-71.5 -20q-20 0 -41 6.5t-53 20.5q-21 9 -39 14.5t-35 5.5q-49 0 -71 -37z" />
    <glyph glyph-name="AE.ss01" horiz-adv-x="863" 
d="M17 0q0 88 20.5 176.5t58.5 176.5t92 175t121 172h492v-136h-253v-148h233v-129h-233v-151h263v-136h-420v159h-195q-8 -38 -13 -78t-5 -81h-161zM391 286v279h-17q-44 -72 -80.5 -141.5t-62.5 -137.5h160z" />
    <glyph glyph-name="G.ss01" horiz-adv-x="740" 
d="M543 477q-56 100 -154 100h-11q-41 0 -74 -16t-56.5 -44.5t-36 -68.5t-12.5 -89v-20q0 -49 13 -89t37 -68t58 -43.5t76 -15.5h11q30 0 56.5 8t46 21t31 30t11.5 36q0 44 -56 44q-22 0 -42 -5v121q20 4 42 6t39 2q82 0 126.5 -47t44.5 -139v-200h-135v66
q-31 -37 -79.5 -57t-104.5 -20h-14q-73 0 -133 25t-102 71t-65 111t-23 144v19q0 79 25 144t70 111.5t107.5 72.5t137.5 26h12q85 0 157.5 -41t119.5 -117z" />
    <glyph glyph-name="uni01F4.ss01" horiz-adv-x="740" 
d="M543 477q-56 100 -154 100h-11q-41 0 -74 -16t-56.5 -44.5t-36 -68.5t-12.5 -89v-20q0 -49 13 -89t37 -68t58 -43.5t76 -15.5h11q30 0 56.5 8t46 21t31 30t11.5 36q0 44 -56 44q-22 0 -42 -5v121q20 4 42 6t39 2q82 0 126.5 -47t44.5 -139v-200h-135v66
q-31 -37 -79.5 -57t-104.5 -20h-14q-73 0 -133 25t-102 71t-65 111t-23 144v19q0 79 25 144t70 111.5t107.5 72.5t137.5 26h12q85 0 157.5 -41t119.5 -117zM442 761h-113l55 152h139z" />
    <glyph glyph-name="Gbreve.ss01" horiz-adv-x="740" 
d="M543 477q-56 100 -154 100h-11q-41 0 -74 -16t-56.5 -44.5t-36 -68.5t-12.5 -89v-20q0 -49 13 -89t37 -68t58 -43.5t76 -15.5h11q30 0 56.5 8t46 21t31 30t11.5 36q0 44 -56 44q-22 0 -42 -5v121q20 4 42 6t39 2q82 0 126.5 -47t44.5 -139v-200h-135v66
q-31 -37 -79.5 -57t-104.5 -20h-14q-73 0 -133 25t-102 71t-65 111t-23 144v19q0 79 25 144t70 111.5t107.5 72.5t137.5 26h12q85 0 157.5 -41t119.5 -117zM337 900q0 -23 13.5 -37.5t39.5 -14.5q25 0 38.5 14.5t13.5 37.5h120q0 -66 -46.5 -106t-125.5 -40q-80 0 -126.5 40
t-46.5 106h120z" />
    <glyph glyph-name="Gcircumflex.ss01" horiz-adv-x="740" 
d="M543 477q-56 100 -154 100h-11q-41 0 -74 -16t-56.5 -44.5t-36 -68.5t-12.5 -89v-20q0 -49 13 -89t37 -68t58 -43.5t76 -15.5h11q30 0 56.5 8t46 21t31 30t11.5 36q0 44 -56 44q-22 0 -42 -5v121q20 4 42 6t39 2q82 0 126.5 -47t44.5 -139v-200h-135v66
q-31 -37 -79.5 -57t-104.5 -20h-14q-73 0 -133 25t-102 71t-65 111t-23 144v19q0 79 25 144t70 111.5t107.5 72.5t137.5 26h12q85 0 157.5 -41t119.5 -117zM307 900h164l110 -128h-131l-52 53h-18l-52 -53h-131z" />
    <glyph glyph-name="uni0122.ss01" horiz-adv-x="740" 
d="M543 477q-56 100 -154 100h-11q-41 0 -74 -16t-56.5 -44.5t-36 -68.5t-12.5 -89v-20q0 -49 13 -89t37 -68t58 -43.5t76 -15.5h11q30 0 56.5 8t46 21t31 30t11.5 36q0 44 -56 44q-22 0 -42 -5v121q20 4 42 6t39 2q82 0 126.5 -47t44.5 -139v-200h-135v66
q-31 -37 -79.5 -57t-104.5 -20h-14q-73 0 -133 25t-102 71t-65 111t-23 144v19q0 79 25 144t70 111.5t107.5 72.5t137.5 26h12q85 0 157.5 -41t119.5 -117zM305 -48h126l-65 -155h-97z" />
    <glyph glyph-name="Gdotaccent.ss01" horiz-adv-x="740" 
d="M543 477q-56 100 -154 100h-11q-41 0 -74 -16t-56.5 -44.5t-36 -68.5t-12.5 -89v-20q0 -49 13 -89t37 -68t58 -43.5t76 -15.5h11q30 0 56.5 8t46 21t31 30t11.5 36q0 44 -56 44q-22 0 -42 -5v121q20 4 42 6t39 2q82 0 126.5 -47t44.5 -139v-200h-135v66
q-31 -37 -79.5 -57t-104.5 -20h-14q-73 0 -133 25t-102 71t-65 111t-23 144v19q0 79 25 144t70 111.5t107.5 72.5t137.5 26h12q85 0 157.5 -41t119.5 -117zM388 767q-37 0 -60 21t-23 54q0 34 23 54.5t60 20.5q39 0 63 -20.5t24 -54.5q0 -33 -24 -54t-63 -21z" />
    <glyph glyph-name="J.ss01" horiz-adv-x="332" 
d="M88 -152q-28 0 -52 5.5t-47 13.5v144q27 -21 58 -21q32 0 47 21.5t15 62.5v626h156v-648q0 -103 -47 -153.5t-130 -50.5z" />
    <glyph glyph-name="Jcircumflex.ss01" horiz-adv-x="332" 
d="M88 -152q-28 0 -52 5.5t-47 13.5v144q27 -21 58 -21q32 0 47 21.5t15 62.5v626h156v-648q0 -103 -47 -153.5t-130 -50.5zM105 897h164l110 -128h-131l-52 53h-18l-52 -53h-131z" />
    <glyph glyph-name="K.ss01" horiz-adv-x="659" 
d="M74 700h156v-292h8q77 52 134 128t83 164h165q-45 -116 -105.5 -195t-136.5 -131l279 -374h-187l-232 328h-8v-328h-156v700z" />
    <glyph glyph-name="uni0136.ss01" horiz-adv-x="659" 
d="M74 700h156v-292h8q77 52 134 128t83 164h165q-45 -116 -105.5 -195t-136.5 -131l279 -374h-187l-232 328h-8v-328h-156v700zM283 -40h126l-65 -155h-97z" />
    <glyph glyph-name="M.ss01" horiz-adv-x="876" 
d="M48 0q0 93 9.5 189.5t27 188t42 174t53.5 148.5h162l87 -404h6l155 404h212v-700h-157v503h-6l-164 -410h-118l-91 410h-7q-12 -33 -21.5 -84.5t-16.5 -117t-10 -142t-2 -159.5h-161z" />
    <glyph glyph-name="N.ss01" horiz-adv-x="726" 
d="M65 0q-1 94 1 194t6.5 194t11 175t15.5 137h157l241 -459h5v459h151v-700h-156l-266 501h-6q-4 -60 -6 -126.5t-2 -132.5t2.5 -128t6.5 -114h-161z" />
    <glyph glyph-name="Nacute.ss01" horiz-adv-x="726" 
d="M65 0q-1 94 1 194t6.5 194t11 175t15.5 137h157l241 -459h5v459h151v-700h-156l-266 501h-6q-4 -60 -6 -126.5t-2 -132.5t2.5 -128t6.5 -114h-161zM422 759h-113l55 152h139z" />
    <glyph glyph-name="Ncaron.ss01" horiz-adv-x="726" 
d="M65 0q-1 94 1 194t6.5 194t11 175t15.5 137h157l241 -459h5v459h151v-700h-156l-266 501h-6q-4 -60 -6 -126.5t-2 -132.5t2.5 -128t6.5 -114h-161zM177 898h131l52 -53h18l52 53h131l-110 -128h-164z" />
    <glyph glyph-name="uni0145.ss01" horiz-adv-x="726" 
d="M65 0q-1 94 1 194t6.5 194t11 175t15.5 137h157l241 -459h5v459h151v-700h-156l-266 501h-6q-4 -60 -6 -126.5t-2 -132.5t2.5 -128t6.5 -114h-161zM299 -40h126l-65 -155h-97z" />
    <glyph glyph-name="Eng.ss01" horiz-adv-x="719" 
d="M460 -198q-53 0 -101 17v146q13 -9 28.5 -15t35.5 -6q34 0 53 18t19 47v8l-261 466h-9q-4 -60 -6 -123.5t-2 -126t2.5 -122t6.5 -111.5h-161q-1 94 1 194t6.5 194t11 175t15.5 137h161l226 -415h10v415h157v-700q0 -98 -51.5 -148t-141.5 -50z" />
    <glyph glyph-name="Ntilde.ss01" horiz-adv-x="726" 
d="M65 0q-1 94 1 194t6.5 194t11 175t15.5 137h157l241 -459h5v459h151v-700h-156l-266 501h-6q-4 -60 -6 -126.5t-2 -132.5t2.5 -128t6.5 -114h-161zM165 838q19 36 52.5 56t72.5 20q23 0 43.5 -6.5t48.5 -19.5q19 -8 37.5 -15t38.5 -7q23 0 41 10t29 27l46 -65
q-20 -36 -53.5 -56t-71.5 -20q-20 0 -41 6.5t-53 20.5q-21 9 -39 14.5t-35 5.5q-49 0 -71 -37z" />
    <glyph glyph-name="Q.ss01" horiz-adv-x="783" 
d="M577 -130q-48 0 -85.5 17.5t-67.5 38t-54 37.5t-46 17q-38 0 -38 -51l-132 30q0 34 11.5 63t32 50t49.5 32.5t64 11.5q13 0 24.5 -1.5t22.5 -3.5q46 0 83.5 17.5t64.5 49t41.5 76.5t14.5 101v10q0 50 -12.5 89t-36 66.5t-56 42t-71.5 14.5h-11q-39 0 -71 -14.5
t-55.5 -41.5t-36.5 -65t-13 -85v-10q0 -60 22 -108.5t60 -75.5l-119 -94q-60 50 -92.5 121t-32.5 156v10q0 78 24.5 141.5t69 108.5t106.5 69.5t137 24.5h13q75 0 137 -25t106.5 -70.5t69 -108.5t24.5 -138v-10q0 -62 -16.5 -116.5t-46 -98t-70.5 -73.5t-90 -44
q17 -11 32 -18t31 -7q23 0 34 14.5t11 32.5l132 -30q0 -33 -11.5 -60.5t-33 -48t-52 -32t-67.5 -11.5z" />
    <glyph glyph-name="V.ss01" horiz-adv-x="654" 
d="M4 700h166l131 -553h12q27 53 53.5 120.5t47.5 141.5t35 149t18 142h162q-11 -96 -33.5 -190t-53.5 -182.5t-69.5 -171t-80.5 -156.5h-204z" />
    <glyph glyph-name="W.ss01" horiz-adv-x="953" 
d="M-7 700h166l100 -549h11q23 56 44.5 122.5t39 138t29 145.5t15.5 143h152l115 -549h10q21 53 41 120t37 140.5t28.5 148t15.5 140.5h163q-12 -95 -32.5 -188.5t-47.5 -183t-59.5 -172t-67.5 -156.5h-183l-92 425h-6q-22 -103 -54.5 -204.5t-81.5 -220.5h-189z" />
    <glyph glyph-name="Wacute.ss01" horiz-adv-x="953" 
d="M-7 700h166l100 -549h11q23 56 44.5 122.5t39 138t29 145.5t15.5 143h152l115 -549h10q21 53 41 120t37 140.5t28.5 148t15.5 140.5h163q-12 -95 -32.5 -188.5t-47.5 -183t-59.5 -172t-67.5 -156.5h-183l-92 425h-6q-22 -103 -54.5 -204.5t-81.5 -220.5h-189zM528 761
h-113l55 152h139z" />
    <glyph glyph-name="Wcircumflex.ss01" horiz-adv-x="953" 
d="M-7 700h166l100 -549h11q23 56 44.5 122.5t39 138t29 145.5t15.5 143h152l115 -549h10q21 53 41 120t37 140.5t28.5 148t15.5 140.5h163q-12 -95 -32.5 -188.5t-47.5 -183t-59.5 -172t-67.5 -156.5h-183l-92 425h-6q-22 -103 -54.5 -204.5t-81.5 -220.5h-189zM393 900
h164l110 -128h-131l-52 53h-18l-52 -53h-131z" />
    <glyph glyph-name="Wdieresis.ss01" horiz-adv-x="953" 
d="M-7 700h166l100 -549h11q23 56 44.5 122.5t39 138t29 145.5t15.5 143h152l115 -549h10q21 53 41 120t37 140.5t28.5 148t15.5 140.5h163q-12 -95 -32.5 -188.5t-47.5 -183t-59.5 -172t-67.5 -156.5h-183l-92 425h-6q-22 -103 -54.5 -204.5t-81.5 -220.5h-189zM385 758
q-30 0 -48.5 19t-18.5 51t18.5 51.5t48.5 19.5t50.5 -19.5t20.5 -51.5t-20.5 -51t-50.5 -19zM563 758q-31 0 -49.5 19t-18.5 51t18.5 51.5t49.5 19.5q30 0 50 -19.5t20 -51.5t-20 -51t-50 -19z" />
    <glyph glyph-name="Wgrave.ss01" horiz-adv-x="953" 
d="M-7 700h166l100 -549h11q23 56 44.5 122.5t39 138t29 145.5t15.5 143h152l115 -549h10q21 53 41 120t37 140.5t28.5 148t15.5 140.5h163q-12 -95 -32.5 -188.5t-47.5 -183t-59.5 -172t-67.5 -156.5h-183l-92 425h-6q-22 -103 -54.5 -204.5t-81.5 -220.5h-189zM335 909
h142l62 -152h-126z" />
    <glyph glyph-name="X.ss01" horiz-adv-x="635" 
d="M5 0q18 57 38.5 104.5t45 90t54 83t65.5 82.5v6l-195 334h178l128 -242q45 55 78 119.5t45 122.5h175q-33 -97 -81 -178t-111 -156v-6l205 -360h-178l-137 272q-44 -57 -79 -128.5t-51 -143.5h-180z" />
    <glyph glyph-name="Y.ss01" horiz-adv-x="632" 
d="M229 269l-235 431h179l138 -290h9q22 28 42 62.5t36.5 72t29 77.5t19.5 78h179q-22 -68 -46.5 -125t-53.5 -108t-63.5 -99t-77.5 -98v-270h-156v269z" />
    <glyph glyph-name="Yacute.ss01" horiz-adv-x="632" 
d="M229 269l-235 431h179l138 -290h9q22 28 42 62.5t36.5 72t29 77.5t19.5 78h179q-22 -68 -46.5 -125t-53.5 -108t-63.5 -99t-77.5 -98v-270h-156v269zM365 758h-113l55 152h139z" />
    <glyph glyph-name="Ycircumflex.ss01" horiz-adv-x="632" 
d="M229 269l-235 431h179l138 -290h9q22 28 42 62.5t36.5 72t29 77.5t19.5 78h179q-22 -68 -46.5 -125t-53.5 -108t-63.5 -99t-77.5 -98v-270h-156v269zM230 897h164l110 -128h-131l-52 53h-18l-52 -53h-131z" />
    <glyph glyph-name="Ydieresis.ss01" horiz-adv-x="632" 
d="M221 757q-29 0 -48 19t-19 51t19 51.5t48 19.5q30 0 50.5 -19.5t20.5 -51.5t-20.5 -51t-50.5 -19zM399 757q-30 0 -49 19t-19 51t19 51.5t49 19.5t50 -19.5t20 -51.5t-20 -51t-50 -19zM229 269l-235 431h179l138 -290h9q22 28 42 62.5t36.5 72t29 77.5t19.5 78h179
q-22 -68 -46.5 -125t-53.5 -108t-63.5 -99t-77.5 -98v-270h-156v269z" />
    <glyph glyph-name="Z.ss01" horiz-adv-x="588" 
d="M432 -44q-45 0 -81 13t-65 28.5t-53.5 28t-46.5 12.5q-40 0 -40 -50l-132 33q1 33 11 58.5t28 45.5l296 439h-296v136h487v-120l-291 -425q27 -7 50.5 -17.5t44.5 -20.5t40 -17t36 -7q26 0 38 15.5t12 33.5l133 -31q0 -33 -11.5 -61t-33.5 -49t-54 -33t-72 -12z" />
    <glyph glyph-name="Zacute.ss01" horiz-adv-x="588" 
d="M432 -44q-45 0 -81 13t-65 28.5t-53.5 28t-46.5 12.5q-40 0 -40 -50l-132 33q1 33 11 58.5t28 45.5l296 439h-296v136h487v-120l-291 -425q27 -7 50.5 -17.5t44.5 -20.5t40 -17t36 -7q26 0 38 15.5t12 33.5l133 -31q0 -33 -11.5 -61t-33.5 -49t-54 -33t-72 -12zM340 760
h-113l55 152h139z" />
    <glyph glyph-name="Zcaron.ss01" horiz-adv-x="588" 
d="M432 -44q-45 0 -81 13t-65 28.5t-53.5 28t-46.5 12.5q-40 0 -40 -50l-132 33q1 33 11 58.5t28 45.5l296 439h-296v136h487v-120l-291 -425q27 -7 50.5 -17.5t44.5 -20.5t40 -17t36 -7q26 0 38 15.5t12 33.5l133 -31q0 -33 -11.5 -61t-33.5 -49t-54 -33t-72 -12zM95 899
h131l52 -53h18l52 53h131l-110 -128h-164z" />
    <glyph glyph-name="Zdotaccent.ss01" horiz-adv-x="588" 
d="M432 -44q-45 0 -81 13t-65 28.5t-53.5 28t-46.5 12.5q-40 0 -40 -50l-132 33q1 33 11 58.5t28 45.5l296 439h-296v136h487v-120l-291 -425q27 -7 50.5 -17.5t44.5 -20.5t40 -17t36 -7q26 0 38 15.5t12 33.5l133 -31q0 -33 -11.5 -61t-33.5 -49t-54 -33t-72 -12zM285 766
q-37 0 -60 21t-23 54q0 34 23 54.5t60 20.5q39 0 63 -20.5t24 -54.5q0 -33 -24 -54t-63 -21z" />
    <glyph glyph-name="a.ss01" horiz-adv-x="604" 
d="M234 -10q-94 0 -147.5 64t-53.5 177v23q0 62 20 112.5t56 87.5t86 57t110 20h9q68 0 130 -24.5t102 -65.5v-441h-118q-5 16 -10 40.5t-6 42.5v3q-24 -44 -68.5 -70t-99.5 -26h-10zM290 108q23 0 42.5 10.5t34.5 29t23.5 43.5t8.5 54v152q-14 11 -37 16.5t-48 5.5h-3
q-54 0 -89 -43t-35 -117v-14q0 -63 24.5 -100t71.5 -37h7z" />
    <glyph glyph-name="aacute.ss01" horiz-adv-x="604" 
d="M234 -10q-94 0 -147.5 64t-53.5 177v23q0 62 20 112.5t56 87.5t86 57t110 20h9q68 0 130 -24.5t102 -65.5v-441h-118q-5 16 -10 40.5t-6 42.5v3q-24 -44 -68.5 -70t-99.5 -26h-10zM290 108q23 0 42.5 10.5t34.5 29t23.5 43.5t8.5 54v152q-14 11 -37 16.5t-48 5.5h-3
q-54 0 -89 -43t-35 -117v-14q0 -63 24.5 -100t71.5 -37h7zM248 576l57 164h130l-76 -164h-111z" />
    <glyph glyph-name="abreve.ss01" horiz-adv-x="604" 
d="M234 -10q-94 0 -147.5 64t-53.5 177v23q0 62 20 112.5t56 87.5t86 57t110 20h9q68 0 130 -24.5t102 -65.5v-441h-118q-5 16 -10 40.5t-6 42.5v3q-24 -44 -68.5 -70t-99.5 -26h-10zM290 108q23 0 42.5 10.5t34.5 29t23.5 43.5t8.5 54v152q-14 11 -37 16.5t-48 5.5h-3
q-54 0 -89 -43t-35 -117v-14q0 -63 24.5 -100t71.5 -37h7zM256 720q0 -23 14 -37.5t39 -14.5q26 0 39.5 14.5t13.5 37.5h119q0 -66 -46 -106t-126 -40q-79 0 -125.5 40t-46.5 106h119z" />
    <glyph glyph-name="acircumflex.ss01" horiz-adv-x="604" 
d="M234 -10q-94 0 -147.5 64t-53.5 177v23q0 62 20 112.5t56 87.5t86 57t110 20h9q68 0 130 -24.5t102 -65.5v-441h-118q-5 16 -10 40.5t-6 42.5v3q-24 -44 -68.5 -70t-99.5 -26h-10zM290 108q23 0 42.5 10.5t34.5 29t23.5 43.5t8.5 54v152q-14 11 -37 16.5t-48 5.5h-3
q-54 0 -89 -43t-35 -117v-14q0 -63 24.5 -100t71.5 -37h7zM375 589l-55 56h-18l-55 -56h-130l112 131h164l112 -131h-130z" />
    <glyph glyph-name="adieresis.ss01" horiz-adv-x="604" 
d="M234 -10q-94 0 -147.5 64t-53.5 177v23q0 62 20 112.5t56 87.5t86 57t110 20h9q68 0 130 -24.5t102 -65.5v-441h-118q-5 16 -10 40.5t-6 42.5v3q-24 -44 -68.5 -70t-99.5 -26h-10zM290 108q23 0 42.5 10.5t34.5 29t23.5 43.5t8.5 54v152q-14 11 -37 16.5t-48 5.5h-3
q-54 0 -89 -43t-35 -117v-14q0 -63 24.5 -100t71.5 -37h7zM418 600q-33 0 -53.5 19t-20.5 50t20.5 50t53.5 19t54.5 -19t21.5 -50t-21.5 -50t-54.5 -19zM201 600q-33 0 -54 19t-21 50t21 50t54 19q32 0 53.5 -19t21.5 -50t-21.5 -50t-53.5 -19z" />
    <glyph glyph-name="agrave.ss01" horiz-adv-x="604" 
d="M234 -10q-94 0 -147.5 64t-53.5 177v23q0 62 20 112.5t56 87.5t86 57t110 20h9q68 0 130 -24.5t102 -65.5v-441h-118q-5 16 -10 40.5t-6 42.5v3q-24 -44 -68.5 -70t-99.5 -26h-10zM290 108q23 0 42.5 10.5t34.5 29t23.5 43.5t8.5 54v152q-14 11 -37 16.5t-48 5.5h-3
q-54 0 -89 -43t-35 -117v-14q0 -63 24.5 -100t71.5 -37h7zM185 742h129l58 -165h-111z" />
    <glyph glyph-name="amacron.ss01" horiz-adv-x="604" 
d="M234 -10q-94 0 -147.5 64t-53.5 177v23q0 62 20 112.5t56 87.5t86 57t110 20h9q68 0 130 -24.5t102 -65.5v-441h-118q-5 16 -10 40.5t-6 42.5v3q-24 -44 -68.5 -70t-99.5 -26h-10zM290 108q23 0 42.5 10.5t34.5 29t23.5 43.5t8.5 54v152q-14 11 -37 16.5t-48 5.5h-3
q-54 0 -89 -43t-35 -117v-14q0 -63 24.5 -100t71.5 -37h7zM161 724h299v-106h-299v106z" />
    <glyph glyph-name="aogonek.ss01" horiz-adv-x="604" 
d="M234 -10q-94 0 -147.5 64t-53.5 177v23q0 62 20 112.5t56 87.5t86 57t110 20h9q68 0 130 -24.5t102 -65.5v-441h-118q-5 16 -10 40.5t-6 42.5v3q-24 -44 -68.5 -70t-99.5 -26h-10zM290 108q23 0 42.5 10.5t34.5 29t23.5 43.5t8.5 54v152q-14 11 -37 16.5t-48 5.5h-3
q-54 0 -89 -43t-35 -117v-14q0 -63 24.5 -100t71.5 -37h7zM501 -185q-45 0 -71 22.5t-26 62.5t24 77t66 63l52 -40q-26 -24 -36 -43.5t-10 -37.5q0 -14 6.5 -21t17.5 -7q6 0 11.5 2t10.5 4v-75q-22 -7 -45 -7z" />
    <glyph glyph-name="aring.ss01" horiz-adv-x="604" 
d="M234 -10q-94 0 -147.5 64t-53.5 177v23q0 62 20 112.5t56 87.5t86 57t110 20h9q68 0 130 -24.5t102 -65.5v-441h-118q-5 16 -10 40.5t-6 42.5v3q-24 -44 -68.5 -70t-99.5 -26h-10zM290 108q23 0 42.5 10.5t34.5 29t23.5 43.5t8.5 54v152q-14 11 -37 16.5t-48 5.5h-3
q-54 0 -89 -43t-35 -117v-14q0 -63 24.5 -100t71.5 -37h7zM310 574q-49 0 -80 26.5t-31 68.5q0 45 31 72.5t80 27.5q48 0 78.5 -27.5t30.5 -72.5q0 -42 -30.5 -68.5t-78.5 -26.5zM309 636q17 0 28 9.5t11 25.5t-11 26.5t-28 10.5t-28 -10.5t-11 -26.5t11 -25.5t28 -9.5z" />
    <glyph glyph-name="atilde.ss01" horiz-adv-x="604" 
d="M234 -10q-94 0 -147.5 64t-53.5 177v23q0 62 20 112.5t56 87.5t86 57t110 20h9q68 0 130 -24.5t102 -65.5v-441h-118q-5 16 -10 40.5t-6 42.5v3q-24 -44 -68.5 -70t-99.5 -26h-10zM290 108q23 0 42.5 10.5t34.5 29t23.5 43.5t8.5 54v152q-14 11 -37 16.5t-48 5.5h-3
q-54 0 -89 -43t-35 -117v-14q0 -63 24.5 -100t71.5 -37h7zM103 662q19 35 52.5 55.5t73.5 20.5q22 0 42.5 -6.5t48.5 -19.5q20 -8 38 -15t39 -7q45 0 70 37l45 -66q-20 -35 -53 -55.5t-71 -20.5q-21 0 -42 7t-53 21q-21 9 -39 14.5t-35 5.5q-23 0 -41.5 -10t-29.5 -27z" />
    <glyph glyph-name="ae.ss01" horiz-adv-x="864" 
d="M599 -12q-61 0 -110 23t-82 64q-35 -40 -87 -63t-109 -23q-40 0 -73 11.5t-56.5 32.5t-36.5 50.5t-13 64.5q0 84 71.5 127t210.5 43h37q1 6 1 10.5v8.5q0 39 -22.5 58t-60.5 19q-35 0 -76.5 -12t-79.5 -38l-56 102q48 30 106.5 47.5t112.5 17.5q51 0 90 -16.5t65 -46.5
q32 29 74.5 45.5t91.5 16.5h15q48 0 88.5 -13.5t69.5 -37.5t45.5 -57t16.5 -72q0 -65 -48 -98.5t-152 -33.5h-148q9 -49 43 -79.5t82 -30.5h14q36 0 68 16t59 45l80 -86q-17 -21 -41.5 -38.5t-53 -30t-59.5 -19.5t-63 -7h-14zM614 309q40 0 58 14.5t18 35.5q0 25 -21.5 44
t-63.5 19h-6q-44 0 -74.5 -31t-39.5 -82h129zM322 231q-149 0 -149 -70q0 -25 19.5 -40.5t52.5 -15.5q34 0 64.5 15.5t52.5 43.5q-5 16 -7.5 32.5t-3.5 34.5h-29z" />
    <glyph glyph-name="b.ss01" horiz-adv-x="605" 
d="M207 720v-265q26 34 66.5 55t87.5 21h10q46 0 83 -17t63 -48.5t40 -76t14 -99.5v-23q0 -61 -20.5 -112.5t-56.5 -88t-86 -57t-110 -20.5h-9q-67 0 -129 25t-102 65v641h149zM204 125q14 -11 37.5 -17.5t48.5 -6.5h3q54 0 89 43.5t35 116.5v14q0 63 -24.5 100t-72.5 37h-6
q-22 0 -42 -10.5t-35 -28.5t-24 -43t-9 -54v-151z" />
    <glyph glyph-name="d.ss01" horiz-adv-x="609" 
d="M232 -10q-94 0 -146.5 64t-52.5 177v23q0 62 20 112.5t56 87.5t86 57t110 20h9q22 0 42.5 -4t40.5 -10v203h149v-720h-118q-6 16 -10.5 41t-5.5 43v3q-25 -45 -70.5 -71t-99.5 -26h-10zM290 108q23 0 42.5 10.5t34.5 29t23.5 43.5t8.5 54v151q-14 11 -37 17t-48 6h-3
q-54 0 -89 -43t-35 -117v-14q0 -63 24.5 -100t71.5 -37h7z" />
    <glyph glyph-name="dcaron.ss01" horiz-adv-x="648" 
d="M232 -10q-94 0 -146.5 64t-52.5 177v23q0 62 20 112.5t56 87.5t86 57t110 20h9q22 0 42.5 -4t40.5 -10v203h149v-720h-118q-6 16 -10.5 41t-5.5 43v3q-25 -45 -70.5 -71t-99.5 -26h-10zM290 108q23 0 42.5 10.5t34.5 29t23.5 43.5t8.5 54v151q-14 11 -37 17t-48 6h-3
q-54 0 -89 -43t-35 -117v-14q0 -63 24.5 -100t71.5 -37h7zM614 720h123l-39 -171h-92z" />
    <glyph glyph-name="dcroat.ss01" horiz-adv-x="609" 
d="M232 -10q-94 0 -146.5 64t-52.5 177v23q0 62 20 112.5t56 87.5t86 57t110 20h9q22 0 42.5 -4t40.5 -10v61h-127v94h127v48h149v-48h57v-97h-57v-575h-118q-6 16 -10.5 41t-5.5 43v3q-25 -45 -70.5 -71t-99.5 -26h-10zM290 108q23 0 42.5 10.5t34.5 29t23.5 43.5t8.5 54
v151q-14 11 -37 17t-48 6h-3q-54 0 -89 -43t-35 -117v-14q0 -63 24.5 -100t71.5 -37h7z" />
    <glyph glyph-name="e.ss01" horiz-adv-x="575" 
d="M301 -11q-58 0 -107 19t-84.5 53t-55.5 81t-20 103v19q0 57 20 105.5t55 84.5t83 56.5t105 20.5h15q50 0 92.5 -13.5t73.5 -38t48 -58t17 -74.5q0 -65 -49 -98.5t-151 -33.5h-161q9 -51 45.5 -79t84.5 -28h14q38 0 73 17t64 45l80 -86q-18 -20 -43 -37.5t-55 -30
t-62.5 -20t-65.5 -7.5h-16zM323 306q40 0 58 13.5t18 35.5q0 28 -23.5 47.5t-68.5 19.5h-4q-50 0 -82.5 -32.5t-39.5 -83.5h142z" />
    <glyph glyph-name="eacute.ss01" horiz-adv-x="575" 
d="M301 -11q-58 0 -107 19t-84.5 53t-55.5 81t-20 103v19q0 57 20 105.5t55 84.5t83 56.5t105 20.5h15q50 0 92.5 -13.5t73.5 -38t48 -58t17 -74.5q0 -65 -49 -98.5t-151 -33.5h-161q9 -51 45.5 -79t84.5 -28h14q38 0 73 17t64 45l80 -86q-18 -20 -43 -37.5t-55 -30
t-62.5 -20t-65.5 -7.5h-16zM323 306q40 0 58 13.5t18 35.5q0 28 -23.5 47.5t-68.5 19.5h-4q-50 0 -82.5 -32.5t-39.5 -83.5h142zM248 576l57 164h130l-76 -164h-111z" />
    <glyph glyph-name="ebreve.ss01" horiz-adv-x="575" 
d="M301 -11q-58 0 -107 19t-84.5 53t-55.5 81t-20 103v19q0 57 20 105.5t55 84.5t83 56.5t105 20.5h15q50 0 92.5 -13.5t73.5 -38t48 -58t17 -74.5q0 -65 -49 -98.5t-151 -33.5h-161q9 -51 45.5 -79t84.5 -28h14q38 0 73 17t64 45l80 -86q-18 -20 -43 -37.5t-55 -30
t-62.5 -20t-65.5 -7.5h-16zM323 306q40 0 58 13.5t18 35.5q0 28 -23.5 47.5t-68.5 19.5h-4q-50 0 -82.5 -32.5t-39.5 -83.5h142zM255 720q0 -23 14 -37.5t39 -14.5q26 0 39.5 14.5t13.5 37.5h119q0 -66 -46 -106t-126 -40q-79 0 -125.5 40t-46.5 106h119z" />
    <glyph glyph-name="ecaron.ss01" horiz-adv-x="575" 
d="M301 -11q-58 0 -107 19t-84.5 53t-55.5 81t-20 103v19q0 57 20 105.5t55 84.5t83 56.5t105 20.5h15q50 0 92.5 -13.5t73.5 -38t48 -58t17 -74.5q0 -65 -49 -98.5t-151 -33.5h-161q9 -51 45.5 -79t84.5 -28h14q38 0 73 17t64 45l80 -86q-18 -20 -43 -37.5t-55 -30
t-62.5 -20t-65.5 -7.5h-16zM323 306q40 0 58 13.5t18 35.5q0 28 -23.5 47.5t-68.5 19.5h-4q-50 0 -82.5 -32.5t-39.5 -83.5h142zM107 720h130l55 -56h18l55 56h130l-112 -131h-164z" />
    <glyph glyph-name="ecircumflex.ss01" horiz-adv-x="575" 
d="M301 -11q-58 0 -107 19t-84.5 53t-55.5 81t-20 103v19q0 57 20 105.5t55 84.5t83 56.5t105 20.5h15q50 0 92.5 -13.5t73.5 -38t48 -58t17 -74.5q0 -65 -49 -98.5t-151 -33.5h-161q9 -51 45.5 -79t84.5 -28h14q38 0 73 17t64 45l80 -86q-18 -20 -43 -37.5t-55 -30
t-62.5 -20t-65.5 -7.5h-16zM323 306q40 0 58 13.5t18 35.5q0 28 -23.5 47.5t-68.5 19.5h-4q-50 0 -82.5 -32.5t-39.5 -83.5h142zM374 589l-55 56h-18l-55 -56h-130l112 131h164l112 -131h-130z" />
    <glyph glyph-name="edieresis.ss01" horiz-adv-x="567" 
d="M298 -11q-58 0 -107 19t-84.5 53t-55.5 81t-20 103v19q0 57 20 105.5t55 84.5t83 56.5t105 20.5h15q50 0 92.5 -13.5t73.5 -38t48 -58t17 -74.5q0 -65 -49 -98.5t-151 -33.5h-161q9 -51 45.5 -79t84.5 -28h14q38 0 73 17t64 45l80 -86q-18 -20 -43 -37.5t-55 -30
t-62.5 -20t-65.5 -7.5h-16zM320 306q40 0 58 13.5t18 35.5q0 28 -23.5 47.5t-68.5 19.5h-4q-50 0 -82.5 -32.5t-39.5 -83.5h142zM414 600q-33 0 -53.5 19t-20.5 50t20.5 50t53.5 19t54.5 -19t21.5 -50t-21.5 -50t-54.5 -19zM197 600q-33 0 -54 19t-21 50t21 50t54 19
q32 0 53.5 -19t21.5 -50t-21.5 -50t-53.5 -19z" />
    <glyph glyph-name="edotaccent.ss01" horiz-adv-x="575" 
d="M301 -11q-58 0 -107 19t-84.5 53t-55.5 81t-20 103v19q0 57 20 105.5t55 84.5t83 56.5t105 20.5h15q50 0 92.5 -13.5t73.5 -38t48 -58t17 -74.5q0 -65 -49 -98.5t-151 -33.5h-161q9 -51 45.5 -79t84.5 -28h14q38 0 73 17t64 45l80 -86q-18 -20 -43 -37.5t-55 -30
t-62.5 -20t-65.5 -7.5h-16zM323 306q40 0 58 13.5t18 35.5q0 28 -23.5 47.5t-68.5 19.5h-4q-50 0 -82.5 -32.5t-39.5 -83.5h142zM310 593q-38 0 -61.5 20.5t-23.5 55.5q0 34 23.5 55.5t61.5 21.5q39 0 63.5 -21.5t24.5 -55.5q0 -35 -24.5 -55.5t-63.5 -20.5z" />
    <glyph glyph-name="egrave.ss01" horiz-adv-x="575" 
d="M301 -11q-58 0 -107 19t-84.5 53t-55.5 81t-20 103v19q0 57 20 105.5t55 84.5t83 56.5t105 20.5h15q50 0 92.5 -13.5t73.5 -38t48 -58t17 -74.5q0 -65 -49 -98.5t-151 -33.5h-161q9 -51 45.5 -79t84.5 -28h14q38 0 73 17t64 45l80 -86q-18 -20 -43 -37.5t-55 -30
t-62.5 -20t-65.5 -7.5h-16zM323 306q40 0 58 13.5t18 35.5q0 28 -23.5 47.5t-68.5 19.5h-4q-50 0 -82.5 -32.5t-39.5 -83.5h142zM185 742h129l58 -165h-111z" />
    <glyph glyph-name="emacron.ss01" horiz-adv-x="575" 
d="M301 -11q-58 0 -107 19t-84.5 53t-55.5 81t-20 103v19q0 57 20 105.5t55 84.5t83 56.5t105 20.5h15q50 0 92.5 -13.5t73.5 -38t48 -58t17 -74.5q0 -65 -49 -98.5t-151 -33.5h-161q9 -51 45.5 -79t84.5 -28h14q38 0 73 17t64 45l80 -86q-18 -20 -43 -37.5t-55 -30
t-62.5 -20t-65.5 -7.5h-16zM323 306q40 0 58 13.5t18 35.5q0 28 -23.5 47.5t-68.5 19.5h-4q-50 0 -82.5 -32.5t-39.5 -83.5h142zM161 724h299v-106h-299v106z" />
    <glyph glyph-name="eogonek.ss01" horiz-adv-x="575" 
d="M393 -178q-21 -7 -44 -7q-45 0 -71.5 22.5t-26.5 62.5q0 46 35 89q-55 3 -101.5 23t-80 53.5t-52 79.5t-18.5 100v19q0 57 20 105.5t55 84.5t83 56.5t105 20.5h15q50 0 92.5 -13.5t73.5 -38t48 -58t17 -74.5q0 -65 -49 -98.5t-151 -33.5h-161q9 -51 45.5 -79t84.5 -28h14
q38 0 73 17t64 45l80 -86q-22 -26 -55.5 -46.5t-73.5 -33.5q-28 -11 -47.5 -31.5t-19.5 -48.5q0 -33 25 -33q5 0 11 2t10 4v-75zM323 306q40 0 58 13.5t18 35.5q0 28 -23.5 47.5t-68.5 19.5h-4q-50 0 -82.5 -32.5t-39.5 -83.5h142z" />
    <glyph glyph-name="f.ss01" horiz-adv-x="370" 
d="M87 407h-67v97q11 4 24 7t26 5q-4 20 -4 48q0 34 12 62.5t34 48.5t53 31.5t68 11.5q28 0 60.5 -5.5t55.5 -15.5v-115q-40 16 -76 16q-64 0 -65 -55q0 -7 0.5 -12.5t1.5 -10.5h143v-113h-117v-597h-149v597z" />
    <glyph glyph-name="g.ss01" horiz-adv-x="570" 
d="M267 -205q-52 0 -95.5 14t-74.5 39t-48.5 60t-17.5 77v9q0 48 23.5 87t64.5 65q-35 26 -55.5 66t-20.5 91v21q0 46 15.5 84t44 65.5t69 42.5t89.5 15h26q40 0 76 -11h193v-115h-67q16 -38 16 -81v-21q0 -45 -16 -82t-44.5 -63.5t-69 -41.5t-90.5 -15q-48 -1 -80 -23.5
t-32 -64.5v-6q0 -43 29 -67t76 -24h11q53 0 88 31.5t40 82.5l125 -26q-10 -97 -76 -153t-177 -56h-22zM279 209q40 0 64 27t24 71v18q0 44 -24 70.5t-64 26.5h-9q-41 0 -65 -26.5t-24 -70.5v-18q0 -45 24 -71.5t65 -26.5h9z" />
    <glyph glyph-name="uni01F5.ss01" horiz-adv-x="570" 
d="M267 -205q-52 0 -95.5 14t-74.5 39t-48.5 60t-17.5 77v9q0 48 23.5 87t64.5 65q-35 26 -55.5 66t-20.5 91v21q0 46 15.5 84t44 65.5t69 42.5t89.5 15h26q40 0 76 -11h193v-115h-67q16 -38 16 -81v-21q0 -45 -16 -82t-44.5 -63.5t-69 -41.5t-90.5 -15q-48 -1 -80 -23.5
t-32 -64.5v-6q0 -43 29 -67t76 -24h11q53 0 88 31.5t40 82.5l125 -26q-10 -97 -76 -153t-177 -56h-22zM279 209q40 0 64 27t24 71v18q0 44 -24 70.5t-64 26.5h-9q-41 0 -65 -26.5t-24 -70.5v-18q0 -45 24 -71.5t65 -26.5h9zM213 576l57 164h130l-76 -164h-111z" />
    <glyph glyph-name="gbreve.ss01" horiz-adv-x="570" 
d="M267 -205q-52 0 -95.5 14t-74.5 39t-48.5 60t-17.5 77v9q0 48 23.5 87t64.5 65q-35 26 -55.5 66t-20.5 91v21q0 46 15.5 84t44 65.5t69 42.5t89.5 15h26q40 0 76 -11h193v-115h-67q16 -38 16 -81v-21q0 -45 -16 -82t-44.5 -63.5t-69 -41.5t-90.5 -15q-48 -1 -80 -23.5
t-32 -64.5v-6q0 -43 29 -67t76 -24h11q53 0 88 31.5t40 82.5l125 -26q-10 -97 -76 -153t-177 -56h-22zM279 209q40 0 64 27t24 71v18q0 44 -24 70.5t-64 26.5h-9q-41 0 -65 -26.5t-24 -70.5v-18q0 -45 24 -71.5t65 -26.5h9zM221 720q0 -23 14 -37.5t39 -14.5q26 0 39.5 14.5
t13.5 37.5h119q0 -66 -46 -106t-126 -40q-79 0 -125.5 40t-46.5 106h119z" />
    <glyph glyph-name="gcircumflex.ss01" horiz-adv-x="570" 
d="M267 -205q-52 0 -95.5 14t-74.5 39t-48.5 60t-17.5 77v9q0 48 23.5 87t64.5 65q-35 26 -55.5 66t-20.5 91v21q0 46 15.5 84t44 65.5t69 42.5t89.5 15h26q40 0 76 -11h193v-115h-67q16 -38 16 -81v-21q0 -45 -16 -82t-44.5 -63.5t-69 -41.5t-90.5 -15q-48 -1 -80 -23.5
t-32 -64.5v-6q0 -43 29 -67t76 -24h11q53 0 88 31.5t40 82.5l125 -26q-10 -97 -76 -153t-177 -56h-22zM279 209q40 0 64 27t24 71v18q0 44 -24 70.5t-64 26.5h-9q-41 0 -65 -26.5t-24 -70.5v-18q0 -45 24 -71.5t65 -26.5h9zM340 589l-55 56h-18l-55 -56h-130l112 131h164
l112 -131h-130z" />
    <glyph glyph-name="uni0123.ss01" horiz-adv-x="570" 
d="M267 -205q-52 0 -95.5 14t-74.5 39t-48.5 60t-17.5 77v9q0 48 23.5 87t64.5 65q-35 26 -55.5 66t-20.5 91v21q0 46 15.5 84t44 65.5t69 42.5t89.5 15h26q40 0 76 -11h193v-115h-67q16 -38 16 -81v-21q0 -45 -16 -82t-44.5 -63.5t-69 -41.5t-90.5 -15q-48 -1 -80 -23.5
t-32 -64.5v-6q0 -43 29 -67t76 -24h11q53 0 88 31.5t40 82.5l125 -26q-10 -97 -76 -153t-177 -56h-22zM279 209q40 0 64 27t24 71v18q0 44 -24 70.5t-64 26.5h-9q-41 0 -65 -26.5t-24 -70.5v-18q0 -45 24 -71.5t65 -26.5h9zM331 714q-14 -8 -23 -20t-10 -25q21 -4 32 -18.5
t11 -34.5q0 -23 -15.5 -40.5t-47.5 -17.5q-33 0 -51 20.5t-18 50.5q0 32 20 66.5t59 55.5z" />
    <glyph glyph-name="gdotaccent.ss01" horiz-adv-x="570" 
d="M267 -205q-52 0 -95.5 14t-74.5 39t-48.5 60t-17.5 77v9q0 48 23.5 87t64.5 65q-35 26 -55.5 66t-20.5 91v21q0 46 15.5 84t44 65.5t69 42.5t89.5 15h26q40 0 76 -11h193v-115h-67q16 -38 16 -81v-21q0 -45 -16 -82t-44.5 -63.5t-69 -41.5t-90.5 -15q-48 -1 -80 -23.5
t-32 -64.5v-6q0 -43 29 -67t76 -24h11q53 0 88 31.5t40 82.5l125 -26q-10 -97 -76 -153t-177 -56h-22zM279 209q40 0 64 27t24 71v18q0 44 -24 70.5t-64 26.5h-9q-41 0 -65 -26.5t-24 -70.5v-18q0 -45 24 -71.5t65 -26.5h9zM276 593q-38 0 -61.5 20.5t-23.5 55.5
q0 34 23.5 55.5t61.5 21.5q39 0 63.5 -21.5t24.5 -55.5q0 -35 -24.5 -55.5t-63.5 -20.5z" />
    <glyph glyph-name="l.ss01" horiz-adv-x="317" 
d="M192 -7q-69 0 -103.5 39.5t-34.5 124.5v563h149v-534q0 -39 10.5 -53.5t36.5 -14.5q14 0 28 2t24 4v-113q-22 -8 -51.5 -13t-58.5 -5z" />
    <glyph glyph-name="lacute.ss01" horiz-adv-x="317" 
d="M192 -7q-69 0 -103.5 39.5t-34.5 124.5v563h149v-534q0 -39 10.5 -53.5t36.5 -14.5q14 0 28 2t24 4v-113q-22 -8 -51.5 -13t-58.5 -5zM181 760h-113l55 152h139z" />
    <glyph glyph-name="lcaron.ss01" horiz-adv-x="317" 
d="M192 -7q-69 0 -103.5 39.5t-34.5 124.5v563h149v-534q0 -39 10.5 -53.5t36.5 -14.5q14 0 28 2t24 4v-113q-22 -8 -51.5 -13t-58.5 -5zM271 720h123l-39 -171h-92z" />
    <glyph glyph-name="uni013C.ss01" horiz-adv-x="317" 
d="M192 -7q-69 0 -103.5 39.5t-34.5 124.5v563h149v-534q0 -39 10.5 -53.5t36.5 -14.5q14 0 28 2t24 4v-113q-22 -8 -51.5 -13t-58.5 -5zM132 -40h126l-65 -155h-97z" />
    <glyph glyph-name="ldot.ss01" horiz-adv-x="435" 
d="M191 -7q-69 0 -103.5 39.5t-34.5 124.5v563h149v-534q0 -39 10.5 -53.5t36.5 -14.5q14 0 28 2t23 4v-113q-21 -8 -51 -13t-58 -5zM350 295q-38 0 -61.5 20.5t-23.5 54.5t23.5 55.5t61.5 21.5q39 0 63.5 -21.5t24.5 -55.5t-24.5 -54.5t-63.5 -20.5z" />
    <glyph glyph-name="lslash.ss01" horiz-adv-x="343" 
d="M17 357l73 36v327h149v-255l83 41v-109l-83 -41v-170q0 -39 10.5 -53.5t36.5 -14.5q14 0 28 2t24 4v-113q-22 -8 -51.5 -13t-58.5 -5q-69 0 -103.5 39.5t-34.5 124.5v127l-73 -36v109z" />
    <glyph glyph-name="oe.ss01" horiz-adv-x="934" 
d="M285 -11q-56 0 -103 19t-80.5 52.5t-52.5 80.5t-19 104v30q0 57 19 104t52.5 80.5t80.5 52.5t103 19h10q59 0 107 -20.5t82 -57.5q34 37 80.5 57.5t101.5 20.5h16q48 0 88.5 -13.5t69.5 -38t45.5 -58t16.5 -73.5q0 -66 -49 -99t-155 -33h-142q10 -54 44 -80t79 -26h13
q36 0 69 15.5t59 42.5l79 -84q-17 -21 -41 -38.5t-52.5 -30t-59.5 -19.5t-63 -7h-16q-57 0 -104.5 19.5t-81.5 54.5q-34 -35 -81.5 -54.5t-104.5 -19.5h-10zM295 100q51 0 81 41t30 110v23q0 67 -30 106.5t-81 39.5h-9q-51 0 -81 -39.5t-30 -106.5v-23q0 -69 30 -110t81 -41
h9zM687 307q43 0 61.5 13.5t18.5 36.5q0 25 -21.5 44t-66.5 19h-6q-49 0 -80.5 -31t-40.5 -82h135z" />
    <glyph glyph-name="p.ss01" horiz-adv-x="609" 
d="M63 520h118q7 -16 11.5 -41t4.5 -42v-5q26 44 71 71t100 27h9q94 0 146.5 -64t52.5 -177v-23q0 -61 -20 -112t-56 -88t-86 -57t-110 -20h-9q-40 0 -83 16v-195h-149v710zM300 101q53 0 88 43t35 117v14q0 63 -25 100t-72 37h-6q-23 0 -43 -10.5t-35 -29t-23.5 -43.5
t-8.5 -54v-151q14 -11 37 -17t49 -6h4z" />
    <glyph glyph-name="q.ss01" horiz-adv-x="605" 
d="M399 65q-26 -34 -67 -54.5t-88 -20.5h-10q-46 0 -83 17t-62.5 48t-39.5 76t-14 100v23q0 62 20 112.5t56 87.5t86 57t110 20h9q67 0 129 -24.5t103 -65.5v-631h-149v255zM291 108q23 0 43 10.5t35 29t23.5 43.5t8.5 54v151q-14 11 -37 17t-49 6h-2q-54 0 -89 -43
t-35 -117v-14q0 -63 24.5 -100t71.5 -37h6z" />
    <glyph glyph-name="germandbls.ss01" horiz-adv-x="626" 
d="M87 407h-67v96q14 5 32.5 9.5t34.5 6.5q3 44 21.5 80.5t50 62.5t75 41t95.5 15q53 0 96 -14t73.5 -39t47.5 -60t17 -78q0 -45 -17.5 -80.5t-48.5 -60.5q47 -27 73.5 -75.5t26.5 -113.5q0 -47 -14 -85.5t-40.5 -65.5t-63.5 -42t-83 -15q-30 0 -61 6t-51 16v114
q11 -5 29 -8t34 -3q46 0 74 28.5t28 77.5q0 48 -27 77.5t-72 29.5h-52v93h44q34 3 55 28t21 63q0 42 -24.5 66.5t-63.5 24.5q-43 0 -68.5 -27t-25.5 -73v-692h-149v597z" />
    <glyph glyph-name="t.ss01" horiz-adv-x="381" 
d="M233 -7q-72 0 -115.5 42t-43.5 132q0 63 5 119.5t18 118.5h-85v99q13 5 32 9t36 6v121l149 18v-138h129v-115h-128q-3 -44 -5 -92t-2 -117q0 -43 14.5 -60.5t43.5 -17.5q17 0 42 4t40 7v-113q-13 -6 -29.5 -10t-34 -7t-35 -4.5t-31.5 -1.5z" />
    <glyph glyph-name="tbar.ss01" horiz-adv-x="394" 
d="M26 330h62q3 18 6 36.5t7 38.5h-85v99q13 5 32 9t36 6v121l149 18v-138h129v-115h-128q-2 -18 -2.5 -36.5t-2.5 -38.5h114v-99h-116v-35q0 -43 14.5 -60.5t43.5 -17.5q17 0 42 4t40 7v-113q-13 -6 -29.5 -10t-34 -7t-35 -4.5t-31.5 -1.5q-72 0 -115.5 42t-43.5 132v32.5
t1 31.5h-53v99z" />
    <glyph glyph-name="tcaron.ss01" horiz-adv-x="402" 
d="M233 -7q-72 0 -115.5 42t-43.5 132q0 63 5 119.5t18 118.5h-85v99q13 5 32 9t36 6v121l149 18v-138h129v-115h-128q-3 -44 -5 -92t-2 -117q0 -43 14.5 -60.5t43.5 -17.5q17 0 42 4t40 7v-113q-13 -6 -29.5 -10t-34 -7t-35 -4.5t-31.5 -1.5zM304 720h123l-39 -171h-92z
" />
    <glyph glyph-name="uni0163.ss01" horiz-adv-x="381" 
d="M233 -7q-72 0 -115.5 42t-43.5 132q0 63 5 119.5t18 118.5h-85v99q13 5 32 9t36 6v121l149 18v-138h129v-115h-128q-3 -44 -5 -92t-2 -117q0 -43 14.5 -60.5t43.5 -17.5q17 0 42 4t40 7v-113q-13 -6 -29.5 -10t-34 -7t-35 -4.5t-31.5 -1.5zM194 -185q-28 0 -55 7l8 75
q13 -5 26 -5q16 0 23 6.5t7 14.5q0 11 -9 19t-34 8l25 60h82l-14 -28q26 -9 39 -27t13 -42q0 -16 -7 -31.5t-21 -28t-35 -20.5t-48 -8z" />
    <glyph glyph-name="uni021B.ss01" horiz-adv-x="381" 
d="M233 -7q-72 0 -115.5 42t-43.5 132q0 63 5 119.5t18 118.5h-85v99q13 5 32 9t36 6v121l149 18v-138h129v-115h-128q-3 -44 -5 -92t-2 -117q0 -43 14.5 -60.5t43.5 -17.5q17 0 42 4t40 7v-113q-13 -6 -29.5 -10t-34 -7t-35 -4.5t-31.5 -1.5zM176 -40h126l-65 -155h-97z
" />
    <glyph glyph-name="f_f.ss01" horiz-adv-x="686" 
d="M87 407h-67v97q11 4 24 7t26 5q-2 11 -3 23t-1 25q0 34 12 62.5t34 48.5t53 31.5t68 11.5q28 0 60.5 -5.5t55.5 -15.5v-115q-38 16 -76 16q-29 0 -47 -13t-18 -36q0 -17 3 -29h175q-2 11 -3 22t-1 22q0 34 12 62.5t34 48.5t53 31.5t68 11.5q28 0 60.5 -5.5t55.5 -15.5
v-115q-38 16 -75 16q-31 0 -48.5 -13.5t-17.5 -38.5q0 -8 0.5 -14.5t1.5 -11.5h143v-113h-117v-597h-149v597h-167v-597h-149v597z" />
    <glyph glyph-name="f_f_i.ss01" horiz-adv-x="919" 
d="M781 590q-38 0 -61 20.5t-23 55.5q0 34 23 55.5t61 21.5t62 -21.5t24 -55.5q0 -35 -24 -55.5t-62 -20.5zM708 407h-156v-597h-149v597h-167v-597h-149v597h-67v97q11 4 24 7t26 5q-2 11 -3 23t-1 25q0 34 12 62.5t34 48.5t53 31.5t68 11.5q28 0 60.5 -5.5t55.5 -15.5
v-115q-38 16 -76 16q-31 0 -48 -13.5t-17 -39.5q0 -7 0.5 -13.5t1.5 -11.5h176q-2 11 -3 22t-1 22q0 34 12 62.5t34 48.5t53 31.5t68 11.5q28 0 60.5 -5.5t55.5 -15.5v-115q-38 16 -74 16q-31 0 -49 -13.5t-18 -38.5q0 -8 0.5 -14t1.5 -12h331v-520h-149v407z" />
    <glyph glyph-name="f_f_l.ss01" horiz-adv-x="969" 
d="M844 -7q-69 0 -103.5 39.5t-34.5 124.5v417q-20 10 -50.5 19t-59.5 9q-37 0 -54.5 -16t-17.5 -39q0 -8 0.5 -14.5t1.5 -12.5h129v-113h-103v-597h-149v597h-167v-597h-149v597h-67v97q11 4 24 7t26 5q-2 11 -3 23t-1 25q0 34 12 62.5t34 48.5t53 31.5t68 11.5
q28 0 60.5 -5.5t55.5 -15.5v-115q-38 16 -76 16q-31 0 -48 -13t-17 -39q0 -8 0.5 -14t1.5 -12h176q-2 11 -3 22t-1 22q0 69 49.5 111.5t138.5 42.5q37 0 76 -7t76.5 -17.5t71.5 -24t61 -25.5v-458q0 -39 11 -53.5t37 -14.5q13 0 27.5 2t23.5 4v-113q-22 -8 -51.5 -13
t-58.5 -5z" />
    <glyph glyph-name="fi.ss01" horiz-adv-x="602" 
d="M463 590q-37 0 -60.5 20.5t-23.5 55.5q0 34 23.5 55.5t60.5 21.5q39 0 63 -21.5t24 -55.5q0 -35 -24 -55.5t-63 -20.5zM390 407h-155v-597h-149v597h-67v97q11 4 24 7t26 5q-4 20 -4 48q0 34 12 62.5t34 48.5t53 31.5t68 11.5q28 0 60.5 -5.5t55.5 -15.5v-115
q-40 16 -76 16q-33 0 -48.5 -14.5t-15.5 -38.5v-13.5t2 -11.5h329v-520h-149v407z" />
    <glyph glyph-name="fl.ss01" horiz-adv-x="653" 
d="M528 -7q-69 0 -103.5 39.5t-34.5 124.5v417q-20 10 -50.5 19t-59.5 9q-35 0 -53.5 -15t-18.5 -41q0 -8 0.5 -14t1.5 -12h129v-113h-103v-597h-149v597h-67v97q11 4 24 7t26 5q-2 11 -3 23t-1 25q0 69 49.5 111.5t137.5 42.5q38 0 77 -7t76.5 -17.5t71.5 -24t61 -25.5
v-458q0 -39 10.5 -53.5t36.5 -14.5q14 0 28 2t24 4v-113q-22 -8 -51.5 -13t-58.5 -5z" />
    <glyph glyph-name="uni0410.ss01" horiz-adv-x="653" 
d="M1 0q0 88 20 176.5t57.5 176.5t91.5 175t121 172h162l180 -700h-165l-34 146h-256q-8 -36 -12 -72.5t-4 -73.5h-161zM405 275l-58 257h-14q-34 -56 -67 -124.5t-57 -132.5h196z" />
    <glyph glyph-name="uni0416.ss01" horiz-adv-x="896" 
d="M373 328h-11l-180 -328h-181l225 374q-25 24 -48.5 53t-46.5 68t-47 89t-50 116h165q54 -192 163 -292h11v292h150v-292h11q109 100 163 292h165q-26 -66 -50 -116t-47 -89t-46 -68t-49 -53l225 -374h-181l-180 328h-11v-328h-150v328z" />
    <glyph glyph-name="uni041A.ss01" horiz-adv-x="659" 
d="M74 700h156v-292h8q77 52 134 128t83 164h165q-45 -116 -105.5 -195t-136.5 -131l279 -374h-187l-232 328h-8v-328h-156v700z" />
    <glyph glyph-name="uni041C.ss01" horiz-adv-x="873" 
d="M48 0q0 93 9.5 189.5t27 188t42 174t53.5 148.5h162l87 -404h6l155 404h212v-700h-157v503h-6l-164 -410h-118l-91 410h-7q-12 -33 -21.5 -84.5t-16.5 -117t-10 -142t-2 -159.5h-161z" />
    <glyph glyph-name="uni0423.ss01" horiz-adv-x="608" 
d="M219 -13q-26 0 -58.5 4.5t-60.5 14.5v131q15 -7 39.5 -13t47.5 -6q20 0 37 6t28 20l-252 556h170l164 -392h9q18 39 32.5 89.5t24.5 104t16 105t8 93.5h158q-3 -41 -16 -103.5t-32 -133t-43 -142t-50 -130.5q-22 -55 -45 -93.5t-49.5 -63t-58 -36t-69.5 -11.5z" />
    <glyph glyph-name="uni040E.ss01" horiz-adv-x="608" 
d="M219 -13q-26 0 -58.5 4.5t-60.5 14.5v131q15 -7 39.5 -13t47.5 -6q20 0 37 6t28 20l-252 556h170l164 -392h9q18 39 32.5 89.5t24.5 104t16 105t8 93.5h158q-3 -41 -16 -103.5t-32 -133t-43 -142t-50 -130.5q-22 -55 -45 -93.5t-49.5 -63t-58 -36t-69.5 -11.5zM259 897
q0 -23 13.5 -37.5t39.5 -14.5q25 0 38.5 14.5t13.5 37.5h120q0 -66 -46.5 -106t-125.5 -40q-80 0 -126.5 40t-46.5 106h120z" />
    <glyph glyph-name="uni0425.ss01" horiz-adv-x="641" 
d="M8 0q18 57 38.5 104.5t45 90t54 83t65.5 82.5v6l-195 334h178l128 -242q45 55 78 119.5t45 122.5h175q-33 -97 -81 -178t-111 -156v-6l205 -360h-178l-137 272q-44 -57 -79 -128.5t-51 -143.5h-180z" />
    <glyph glyph-name="uni042F.ss01" horiz-adv-x="626" 
d="M36 0q2 38 11.5 75t25 71.5t36 65t43.5 55.5q-60 28 -95 78.5t-35 118.5v16q0 52 19 92.5t53.5 69t83.5 43.5t109 15h265v-700h-157v238h-106q-39 -43 -63.5 -100t-29.5 -138h-160zM401 570h-102q-59 0 -91 -25t-32 -72v-10q0 -47 32 -77t93 -30h100v214z" />
    <glyph glyph-name="uni0430.ss01" horiz-adv-x="604" 
d="M234 -10q-94 0 -147.5 64t-53.5 177v23q0 62 20 112.5t56 87.5t86 57t110 20h9q68 0 130 -24.5t102 -65.5v-441h-118q-5 16 -10 40.5t-6 42.5v3q-24 -44 -68.5 -70t-99.5 -26h-10zM290 108q23 0 42.5 10.5t34.5 29t23.5 43.5t8.5 54v152q-14 11 -37 16.5t-48 5.5h-3
q-54 0 -89 -43t-35 -117v-14q0 -63 24.5 -100t71.5 -37h7z" />
    <glyph glyph-name="uni0432.ss01" horiz-adv-x="550" 
d="M58 443q43 40 104.5 65t124.5 25h11q42 0 77.5 -10t61.5 -28.5t40.5 -45t14.5 -58.5v-18q0 -31 -15 -56.5t-42 -44.5q38 -17 59 -48t21 -68v-15q0 -31 -12.5 -56.5t-36 -44.5t-55.5 -29.5t-71 -10.5h-282v443zM273 310q36 0 57 14.5t21 39.5v10q0 24 -17 36.5t-48 12.5
h-6q-22 0 -44 -7t-36 -17v-89h73zM295 98q37 0 58.5 15.5t21.5 41.5v12q0 27 -20.5 40.5t-58.5 13.5h-96v-123h95z" />
    <glyph glyph-name="uni0434.ss01" horiz-adv-x="594" 
d="M8 111h45q23 36 32.5 136t9.5 273h212q200 0 200 -196v-213h72v-239h-141v128h-289v-128h-141v239zM357 111v189q0 53 -19 79t-64 26h-37q-3 -121 -13.5 -193t-27.5 -101h161z" />
    <glyph glyph-name="uni0435.ss01" horiz-adv-x="568" 
d="M303 -11q-58 0 -107 19t-84.5 53t-55.5 81t-20 103v19q0 57 20 105.5t55 84.5t83 56.5t105 20.5h15q50 0 92.5 -13.5t73.5 -38t48 -58t17 -74.5q0 -65 -49 -98.5t-151 -33.5h-161q9 -51 45.5 -79t84.5 -28h14q38 0 73 17t64 45l80 -86q-18 -20 -43 -37.5t-55 -30
t-62.5 -20t-65.5 -7.5h-16zM325 306q40 0 58 13.5t18 35.5q0 28 -23.5 47.5t-68.5 19.5h-4q-50 0 -82.5 -32.5t-39.5 -83.5h142z" />
    </font>
</defs>
</svg>
